<svg xmlns="http://www.w3.org/2000/svg" xmlns:xlink="http://www.w3.org/1999/xlink" width="603.43" height="669.41" viewBox="0 0 603.43 669.41"><defs><linearGradient id="a" x1="0.516" y1="0.997" x2="0.492" y2="0.001" gradientUnits="objectBoundingBox"><stop offset="0" stop-color="#779dea"/><stop offset="0.12" stop-color="#8babed"/><stop offset="0.38" stop-color="#afc5f3"/><stop offset="0.61" stop-color="#c8d7f7"/><stop offset="0.83" stop-color="#d8e2f9"/><stop offset="1" stop-color="#dde6fa"/></linearGradient><linearGradient id="b" x1="0.129" y1="0.564" x2="1.005" y2="0.478" gradientUnits="objectBoundingBox"><stop offset="0" stop-color="#366fe0"/><stop offset="0.25" stop-color="#366fe0"/><stop offset="0.45" stop-color="#2f63d1"/><stop offset="0.84" stop-color="#1b43a9"/><stop offset="1" stop-color="#123597"/></linearGradient><linearGradient id="c" x1="0.164" y1="0.54" x2="0.825" y2="0.457" gradientUnits="objectBoundingBox"><stop offset="0" stop-color="#123597"/><stop offset="0.16" stop-color="#1b43a9"/><stop offset="0.55" stop-color="#2f63d1"/><stop offset="0.75" stop-color="#366fe0"/><stop offset="1" stop-color="#366fe0"/></linearGradient><linearGradient id="d" x1="-0.013" y1="0.534" x2="1.031" y2="0.478" gradientUnits="objectBoundingBox"><stop offset="0" stop-color="#dde6fa"/><stop offset="0.17" stop-color="#d8e2f9"/><stop offset="0.39" stop-color="#c8d7f7"/><stop offset="0.62" stop-color="#afc5f3"/><stop offset="0.88" stop-color="#8babed"/><stop offset="1" stop-color="#779dea"/></linearGradient><linearGradient id="e" x1="0.059" y1="0.75" x2="1.029" y2="0.387" gradientUnits="objectBoundingBox"><stop offset="0" stop-color="#4e54c8"/><stop offset="1" stop-color="#8f94fb"/></linearGradient><linearGradient id="f" x1="0.329" y1="0.589" x2="0.879" y2="0.331" xlink:href="#e"/><linearGradient id="g" x1="0.05" y1="0.67" x2="0.625" y2="0.356" xlink:href="#d"/><linearGradient id="h" x1="0.834" y1="1.047" x2="0.187" y2="-0.039" xlink:href="#e"/><linearGradient id="i" x1="0.619" y1="0.767" x2="0.619" y2="-0.226" xlink:href="#e"/><linearGradient id="j" x1="0.013" y1="0.874" x2="1.02" y2="0.246" gradientUnits="objectBoundingBox"><stop offset="0" stop-color="#366fe0"/><stop offset="0.7" stop-color="#94cbff"/><stop offset="1" stop-color="#94cbff"/></linearGradient><linearGradient id="k" x1="0.516" y1="-1.776" x2="1.507" y2="-1.776" xlink:href="#e"/><linearGradient id="l" x1="0.607" y1="0.988" x2="0.393" y2="-0.048" gradientUnits="objectBoundingBox"><stop offset="0" stop-color="#4e54c8"/><stop offset="0.22" stop-color="#555acd"/><stop offset="0.53" stop-color="#676ddc"/><stop offset="0.9" stop-color="#858af3"/><stop offset="1" stop-color="#8f94fb"/></linearGradient><linearGradient id="m" x1="-0.008" y1="0.592" x2="1.009" y2="0.442" xlink:href="#a"/><linearGradient id="n" x1="-0.01" y1="0.581" x2="1.01" y2="0.419" xlink:href="#c"/><linearGradient id="o" x1="0.032" y1="0.66" x2="1.009" y2="0.271" xlink:href="#d"/><linearGradient id="p" x1="0.05" y1="0.903" x2="0.953" y2="0.358" xlink:href="#c"/><linearGradient id="q" x1="0.068" y1="0.723" x2="0.933" y2="0.324" xlink:href="#c"/><linearGradient id="r" x1="0.277" y1="0.662" x2="0.693" y2="0.411" gradientUnits="objectBoundingBox"><stop offset="0" stop-color="#fb9f02"/><stop offset="0.32" stop-color="#fb9f02"/><stop offset="1" stop-color="#fc4c5c"/></linearGradient><linearGradient id="s" x1="-2.012" y1="0.444" x2="-1.029" y2="0.444" xlink:href="#r"/><linearGradient id="t" x1="0.024" y1="0.691" x2="1.002" y2="0.208" xlink:href="#c"/><linearGradient id="u" x1="0.011" y1="0.524" x2="0.99" y2="0.477" gradientUnits="objectBoundingBox"><stop offset="0" stop-color="#fff"/><stop offset="0.12" stop-color="#f8fefc"/><stop offset="0.3" stop-color="#e5fcf2"/><stop offset="0.51" stop-color="#c5f8e2"/><stop offset="0.75" stop-color="#99f3cc"/><stop offset="1" stop-color="#64edb2"/></linearGradient><linearGradient id="v" x1="-0.012" y1="0.549" x2="1.011" y2="0.446" gradientUnits="objectBoundingBox"><stop offset="0" stop-color="#94cbff"/><stop offset="0.3" stop-color="#94cbff"/><stop offset="1" stop-color="#366fe0"/></linearGradient><linearGradient id="w" x1="-0.003" y1="0.535" x2="1.003" y2="0.465" xlink:href="#e"/><linearGradient id="x" x1="-0.033" y1="0.624" x2="1.004" y2="0.324" xlink:href="#d"/><linearGradient id="y" x1="0.025" y1="0.751" x2="0.973" y2="0.372" xlink:href="#d"/><linearGradient id="z" x1="0.184" y1="0.676" x2="0.884" y2="0.27" xlink:href="#c"/><linearGradient id="aa" x1="0.055" y1="0.697" x2="0.61" y2="0.322" xlink:href="#d"/><linearGradient id="ab" x1="0.23" y1="0.734" x2="0.81" y2="-0.225" xlink:href="#c"/><linearGradient id="ac" x1="0.341" y1="0.521" x2="0.609" y2="0.331" xlink:href="#c"/><linearGradient id="ad" x1="0.559" y1="1.008" x2="0.477" y2="0.021" xlink:href="#c"/><linearGradient id="ae" x1="0" y1="0.5" x2="1" y2="0.5" xlink:href="#a"/><linearGradient id="af" y1="0.5" x2="1" y2="0.5" gradientUnits="objectBoundingBox"><stop offset="0" stop-color="#64edb2"/><stop offset="0.25" stop-color="#99f3cc"/><stop offset="0.49" stop-color="#c5f8e2"/><stop offset="0.7" stop-color="#e5fcf2"/><stop offset="0.88" stop-color="#f8fefc"/><stop offset="1" stop-color="#fff"/></linearGradient><linearGradient id="ag" x1="0.999" y1="0.292" x2="-0.032" y2="0.621" gradientUnits="objectBoundingBox"><stop offset="0" stop-color="#2a5bc7"/><stop offset="0.13" stop-color="#2452bc"/><stop offset="0.42" stop-color="#1a42a7"/><stop offset="0.71" stop-color="#14389b"/><stop offset="1" stop-color="#123597"/></linearGradient><linearGradient id="ah" x1="1.034" y1="0.23" x2="-0.049" y2="0.65" xlink:href="#j"/><linearGradient id="ai" x1="1.022" y1="0.171" x2="-0.054" y2="0.584" xlink:href="#j"/><linearGradient id="aj" x1="0.996" y1="0.029" x2="-0.007" y2="0.843" xlink:href="#j"/><linearGradient id="ak" x1="0.938" y1="-0.505" x2="-0.039" y2="0.27" xlink:href="#j"/><linearGradient id="al" x1="0.975" y1="0.273" x2="-0.278" y2="0.35" xlink:href="#j"/><linearGradient id="am" x1="0.727" y1="0.053" x2="-0.162" y2="0.155" xlink:href="#j"/><linearGradient id="an" x1="0.184" y1="-0.743" x2="0.174" y2="-0.741" xlink:href="#j"/><linearGradient id="ao" x1="0.716" y1="-0.235" x2="-0.136" y2="-0.072" xlink:href="#j"/><linearGradient id="ap" x1="0.181" y1="-0.725" x2="0.171" y2="-0.722" xlink:href="#j"/><linearGradient id="aq" x1="0.387" y1="-0.054" x2="0.612" y2="1.031" gradientUnits="objectBoundingBox"><stop offset="0" stop-color="#9cb7f0"/><stop offset="0.03" stop-color="#9fb9f1"/><stop offset="0.26" stop-color="#bacdf5"/><stop offset="0.5" stop-color="#cedbf8"/><stop offset="0.75" stop-color="#d9e3f9"/><stop offset="1" stop-color="#dde6fa"/></linearGradient></defs><g transform="translate(0 -0.98)"><path d="M341.913,48.489a71.15,71.15,0,0,0,62.06,41.89c41.7,1.69,93.5,13.23,93.67,60.1.3,78.49-135.09,356-328.23,316.8s-107.35-187-85.24-219.49-132.45-53.33-68.6-127.94C73.453,52.249,290.193-67.441,341.913,48.489Z" transform="translate(54.427 96.441)" fill="url(#a)"/><path d="M48.42,146.8s81.85-17.89,122.47,11.7,110,16.84,158.86-74.83l-28.53-5.73L391.69,0l9.3,94.81-28.92-6.68c-67.51,126.8-196.51,154.25-252.73,113.31S0,191.03,0,191.03Z" transform="translate(202.44 166.5)" fill="#fff"/><path d="M68.226,13.37l-42.21,32.4,11.43,25.11,62.12,136.45a.1.1,0,0,1,0,.05l-20.5,8.3a17.43,17.43,0,0,1-22.71-9.62l-54.08-134a31.42,31.42,0,0,1,13.79-39.14L74.986,0l4,7.7Z" transform="translate(125.184 156.45)" fill="url(#b)"/><path d="M99.542,160.711l-20.5,8.3a17.43,17.43,0,0,1-22.71-9.62l-54.08-134A31.12,31.12,0,0,1,.772,6.881,33.83,33.83,0,0,1,16.242.051c4.73-.85,12.39,9,21.2,24.18,25.68,44.26,61.12,133.9,62.12,136.45a.1.1,0,0,1-.02.03Z" transform="translate(125.228 203.119)" fill="url(#c)"/><path d="M44.47,24.5C35.55,29.41,0,24.5,0,24.5L1.45,0,3.77,3.65l33,7.05,4.54,8.13L42.52,21l1.15,2.06Z" transform="translate(195.89 145)" fill="#f0beb4"/><path d="M38.75,17.35C27.3,21.45,4.2,10.73.07.49A3.43,3.43,0,0,1,0,0L33,7.05l4.54,8.13Z" transform="translate(199.66 148.65)" fill="#b48f87"/><path d="M45.916.477S25-2.013,17.376,4.387l-5,6.17s-10.85,5.51-9.53,9.31c0,0-6.7,14.43.46,18.56,2.79,4.35,9.48,10,9.48,10,4.09,6.85,18.61,11.83,27.63,10.89s11.55-9.11,13.39-21.46S45.916.477,45.916.477Z" transform="translate(185.304 100.783)" fill="#f0beb4"/><path d="M58.23,3.723,46.6,15.073c3.94,1.85,4.94,2.9,6.59,7.35a15.56,15.56,0,0,1,.43,2.07c1.7,7.92-4.49,14.45-4.49,14.45a7.6,7.6,0,0,1-5.05,3.08l-4.67.68L20.97,63.163l-.65.74-2.87,3.18L0,48.163c.8-.58,2-1.54,3.55-2.78l.76-.61c5.26-4.31,13.48-11.32,20.27-17.15l.83-.72c6.13-5.28,10.92-9.44,10.92-9.44s.75-.68,2-1.78h0l.74-.67c4.32-3.85,12.59-11.23,16.18-14.46a2.176,2.176,0,0,1,2.98,3.17Z" transform="translate(368.82 94.277)" fill="url(#d)"/><path d="M17.42,18.39l-.65.74L0,.61.76,0Z" transform="translate(372.37 139.03)" fill="#64edff"/><path d="M16.89,5.93a2.34,2.34,0,0,1-.54-2.16A4,4,0,0,0,14.49,0l-.74.67a3.08,3.08,0,0,1,1.62,3,3.32,3.32,0,0,0,.78,2.9,1.18,1.18,0,0,1,.31,1.29c-.27,1-8.57,4.13-13.81,4.22A6.42,6.42,0,0,1,.83,11.9L0,12.62a6.2,6.2,0,0,0,3,.43h.29c4.66-.29,13.69-3,14.11-5a2.08,2.08,0,0,0-.51-2.12Z" transform="translate(393.4 109.27)" fill="#999"/><path d="M137.26,16.1,103.19,62.88l-.32.44-.26.34-5,6.88-.26.35a20.68,20.68,0,0,1-16.1,7.69H79.98c-2.56,0-5.46-.1-8.58-.26h-.95c-2.67-.15-5.47-.38-8.35-.7-16.78-1.87-29.89-3.48-29.89-3.48L0,23.8s12.93.32,41.86,7.46c19,4.69,37.43,11.23,37.43,11.23L117.18,0Z" transform="translate(251.4 142.51)" fill="url(#e)"/><path d="M55.622,49.36a27.1,27.1,0,0,1-11.48,0L.442,39.94a.49.49,0,1,1,.21-.95l43.7,9.42a26.15,26.15,0,0,0,25.78-8.97L102.662,0a7.669,7.669,0,0,0,.75.62L70.882,40.06A27.15,27.15,0,0,1,55.622,49.36Z" transform="translate(277.208 151.56)" fill="#64edff"/><path d="M134.25,91.527a30.231,30.231,0,0,1,.36,3.56l.29,6.16v.98l4.86,103.83s-15.88,13.41-34.05,3L76.24,110.6,0,24.147s10.08-26.34,33.65-24l78.05,62.22.25.19.52.41,7.38,5.89,2.33,1.85a33.1,33.1,0,0,1,12.07,20.82Z" transform="translate(250.05 295.403)" fill="url(#f)"/><rect width="0.97" height="68.93" transform="translate(362.093 440.187) rotate(-8.3)" fill="#64edff"/><path d="M28.588,38.84v.98c-9.35,1.27-19-2.7-24.25-10.05-6.15-8.64-5.71-21.06,1-29.77l.25.19.52.41c-6.45,8.37-6.89,20.32-1,28.6C10.178,36.29,19.518,40.11,28.588,38.84Z" transform="translate(356.412 357.81)" fill="#64edff"/><path d="M17.56,22.63A14.14,14.14,0,0,1,3.16,0L5.49,1.85A33.1,33.1,0,0,1,17.56,22.63Z" transform="translate(366.74 364.3)" fill="url(#g)"/><path d="M187.97,92.66a65.6,65.6,0,0,1,3.49,7.79l.48,1.28.19.5.16.44,22.88,61.09c-15.26,15.24-29.16,16.06-37.08,14.74-6.5-12.71-23.17-40.47-29.38-46.5-7.23-7-.51-17-59-25C37.29,99.77,0,43.15,0,43.15L20.48,9l31-9L160.64,65.29l.3.17.55.33,2.19,1.31a63.908,63.908,0,0,1,6,4A65.64,65.64,0,0,1,187.97,92.66Z" transform="translate(210.83 310.81)" fill="url(#h)"/><path d="M162.72,137.75c1.57,8.16,2.64,18.76,2.64,18.76L69,189.25l-5-6.18a163.22,163.22,0,0,1-26.19-46.55L0,32.24,34.3,4.5,109.43,0s13.06,3.26,23,22.8C140.23,38.13,157,108.01,162.72,137.75Z" transform="translate(146.77 170.87)" fill="url(#i)"/><path d="M0,0S55.51,116,46.74,153.38" transform="translate(231.13 180.36)" fill="none" stroke="#64edff" stroke-miterlimit="10" stroke-width="0.97"/><path d="M0,29.81S85.61,14.9,108.57,0" transform="translate(201.69 311.59)" fill="none" stroke="gray" stroke-linecap="round" stroke-miterlimit="10" stroke-width="0.97"/><path d="M47.33,33.72l-1.41-.39c-.22-.06-24.35,7.1-45.92-20l.76-.61c18.2,22.89,39.33,21.34,44.19,19.89C31.28,13.82,24.14.45,24.09.18l1-.18c0,.27,7.17,13.94,21.4,32.59Z" transform="translate(234.18 337.98)" fill="#64edff"/><path d="M112.522.31C93.182,6.63,39.8,23.38,5.9,27.31a6.73,6.73,0,0,0-5.15,9.77l.19.37a6.64,6.64,0,0,0,7,3.6c16.85-2.85,74.16-13.21,109.19-28a6.73,6.73,0,0,0,4-7.35h0a6.67,6.67,0,0,0-8.61-5.39Z" transform="translate(200.118 314.75)" fill="url(#j)"/><path d="M75.12,7.751a28.13,28.13,0,0,1-3.13,2.13l-.62.37a53.64,53.64,0,0,1-10.28,4.5c-.21.06-.43.13-.64.21a65.38,65.38,0,0,1-12.07,2.49l-.7.07a74.21,74.21,0,0,1-11.4.26h-.73c-3.73-.2-7.14-.47-10.24-.78l-.75-.08c-3.81-.39-7.13-.83-10-1.3l-.71-.1c-3.47-.57-6.24-1.16-8.36-1.67-.26-.05-.49-.11-.72-.17A43.47,43.47,0,0,1,0,12.291L11.72,1.011a4.17,4.17,0,0,1,4.52-.57l.47.23.74.34a49.75,49.75,0,0,0,4.81,1.86l.7.21a53.19,53.19,0,0,0,9,2l.76.1a54,54,0,0,0,7.69.37h.73l1.43-.06q3.72-.24,6.61-.65l.7-.1a51.48,51.48,0,0,0,5.93-1.27l.66-.19a23,23,0,0,0,4.75-2c.25-.14.47-.28.66-.4a5.89,5.89,0,0,0,.56-.4A2.47,2.47,0,0,1,64.7.131C67.54,1.031,72.92,4.521,75.12,7.751Z" transform="translate(181.08 163.119)" fill="url(#k)"/><path d="M13.788,5.553a11.14,11.14,0,0,1-10.6,4.93,3.87,3.87,0,0,1-2.92-2c-.73-1.59.08-3.63,1.87-5.32a11.92,11.92,0,0,1,7-3.13c2.38-.2,4.36.52,5.07,2.06a3.74,3.74,0,0,1-.42,3.46Z" transform="translate(181.002 329.357)" fill="#878787"/><path d="M50.361,4.853c.15.77,3.31,19.23-13.91,36.94-3.69,3.79-7.27,5.57-10.41,6.24a15.33,15.33,0,0,1-6.18.06c-9.53-1.91-15.75-12.52-18.25-17.69-.65-1.33-1-2.3-1.19-2.67a5.73,5.73,0,0,1,.14-4.63,11.92,11.92,0,0,1,7-3.13,5.76,5.76,0,0,1,3.77,3.43c.26.65.58,1.35.93,2.07a39.86,39.86,0,0,0,3.69,6c2,2.6,4.19,4.69,6.25,5.09,1.68.34,3.67-.66,5.92-3,12.84-13.21,10.81-26.54,10.8-26.66a5.842,5.842,0,0,1,11.49-2.12Z" transform="translate(182.579 309.437)" fill="#fff"/><path d="M134.608,99.418l-45.65,22.95-.41.21-.57.28-6.78,3.41-2.72,1.37a22,22,0,0,1-28.29-7.56c-.3-.44-.59-.9-.9-1.36l-.32-.49-.33-.49c-14-21.27-35.66-55.16-42.39-70.74C.9,34.628-.522,26,.158,19.748a20,20,0,0,1,8.2-14.11l.81-.59c.76-.5,1.49-.94,2.19-1.31,8.58-4.61,15-5.38,22.55.1,3.07,2.22,6.22,5.64,9.58,10.57,9.16,13.46,30.24,69.87,30.24,69.87l48.15-11.53,6.37,13.39.21.44Z" transform="translate(141.642 194.302)" fill="url(#l)"/><path d="M154.49,1.89,150.1,5.75l-36.49.51L11.29,62.7H0l1.2,5.57,48.87-.69L162.48,5.57,161.29,0l-6.8,1.89Z" transform="translate(280.46 230.6)" fill="url(#m)"/><path d="M161.29,0,48.88,62.01,0,62.7,112.41.7,161.29,0Z" transform="translate(280.46 230.6)" fill="url(#n)"/><path d="M32.12,0,18.84,7.34,0,7.58,13.28.25,32.12,0Z" transform="translate(309.68 276.82)" fill="none" stroke="#64edff" stroke-miterlimit="10" stroke-width="1"/><path d="M32.12,0,18.84,7.33,0,7.57,13.28.24,32.12,0Z" transform="translate(333.23 263.45)" fill="none" stroke="#64edff" stroke-miterlimit="10" stroke-width="1"/><path d="M32.12,0,18.84,7.33,0,7.57,13.28.24,32.12,0Z" transform="translate(357.99 250.34)" fill="none" stroke="#64edff" stroke-miterlimit="10" stroke-width="1"/><path d="M32.13,0,18.84,7.33,0,7.58,13.28.25,32.13,0Z" transform="translate(382.22 238.43)" fill="none" stroke="#64edff" stroke-miterlimit="10" stroke-width="1"/><path d="M85.87,9.768v.05a2.36,2.36,0,0,1-2.58,1.61c-3.82-.56-11.94-1.66-12.45-1.73l14.79,6a1.8,1.8,0,0,1,1,2.34h0a1.83,1.83,0,0,1-2.07,1.14l-18.79-3.69,8.86,10.34a2.471,2.471,0,0,1-3.4,3.58l-2.35-2.08,1,2.45a2.67,2.67,0,0,1-1.5,3.45,3.84,3.84,0,0,1-.41.13,2.7,2.7,0,0,1-2.51-.78l-1.36-2.19a2.82,2.82,0,0,0-1.17-1.05l-5.79-2.78s-10.84,5.69-18.23,4.47l-21.75,13-1,.61L12.7,46.7,0,20.028l3.31-.89,1.17-.32,32.06-8.63.52-.27.58-.31.55-.3L51.8,1.958l.5-.28.4-.21,1.83-1a3.86,3.86,0,0,1,2.79-.35l.33.08,26.58,6.55a2.33,2.33,0,0,1,1.64,3.02Z" transform="translate(263.63 247.042)" fill="url(#o)"/><path d="M6.77,1.63,0,0" transform="translate(327.66 255.1)" fill="none"/><path d="M5.39,1.909,4.34.759A2.28,2.28,0,0,0,2.17.049L0,.5Z" transform="translate(323.98 260.651)" fill="url(#p)"/><path d="M15.6,7.258,9.88,1.4A4.62,4.62,0,0,0,6.3.008L0,.358Z" transform="translate(316.88 267.122)" fill="url(#q)"/><path d="M46.406,6.45a15.45,15.45,0,0,1,2.27,4.73,7,7,0,0,0,.21.69l16.74,52.52,2.47,7.78a9.07,9.07,0,0,0,2.54,3.93l44.86,40.4a15.89,15.89,0,0,1,1.86,2c.16.2.32.42.48.64a16.12,16.12,0,0,1,1.32,16.52,14,14,0,0,1-19.7,5.82l-36.8-19.72-13-7a15.31,15.31,0,0,1-1.79-1.06,16.66,16.66,0,0,1-3.56-3.4,15.64,15.64,0,0,1-1.8-2.9c-.91-1.86-2.36-5-4.07-8.66-2.75-5.93-6.14-13.28-8.9-18.95-8.19-16.86-17.57-36.24-19.5-40.4a19.92,19.92,0,0,0-6.73-8,7.89,7.89,0,0,1-3.19-7.77l.42-2.55h0c.48.95.93,1.83,1.34,2.62,7.92,1.32,21.82.5,37.08-14.74L35.606,0a15.76,15.76,0,0,1,10.8,6.45Z" transform="translate(386.964 465.61)" fill="url(#r)"/><path d="M36.668,0c7.58,11.79,9.57,49.82,10.08,64.73.12,3.77.15,6.06.15,6.06,24.54,39.23,28,60.25,25.77,71.39a.7.7,0,0,1,0,.14,8.41,8.41,0,0,1-15.17,2.86l-26.62-31.14-6.61-7.73a40.29,40.29,0,0,1-7.78-13.5c-.1-.32-.2-.63-.29-1a38,38,0,0,1-1.19-5c-.17-1-.39-2.68-.65-4.7-.73-5.83-1.7-14.51-2.41-18.43-2.8-15.46-6.5-34.41-9.23-42.52-5-14.81-1.57-18.43-1.57-18.43l.78-.5.82,2.75c18.17,10.38,34.05-3,34.05-3Z" transform="translate(353.082 499.44)" fill="url(#s)"/><path d="M40.7,0c7.61,11.85,10.15,47.62,11,66.54a6.81,6.81,0,0,1-5.25,6.9,51.93,51.93,0,0,1-29.22-1.14,7.07,7.07,0,0,1-4.68-5.42c-3-16.35-6.74-35-9.54-43.32S-.193,10.18.067,7.18A7.21,7.21,0,0,1,3.4,1.77h0l1.26,4.21C24.827,17.5,40.807,2.3,40.807,2.3Z" transform="translate(350.303 495.82)" fill="url(#t)"/><path d="M0,.51S32.53,20.87,70.81,11.16,103.81,0,103.81,0" transform="translate(169 183.49)" fill="none" stroke="#64edff" stroke-miterlimit="10" stroke-width="0.97"/><path d="M164.118,8.37l7.74,125.48a8.89,8.89,0,0,1-4.73,8.4l-146.36,77a8.89,8.89,0,0,1-13-7.32L.018,86.47a8.91,8.91,0,0,1,4.74-8.45l146.35-77a8.89,8.89,0,0,1,13.01,7.35Z" transform="translate(349.982 0.98)" opacity="0.8" fill="url(#u)"/><path d="M164.118,8.37l.36,5.81L.878,100.27l-.86-13.8a8.91,8.91,0,0,1,4.74-8.45l146.35-77a8.89,8.89,0,0,1,13.01,7.35Z" transform="translate(349.982 0.98)" fill="url(#v)"/><path d="M10.211,69.119,75.881,34.6a6,6,0,0,0,3.19-5.68l-1.44-23.3a6,6,0,0,0-8.76-4.94L3.2,35.219a6,6,0,0,0-3.19,5.67l1.44,23.3a6,6,0,0,0,8.76,4.93Z" transform="translate(410.229 142.081)" opacity="0.5" fill="url(#w)"/><path d="M32.74,3.947l-.32.44-.26.34a20.86,20.86,0,0,0-15.79-3.46C8.14,3.027,1.61,10.757.95,19.4H0c.66-9.06,7.51-17.17,16.16-19a21.63,21.63,0,0,1,16.58,3.55Z" transform="translate(321.85 201.443)" fill="#64edff"/><path d="M26.07,3.9l-.41.49a29.87,29.87,0,0,1-23.83,9.85L0,14.151A15.77,15.77,0,0,1,26.07,3.9Z" transform="translate(325.63 207.659)" fill="url(#x)"/><path d="M40.36,15.247l-.41.21-.57.28C35.65,5.557,24.91-.663,14.65,1.547a23.07,23.07,0,0,0-14,10l-.32-.49L0,10.567A24.09,24.09,0,0,1,14.38.447C25.15-1.8,36.4,4.637,40.36,15.247Z" transform="translate(190.24 301.423)" fill="#64edff"/><path d="M26.55,10.518l-2.72,1.37A22.06,22.06,0,0,1,0,9.288a13.87,13.87,0,0,1,26.55,1.23Z" transform="translate(196.29 310.052)" fill="url(#y)"/><path d="M120.31,81.99,79.86,97.65a30.77,30.77,0,0,1-4.78,1.43A32.25,32.25,0,0,1,39.48,81.8L0,.59.81,0,40.32,81.38A31.26,31.26,0,0,0,79.48,96.76l40.41-15.67h0l.17.46Z" transform="translate(150 199.35)" fill="#64edff"/><path d="M131.43,115.1l-.84.49L97.74,58.99a55.15,55.15,0,0,0-23.66-22L0,.87.42,0,74.51,36.1A56.25,56.25,0,0,1,98.59,58.5Z" transform="translate(279.88 370.33)" fill="#64edff"/><path d="M50.739,6.74a16.49,16.49,0,0,1,2.48,5.17c.07.26.15.51.23.75l17,53.36a6.58,6.58,0,0,1-2.07,7.06C54.439,84.61,43.509,87.27,36.5,87.33a6.51,6.51,0,0,1-5.87-3.71c-8.53-17.61-17.7-36.57-19.65-40.83a21.83,21.83,0,0,0-7.37-8.75,8.62,8.62,0,0,1-3.48-8.5l.46-2.79.85-3c.53,1,2.06,3.95,2.51,4.82,8.67,1.44,20.61,1.89,37.31-14.78L37.6,0C42.419.67,48.019,2.91,50.739,6.74Z" transform="translate(383.581 462.09)" fill="url(#z)"/><path d="M13.87,25.21l-1.02.61L0,.32,1.17,0l12.7,25.21Z" transform="translate(266.86 265.84)" fill="#64edff"/><path d="M38,36.44l.19.5.16.44c-11.32,7.22-26.39,4.59-34-6.08C-2.262,22.03-1.222,8.7,6.7,0L7,.17l.55.33c-7.73,8.38-8.79,21.28-2.4,30.24C12.358,40.9,27.228,43.39,38,36.44Z" transform="translate(364.772 376.1)" fill="#64edff"/><path d="M23.975,21.52a13.1,13.1,0,0,1-1.33,1.09A14.144,14.144,0,0,1,5.645,0,65.64,65.64,0,0,1,23.975,21.52Z" transform="translate(374.825 381.95)" fill="url(#aa)"/><path d="M16.06,28.23l.46,3.63L9.91,24.13a40.29,40.29,0,0,1-7.78-13.5A41.13,41.13,0,0,1,.65,4.7C.48,3.7.26,2.02,0,0L8,9.66a36,36,0,0,1,8.06,18.57Z" transform="translate(367.41 581.62)" fill="none" stroke="#64edff" stroke-miterlimit="10" stroke-width="0.97"/><path d="M22.5,19.42l1.72,3.6-13-7a15.31,15.31,0,0,1-1.79-1.06,16.59,16.59,0,0,1-5.36-6.3C3.16,6.8,1.71,3.66,0,0L10.44,6.18A30.8,30.8,0,0,1,22.5,19.42Z" transform="translate(425.4 564.36)" fill="none" stroke="#64edff" stroke-miterlimit="10" stroke-width="0.97"/><circle cx="2.69" cy="2.69" r="2.69" transform="translate(500.64 9.25)" fill="#fff"/><circle cx="2.69" cy="2.69" r="2.69" transform="translate(489.5 15.05)" fill="#fff"/><circle cx="2.69" cy="2.69" r="2.69" transform="translate(478.27 21.13)" fill="#fff"/><path d="M12.68.34c-5.63,3.6-9.36,9-11.61,12.34l-.35.5c-.26-.05-.49-.11-.72-.17.16-.24.33-.47.49-.72C2.73,9.02,6.41,3.67,11.94,0Z" transform="translate(185.84 163.75)" fill="#64edff"/><path d="M9.11.21,8.56.94C4.88,5.84,2.95,8.39.71,12.75L0,12.65C2.3,8.12,4.25,5.53,8,.53L8.4,0Z" transform="translate(194.89 165.95)" fill="#64edff"/><path d="M8.17.1C7.42,1.27,6.71,2.35,6.06,3.38c-2.28,3.53-4,6.25-5.31,8.55L0,11.85C1.32,9.48,3.11,6.68,5.48,3c.6-.94,1.25-1.93,1.93-3Z" transform="translate(205.64 168.15)" fill="#64edff"/><path d="M5.6,0C4.07,4.4,2.37,8.4,1.03,11.59c-.09.24-.2.48-.3.71H0l.4-.94c1.34-3.15,3-7,4.47-11.3Z" transform="translate(216.63 168.6)" fill="#64edff"/><path d="M2.21,0A72.5,72.5,0,0,1,.7,12.78l-.7.07A72.82,72.82,0,0,0,1.51.1Z" transform="translate(228.79 167.79)" fill="#64edff"/><path d="M5.27,11.54c-.21.06-.43.13-.64.21A123.13,123.13,0,0,0,0,.19L.66,0C2.33,3.67,4.01,7.87,5.27,11.54Z" transform="translate(236.9 166.33)" fill="#64edff"/><path d="M10.76,9.03l-.62.37A47.38,47.38,0,0,0,0,.4C.25.26.47.12.66,0a47.55,47.55,0,0,1,10.1,9.03Z" transform="translate(242.31 163.97)" fill="#64edff"/><path d="M.65.53.35.47h0Z" transform="translate(254.35 176.34)" fill="#64edff"/><path d="M19.809,15.98a1.88,1.88,0,0,0-.42,2.58c0,.07.06.14.09.23a1.59,1.59,0,0,1,0,1.54.76.76,0,0,1-.08.11,2,2,0,0,1-.63.51,1.49,1.49,0,0,1-.44.17c-1,.21-2.13-.54-3.53-1.46-2.18-1.42-4.88-3.19-8-2.05a4,4,0,0,1-4.28-1A9.75,9.75,0,0,1,.139,8.43l.58-.31.55-.3A8.85,8.85,0,0,0,3.2,15.91a3,3,0,0,0,3.27.79c3.61-1.31,6.67.7,8.9,2.16,1.29.84,2.4,1.57,3,1.25a1,1,0,0,0,.26-.18.38.38,0,0,0,.09-.08c.13-.16.1-.33-.12-.84l-.06-.16a2.76,2.76,0,0,1,.67-3.55c.95-.94.58-1.45-.34-2.53-.77-.89-1.73-2-1-3.54.52-1.11,0-1.72-.61-2.56a3.89,3.89,0,0,1-1.08-3.55A2.84,2.84,0,0,0,15.009.49l.5-.28.4-.21a3.56,3.56,0,0,1,1.21,3.34,2.93,2.93,0,0,0,.91,2.72c.7.91,1.5,1.93.72,3.58-.42.9.05,1.54.87,2.49S21.479,14.36,19.809,15.98Z" transform="translate(300.521 248.52)" fill="#64edff"/><path d="M73.53,8.84a16.12,16.12,0,0,1,1.32,16.52,14,14,0,0,1-19.7,5.82L18.35,11.46l-13-7A15.31,15.31,0,0,1,3.56,3.4,16.66,16.66,0,0,1,0,0C11.82,5.6,58.94,32,70,23.11c5.46-4.38,5.14-9.43,3.09-15A3.45,3.45,0,0,0,73.53,8.84Z" transform="translate(431.27 575.92)" fill="url(#ab)"/><path d="M56.47,50.51A8.41,8.41,0,0,1,41.3,53.37L14.68,22.23,8.07,14.5A40.29,40.29,0,0,1,.29,1C.19.68.09.37,0,0,9.35,11.36,36.75,44.57,42.64,50.93,48.34,57.13,53.92,53.66,56.47,50.51Z" transform="translate(369.25 591.25)" fill="url(#ac)"/><ellipse cx="1.26" cy="2.91" rx="1.26" ry="2.91" transform="translate(214.641 127.316) rotate(-20.65)" fill="#1b4736"/><ellipse cx="1.04" cy="2.38" rx="1.04" ry="2.38" transform="translate(229.226 122.073) rotate(-20.65)" fill="#1b4736"/><path d="M.033,5.292l1.63-2.68a4.47,4.47,0,0,1,2.76-2l2.3-.58A1.16,1.16,0,0,1,8.1.822v.14a1.15,1.15,0,0,1-.83,1.45l-2.71.66a4.44,4.44,0,0,0-1.43.62l-2.87,1.9a.2.2,0,0,1-.23-.3Z" transform="translate(209.327 121.758)" fill="#1b4736"/><path d="M9.042.776l-3.46-.7a3.84,3.84,0,0,0-2.86.55L.532,2.056a1.19,1.19,0,0,0-.37,1.59v.07a1.19,1.19,0,0,0,1.68.39l2.39-1.6a4.09,4.09,0,0,1,1.21-.53L9,1.106a.17.17,0,0,0,.04-.33Z" transform="translate(225.738 115.094)" fill="#1b4736"/><path d="M0,0S2,4.74,4.8,5.82s3,4.21.53,5.12" transform="translate(225.7 128)" fill="none" stroke="#fff" stroke-miterlimit="10" stroke-width="1"/><path d="M.8,1.775a25.33,25.33,0,0,0,13.15-1.7c.55-.22.61.07.75.56,3.33,11.28-11.42,6-14.61,1.88C-.191,2.125.229,1.695.8,1.775Z" transform="translate(217.771 142.875)" fill="#fff"/><circle cx="68.5" cy="68.5" r="68.5" transform="translate(141.09 51.39)" fill="none" stroke="#64edb2" stroke-miterlimit="10" stroke-width="1.95"/><path d="M.995,57.107a1,1,0,0,1-.46-1.89L105.165.117a1,1,0,0,1,.94,1.77L1.465,56.987a1,1,0,0,1-.47.12Z" transform="translate(381.225 50.123)" fill="#fff"/><path d="M.995,57.109a1,1,0,0,1-.46-1.89L105.165.119a1,1,0,1,1,.94,1.77L1.465,56.989a1,1,0,0,1-.47.12Z" transform="translate(381.225 67.531)" fill="#fff"/><path d="M.995,57.109a1,1,0,0,1-.46-1.89L105.165.119a1,1,0,1,1,.94,1.77L1.465,56.989A1,1,0,0,1,.995,57.109Z" transform="translate(381.225 84.941)" fill="#fff"/><path d="M1,57.109a1,1,0,0,1-.46-1.89L105.174.119a1,1,0,1,1,.94,1.77L1.474,56.989a1,1,0,0,1-.47.12Z" transform="translate(381.216 102.351)" fill="#fff"/><path d="M.985,38.3a1,1,0,0,1-.46-1.88L69.435.119a1,1,0,1,1,.94,1.77L1.455,38.179A1,1,0,0,1,.985,38.3Z" transform="translate(381.235 138.571)" fill="#fff"/><path d="M24.156,0s3.15,8.89,1.24,9.64c-6.67,2.6-2.15,8-1.94,12.69.08,1.57-4.57,13-4.57,13S.976,22.12.026,14.06,24.156,0,24.156,0Z" transform="translate(178.164 114.67)" fill="url(#ad)"/><circle cx="28.07" cy="28.07" r="28.07" transform="translate(505.35 409.75)" fill="url(#ae)"/><circle cx="11.83" cy="11.83" r="11.83" transform="translate(0 236.74)" fill="#dde6fa"/><path d="M57.016,47.718c7-.32,14.73-3.22,17.1-9.78a19.69,19.69,0,0,0,.76-7.76c-.15-2.86-.53-5.86-2.22-8.17-2-2.69-5.34-3.91-8.49-5a168.731,168.731,0,0,1-24.31-10.15c-4.15-2.24-8.21-4.83-12.77-6a32.56,32.56,0,0,0-10.83-.68A22.54,22.54,0,0,0,7.2,2.458a14.1,14.1,0,0,0-7.13,10.76c-1.18,11.58,13.77,18.34,22,23.43C32.6,43.088,44.406,48.3,57.016,47.718Z" transform="translate(23.664 335.082)" fill="url(#af)"/><ellipse cx="5.65" cy="6.8" rx="5.65" ry="6.8" transform="translate(188.484 138.166) rotate(-36.01)" fill="#f0beb4"/><path d="M60.89,29.13a19.18,19.18,0,0,1-2.25.29c-3.5.35-5.15.73-7.13.88-.85.06-2.21.08-2.16.08-2,0-3.11.15-4.57.14-6,0-1.09.08-6.58-.09H32.83a.44.44,0,0,0,.05.09c.45.58,1,1.12,1.42,1.69.93,1.14,1.17,1.49,1.24,1.93a1.38,1.38,0,0,1-.44,1.35,3.58,3.58,0,0,1-1.65.76,15.25,15.25,0,0,1-2,.27l-2,.19a20.46,20.46,0,0,0-4.1.8,17.09,17.09,0,0,0-2.39.91,7.23,7.23,0,0,0-1.05.59,1.26,1.26,0,0,0-.44.54,1.06,1.06,0,0,0-.05.5,7.58,7.58,0,0,0,.46,1.43,4,4,0,0,1,.47,2.41,2.13,2.13,0,0,1-.43.8,4.44,4.44,0,0,1-1.25,1l-.13.07a4.48,4.48,0,0,1-.73.34,3.1,3.1,0,0,1-.82.21,4.91,4.91,0,0,1-1.15,0,9.76,9.76,0,0,1-1.15-.18c-.39-.09-.77-.21-1.13-.31l-.23-.08c-.24-.07-.48-.15-.72-.2h-.1a.71.71,0,0,0-.05.16,8,8,0,0,0,.05,1.1v.33a5.09,5.09,0,0,1,0,.55,2.26,2.26,0,0,1,0,.26,1.76,1.76,0,0,1-.15.61,1.2,1.2,0,0,1-.43.46h-.06a1.1,1.1,0,0,1-.57.11,1.77,1.77,0,0,1-.63-.16c-.23-.1-.44-.22-.65-.33l-.43-.23a1.52,1.52,0,0,0-.2-.06h-.12l-.1.1a3.37,3.37,0,0,0-.24.5v.11l-.18.45a2.27,2.27,0,0,1-.37.64,1.51,1.51,0,0,1-.44.39H9.87a1.84,1.84,0,0,1-.79.19,3,3,0,0,1-1.37-.38,6.689,6.689,0,0,1-.83-.51v1.6a6.53,6.53,0,0,1-.1,1.05,1.25,1.25,0,0,1-.57.85.64.64,0,0,1-.24.1c-.49.13-.95-.25-1.26-.55a6.23,6.23,0,0,1-.72-.89h0c-.2-.28-.37-.57-.54-.85a18.7,18.7,0,0,1-1-1.87c-.3-.66-.65-1.44-.93-2.23S1.04,45.61.8,44.79a19.83,19.83,0,0,1-.58-2.33A16.73,16.73,0,0,1,0,39.95c0-.83,0-1.65.05-2.45a18.1,18.1,0,0,1,.89-4.62,19.08,19.08,0,0,1,1.95-4.32A26.35,26.35,0,0,1,5.7,24.65a24.13,24.13,0,0,1,3.19-3.14c.57-.46,1.15-.93,1.74-1.38s1.23-.89,1.82-1.28c1.32-.88,2.67-1.71,3.95-2.48l2-1.23c6.15-3.75,7-4.23,14.84-6.72a80.19,80.19,0,0,0,9.48-3.54c1.22-.53,2.66-1.16,4.06-1.89.73-.38,1.36-.72,1.93-1h.06c.5-.28,1-.57,1.47-.86L50.7.85l.85-.51c1.43-.81,2.24-.09,2.34,1.27a8.8,8.8,0,0,1-.3,2.77l.38-.22a31.48,31.48,0,0,1,4-1.88c1.1-.41,3.23-.93,4.31-.53a2.44,2.44,0,0,1,1.39,1.36,2.71,2.71,0,0,1,.2,1.68,8.61,8.61,0,0,1-2.11,4.27,24.8,24.8,0,0,1-2.62,2.71h.66c4.61-.08,6.4.25,8.1,1.91a5.25,5.25,0,0,1,.95,1.16c1.11,2.19-4.05,3.4-7.07,4.64h.16l.58.17a14.89,14.89,0,0,1,3.85,1.47c1.63,1.12,1.62,2.6.64,4.26a6.94,6.94,0,0,1-1.53,1.73,9.46,9.46,0,0,1-4.59,2.02Z" transform="translate(174.31 77.87)" fill="url(#ag)"/><path d="M19.267,7.3c2.16-1,4.29-2,6.41-3a64.206,64.206,0,0,0,5.92-3.23.573.573,0,0,0-.56-1c-.5.3-1,.61-1.53.9-2,1.12-4,2.14-6,3.13-1.07.52-2.14,1-3.23,1.54l-3.22,1.45c-1.07.49-2.14,1-3.18,1.52s-2.11,1.12-3.14,1.74-2,1.24-3,1.91-2,1.4-2.95,2.17c-.46.38-.91.79-1.35,1.19a25.14,25.14,0,0,0-2.36,2.52c-.35.42-.65.88-1,1.32a.56.56,0,0,0-.06.42.58.58,0,0,0,.69.41.66.66,0,0,0,.35-.27c.23-.31.45-.64.69-1a24.64,24.64,0,0,1,2.07-2.27,26.53,26.53,0,0,1,2.41-2.09l.68-.51c.94-.68,1.9-1.34,2.88-2s2.05-1.26,3.11-1.84,2.08-1.11,3.15-1.61S18.207,7.773,19.267,7.3Z" transform="translate(182.313 89.507)" fill="url(#ah)"/><path d="M13.12.067c-.82.55-1.63,1.11-2.42,1.69s-1.57,1.22-2.36,1.82l-1.07.78a27.55,27.55,0,0,1-3,1.77c-1,.53-2,1-3.09,1.46l-.89.35a.57.57,0,0,0-.27.34.54.54,0,0,0,.06.43.55.55,0,0,0,.34.27.56.56,0,0,0,.42-.06l.17-.07,1-.39,1-.44c.67-.31,1.33-.64,2-1l.68-.37a26.24,26.24,0,0,0,2.3-1.46c1.77-1.23,2.53-2.06,5.66-4.15a.553.553,0,0,0-.53-.97Z" transform="translate(215.51 87.093)" fill="url(#ai)"/><path d="M25.182.079a71.35,71.35,0,0,1-7,3.67,13.56,13.56,0,0,1-3.53.91,26.69,26.69,0,0,1-4.2.08,34.86,34.86,0,0,0-3.56-.05,15.77,15.77,0,0,0-3.5.67A11.21,11.21,0,0,0,.282,6.9a.57.57,0,0,0-.21.77.58.58,0,0,0,.77.21,8.086,8.086,0,0,1,1-.62,12.76,12.76,0,0,1,4.5-1.39,14.91,14.91,0,0,1,1.5-.08c1.53,0,3.31.14,4.94.11a15.42,15.42,0,0,0,7-1.61c1-.49,2.05-1,3.05-1.6l2.93-1.63a.56.56,0,0,0,.21-.76.57.57,0,0,0-.79-.22Z" transform="translate(202.398 98.271)" fill="url(#aj)"/><path d="M5.7,0c-1,.07-2,.15-2.94.28a13,13,0,0,0-1.39.23A3.84,3.84,0,0,0,.282.9a.56.56,0,0,0-.21.76.57.57,0,0,0,.77.22,1,1,0,0,1,.21-.1,10.49,10.49,0,0,1,2.23-.44c.8-.09,1.6-.16,2.4-.22a.57.57,0,0,0,.29-.07.56.56,0,0,0,.28-.48.62.62,0,0,0-.16-.41A.59.59,0,0,0,5.7,0Z" transform="translate(192.548 112)" fill="url(#ak)"/><path d="M1.217.82a.59.59,0,0,0,.06-.43.56.56,0,0,0-1-.14,2.4,2.4,0,0,0-.21.69,9.76,9.76,0,0,0,0,2.29A23.74,23.74,0,0,0,.587,6.3a.56.56,0,0,0,.82.35c.55-.31.15-.58-.18-3.09a10.61,10.61,0,0,1,0-2.39A1.86,1.86,0,0,1,1.217.82Z" transform="translate(180.293 116.79)" fill="url(#al)"/><path d="M.3.087c-.28.16-.38.45-.22,1.44a11.4,11.4,0,0,0,.25,1.16.58.58,0,0,0,.69.41.59.59,0,0,0,.41-.69A6.28,6.28,0,0,1,1.136.6h0a.51.51,0,0,0-.07-.34A.56.56,0,0,0,.3.087Z" transform="translate(183.144 119.063)" fill="url(#am)"/><path d="M.5.511Z" transform="translate(185.896 118.619)" fill="url(#an)"/><path d="M.014.4c-.07.29.14.65.41,1.21a.56.56,0,0,0,1-.12c.08-.29-.06-.4-.36-1.11a.49.49,0,0,0-.38-.37A.57.57,0,0,0,.014.4Z" transform="translate(186.326 118.296)" fill="url(#ao)"/><path d="M.5.535v0Z" transform="translate(185.87 118.525)" fill="url(#ap)"/><path d="M6.68,9.26s13.53,9.91,21.05,19.81l.32-4.54a7.28,7.28,0,0,0-1.4-4.86L15.49,4.44a7.36,7.36,0,0,0-4.88-2.92L0,0,6.68,9.26Z" transform="translate(281.57 466.82)" fill="#fff"/><path d="M17.07,14.365,6.79,16.8s17.7-12,30.1-14.31l-5.25-2a7.28,7.28,0,0,0-5.06-.08L8.76,6.665a7.38,7.38,0,0,0-4.22,3.82L0,20.185Z" transform="translate(141.32 432.195)" fill="#fff"/><circle cx="117.45" cy="117.45" r="117.45" transform="translate(84.25 435.49)" fill="#fff"/><path d="M13.064,20.91c2.2,1.81,4.65,3.64,7.49,3.81,3.32.2,6.3-1.88,9-3.86a2.54,2.54,0,0,0,1-4l-4.34-8.33a18.31,18.31,0,0,0-3.7-5.45C19.584.44,15.324-.01,11.384,0-10.406-.02,4.214,13.64,13.064,20.91Z" transform="translate(246.786 467.47)" fill="url(#aq)"/><path d="M22.18,17.567c2.58-1.21,5.28-2.64,6.65-5.13,1.61-2.92,1-6.5.37-9.76a2.55,2.55,0,0,0-3.17-2.6l-9.42.29a18.3,18.3,0,0,0-6.51,1c-3.64,1.52-5.88,5.17-7.56,8.74C-6.79,29.787,11.82,22.447,22.18,17.567Z" transform="translate(139.5 466.103)" fill="#dde6fa"/><path d="M17.879,3.441a16.19,16.19,0,0,0-5.5-2.57c-12.84-3.32-17.59,3.58-5,8.38C13.039,11.411,31.1,13.011,17.879,3.441Z" transform="translate(191.471 454.709)" fill="#dde6fa"/><path d="M.187,16.6c.64,5.92,3.81,11.74,9,14.65a2.2,2.2,0,0,0,1.51.37,2.38,2.38,0,0,0,1.07-.82,72.49,72.49,0,0,0,4.61-6,8.61,8.61,0,0,0,1.58-3.3,9,9,0,0,0-.52-3.93c-1.47-5.16-3.1-10.57-6.92-14.34-4-3.92-6.23-4.72-8.51.14A26.39,26.39,0,0,0,.187,16.6Z" transform="translate(279.963 510.133)" fill="#dde6fa"/><path d="M5.554,9.548a11,11,0,0,0,9.75,1.62,1.24,1.24,0,0,0,.73-.51,1.34,1.34,0,0,0,0-.77c-.22-1.44-.51-2.86-.87-4.27a5,5,0,0,0-.83-1.93,5.16,5.16,0,0,0-1.89-1.25c-2.8-1.31-5.75-2.65-8.83-2.41s-4.39.91-3.15,3.73A15.07,15.07,0,0,0,5.554,9.548Z" transform="translate(216.366 495.162)" fill="#dde6fa"/><circle cx="28.8" cy="28.8" r="28.8" transform="translate(27.25 252.29)" fill="none" stroke="#fff" stroke-miterlimit="10" stroke-width="2.42"/><path d="M0,0A24.19,24.19,0,0,0,19.45,5.44l5.36,39.5s-11,4.06-14.08,0" transform="translate(351.35 512.56)" fill="none" stroke="#64edff" stroke-miterlimit="10" stroke-width="0.97"/><path d="M0,2.9A40.41,40.41,0,0,0,20.18,0L36.53,46.62s-7,6.13-13.45,3.93" transform="translate(391.13 495.16)" fill="none" stroke="#64edff" stroke-miterlimit="10" stroke-width="0.97"/></g></svg>