<svg xmlns="http://www.w3.org/2000/svg" xmlns:xlink="http://www.w3.org/1999/xlink" width="451.315" height="299.75" viewBox="0 0 451.315 299.75">
  <defs>
    <linearGradient id="linear-gradient" x1="-0.457" y1="-1.243" x2="-0.457" y2="-0.243" gradientUnits="objectBoundingBox">
      <stop offset="0" stop-color="#b8cfff"/>
      <stop offset="0.03" stop-color="#bfd4ff"/>
      <stop offset="0.13" stop-color="#d7e4ff"/>
      <stop offset="0.25" stop-color="#e9f0ff"/>
      <stop offset="0.4" stop-color="#f5f9ff"/>
      <stop offset="0.59" stop-color="#fdfeff"/>
      <stop offset="1" stop-color="#fff"/>
    </linearGradient>
  </defs>
  <g id="Cloud1" transform="translate(-210.469 -268.039)">
    <path id="cloud1-2" data-name="cloud1" d="M602.393,1043.417s2.64-23.439-4.869-33.005-12.714-10.74-12.714-10.74,11.062-21.5-1.847-27.486c0,0-7.831-24.427-42.2-13.552,0,0,14.1-13.036,6.432-22.8s-14.4-2.842-14.4-2.842,7.771-9.379-3.493-10.733c0,0,10.867-21.353,1.758-32.908S502.816,870.1,487.9,871.623s-56.018,42.967-56.018,42.967,9.932-19.647.83-31.24-63.265-31.569-86.376,10.59c0,0,1.01,13.006-4.936,21.128s-17.815,8.728-17.815,8.728a7.95,7.95,0,0,1-2.752,9.065c-4.884,3.829-10.471,4.622-17,2a14.36,14.36,0,0,1-8.227-7.988s8.227,6.881,15.542,5.557,7.21-9.446,7.21-9.446,8.541.2,13.32-3.56c4.226-3.313,16.551-13.133,12.8-29.37-3.56-6.529-12.086-18.458-24.733-12.8.344,16.454-11.78,20.9-13.193,22.938a7.891,7.891,0,0,1-4.57,7.367c-4.869,2.176-19.012-1.189-19.012-1.189s17.9,1.234,19.633-2.423a5.43,5.43,0,0,0-.912-6.185c.112-.135,11.084-5.834,12.857-17.95,1.234-10.583-3.919-15.871-16.065-10.433,0,0,21.689-30.171-5.527-39.714,0,0,2.76,7.7-6.664,12.46s-22.3-1.585-22.3-1.585,11.608,3.059,18.122-.576c4.772-2.663,7.688-11.293,8.406-21.211-3.515-8.78-12.154-18.7-33.431-12.565,0,0,5.318-7.479-25.937-17.127s-47.933,31.083-47.933,31.083-20.193,14.517-26.573,24.793,1.773,34.082,1.773,34.082-3.306,16.731,1.638,23.036,10.65,6.439,10.344,8.975,1.1,42.863,46.595,53.505l11.615,1.4s2.094,13.156,14.7,18.7,14.809,5.467,14.809,5.467a41.5,41.5,0,0,0,20.358,8.354c12.34,1.5,28.42-9.835,28.42-9.835s-.2,4.764,17.583,6.911,35.436-9.723,35.436-9.723,19.8,6.806,36.647,4.787,34.965-32.99,34.965-32.99A17.9,17.9,0,0,0,448.8,954.9s22.3,12.079,30.245,5.856,22.744-5.362,24.681-2.924c0,0-4.585-1.66-5.377,4.876s24.352,11.42,24.352,11.42-4,4.121-.965,7.988,22.123,5.983,22.123,5.983.591,10.381,6.821,13.709,14.21,4.293,14.21,4.293,3.111,16.948,10.014,17.785,14.113,2.064,15.048,18.765-4.42,12.355-12.812,23.866,8.586,23.507,18.548,20.291,7.157-13.462,1.047-8.721-10.89-1.316-10.014-8.571,17.411-4.906,18.593-14.7S602.393,1043.417,602.393,1043.417ZM204.275,837.145c11.824-20.672,28.966-4.166,28.966-4.166s-20.7,13.021-12.273,32.7c6.1,14.21,13.41,16.544,17,16.738a7.524,7.524,0,0,1,2.244-.157,7.564,7.564,0,0,1-2.244.157c-2.655.568-6.866,2.752-7.846,10.89-1.5,12.109,41.995,27.822,41.995,27.822s-37.4-6.185-46.587-23.985-2.132-17.2-2.132-17.2S192.45,857.824,204.275,837.145Zm12.909,107.594c-18.765-6.26-20.193-25.137-20.193-25.137s-20.149-7.053-21.809-23.828c-1.3-13.178,1.675-12.879,2.992-12.146-1.615-1.339-6.118-6.357-9.521-22.527-4.218-20.029,9.042-29.079,9.042-29.079-16.813,29.916,11.967,53.385,11.967,53.385-13.021,10.216.98,22.437,5.34,22.931s4.487-6.641,4.487-6.641l8.586,8.227c-2.146,17.838,20.388,18.069,22.437,18.556,0,0-7.726,7.539-3.1,13.462s33.05,3.979,33.05,3.979-24.5,5.108-43.281-1.144Zm39.976,29.071c-12.37-7.389-9.648-17.748-9.648-17.748,7.913,26.012,44.538,14.592,44.538,14.592S269.522,981.191,257.159,973.81Zm205.846-83.451c10.194-2.087,16.529,1.989,16.529,1.989s-21.689-1.877-35.017,21.562c-1,1.75,8.287-21.465,18.481-23.552ZM386.038,876.44c11.578-1.369,27.351.748,26.177,10.516,0,0,3.059-2.393,11.428,3.036s4.061,25.541-4.166,34.68-21.966,8.032-21.966,8.032,18.578-4.39,23.185-16.551,5.774-21.958-1.877-24.165-6.043,4.241-6.043,4.241-3.687-9.1-6.731-12.961S390,874.331,362.719,891.3c-.037,0,11.72-13.462,23.3-14.861Zm32.407,19.9a4.488,4.488,0,0,1,4.143,5.355c-.606,5.026-7.2,10.852-7.2,10.852s6.5-15.788,3.051-16.207ZM373.376,975.32a31.394,31.394,0,0,1-15.482-5.983s-26.783,17.4-41.427,13.619-14.764-8.975-14.764-8.975c13.889,17.7,57.335-8.077,57.335-8.077,12.879,12.363,29.767.583,29.767.583s-5.632,10.022-15.437,8.84Zm16.611-33.042c-7.651,1.653-8.122-5.4-8.122-5.4,1.114,4.368,18.825-.239,18.825-.239s-3.066,3.979-10.71,5.639Zm63.37,8.227c-2.244-1.174-.643-3.822-.643-3.822s-11.361,7.15-14.794,5.116a5.2,5.2,0,0,1-2.3-5.841c-6.784,17.6-35.152,12.52-35.152,12.52,28.241-.464,35.765-17.538,35.765-17.538s-.277.868,3.194,5.288,15.594-4.929,15.594-4.929a7.115,7.115,0,0,0,1.66,5.856c1.369,1.743,7.681-1.062,13.066-3.9-6.589,3.59-15.033,7.943-16.387,7.232Zm24.464-11.824-.748.441Zm-6.14,18.78c-7.075-.853-9.566-4.652-9.566-4.652,9.88,4.846,30.455-5.1,30.455-5.1s-13.821,10.605-20.941,9.723Zm5.572-70.767s2.932-9.035,11.293-11.159,17.95,5.3,17.95,5.3-16.91-10.882-29.243,5.886Zm41.494,39.265c-5.183,4.069-15.242,4.241-15.242,4.241s18.466-3.485,18.182-11.809l-.583-2.834s5.071-.748,6.529-5.235-.546-18.4-.546-18.4c3.216,4.1,6.028,11.092,3.179,17.95s-6.14,6.626-6.14,6.626a13.671,13.671,0,0,1-5.377,9.438Zm6.559,15.893a27.156,27.156,0,0,0,.486,9.887s-6.529-7.12-3.381-11.892,10.1-4.308,10.1-4.308-6.507.479-7.2,6.29Zm55.173,44.987s-1.5,3.313-7.831,4.607-7.135-8.81-7.135-8.81c5.093,12.714,14.958,4.181,14.958,4.181ZM573.8,999.47c-11.024-.217-13.006-17.4-13.006-17.4s1.443,6.163,9.109,13.073,15.542-2.154,15.542-2.154-.621,6.679-11.645,6.462Zm4.315,6.813s5.138-2.879,12.468,3.523.86,15.758.86,15.758,3.725-18.533-13.328-19.326Zm19.662,24.823a8.271,8.271,0,0,1-7.561,3.134s9.67-7.165,6.664-10.987c.022-.022,4.36,3.814.92,7.831Z" transform="translate(56.26 -519.545)" fill="url(#linear-gradient)"/>
  </g>
</svg>
