<svg xmlns="http://www.w3.org/2000/svg" xmlns:xlink="http://www.w3.org/1999/xlink" width="437.417" height="238.552" viewBox="0 0 437.417 238.552">
  <defs>
    <linearGradient id="linear-gradient" x1="-0.488" y1="-1.355" x2="-0.488" y2="-0.355" gradientUnits="objectBoundingBox">
      <stop offset="0" stop-color="#b8cfff"/>
      <stop offset="0.03" stop-color="#bfd4ff"/>
      <stop offset="0.13" stop-color="#d7e4ff"/>
      <stop offset="0.25" stop-color="#e9f0ff"/>
      <stop offset="0.4" stop-color="#f5f9ff"/>
      <stop offset="0.59" stop-color="#fdfeff"/>
      <stop offset="1" stop-color="#fff"/>
    </linearGradient>
  </defs>
  <path id="cloud2" d="M736.5,1033.161c8.87,4,25.78-5.31,19.236-16.805s-11.967-8.062-9.356-23.372,9.386-15.706,15.841-15.751,11.092-15.384,11.092-15.384a43.546,43.546,0,0,0,13.567-2.483c6.088-2.423,7.718-11.967,7.718-11.967s17.845,0,21.046-3.223-.06-7.479-.06-7.479,23.761-1.892,23.716-8-4.487-5.063-4.487-5.063c2.019-2.057,15.788-1.316,22.437,5.235s28.533-2.244,28.533-2.244a16.626,16.626,0,0,0,15.7,4.286s13.462,30.47,28.809,34.09,34.306-.613,34.306-.613,15.048,12.8,31.7,12.662,16.948-4.555,16.948-4.555,13.687,12.131,25.234,12.034a38.594,38.594,0,0,0,19.67-5.587s2.042.322,14.21-3.515,15.5-15.751,15.5-15.751l10.867-.09c43.109-5.093,48.614-42.174,48.614-44.553s5.235-1.915,10.471-7.217,3.911-21.1,3.911-21.1,10.03-21.143,5.19-31.3-21.951-25.646-21.951-25.646-11.219-39.325-41.038-33.656-25.713,13.118-25.713,13.118c-19.012-7.883-28.017.381-32.16,8.122-.359,9.229,1.436,17.5,5.572,20.463,5.632,4.031,16.663,2.416,16.663,2.416s-12.535,4.487-20.732-.86-4.861-12.191-4.861-12.191c-26.109,5.983-9.222,36.086-9.222,36.086-10.65-6.275-15.96-1.937-15.916,7.965.381,11.368,9.917,17.77,10.007,17.9a5.041,5.041,0,0,0-1.5,5.617c1.219,3.56,17.868,4.278,17.868,4.278s-13.4,1.63-17.673-.883a7.319,7.319,0,0,1-3.448-7.277c-1.092-2.027-11.824-7.374-9.8-22.549-11.084-6.537-20.193,3.6-24.157,9.252-5.161,14.607,5.235,24.95,8.766,28.42,4.016,3.956,11.922,4.659,11.922,4.659s-.957,7.479,5.684,9.469,14.958-3.515,14.958-3.515a13.35,13.35,0,0,1-8.444,6.522c-6.267,1.75-11.376.434-15.489-3.62a7.36,7.36,0,0,1-1.593-8.646s-10.89-1.78-15.534-9.9-2.378-20.021-2.378-20.021c-16.97-41.322-69.024-28.51-78.627-18.75s-2.49,28.907-2.49,28.907-33.656-42.548-47.253-45.5-32.085,2.117-41.688,11.877-1.8,30.6-1.8,30.6c-10.538.082-4.345,9.551-4.345,9.551s-5.49-7.1-13.582,1.122,3.568,21.689,3.568,21.689c-30.6-13.6-40.387,8.145-40.387,8.145-12.535,4.173-4.555,25.174-4.555,25.174s-4.921.546-12.849,8.593-8.055,29.961-8.055,29.961-3.949,1.047-3.874,10.224,15.706,8.8,15.758,15.594-5,11.966-10.142,6.881S727.626,1029.144,736.5,1033.161Zm299.11-118.5s26.035,4.719,30.918-.239-1.5-12.714-1.5-12.714c1.952-.232,22.774,1.892,22.647-14.786l8.78-6.731s-.628,6.626,3.448,6.6,18.271-9.828,7.307-20.62c0,0,29.019-18.7,16.619-48.038,0,0,11.286,9.768,5.318,27.822-4.824,14.562-9.5,18.7-11.129,19.8,1.316-.538,4.1-.5,1.5,11.54-3.276,15.31-22.609,19.73-22.609,19.73s-3.261,17.277-21.233,21.1S1035.607,914.662,1035.607,914.662Zm-6.731,42.8s32.631,14.337,42.631-8.84c0,0,1.436,9.842-10.755,15.369s-31.883-6.529-31.883-6.529ZM894,889.2c-9.835-23.013-30.066-23.544-30.066-23.544s6.267-3.111,15.467-.127S894.746,890.924,894,889.2Zm45.966,54.4s14.367,12.625,27.538,2.558c0,0,37.4,28.3,52.092,13.4,0,0-.643,4.772-14.554,6.731s-36.834-16.873-36.834-16.873a29.15,29.15,0,0,1-14.913,3.9c-9.169.067-13.328-9.723-13.328-9.723ZM932.141,914.8s15.878,6.1,17.359,2.176c0,0-1.167,6.469-8.055,4.136S932.141,914.8,932.141,914.8Zm-16.073-13.021c-6.731-9.289-8.549-28.293-.262-32.437s10.83-1.66,10.83-1.66c-.075-9.169,14.7-9.461,25.257-6.993s20,16.155,20,16.155c-23.417-18.511-35.959-15.182-39.16-11.929s-7.561,11.279-7.561,11.279,2.169-5.789-5.138-4.547-7.217,10.418-4.241,22.116,19.685,17.681,19.685,17.681-12.714-.411-19.446-9.723Zm5.011-10.74s-5.49-6.073-5.527-10.77a4.188,4.188,0,0,1,3.844-4.487,4.284,4.284,0,0,1,.538,0c-3.216,0,1.152,15.257,1.152,15.257Zm-60.341,17.636c.89.591,16.095,12.58,18.63,10a6.621,6.621,0,0,0,2.139-5.235s10.224,9.9,13.889,6.17,3.5-4.547,3.5-4.547,5.175,16.551,31.2,19.909c0,0-26.723,1.743-31.158-15.22a4.824,4.824,0,0,1-2.73,5.161c-3.388,1.518-13.118-6.26-13.118-6.26s1.2,2.618-.995,3.47-20.941-13.193-21.345-13.462Zm-14.607,6.791s17.95,11.323,27.59,7.875c0,0-2.692,3.246-9.326,3.3S846.132,915.47,846.132,915.47Zm-5.938-63.213s9.641-5.856,17.135-2.992,9.274,11.473,9.274,11.473c-9.648-16.768-26.4-8.481-26.4-8.481Zm-19.962,31.076s-3.059-.142-4.981-6.731,1.4-12.782,4.794-16.23c0,0-3.3,12.655-2.416,16.94s5.482,5.512,5.482,5.512l-.83,2.558c-1.129,7.651,15.557,12.782,15.557,12.782s-9.267-1.2-13.627-5.5a12.714,12.714,0,0,1-3.971-9.334Zm-9.723,16.723s6.454.292,8.87,5.026-4.353,10.635-4.353,10.635a25.19,25.19,0,0,0,1.5-9.08c-.052-5.437-5.983-6.582-5.983-6.582Zm-35.354,40.035s-1.795,9.237-7.479,7.389-6.731-5.063-6.731-5.063,8.2,8.938,14.225-2.326ZM755.71,947.57s6.327,9.184,14.128,3.6,9.723-11.114,9.723-11.114-3.612,15.654-13.806,14.719-10.112-7.195-10.112-7.195Zm-8.975,29.423s-5.011-9.311,2.431-14.465,11.877-1.96,11.877-1.96c-15.781-1.01-14.285,16.424-14.285,16.424Zm-6.425,4.487c-2.752-4.054,1.638-7.15,1.638-7.15-3.164,3.224,5.018,10.837,5.018,10.837a7.647,7.647,0,0,1-6.634-3.687Z" transform="translate(-730.819 -795.553)" fill="url(#linear-gradient)"/>
</svg>
