<svg xmlns="http://www.w3.org/2000/svg" xmlns:xlink="http://www.w3.org/1999/xlink" width="54.488" height="45.715" viewBox="0 0 54.488 45.715"><defs><linearGradient id="a" x1="-0.033" y1="0.119" x2="0.848" y2="0.86" gradientUnits="objectBoundingBox"><stop offset="0" stop-color="#fff"/><stop offset="1" stop-color="#779dea"/></linearGradient><linearGradient id="b" x1="-1.482" y1="1.363" x2="0.974" y2="0.509" gradientUnits="objectBoundingBox"><stop offset="0" stop-color="#4e54c8"/><stop offset="1" stop-color="#8f94fb"/></linearGradient><linearGradient id="c" x1="-0.691" y1="1.051" x2="0.61" y2="0.476" xlink:href="#b"/><linearGradient id="d" x1="-0.241" y1="1.043" x2="0.899" y2="0.502" xlink:href="#b"/><linearGradient id="e" x1="-0.647" y1="0.934" x2="0.685" y2="0.579" xlink:href="#b"/><linearGradient id="f" x1="0.803" y1="0.997" x2="0.517" y2="0.528" xlink:href="#a"/><linearGradient id="g" x1="-0.001" y1="0.5" x2="1" y2="0.5" gradientUnits="objectBoundingBox"><stop offset="0" stop-color="#fb9f02"/><stop offset="0.32" stop-color="#fb9f02"/><stop offset="1" stop-color="#fc4c5c"/></linearGradient><linearGradient id="h" x1="0" xlink:href="#g"/><linearGradient id="j" x1="0" xlink:href="#g"/><linearGradient id="k" x1="-0.443" y1="-1.859" x2="1.701" y2="3.502" gradientUnits="objectBoundingBox"><stop offset="0" stop-color="#8ee0e4"/><stop offset="1" stop-color="#4a68f5"/></linearGradient><linearGradient id="l" x1="-0.445" y1="-1.861" x2="1.702" y2="3.506" xlink:href="#k"/></defs><g transform="translate(-0.001)"><path d="M38.522,34.313a62.7,62.7,0,0,0-7.628,3.59c-5.153,2.585-10.288,4.318-19.8-.417a19.467,19.467,0,0,1-9.25-9.58C-2.818,17.475,1.632,3.718,12.122.823,23-2.18,27,3.768,32.019,6.9a10.75,10.75,0,0,0,4.458,1.678c1.9.225,3.858.483,5.75.872,5.948,1.225,11.3,3.75,12.143,10.688C55.572,29.868,47.437,31.155,38.522,34.313Z" transform="translate(0.001 1.232)" fill="url(#a)"/><circle cx="4.068" cy="4.068" r="4.068" transform="translate(16.198 4.31)" fill="#2fdd96"/><circle cx="3.145" cy="3.145" r="3.145" transform="translate(17.12 5.233)" fill="#20ba7b"/><path d="M2.335,3.37A1.192,1.192,0,0,0,1.14,2.175a.5.5,0,0,1,0-1,.523.523,0,0,1,.378.168.342.342,0,0,0,.5-.462A1.145,1.145,0,0,0,1.493.567V.335a.335.335,0,1,0-.67,0V.567a1.187,1.187,0,0,0,.36,2.317.5.5,0,0,1,0,1,.523.523,0,0,1-.377-.168.34.34,0,0,0-.5.46,1.137,1.137,0,0,0,.525.315v.23a.335.335,0,1,0,.67,0v-.23A1.192,1.192,0,0,0,2.335,3.37Z" transform="translate(19.125 5.865)" fill="#fff"/><path d="M5.19,11.71V0L0,5.19v6.52Z" transform="translate(6.282 19.92)" fill="url(#b)"/><path d="M5.19,14.05V4.492L.632,0,0,.695V14.05Z" transform="translate(13.182 17.58)" fill="url(#c)"/><path d="M5.19,13.545V0L0,5.19v8.355Z" transform="translate(20.017 18.085)" fill="url(#d)"/><path d="M5.19,20.442V0L0,5.253v15.19Z" transform="translate(26.917 11.188)" fill="url(#e)"/><path d="M26.013,1.837,27.85,3.672,16.2,15.255l-5.95-5.95L0,19.622V22.09L10.255,11.837l5.95,5.948L29.052,4.938l1.9,1.835L32.785,0,26.013,1.837Z" transform="translate(3.307 3.717)" fill="url(#f)"/><circle cx="1.725" cy="1.725" r="1.725" transform="translate(3.31 0)" fill="url(#g)"/><circle cx="1.38" cy="1.38" r="1.38" transform="translate(15.097 36.088)" fill="url(#h)"/><circle cx="1.725" cy="1.725" r="1.725" transform="translate(37.603 0.9)" fill="url(#h)"/><circle cx="4.023" cy="4.023" r="4.023" transform="translate(34.478 37.67)" fill="url(#j)"/><path d="M2.805,1.4A1.4,1.4,0,1,1,1.4,0,1.4,1.4,0,0,1,2.805,1.4Z" transform="translate(21.675 4.31)" fill="url(#k)"/><path d="M.17,1.575v-.33H.455v.333Zm0-.537a.563.563,0,0,1,0-.1A.353.353,0,0,1,.2.852.307.307,0,0,1,.248.772.383.383,0,0,1,.34.7L.415.665A.758.758,0,0,0,.508.608.435.435,0,0,0,.585.533a.153.153,0,0,0,.032-.1A.137.137,0,0,0,.565.322.208.208,0,0,0,.445.283.167.167,0,0,0,.367.3.284.284,0,0,0,.305.34.214.214,0,0,0,.26.39L.225.44,0,.283A.44.44,0,0,1,.18.075.528.528,0,0,1,.457,0,.555.555,0,0,1,.625.025.394.394,0,0,1,.772.1.384.384,0,0,1,.88.238a.436.436,0,0,1,.042.2A.387.387,0,0,1,.87.647.445.445,0,0,1,.717.795L.625.85A.806.806,0,0,0,.54.9.243.243,0,0,0,.475.96a.13.13,0,0,0-.022.077Z" transform="translate(22.61 4.922)" fill="#fff"/><path d="M0,1.8,1.135,3.765,2.27,1.8H1.563V0H.707V1.8Z" transform="translate(21.942 7.977)" fill="#fff"/><circle cx="7.51" cy="7.51" r="7.51" transform="translate(34.7 13.29)" fill="#2fdd96"/><circle cx="5.807" cy="5.807" r="5.807" transform="translate(36.403 14.993)" fill="#20ba7b"/><path d="M4.357,6.238A2.2,2.2,0,0,0,2.152,4.032a.93.93,0,1,1,0-1.857.96.96,0,0,1,.695.31.631.631,0,1,0,.93-.852,2.085,2.085,0,0,0-.967-.58V.625a.625.625,0,0,0-1.25,0v.428a2.2,2.2,0,0,0,.67,4.3.93.93,0,0,1,0,1.86.97.97,0,0,1-.7-.31.63.63,0,1,0-.93.85,2.1,2.1,0,0,0,.967.582V8.76a.625.625,0,0,0,1.25,0V8.335a2.21,2.21,0,0,0,1.538-2.1Z" transform="translate(40.058 16.147)" fill="#fff"/><path d="M4.385,2.193A2.193,2.193,0,1,1,2.193,0,2.193,2.193,0,0,1,4.385,2.193Z" transform="translate(45.21 13.863)" fill="url(#l)"/><path d="M.265,2.465v-.5h.45v.5Zm0-.99a.527.527,0,0,1,.04-.138A.41.41,0,0,1,.39,1.212a.505.505,0,0,1,.143-.107L.65,1.042A1.339,1.339,0,0,0,.795.952.594.594,0,0,0,.917.833.25.25,0,0,0,.968.685.213.213,0,0,0,.885.508.293.293,0,0,0,.7.446.273.273,0,0,0,.575.47a.449.449,0,0,0-.1.063.34.34,0,0,0-.072.08.7.7,0,0,0-.055.08L0,.443A.66.66,0,0,1,.283.118.822.822,0,0,1,.717,0a.906.906,0,0,1,.25.038A.676.676,0,0,1,1.2.157.652.652,0,0,1,1.37.37a.719.719,0,0,1,.086.31.617.617,0,0,1-.083.328.7.7,0,0,1-.238.23,1.125,1.125,0,0,1-.145.087A1.248,1.248,0,0,0,.855,1.4a.363.363,0,0,0-.1.093.207.207,0,0,0-.038.125l-.453.007C.263,1.577.263,1.526.265,1.475Z" transform="translate(46.67 14.82)" fill="#fff"/><path d="M4.19,3.63,2.1,0,0,3.63H1.3V6.952H2.885V3.63Z" transform="translate(45.307 20.063)" fill="#fff"/></g></svg>