<svg xmlns="http://www.w3.org/2000/svg" xmlns:xlink="http://www.w3.org/1999/xlink" width="55.194" height="45.499" viewBox="0 0 55.194 45.499"><defs><linearGradient id="a" x1="0.201" y1="0.074" x2="1.016" y2="1.089" gradientUnits="objectBoundingBox"><stop offset="0" stop-color="#fff"/><stop offset="1" stop-color="#779dea"/></linearGradient><linearGradient id="b" y1="0.5" x2="1" y2="0.5" gradientUnits="objectBoundingBox"><stop offset="0" stop-color="#4e54c8"/><stop offset="1" stop-color="#8f94fb"/></linearGradient><linearGradient id="c" x1="0" y1="0.5" x2="1" y2="0.5" xlink:href="#a"/><linearGradient id="d" x1="0.281" y1="0.782" x2="0.961" y2="-0.096" xlink:href="#a"/><linearGradient id="e" x1="0.775" y1="0.879" x2="0.208" y2="0.097" xlink:href="#a"/><linearGradient id="f" x1="0.723" y1="0.247" x2="0.174" y2="0.904" xlink:href="#a"/><linearGradient id="g" x1="-0.002" y1="0.499" x2="0.998" y2="0.499" gradientUnits="objectBoundingBox"><stop offset="0" stop-color="#4e54c8"/><stop offset="1" stop-color="#7b86f4"/></linearGradient><linearGradient id="h" y1="0.5" x2="1" y2="0.5" gradientUnits="objectBoundingBox"><stop offset="0" stop-color="#fb9f02"/><stop offset="0.32" stop-color="#fb9f02"/><stop offset="1" stop-color="#fc4c5c"/></linearGradient></defs><g transform="translate(0.001)"><path d="M53.251,26.649c-3.8,10.088-9.538,16.12-18.623,17.75a39.791,39.791,0,0,1-14.708-.552A29.84,29.84,0,0,1,6.8,37.9c-5.96-4.89-8.653-11.983-5.41-19.5,3.875-9,14.638-5.432,18.948-7.9,7.183-4.1,9.128-10.785,20.327-10.5a15.723,15.723,0,0,1,2.305.225,13.953,13.953,0,0,1,7.108,3.473C55.076,8.326,56.951,16.806,53.251,26.649Z" transform="translate(-0.001 0.646)" fill="url(#a)"/><path d="M32.79,16.405a16.4,16.4,0,1,1,0-.01Z" transform="translate(7.525 5.25)" fill="url(#b)"/><path d="M24.92,12.46a12.46,12.46,0,1,1-3.649-8.811A12.46,12.46,0,0,1,24.92,12.46Z" transform="translate(11.46 9.195)" fill="#fff"/><path d="M17.05,8.525A8.525,8.525,0,1,1,8.525,0,8.525,8.525,0,0,1,17.05,8.525Z" transform="translate(15.395 13.13)" fill="#2fdd96"/><path d="M9.185,4.59A4.593,4.593,0,1,1,4.593,0,4.593,4.593,0,0,1,9.185,4.59Z" transform="translate(19.327 17.065)" fill="#fff"/><path d="M24.948,9.654,15.676.382A1.25,1.25,0,0,0,14.711,0a1.307,1.307,0,0,0-.89.38L.376,13.827A1.25,1.25,0,0,0,0,14.732H0a1.293,1.293,0,0,0,.38.962l9.267,9.262a1.3,1.3,0,0,0,.965.38h0a1.25,1.25,0,0,0,.89-.373L24.948,11.512a1.3,1.3,0,0,0,.38-.892,1.25,1.25,0,0,0-.38-.965Z" transform="translate(20.227 0.018)" fill="url(#c)"/><path d="M11.213,0l-.6,11.377h0A1.3,1.3,0,0,1,9.653,11L.38,1.73A1.293,1.293,0,0,1,0,.78H0Z" transform="translate(20.222 13.97)" fill="url(#d)"/><path d="M14.715,0a1.3,1.3,0,0,1-.38.892L.89,14.337A1.25,1.25,0,0,1,0,14.71L.6,3.332l2.565-.17L3.33.6Z" transform="translate(30.84 10.637)" fill="url(#e)"/><path d="M11.385,10.619,0,11.217.767,0a1.25,1.25,0,0,1,.965.38l9.273,9.272a1.25,1.25,0,0,1,.38.965Z" transform="translate(34.17 0.018)" fill="url(#f)"/><path d="M.007.6l1.287,6.95a.515.515,0,0,0,.8.33l1.75-1.222,2.515,3.59a.518.518,0,0,0,.717.128l.235-.165.25-.178a.518.518,0,0,0,.128-.717L5.174,5.723,6.9,4.513a.515.515,0,0,0-.032-.865L.757.06A.515.515,0,0,0,.007.6Z" transform="translate(32.993 30.33)" fill="url(#g)"/><path d="M1.588,1.3a.265.265,0,0,1-.135-.035L.138.511a.272.272,0,0,1-.1-.372.27.27,0,0,1,.37-.1l1.315.75a.273.273,0,0,1-.133.5Z" transform="translate(30.567 29.204)" fill="#7b86f4"/><path d="M.287.7A.273.273,0,0,1,.259.151L1.759,0a.273.273,0,1,1,.053.542l-1.5.15Z" transform="translate(30.133 31.459)" fill="#7b86f4"/><path d="M.27,2.038H.25A.275.275,0,0,1,0,1.75L.075.25A.275.275,0,0,1,.363,0a.273.273,0,0,1,.25.285l-.075,1.5A.273.273,0,0,1,.27,2.038Z" transform="translate(33.25 27.817)" fill="#7b86f4"/><path d="M.272,1.612A.273.273,0,0,1,.08,1.147L1.147.079a.273.273,0,1,1,.385.388L.46,1.532A.273.273,0,0,1,.272,1.612Z" transform="translate(34.54 28.623)" fill="#7b86f4"/><circle cx="1.725" cy="1.725" r="1.725" transform="translate(5.825 40.325)" fill="url(#h)"/><circle cx="3.213" cy="3.213" r="3.213" transform="translate(8.855 0)" fill="url(#h)"/><circle cx="3.213" cy="3.213" r="3.213" transform="translate(47.055 19.823)" fill="url(#h)"/></g></svg>