<svg xmlns="http://www.w3.org/2000/svg" xmlns:xlink="http://www.w3.org/1999/xlink" width="52.838" height="45.02" viewBox="0 0 52.838 45.02"><defs><linearGradient id="a" x1="1.166" y1="1.087" x2="-0.027" y2="0.153" gradientUnits="objectBoundingBox"><stop offset="0" stop-color="#fff"/><stop offset="1" stop-color="#779dea"/></linearGradient><linearGradient id="b" y1="0.5" x2="1" y2="0.5" gradientUnits="objectBoundingBox"><stop offset="0" stop-color="#fb9f02"/><stop offset="0.32" stop-color="#fb9f02"/><stop offset="1" stop-color="#fc4c5c"/></linearGradient><linearGradient id="c" x1="0" x2="1.001" xlink:href="#b"/><linearGradient id="f" y1="0.5" x2="1" y2="0.5" gradientUnits="objectBoundingBox"><stop offset="0" stop-color="#4e54c8"/><stop offset="1" stop-color="#8f94fb"/></linearGradient><linearGradient id="g" x1="-0.37" y1="0.603" x2="0.711" y2="0.475" xlink:href="#a"/><linearGradient id="h" y1="0.5" x2="1" y2="0.5" gradientUnits="objectBoundingBox"><stop offset="0" stop-color="#366fe0"/><stop offset="0.56" stop-color="#214db5"/><stop offset="1" stop-color="#123597"/></linearGradient><linearGradient id="i" x1="0.413" y1="-0.418" x2="0.531" y2="0.756" xlink:href="#h"/></defs><g transform="translate(-0.001 -0.238)"><path d="M31.258,44.62a37.33,37.33,0,0,1-6.229-.24,35.982,35.982,0,0,1-14.476-4.662C-1.472,32.458-3.834,18.57,6.66,6.873,15.3-2.753,26.279-1.05,32.544,4.554a16.052,16.052,0,0,1,3.572,4.552,11.456,11.456,0,0,0,5.031,5.144c4.291,2.283,9.164,1.953,11.081,6.9C54.746,27.6,49.782,43.7,31.258,44.62Z" transform="translate(0.001 0.238)" fill="url(#a)"/><circle cx="3.855" cy="3.855" r="3.855" transform="translate(12.662 37.548)" fill="url(#b)"/><circle cx="1.996" cy="1.996" r="1.996" transform="translate(33.24 5.932)" fill="url(#c)"/><circle cx="1.318" cy="1.318" r="1.318" transform="translate(44.424 35.458)" fill="url(#b)"/><circle cx="1.318" cy="1.318" r="1.318" transform="translate(3.606 7.995)" fill="url(#b)"/><path d="M2.537,3.606a.2.2,0,0,1-.2.2H.2a.2.2,0,0,1-.2-.2V.2A.2.2,0,0,1,.2,0H2.338a.2.2,0,0,1,.2.2Z" transform="translate(26.522 24.591)" fill="#20ba7b"/><path d="M1.311,3.606V.2a.2.2,0,0,1,.2-.2H.2A.2.2,0,0,0,0,.2V3.606a.2.2,0,0,0,.2.2H1.509a.2.2,0,0,1-.2-.2Z" transform="translate(26.522 24.591)" fill="#2fdd96"/><path d="M2.537,8.048a.2.2,0,0,1-.2.2H.2a.2.2,0,0,1-.2-.2V.2A.2.2,0,0,1,.2,0H2.341a.2.2,0,0,1,.2.2Z" transform="translate(29.692 20.149)" fill="#20ba7b"/><path d="M1.313,8.048V.2a.2.2,0,0,1,.2-.2H.2A.2.2,0,0,0,0,.2V8.048a.2.2,0,0,0,.2.2H1.512a.2.2,0,0,1-.2-.2Z" transform="translate(29.692 20.149)" fill="#2fdd96"/><path d="M2.537,8.989a.2.2,0,0,1-.2.2H.2a.2.2,0,0,1-.2-.2V.2A.2.2,0,0,1,.2,0H2.338a.2.2,0,0,1,.2.2Z" transform="translate(32.864 19.207)" fill="#20ba7b"/><path d="M1.313,8.989V.2a.2.2,0,0,1,.2-.2H.2A.2.2,0,0,0,0,.2V9a.2.2,0,0,0,.2.2H1.509a.2.2,0,0,1-.2-.2Z" transform="translate(32.864 19.207)" fill="#2fdd96"/><path d="M2.537,7.889a.2.2,0,0,1-.2.2H.2a.2.2,0,0,1-.2-.2V.2A.2.2,0,0,1,.2,0H2.338a.2.2,0,0,1,.2.2Z" transform="translate(36.036 20.307)" fill="#20ba7b"/><path d="M2.535,9.466a.2.2,0,0,1-.2.2H.2a.2.2,0,0,1-.2-.2V.2A.2.2,0,0,1,.2,0H2.338a.2.2,0,0,1,.2.2Z" transform="translate(39.208 18.731)" fill="#20ba7b"/><path d="M1.311,7.889V.2a.2.2,0,0,1,.2-.2H.2A.2.2,0,0,0,0,.2V7.889a.2.2,0,0,0,.2.2H1.509a.2.2,0,0,1-.2-.2Z" transform="translate(36.036 20.307)" fill="#2fdd96"/><path d="M1.311,9.466V.2a.2.2,0,0,1,.2-.2H.2A.2.2,0,0,0,0,.2V9.473a.2.2,0,0,0,.2.2H1.521a.2.2,0,0,1-.2-.2Z" transform="translate(39.208 18.731)" fill="#2fdd96"/><path d="M2.537,11.536a.2.2,0,0,1-.2.2H.2a.2.2,0,0,1-.2-.2V.2A.2.2,0,0,1,.2,0H2.338a.2.2,0,0,1,.2.2Z" transform="translate(42.377 16.661)" fill="#20ba7b"/><path d="M2.525,12.487a.2.2,0,0,1-.2.2H.2a.2.2,0,0,1-.2-.2V.2A.2.2,0,0,1,.2,0H2.338a.2.2,0,0,1,.2.2Z" transform="translate(45.562 15.709)" fill="#20ba7b"/><path d="M1.313,11.536V.2a.2.2,0,0,1,.2-.2H.2A.2.2,0,0,0,0,.2V11.536a.2.2,0,0,0,.2.2H1.512a.2.2,0,0,1-.2-.2Z" transform="translate(42.377 16.661)" fill="#2fdd96"/><path d="M1.3,12.487V.2A.2.2,0,0,1,1.5,0H.2A.2.2,0,0,0,0,.2V12.487a.2.2,0,0,0,.2.2H1.509a.2.2,0,0,1-.2-.2Z" transform="translate(45.562 15.709)" fill="#2fdd96"/><path d="M10.125,20.254A10.127,10.127,0,1,1,20.254,10.13a10.127,10.127,0,0,1-10.13,10.125Z" transform="translate(2.856 11.433)" fill="url(#f)"/><path d="M15.956,7.978A7.978,7.978,0,1,1,7.978,0,7.978,7.978,0,0,1,15.956,7.978Z" transform="translate(5.003 13.584)" fill="url(#g)"/><path d="M3.613,0C1.617,0,0,.6,0,2.595V3.927c0-2,1.617-2.595,3.613-2.595s3.615.6,3.615,2.595V2.6C7.228.6,5.609,0,3.613,0Z" transform="translate(9.368 14.653)" fill="url(#h)"/><path d="M8.6,0H6.083V.436a1.124,1.124,0,1,1-2.247,0V0H1.322A1.323,1.323,0,0,0,0,1.322V3.064a7.976,7.976,0,0,0,9.926,0V1.322A1.323,1.323,0,0,0,8.6,0Z" transform="translate(8.021 24.742)" fill="url(#i)"/><path d="M1.2.211A3.493,3.493,0,0,1,0,0V.915a1.2,1.2,0,1,0,2.4,0V0A3.517,3.517,0,0,1,1.2.211Z" transform="translate(11.783 24.263)" fill="#fff"/><path d="M1.011,1.869V0A1.322,1.322,0,0,0,0,1.3v.383A1.325,1.325,0,0,0,1.2,3a3.517,3.517,0,0,1-.18-1.116Z" transform="translate(8.436 19.068)" fill="#fff"/><path d="M.182,0V1.869A3.517,3.517,0,0,1,0,2.985,1.325,1.325,0,0,0,1.2,1.668V1.3A1.322,1.322,0,0,0,.187.012Z" transform="translate(16.335 19.068)" fill="#fff"/><path d="M7.229,5.031A3.615,3.615,0,1,1,0,5.031V2.6C0,.6,1.618,0,3.614,0S7.229.6,7.229,2.6Z" transform="translate(9.367 15.906)" fill="#fff"/><path d="M14.505,19.843l-4.114-6.177a7.2,7.2,0,1,1,1.08-.656l4.088,6.131a.633.633,0,0,1-1.054.7Z" transform="translate(22.657 14.863)" fill="#fff"/></g></svg>