<svg xmlns="http://www.w3.org/2000/svg" width="17.965" height="11.977" viewBox="0 0 17.965 11.977">
  <g id="Group_19" data-name="Group 19" transform="translate(0 0)">
    <path id="Fill_1" data-name="Fill 1" d="M0,11.977H17.965V0H0Z" transform="translate(0 0)" fill="#f0f0f0"/>
    <path id="Fill_2" data-name="Fill 2" d="M7.86,0V4.866H0V7.111H7.86v4.865h2.246V7.111h7.86V4.866h-7.86V0Z" transform="translate(0 0)" fill="#d80027"/>
    <path id="Fill_3" data-name="Fill 3" d="M0,0,4.148,2.3V0Z" transform="translate(13.817 8.071)" fill="#0052b4"/>
    <path id="Fill_4" data-name="Fill 4" d="M0,0,7.03,3.905V2.8L1.988,0Z" transform="translate(10.935 8.071)" fill="#0052b4"/>
    <path id="Fill_5" data-name="Fill 5" d="M0,2.865H5.157L0,0Z" transform="translate(10.935 9.111)" fill="#0052b4"/>
    <path id="Fill_6" data-name="Fill 6" d="M0,0,7.03,3.905V2.8L1.988,0Z" transform="translate(10.935 8.071)" fill="#f0f0f0"/>
    <path id="Fill_7" data-name="Fill 7" d="M0,0,7.03,3.905V2.8L1.988,0Z" transform="translate(10.935 8.071)" fill="#d80027"/>
    <path id="Fill_8" data-name="Fill 8" d="M0,0V1.761L3.17,0Z" transform="translate(0 8.071)" fill="#0052b4"/>
    <path id="Fill_9" data-name="Fill 9" d="M0,3.409H6.135V0Z" transform="translate(0.894 8.568)" fill="#0052b4"/>
    <path id="Fill_10" data-name="Fill 10" d="M5.042,0,0,2.8v1.1L7.03,0Z" transform="translate(0 8.071)" fill="#d80027"/>
    <path id="Fill_11" data-name="Fill 11" d="M0,2.3H4.148L0,0Z" transform="translate(0 1.601)" fill="#0052b4"/>
    <path id="Fill_12" data-name="Fill 12" d="M0,0V1.1l5.042,2.8H7.03Z" transform="translate(0 0)" fill="#0052b4"/>
    <path id="Fill_13" data-name="Fill 13" d="M0,0,5.157,2.865V0Z" transform="translate(1.873 0)" fill="#0052b4"/>
    <path id="Fill_14" data-name="Fill 14" d="M0,0V1.1l5.042,2.8H7.03Z" transform="translate(0 0)" fill="#f0f0f0"/>
    <path id="Fill_15" data-name="Fill 15" d="M0,0V1.1l5.042,2.8H7.03Z" transform="translate(0 0)" fill="#d80027"/>
    <path id="Fill_16" data-name="Fill 16" d="M0,1.761H3.17V0Z" transform="translate(14.795 2.144)" fill="#0052b4"/>
    <path id="Fill_17" data-name="Fill 17" d="M0,0V3.409L6.135,0Z" transform="translate(10.935 0)" fill="#0052b4"/>
    <path id="Fill_18" data-name="Fill 18" d="M7.03,0,0,3.905H1.988L7.03,1.1Z" transform="translate(10.935 0)" fill="#d80027"/>
  </g>
</svg>
