<svg xmlns="http://www.w3.org/2000/svg" xmlns:xlink="http://www.w3.org/1999/xlink" width="569.819" height="446.286" viewBox="0 0 569.819 446.286"><defs><linearGradient id="a" x1="0.5" y1="1" x2="0.5" gradientUnits="objectBoundingBox"><stop offset="0" stop-color="#779dea"/><stop offset="0.1" stop-color="#91b0ee"/><stop offset="0.23" stop-color="#adc3f2"/><stop offset="0.38" stop-color="#c2d3f6"/><stop offset="0.54" stop-color="#d1def8"/><stop offset="0.72" stop-color="#dae4fa"/><stop offset="1" stop-color="#dde6fa"/></linearGradient><linearGradient id="b" x1="0.5" y1="1" x2="0.5" gradientUnits="objectBoundingBox"><stop offset="0" stop-color="#779dea"/><stop offset="0.2" stop-color="#9bb7f0"/><stop offset="0.4" stop-color="#b8cbf4"/><stop offset="0.61" stop-color="#ccdaf7"/><stop offset="0.81" stop-color="#d9e3f9"/><stop offset="1" stop-color="#dde6fa"/></linearGradient><linearGradient id="c" y1="0.499" x2="1.001" y2="0.501" gradientUnits="objectBoundingBox"><stop offset="0" stop-color="#4e54c8"/><stop offset="1" stop-color="#8f94fb"/></linearGradient><linearGradient id="d" x1="0.5" y1="1" x2="0.5" gradientUnits="objectBoundingBox"><stop offset="0" stop-color="#366fe0"/><stop offset="0.25" stop-color="#366fe0"/><stop offset="0.45" stop-color="#2f63d1"/><stop offset="0.84" stop-color="#1b43a9"/><stop offset="1" stop-color="#123597"/></linearGradient><linearGradient id="e" x1="0.5" y1="1" x2="0.5" gradientUnits="objectBoundingBox"><stop offset="0" stop-color="#fff" stop-opacity="0.4"/><stop offset="0.18" stop-color="#d8fbec" stop-opacity="0.549"/><stop offset="0.44" stop-color="#a6f5d3" stop-opacity="0.741"/><stop offset="0.67" stop-color="#82f0c1" stop-opacity="0.878"/><stop offset="0.86" stop-color="#6ceeb6" stop-opacity="0.969"/><stop offset="1" stop-color="#64edb2"/></linearGradient><linearGradient id="f" x1="0.5" x2="0.5" y2="0" xlink:href="#e"/><linearGradient id="g" y1="0.475" x2="1" y2="0.521" gradientUnits="objectBoundingBox"><stop offset="0" stop-color="#366fe0"/><stop offset="0.7" stop-color="#94cbff"/><stop offset="1" stop-color="#94cbff"/></linearGradient><linearGradient id="h" x1="0.5" y1="1" x2="0.5" gradientUnits="objectBoundingBox"><stop offset="0" stop-color="#dde6fa"/><stop offset="0.17" stop-color="#d8e2f9"/><stop offset="0.39" stop-color="#c8d7f7"/><stop offset="0.62" stop-color="#afc5f3"/><stop offset="0.88" stop-color="#8babed"/><stop offset="1" stop-color="#779dea"/></linearGradient><linearGradient id="i" x1="0.5" y1="1" x2="0.5" gradientUnits="objectBoundingBox"><stop offset="0" stop-color="#dde6fa" stop-opacity="0"/><stop offset="0.04" stop-color="#dbe5fa" stop-opacity="0.031"/><stop offset="0.1" stop-color="#d6e1f9" stop-opacity="0.122"/><stop offset="0.18" stop-color="#cedbf8" stop-opacity="0.271"/><stop offset="0.27" stop-color="#c3d3f6" stop-opacity="0.471"/><stop offset="0.36" stop-color="#b5c9f4" stop-opacity="0.729"/><stop offset="0.45" stop-color="#a7bff2"/><stop offset="0.61" stop-color="#98b5f0"/><stop offset="1" stop-color="#779dea"/></linearGradient><linearGradient id="j" x1="0" y1="0.5" x2="1" y2="0.5" xlink:href="#h"/><linearGradient id="k" y1="0.5" x2="1" y2="0.5" gradientUnits="objectBoundingBox"><stop offset="0" stop-color="#779dea"/><stop offset="0.12" stop-color="#8babed"/><stop offset="0.38" stop-color="#afc5f3"/><stop offset="0.61" stop-color="#c8d7f7"/><stop offset="0.83" stop-color="#d8e2f9"/><stop offset="1" stop-color="#dde6fa"/></linearGradient><linearGradient id="l" x1="0" y1="0.5" x2="1" y2="0.5" xlink:href="#e"/></defs><g transform="translate(0.003)"><path d="M495.352,189.365c-40.81,23.476-40.054,3.142-91.274,17.645-27.6,7.814-43.482,27.1-55.841,50.069-17.023,31.651-27.358,70.318-52.438,95.7q-3.235,3.277-6.814,6.243a85.7,85.7,0,0,1-30.315,16.124c-29.929,9.091-59.051,12.175-85.518,10.3a192.355,192.355,0,0,1-27.879-3.957,160.156,160.156,0,0,1-35.088-11.9C81,355.6,60.384,333.4,53.494,306c-11.015-43.8,15.6-67.588.941-120.942C39.084,129.062-8.052,129.835,1.19,81.942,21.305-22.246,132.358,48.611,255.434,32.369c69.2-9.142,249.791-83.283,286.66,29.408C556.588,106.065,533.742,167.293,495.352,189.365Z" transform="translate(23.327 14.81)" fill="url(#a)"/><path d="M175.086,87.232c-17.023,31.651-27.358,70.318-52.438,95.7q-3.235,3.277-6.814,6.243A85.7,85.7,0,0,1,85.518,205.3C55.589,214.358,26.467,217.442,0,215.568L100.121,0l58.984,13.007Z" transform="translate(196.478 184.69)" fill="url(#b)"/><path d="M54.312,87.383l-30.8,27.727L0,46.8,1.966,0,54.312,87.383Z" transform="translate(130.411 184.69)" fill="#bfbfbf"/><path d="M316.1,214.989l-300.045.429A15.779,15.779,0,0,1,.26,199.671L0,16.225A15.771,15.771,0,0,1,15.746.429L315.79,0a15.771,15.771,0,0,1,15.8,15.746l.26,183.438a15.771,15.771,0,0,1-15.746,15.8Z" transform="translate(132.378 61.286)" fill="#fff"/><rect width="276.93" height="191.303" transform="translate(165.156 73.541) rotate(-0.08)" fill="url(#c)"/><path d="M272.5,178.842h-.034L.26,179.237.227,156.383.218,148.5,0,.387,272.25,0l.2,144.166.05,34.676Z" transform="translate(169.843 85.611)" fill="url(#d)"/><path d="M20.081,0,0,20.1l73.058-.017L93.114,0Z" transform="translate(257.504 148.947)" fill="#f7f7f7"/><rect width="48.691" height="20.098" transform="translate(281.845 173.322)" fill="#f7f7f7"/><path d="M48.674,24.375,48.691,0,24.316.059,0,24.375Z" transform="translate(306.22 120.287)" fill="#f7f7f7"/><path d="M0,0V20.006L20,0Z" transform="translate(306.22 197.697)" fill="#f7f7f7"/><path d="M272.233,51.977,0,52.372V13.444C7.982,7.563,20.115,28.711,26.148,26.107,33.533,22.922,23.291,6.723,42.7,6.723c15.964,0,9.822,32.954,25,19.115,13.7-12.486,17.7-7.016,23.736,1.891,5.579,8.234,13.309,5.68,18.233,2.521a26.7,26.7,0,0,0,7.512-7.4l10.99-16.124,15.712-2.1s5.882,13.023,12.6,25.148,24.669-22.737,34.869-10.444c16.384,19.745,8.495-9.7,18.855-17.645,7.612-5.831,21.476,4.621,30.3,14.284S253.53-4.906,264.032,4.756c8.873,8.159.067,20.216,8.133,25.282Z" transform="translate(170.112 212.475)" opacity="0.8" fill="url(#e)"/><path d="M272.233,42.163,0,42.557V19.7C7.982,13.872,20.107,34.97,26.139,32.365c7.386-3.184-2.865-19.376,16.552-19.376,15.964,0,9.822,32.945,25,19.115,13.7-12.494,17.7-7.024,23.736,1.891,5.579,8.234,13.309,5.68,18.233,2.521a26.7,26.7,0,0,0,7.512-7.4L132.7,3.672,141.141,0s8.68,23.921,15.4,36.046S181.211,13.3,191.412,25.6c16.384,19.745,8.495-9.7,18.855-17.645,7.612-5.84,21.476,4.621,30.3,14.284s13.023-20.88,23.526-11.217c8.873,8.159.067,20.216,8.133,25.282Z" transform="translate(170.078 222.29)" opacity="0.8" fill="url(#f)"/><rect width="272.25" height="8.226" transform="translate(169.834 77.778) rotate(-0.08)" fill="url(#g)"/><rect width="14.897" height="14.897" rx="7.449" transform="translate(141.434 161.773) rotate(-0.08)" fill="#64edff"/><path d="M113.254,109.851a15.779,15.779,0,0,1-15.8-15.746L97.323,0q-3.3,3.621-6.419,7.344C54.993,50.2,70.587,75.36,42.171,139.645c-2.588,5.882-19.527,34.71-34.685,54.052l-1.68,2.159c-1.16,1.47-2.277,2.865-3.361,4.2-5.167,6.495-1.84,14.99,7.117,18.216L70,240.01c9.335,3.361,20.451.4,25.089-6.68l.437-.664,1.487-2.26c14.738-22.434,40.7-61.152,44.918-61.916,14.654-2.655,28.4-22.955,36.407-34.164a51.245,51.245,0,0,0,9.242-24.61Z" transform="translate(35.18 166.852)" fill="url(#h)"/><path d="M71.335,174.5c7.369-7.7,27.223-46.271,28.29-55.8S99.289,99.6,97.307,90.136C95.92,83.507,94.24,76.81,95.13,70.131c1.68-12.528,12.469-22.686,15.376-35,2.386-10.083,5.814-21.266-1.891-30.6C106,1.358,101.432-1.347,96.576.728s-6.461,7.831-8.839,11.251Q82.871,18.986,78,25.985q-9.847,14.191-19.7,28.366l-2.638,3.815c-.2.3-.412.6-.622.9C40.936,79.591,11.015,129.3,0,150.943Z" transform="translate(76.486 181.996)" fill="url(#i)"/><path d="M164.131,269.333l-76.5,7.083c-7.436.689-14.124-3.966-15.057-10.478-.16-1.176-.344-2.411-.529-3.714-.118-.84-.244-1.638-.37-2.521-2.579-17.367-6.865-42.625-11.066-53.858-20.712-21.182-41.633-41.121-53-80.116C2.144,106.977-3.267,89.559,2.421,86.021c4.478-2.79,10.041-1.571,16.485,5.041,3.831,3.907,9.1,12.04,12.292,17.208.21.344.429.672.613.991.3.471.563.916.8,1.311.723,1.185,1.21,2.008,1.37,2.269v.059h0c-.328-.916-7.142-20.291-11.906-48.792C16.335,29.726,7.731,4.746,22.586.528,34.543-2.832,38.71,10.1,45.894,31.886c6.814,20.661,22.039,59.858,22.039,59.858S65.892,72.225,80.428,71.712C101.332,70.965,99.921,91,103.114,91.4c6.587.84,9.2-5.167,19.6-1.294,12.158,4.529,10.251,11.091,16.536,13.1,4.3,1.37,9.411-4.966,21.443,3.47,14.872,10.419,6.671,52.506-1.395,82.661-1.68,6.386,6.234,40.5,11.52,61.757.21.84.42,1.68.613,2.479.479,1.874.916,3.621,1.319,5.209C174.088,263.847,170.038,268.787,164.131,269.333Z" transform="translate(300.69 166.853)" fill="url(#j)"/><path d="M10.293,39.734A90.484,90.484,0,0,0,6.932,17.393C3.983,7.545,2.773,4.663,2.773,4.663S1.68,2.748,0,0C.664,2.109,3.168,10.083,5.285,17.485,6.94,23.274,10.293,39.734,10.293,39.734Z" transform="translate(331.889 275.09)" fill="#bfbfbf"/><path d="M99.844,2.5.37,11.192C.252,10.352.126,9.553,0,8.671L99.189,0C99.4.874,99.609,1.706,99.844,2.5Z" transform="translate(372.363 417.886)" fill="#64edff"/><path d="M101.533,26.2c.689,11.721-4.47,32.2-8.276,45.456-2.176,7.562-9.612,13.04-18.485,13.578L44.818,87.047c-12.3.748-23.526-6.226-26.744-16.662C11.629,49.69,1.748,17.325,0,7.881L1.143,6.52C5.991.764,14.586-1.488,22.232,1.008L35.382,5.3l.067-.059A16.194,16.194,0,0,1,54.993,3.764L61.2,7.881,64.471,6.57A14.8,14.8,0,0,1,79.746,9.149l8.948,8.217h2.269C96.567,17.367,101.247,21.249,101.533,26.2Z" transform="translate(347.568 267.234)" fill="none" stroke="#fff" stroke-miterlimit="10" stroke-width="2"/><path d="M91.24,36.7l-1.487,2.26L0,2.159,1.68,0Z" transform="translate(40.953 360.583)" fill="#64edff"/><path d="M6.775.68C11.262-3.95,57.836,15.292,61.55,51.287c1.63,15.8-4.47,40.1-22.737,45.675C22.336,102,1.263,90.189.054,78.754c-1.227-11.7,18.981-14.964,23.207-32.878C28.512,23.643,3.087,4.444,6.775.68Z" transform="translate(-0.003 173.247)" fill="url(#k)"/><circle cx="26.173" cy="26.173" r="26.173" transform="translate(470.131 273.628)" opacity="0.8" fill="url(#l)"/><circle cx="10.352" cy="10.352" r="10.352" transform="translate(492.255 140.654)" fill="#fff"/><circle cx="10.352" cy="10.352" r="10.352" transform="translate(197.411 425.583)" fill="#dedede"/><circle cx="15.469" cy="15.469" r="15.469" transform="translate(235.095 0)" fill="#dde6fa"/><circle cx="10.352" cy="10.352" r="10.352" transform="translate(95.416 100.289)" fill="none" stroke="#fff" stroke-miterlimit="10" stroke-width="2"/><circle cx="35.012" cy="35.012" r="35.012" transform="translate(12.208 36.39)" fill="#fff"/><circle cx="28.568" cy="28.568" r="28.568" transform="translate(489.163 51.657)" fill="none" stroke="#fff" stroke-miterlimit="10" stroke-width="2"/><path d="M4.352,4.352a15.8,15.8,0,0,0,3.529-.412,15.8,15.8,0,0,0-3.529-.412A15.8,15.8,0,0,0,3.941,0a15.8,15.8,0,0,0-.412,3.529A15.8,15.8,0,0,0,0,3.941a15.326,15.326,0,0,0,3.529.412,15.326,15.326,0,0,0,.412,3.529A15.8,15.8,0,0,0,4.352,4.352Z" transform="translate(218.627 104.877)" fill="#cfcfcf"/><path d="M4.344,4.344a15.326,15.326,0,0,0,3.529-.412,15.8,15.8,0,0,0-3.529-.4A15.326,15.326,0,0,0,3.932,0a15.8,15.8,0,0,0-.4,3.529A15.317,15.317,0,0,0,0,3.932a15.326,15.326,0,0,0,3.529.412,15.317,15.317,0,0,0,.4,3.529A15.326,15.326,0,0,0,4.344,4.344Z" transform="translate(362.667 110.641)" fill="#cfcfcf"/><path d="M4.352,4.352a15.8,15.8,0,0,0,3.529-.412,15.8,15.8,0,0,0-3.529-.412A15.326,15.326,0,0,0,3.941,0a15.8,15.8,0,0,0-.4,3.529A15.88,15.88,0,0,0,0,3.941a15.326,15.326,0,0,0,3.529.412,15.8,15.8,0,0,0,.412,3.529,15.326,15.326,0,0,0,.412-3.529Z" transform="translate(412.727 157.416)" fill="#cfcfcf"/><path d="M4.344,4.344a15.326,15.326,0,0,0,3.529-.412,15.8,15.8,0,0,0-3.529-.4A15.326,15.326,0,0,0,3.932,0a15.8,15.8,0,0,0-.4,3.529A15.8,15.8,0,0,0,0,3.932a15.326,15.326,0,0,0,3.529.412,15.317,15.317,0,0,0,.4,3.529A15.326,15.326,0,0,0,4.344,4.344Z" transform="translate(236.801 153.484)" fill="#cfcfcf"/><path d="M2.983,2.983A10.814,10.814,0,0,0,5.4,2.7a10.805,10.805,0,0,0-2.42-.277A10.352,10.352,0,0,0,2.7,0,10.805,10.805,0,0,0,2.42,2.42,10.805,10.805,0,0,0,0,2.7a10.352,10.352,0,0,0,2.42.286A10.73,10.73,0,0,0,2.7,5.394a10.276,10.276,0,0,0,.286-2.411Z" transform="translate(410.03 102.155)" fill="#cfcfcf"/><path d="M4.352,4.344a15.8,15.8,0,0,0,3.529-.4,15.326,15.326,0,0,0-3.529-.412A15.8,15.8,0,0,0,3.941,0a15.8,15.8,0,0,0-.412,3.529A15.326,15.326,0,0,0,0,3.941a15.317,15.317,0,0,0,3.529.4,15.326,15.326,0,0,0,.412,3.529,15.8,15.8,0,0,0,.412-3.529Z" transform="translate(192.26 136.898)" fill="#cfcfcf"/><circle cx="24.955" cy="24.955" r="24.955" transform="translate(422.113 47.095)" fill="#2fdd96" stroke="#fff" stroke-miterlimit="10" stroke-width="6"/><path d="M6.5,25.442V22.851a9.372,9.372,0,0,1-4.2-1.476v.034A5.15,5.15,0,0,1,0,17.132H2.521a4.089,4.089,0,0,0,1.353,2.521,5.291,5.291,0,0,0,2.63.994V13.613l-.4-.094a9.517,9.517,0,0,1-4.2-1.94A4.438,4.438,0,0,1,.5,8.116,4.875,4.875,0,0,1,2.462,4.025,7.826,7.826,0,0,1,6.5,2.529V0H8.267V2.533A7.679,7.679,0,0,1,12.259,4.05a5.251,5.251,0,0,1,2.109,4.2h-2.52A3.364,3.364,0,0,0,10.461,5.73a5.087,5.087,0,0,0-2.193-.808v6.6l.455.11a10.537,10.537,0,0,1,4.378,1.94,4.439,4.439,0,0,1,1.495,3.563,4.847,4.847,0,0,1-2.151,4.31,9.373,9.373,0,0,1-4.176,1.416v2.583Zm1.764-4.819a4.436,4.436,0,0,0,2.7-.919,2.976,2.976,0,0,0,1.042-2.319,2.852,2.852,0,0,0-.765-2.017A6.11,6.11,0,0,0,8.3,14.04l-.034-.008ZM4.2,5.848A2.821,2.821,0,0,0,3.092,8.024a2.716,2.716,0,0,0,.764,1.8A5.5,5.5,0,0,0,6.5,11.094V4.917A4.855,4.855,0,0,0,4.2,5.848Z" transform="translate(439.782 59.328)" fill="#fff"/><circle cx="20.678" cy="20.678" r="20.678" transform="translate(85.09 47.095)" fill="#2fdd96"/><path d="M5.42,18.958a7.786,7.786,0,0,1-3.479-1.22A4.278,4.278,0,0,1,0,14.183H2.118a3.357,3.357,0,0,0,1.126,2.109,4.3,4.3,0,0,0,2.176.837V11.3l-.345-.083a7.944,7.944,0,0,1-3.47-1.6A3.671,3.671,0,0,1,.411,6.747,4.055,4.055,0,0,1,2.033,3.386,6.536,6.536,0,0,1,5.42,2.1V0H6.873V2.1a6.385,6.385,0,0,1,3.293,1.257,4.351,4.351,0,0,1,1.748,3.461H9.8A2.8,2.8,0,0,0,8.663,4.7a4.142,4.142,0,0,0-1.789-.689V9.59l.336.081a8.7,8.7,0,0,1,3.614,1.613,3.655,3.655,0,0,1,1.268,2.983A4.023,4.023,0,0,1,10.343,17.8a7.784,7.784,0,0,1-3.47,1.17V21.09L5.42,21.1Zm1.453-1.814a4.361,4.361,0,0,0,2.243-.792,2.521,2.521,0,0,0,.841-1.924,2.335,2.335,0,0,0-.63-1.681A5.045,5.045,0,0,0,6.89,11.654l-.016,0ZM3.461,4.814a2.319,2.319,0,0,0-.915,1.8,2.217,2.217,0,0,0,.63,1.563A4.5,4.5,0,0,0,5.395,9.234l.025.006V4A3.975,3.975,0,0,0,3.461,4.814Z" transform="translate(99.726 57.236)" fill="#fff"/></g></svg>