<svg xmlns="http://www.w3.org/2000/svg" xmlns:xlink="http://www.w3.org/1999/xlink" width="569.96" height="411.975" viewBox="0 0 569.96 411.975"><defs><linearGradient id="a" x1="0.478" y1="1.001" x2="0.543" y2="0.025" gradientUnits="objectBoundingBox"><stop offset="0" stop-color="#779dea"/><stop offset="0.06" stop-color="#8daded"/><stop offset="0.2" stop-color="#b8ccf4"/><stop offset="0.3" stop-color="#d3dff8"/><stop offset="0.36" stop-color="#dde6fa"/><stop offset="1" stop-color="#fff"/></linearGradient><linearGradient id="b" x1="0.5" y1="1" x2="0.5" gradientUnits="objectBoundingBox"><stop offset="0" stop-color="#779dea"/><stop offset="0.17" stop-color="#8aabed"/><stop offset="0.73" stop-color="#c6d5f6"/><stop offset="1" stop-color="#dde6fa"/></linearGradient><linearGradient id="c" y1="0.5" x2="1" y2="0.5" gradientUnits="objectBoundingBox"><stop offset="0" stop-color="#779dea"/><stop offset="0.01" stop-color="#7a9feb"/><stop offset="0.11" stop-color="#99b5ef"/><stop offset="0.22" stop-color="#b2c7f3"/><stop offset="0.35" stop-color="#c5d5f6"/><stop offset="0.49" stop-color="#d3dff8"/><stop offset="0.67" stop-color="#dbe4fa"/><stop offset="1" stop-color="#dde6fa"/></linearGradient><linearGradient id="d" x1="0.5" y1="1" x2="0.5" gradientUnits="objectBoundingBox"><stop offset="0" stop-color="#366fe0"/><stop offset="0.25" stop-color="#366fe0"/><stop offset="0.45" stop-color="#2f63d1"/><stop offset="0.84" stop-color="#1b43a9"/><stop offset="1" stop-color="#123597"/></linearGradient><linearGradient id="e" y1="0.5" x2="1" y2="0.5" gradientUnits="objectBoundingBox"><stop offset="0" stop-color="#4e54c8"/><stop offset="1" stop-color="#8f94fb"/></linearGradient><linearGradient id="f" x1="0.5" y1="1" x2="0.5" y2="0" xlink:href="#e"/><linearGradient id="g" x1="0.5" y1="1" x2="0.5" gradientUnits="objectBoundingBox"><stop offset="0" stop-color="#123597"/><stop offset="0.16" stop-color="#1b43a9"/><stop offset="0.55" stop-color="#2f63d1"/><stop offset="0.75" stop-color="#366fe0"/><stop offset="1" stop-color="#366fe0"/></linearGradient><linearGradient id="h" x1="-0.002" y1="0.421" x2="1.011" y2="0.564" gradientUnits="objectBoundingBox"><stop offset="0" stop-color="#2a5bc7"/><stop offset="0.13" stop-color="#2452bc"/><stop offset="0.42" stop-color="#1a42a7"/><stop offset="0.71" stop-color="#14389b"/><stop offset="1" stop-color="#123597"/></linearGradient><linearGradient id="i" x1="-0.014" y1="0.394" x2="1.014" y2="0.599" gradientUnits="objectBoundingBox"><stop offset="0" stop-color="#366fe0"/><stop offset="0.7" stop-color="#94cbff"/><stop offset="1" stop-color="#94cbff"/></linearGradient><linearGradient id="j" x1="-7.91" y1="3.221" x2="-6.882" y2="3.221" xlink:href="#i"/><linearGradient id="k" x1="-4.379" y1="5.055" x2="-3.377" y2="5.055" xlink:href="#i"/><linearGradient id="l" x1="-18.545" y1="12.779" x2="-17.547" y2="12.779" xlink:href="#i"/><linearGradient id="m" x1="-66.915" y1="2.671" x2="-65.678" y2="2.671" xlink:href="#i"/><linearGradient id="n" x1="-95.454" y1="5.168" x2="-94.377" y2="5.168" xlink:href="#i"/><linearGradient id="o" x1="-160.946" y1="21.334" x2="-160.946" y2="21.334" xlink:href="#i"/><linearGradient id="p" x1="-86.819" y1="8.251" x2="-85.877" y2="8.251" xlink:href="#i"/><linearGradient id="q" x1="-160.95" y1="21.364" x2="-160.94" y2="21.364" xlink:href="#i"/><linearGradient id="r" y1="0.501" y2="0.501" xlink:href="#e"/><linearGradient id="s" x1="0.5" y1="1" x2="0.5" gradientUnits="objectBoundingBox"><stop offset="0" stop-color="#4e54c8"/><stop offset="0.22" stop-color="#555acd"/><stop offset="0.53" stop-color="#676ddc"/><stop offset="0.9" stop-color="#858af3"/><stop offset="1" stop-color="#8f94fb"/></linearGradient><linearGradient id="t" y1="0.5" x2="1" y2="0.5" gradientUnits="objectBoundingBox"><stop offset="0" stop-color="#fb9f02"/><stop offset="0.32" stop-color="#fb9f02"/><stop offset="1" stop-color="#fc4c5c"/></linearGradient><linearGradient id="u" y1="0.5" x2="1" y2="0.5" gradientUnits="objectBoundingBox"><stop offset="0" stop-color="#fff"/><stop offset="1" stop-color="#fafafa" stop-opacity="0"/></linearGradient><linearGradient id="v" x1="0.5" x2="0.5" xlink:href="#b"/><linearGradient id="w" x1="0.5" y1="1" x2="0.5" y2="0" xlink:href="#c"/><linearGradient id="x" x1="0.5" y1="1" x2="0.5" gradientUnits="objectBoundingBox"><stop offset="0" stop-color="#779dea"/><stop offset="0.12" stop-color="#8babed"/><stop offset="0.38" stop-color="#afc5f3"/><stop offset="0.61" stop-color="#c8d7f7"/><stop offset="0.83" stop-color="#d8e2f9"/><stop offset="1" stop-color="#dde6fa"/></linearGradient><linearGradient id="y" x1="0" y1="0.5" x2="1" y2="0.5" xlink:href="#d"/><linearGradient id="z" x1="0.001" y1="0.498" x2="1" y2="0.498" gradientUnits="objectBoundingBox"><stop offset="0" stop-color="#dde6fa"/><stop offset="0.17" stop-color="#d8e2f9"/><stop offset="0.39" stop-color="#c8d7f7"/><stop offset="0.62" stop-color="#afc5f3"/><stop offset="0.88" stop-color="#8babed"/><stop offset="1" stop-color="#779dea"/></linearGradient><linearGradient id="aa" x1="0" y1="0.5" y2="0.5" xlink:href="#z"/><linearGradient id="ab" x1="1.006" y1="-0.25" x2="0.318" y2="0.842" gradientUnits="objectBoundingBox"><stop offset="0.16" stop-color="#fff"/><stop offset="0.23" stop-color="#fbfffd" stop-opacity="0.969"/><stop offset="0.34" stop-color="#effdf7" stop-opacity="0.902"/><stop offset="0.47" stop-color="#dcfbee" stop-opacity="0.769"/><stop offset="0.61" stop-color="#c1f8e0" stop-opacity="0.6"/><stop offset="0.77" stop-color="#9ff4cf" stop-opacity="0.38"/><stop offset="0.93" stop-color="#76efbb" stop-opacity="0.11"/><stop offset="1" stop-color="#64edb2" stop-opacity="0"/></linearGradient><linearGradient id="ac" x1="1.246" y1="-0.108" x2="0.188" y2="0.876" xlink:href="#ab"/><linearGradient id="ad" x1="0" y1="0.5" x2="1" y2="0.5" xlink:href="#c"/><linearGradient id="af" x1="0.5" y1="1.004" x2="0.5" y2="0" xlink:href="#e"/><linearGradient id="ag" y1="0.5" x2="1.001" y2="0.5" xlink:href="#e"/><linearGradient id="ah" x1="0" y1="0.5" y2="0.5" xlink:href="#t"/><linearGradient id="ai" x1="0.5" y1="1" x2="0.5" y2="0" xlink:href="#s"/><linearGradient id="aj" x1="-0.003" y1="0.499" x2="0.998" y2="0.499" xlink:href="#t"/><linearGradient id="ak" x1="0" y1="0.5" y2="0.5" xlink:href="#z"/><linearGradient id="al" x1="0.71" y1="-0.32" x2="0.326" y2="1.154" xlink:href="#ab"/></defs><g transform="translate(0.261)"><path d="M453,316.054c-15.174,15.16-36.152,25.547-60.625,32.242-72.325,19.773-95.326-32.1-194.619-9.212C109.723,359.394,44.26,326.753,16.2,276.754a118.377,118.377,0,0,1-8.915-20.005C-13.3,195.914,14.209,192.541,34.533,105.02s97.045-125.334,173.018-94.3A347.291,347.291,0,0,0,306.54,34.849a161.548,161.548,0,0,1,119.6,70.555,369.264,369.264,0,0,1,31.778,59.015C490.083,238.535,482.656,286.416,453,316.054Z" transform="translate(37.85 7.845)" fill="url(#a)"/><circle cx="49.012" cy="49.012" r="49.012" transform="translate(0.689 173.417)" fill="none" stroke="#fff" stroke-miterlimit="10" stroke-width="1.9"/><path d="M0,0V73.471H18.54" transform="translate(267.909 53.763)" fill="none" stroke="#fff" stroke-miterlimit="10" stroke-width="1.9"/><path d="M0,0H35.136V57.288" transform="translate(437.025 200.64)" fill="none" stroke="#fff" stroke-miterlimit="10" stroke-width="1.9"/><path d="M0,.363H84.387" transform="translate(432.89 257.565)" fill="none" stroke="#fff" stroke-miterlimit="10" stroke-width="1.9"/><path d="M71.2,16.785h0L66.537,0,63.345,7.428a14.652,14.652,0,0,0-6.3-1.414h-24.2L0,136.091l49.324-.6L71.447,23.545A14.6,14.6,0,0,0,71.2,16.785Z" transform="translate(375.732 185.095)" fill="url(#b)"/><path d="M32.887,0h24.22a14.681,14.681,0,0,1,14.4,17.532L49.324,129.475,0,130.077Z" transform="translate(370.851 173.599)" fill="url(#c)"/><circle cx="88.979" cy="88.979" r="88.979" transform="translate(391.741 0)" fill="#fff"/><path d="M146.524,73.249c0,1.3-.036,2.582-.1,3.866a73.349,73.349,0,0,1-73.2,69.4c-2.386,0-4.751-.116-7.079-.341a73.261,73.261,0,1,1,80.376-72.927Z" transform="translate(407.45 15.723)" fill="url(#d)"/><path d="M3.064,2.184v.058A2.176,2.176,0,0,0,4.885,4.418c3.554.631,11.1,2.038,11.606,2.125l-14.913,1A1.683,1.683,0,0,0,0,9.328H0a1.719,1.719,0,0,0,1.509,1.618C5.951,11.5,19.3,13.187,19.3,13.187L8.417,19.781a2.379,2.379,0,0,0-.979,3.068,2.234,2.234,0,0,0,.885.928,2.27,2.27,0,0,0,2.053.138l2.706-1.146-1.574,1.886a2.5,2.5,0,0,0,.319,3.511,3.112,3.112,0,0,0,.326.239,2.531,2.531,0,0,0,2.459.044l1.85-1.545a2.793,2.793,0,0,1,1.356-.595l5.962-.762s8.784,7.254,15.711,8.363L63.769,53.452,76.1,30.385,46.847,17.1l-.37-.384-.428-.45-.406-.428L35.633,5.3l-.37-.4-.283-.3L33.638,3.148a3.627,3.627,0,0,0-2.372-1.132h-.319L5.422.008A2.176,2.176,0,0,0,3.064,2.184Z" transform="translate(99.754 172.858)" fill="#c4c4c4"/><path d="M147.3,0,132.652,58.754,86.73,92.047,86,92.555l-3.126,2.263a18.809,18.809,0,0,1-2.9,2.009,19.142,19.142,0,0,1-17.6.53l-.537-.261-6.528-3.148-.791-.384L0,67.385c1.886-7.159,12.331-23.073,12.331-23.073C33.787,52.74,69.467,62.859,69.467,62.859c5.534-5.9,30.4-31.255,41.809-42.005a71.505,71.505,0,0,1,11.874-9.081C138.339,2.531,147.3,0,147.3,0Z" transform="translate(163.516 158.925)" fill="url(#e)"/><path d="M102.717,0,48.454,46.517A24.082,24.082,0,0,1,23.937,50.63L0,41.2" transform="translate(197.535 185.095)" fill="none" stroke="#64edff" stroke-miterlimit="10" stroke-width="0.97"/><path d="M34.536,6.847S21.436,10.6,15.872,16.4-2.748,98.967.516,124.717s2.539,30.1,2.539,30.1H88.647L111.5,15.552S88.647,6.274,82.873,0Z" transform="translate(289.095 146.804)" fill="url(#f)"/><path d="M19.766,0S5.607,91.242,0,112.234" transform="translate(320.983 158.925)" fill="none" stroke="#64edff" stroke-miterlimit="10" stroke-width="0.97"/><path d="M0,0S15.406,9.125,58.521,11.12" transform="translate(289.343 252.423)" fill="none" stroke="#64edff" stroke-miterlimit="10" stroke-width="0.97"/><path d="M36.877,21.071S9.85,36.449,0,35.064l.225-1.6L.566,31.2l.355-2.43,1.32-9.038L30.059,1.763,32.779,0Z" transform="translate(326.408 119.792)" fill="#f0beb4"/><path d="M0,29.435.355,27l1.32-9.038L29.493,0c.051.239.109.45.1.479C29.377,11.3,11.925,29.188,0,29.435Z" transform="translate(326.945 121.555)" fill="#b48f87"/><path d="M24.5,13.325S18.454,34.36,8.735,36.572.03,29.493.03,29.493L1.974,0S25.048,9.415,24.5,13.325Z" transform="translate(348.509 87.963)" fill="url(#g)"/><path d="M1.919.8s-4.229,26.9-.131,38.444,7.754,18,16.618,17.2S40.3,48.089,42.945,40.72c0,0,6.187,1.306,7.254-5.846s-4.744-9.089-8.269-5.665-5.346,5.077-5.346,5.077a27.614,27.614,0,0,0,4.882-12.665c.37-3.96-5.469-2.437-4.787-4.9C42.821-5.391,1.919.8,1.919.8Z" transform="translate(314.335 83.816)" fill="#f0beb4"/><ellipse cx="4.33" cy="3.075" rx="4.33" ry="3.075" transform="matrix(0.168, -0.986, 0.986, 0.168, 324.136, 131.429)" fill="#fff"/><ellipse cx="3.271" cy="1.422" rx="3.271" ry="1.422" transform="matrix(0.168, -0.986, 0.986, 0.168, 335.379, 112.431)" fill="#1b4736"/><ellipse cx="2.677" cy="1.168" rx="2.677" ry="1.168" transform="translate(321.091 109.095) rotate(-86.19)" fill="#1b4736"/><path d="M8.623,3.839,6.549,1.568A4.432,4.432,0,0,0,3.5.117L1.181,0A1.124,1.124,0,0,0,.006,1.017v.145A1.117,1.117,0,0,0,1.072,2.4l2.742.123A4.352,4.352,0,0,1,5.3,2.845L8.427,4.129a.189.189,0,0,0,.2-.29Z" transform="translate(336.499 101.272)" fill="#1b4736"/><path d="M.118,1.613,3.317.285a3.721,3.721,0,0,1,2.858,0l2.379.965A1.153,1.153,0,0,1,9.207,2.7v.073a1.161,1.161,0,0,1-1.538.689L5.058,2.382a3.627,3.627,0,0,0-1.269-.276L.162,1.939a.167.167,0,0,1-.044-.326Z" transform="translate(316.73 96.847)" fill="#1b4736"/><path d="M5.193,0S4.149,4.947,1.675,6.528s-2.111,4.628.45,5.027" transform="translate(323.036 109.042)" fill="none" stroke="#fff" stroke-miterlimit="10" stroke-width="2"/><path d="M10.034,30.267a20.811,20.811,0,0,0,2.278-.065c3.525-.21,5.223-.094,7.21-.261.841-.065,2.176-.261,2.176-.254,1.973-.261,3.1-.341,4.548-.58,5.941-.957,1.088-.094,6.528-1.132,1.567-.3,3.286-.479,4.591-.725.239-.044.486-.087.725-.109a.276.276,0,0,1-.044.087c-.355.646-.769,1.262-1.139,1.9-.725,1.269-.921,1.661-.928,2.1a1.393,1.393,0,0,0,.653,1.269,3.569,3.569,0,0,0,1.734.515,14.332,14.332,0,0,0,2-.044l1.973-.116A20.441,20.441,0,0,1,46.526,33a17.691,17.691,0,0,1,2.51.522,7.159,7.159,0,0,1,1.139.421,1.262,1.262,0,0,1,.515.464,1.131,1.131,0,0,1,.131.486,7.667,7.667,0,0,1-.225,1.451,3.931,3.931,0,0,0-.087,2.459,2.176,2.176,0,0,0,.551.725,4.642,4.642,0,0,0,1.393.82l.145.051a4.642,4.642,0,0,0,.776.225,3.627,3.627,0,0,0,.841.08,4.722,4.722,0,0,0,1.139-.181,8.98,8.98,0,0,0,1.182-.421c.37-.16.725-.326,1.059-.486l.225-.116c.218-.109.45-.218.675-.312h.123l.044.036h0a.906.906,0,0,1,.073.152,7.92,7.92,0,0,1,.131,1.1v.174a2.056,2.056,0,0,0,.051.551.538.538,0,0,0,.044.254,1.8,1.8,0,0,0,.247.58,1.3,1.3,0,0,0,.5.392h.058a1.1,1.1,0,0,0,.58,0,1.98,1.98,0,0,0,.609-.261c.2-.138.4-.283.588-.428s.261-.2.392-.29a.943.943,0,0,1,.189-.1h.167l.116.087a3.337,3.337,0,0,1,.319.45l.058.109.239.413a2.815,2.815,0,0,0,.464.58,1.552,1.552,0,0,0,.508.3h.073a1.879,1.879,0,0,0,.812.065,2.988,2.988,0,0,0,1.3-.6,6.636,6.636,0,0,0,.725-.631l.087.508.036.218c.044.29.094.573.145.856a6.273,6.273,0,0,0,.268,1.023,1.3,1.3,0,0,0,.725.725,1.451,1.451,0,0,0,.254.058c.508.051.907-.4,1.161-.725a6.107,6.107,0,0,0,.573-.994v-.051c.152-.3.283-.617.4-.914a17.677,17.677,0,0,0,.66-2.009c.2-.725.413-1.53.573-2.357.138-.725.254-1.487.363-2.343a21.834,21.834,0,0,0,.2-2.394,16.784,16.784,0,0,0-.174-2.531c-.109-.82-.261-1.632-.442-2.415a17.909,17.909,0,0,0-1.6-4.432,18.859,18.859,0,0,0-2.619-3.968,26.337,26.337,0,0,0-3.4-3.438,24.111,24.111,0,0,0-3.627-2.611c-.638-.37-1.3-.725-1.951-1.088s-1.306-.53-1.987-.827c-1.451-.66-2.9-1.269-4.309-1.828l-2.176-.907C43.378,6.932,42.414,6.591,34.3,5.365a82.2,82.2,0,0,1-9.952-2.024C23.061,3.015,21.538,2.616,20,2.108c-.776-.254-1.451-.493-2.067-.725h-.073c-.53-.2-1.066-.421-1.581-.631l-.5-.2L14.85.186C13.305-.394,12.624.447,12.74,1.8a8.392,8.392,0,0,0,.725,2.691l-.413-.152A30.465,30.465,0,0,0,8.83,3.109c-1.153-.232-3.351-.413-4.352.145A2.481,2.481,0,0,0,3.325,4.828a2.7,2.7,0,0,0,.065,1.7,8.791,8.791,0,0,0,2.756,3.9,25.344,25.344,0,0,0,3.039,2.278l-.66.08c-4.577.646-6.3,1.255-7.732,3.163a5.418,5.418,0,0,0-.725,1.3c-.725,2.343,4.548,2.735,7.74,3.482l-.152.065-.544.254a14.928,14.928,0,0,0-3.583,2.067c-1.451,1.364-1.2,2.829,0,4.352a6.905,6.905,0,0,0,1.792,1.451,9.43,9.43,0,0,0,4.715,1.349Z" transform="translate(304 58.379)" fill="url(#h)"/><path d="M13.568,5.375c-2.292-.609-4.562-1.291-6.826-2.009S2.456,1.915.367,1.1A.566.566,0,0,1,.765.036c.551.225,1.1.442,1.661.653,2.118.8,4.272,1.494,6.427,2.176Q10.572,3.4,12.3,3.881c1.139.326,2.285.617,3.416.936s2.278.631,3.4,1S21.38,6.6,22.5,7.043s2.176.914,3.25,1.451,2.176,1.081,3.264,1.69c.515.3,1.023.638,1.523.972a25,25,0,0,1,2.735,2.118,14.623,14.623,0,0,1,1.175,1.153.508.508,0,0,1,.123.406.559.559,0,0,1-.609.508.609.609,0,0,1-.392-.2c-.276-.276-.551-.559-.834-.834a24.531,24.531,0,0,0-2.408-1.922A27.563,27.563,0,0,0,27.611,10.6l-.725-.392q-1.56-.791-3.155-1.494c-1.11-.486-2.234-.928-3.373-1.342s-2.234-.725-3.373-1.1S14.7,5.643,13.568,5.375Z" transform="translate(332.164 67.885)" fill="url(#i)"/><path d="M.753.032c.892.413,1.784.834,2.655,1.291s1.755.957,2.633,1.451c.392.2.783.406,1.182.595a26.7,26.7,0,0,0,3.242,1.269,28.959,28.959,0,0,0,3.293.957c.312.065.631.123.936.2a.559.559,0,0,1,.319.3.58.58,0,0,1,0,.428.537.537,0,0,1-.3.319.58.58,0,0,1-.428,0l-.2-.029-1.059-.232-1.045-.276c-.725-.2-1.451-.428-2.125-.667l-.725-.268C8.282,5.052,7.448,4.7,6.621,4.3,4.677,3.355,3.792,2.644.369,1.077A.566.566,0,0,1,.035.352.573.573,0,0,1,.753.032Z" transform="translate(316.668 67.897)" fill="url(#j)"/><path d="M.821.038A73.529,73.529,0,0,0,8.329,2.576a13.593,13.593,0,0,0,3.627.334,25.663,25.663,0,0,0,4.178-.58,33.9,33.9,0,0,1,3.518-.6,15.958,15.958,0,0,1,3.576.1,11.228,11.228,0,0,1,3.315,1.045.566.566,0,1,1-.4,1.052c-.341-.16-.689-.319-1.052-.45A12.331,12.331,0,0,0,20.42,2.8a10.434,10.434,0,0,0-1.494.152c-1.523.239-3.257.667-4.874.892A15.646,15.646,0,0,1,6.8,3.353c-1.11-.319-2.176-.725-3.271-1.1L.364,1.1A.567.567,0,0,1,.77.038Z" transform="translate(319.4 78.808)" fill="url(#k)"/><path d="M.466.181C1.446.1,2.432.022,3.419,0H4.833A3.815,3.815,0,0,1,5.972.218.566.566,0,0,1,6.3.943a.573.573,0,0,1-.725.334L5.355,1.2a11.453,11.453,0,0,0-2.285-.08c-.805.044-1.61.094-2.408.167a.841.841,0,0,1-.3,0A.551.551,0,0,1,.009.856.559.559,0,0,1,.466.2Z" transform="translate(350.967 87.586)" fill="url(#l)"/><path d="M.126.918A.565.565,0,0,1,1,.207,2.256,2.256,0,0,1,1.315.86,9.48,9.48,0,0,1,1.7,3.131a22.377,22.377,0,0,1,0,3.112.566.566,0,0,1-.725.479C.379,6.5.728,6.17.655,3.631A10.46,10.46,0,0,0,.314,1.259,2.111,2.111,0,0,0,.126.918Z" transform="translate(368.759 89.751)" fill="url(#m)"/><path d="M.777.045c.3.116.442.384.45,1.393,0,.4-.036.791-.073,1.19a.566.566,0,1,1-1.124-.1A6.528,6.528,0,0,0,.03.683V.726a.522.522,0,0,1,0-.348A.559.559,0,0,1,.777.045Z" transform="translate(366.44 92.452)" fill="url(#n)"/><path d="M.358.38h0C.366.337.373.33.358.38Z" transform="translate(363.928 92.566)" fill="url(#o)"/><path d="M1.3.327c.123.268-.036.667-.21,1.262A.566.566,0,0,1,.05,1.625c-.123-.268,0-.406.189-1.146A.508.508,0,0,1,.557.051.566.566,0,0,1,1.3.327Z" transform="translate(362.967 92.185)" fill="url(#p)"/><path d="M.363.388V.308C.37.388.355.46.363.388Z" transform="translate(363.938 92.457)" fill="url(#q)"/><path d="M48.372,10.824c-.863.646-1.719,1.255-2.582,1.813l-.45.3A50.049,50.049,0,0,1,37,17.33l-.508.2a47.148,47.148,0,0,1-8.944,2.582l-.537.094a47.518,47.518,0,0,1-7.681.725h-.551a52.145,52.145,0,0,1-6.913-.457l-.537-.08a50.818,50.818,0,0,1-5.288-1.052l-.53-.138a44.131,44.131,0,0,1-4.446-1.451l-.319-.123-.181-.087A1.182,1.182,0,0,1,.187,15.9l2.9-4.635a1.19,1.19,0,0,1,.979-.544H4.22l.435.044c.907.087,1.8.138,2.691.152H7.9a40.8,40.8,0,0,0,5.687-.348l.58-.087a47.387,47.387,0,0,0,6.477-1.4l.588-.167A56.287,56.287,0,0,0,27,6.842l.537-.232c1.929-.827,3.692-1.7,5.23-2.531l.486-.268C34.9,2.9,36.3,2.033,37.362,1.329l.457-.3c.464-.319.856-.588,1.168-.812a1.182,1.182,0,0,1,1.56.167l7.979,8.653a1.19,1.19,0,0,1-.152,1.784Z" transform="translate(323.443 137.728)" fill="url(#r)"/><path d="M101.665,42.367C98.72,55.467,88.9,91.858,82.857,113.981c-.051.21-.109.421-.167.624l-.065.254c-.646,2.372-1.248,4.555-1.784,6.528a12.33,12.33,0,0,1-.537,1.56,13.818,13.818,0,0,1-13.165,8.639l-5.3-.131-7.3-.181h-.863L0,129.939V101.36s36.587-5.317,42.513-2.9c0,0,2.735-8.7,7.979-5.8,0,0,8.632-47.815,12.019-64.738S71.94-1.64,88.355.173C102.877,1.747,106.017,23.022,101.665,42.367Z" transform="translate(312.221 162.182)" fill="url(#s)"/><path d="M88.382,0V28.528l-4.867.044H82.79l-27.251.261C48.067,32,34.989,30.211,34.989,30.211l-5.4,4.4a3.17,3.17,0,0,0-.965,1.407l-.878,2.655a2.9,2.9,0,0,1-2.444,1.451,3.518,3.518,0,0,1-.464-.036,2.9,2.9,0,0,1-2.459-3.25l.392-2.822L20.823,36.8a2.662,2.662,0,0,1-2.111,1.117,2.619,2.619,0,0,1-1.451-.377,2.749,2.749,0,0,1-.914-3.627L23.057,20.8,4.2,29.449a2,2,0,0,1-2.488-.675h0a1.944,1.944,0,0,1,.45-2.713L16.217,15.95c-.522.2-8.8,3.431-12.679,4.983A2.546,2.546,0,0,1,.419,19.9l-.036-.051a2.524,2.524,0,0,1,.979-3.576L27.692,2.611l.334-.167A4.214,4.214,0,0,1,31.05,2.1l2.176.573L33.7,2.8l.6.167L50.584,7.2l.653.174.725.181.6.152L84.044.936,84.77.783Z" transform="translate(223.875 263.542)" fill="url(#t)"/><path d="M22.423,10.306a4.845,4.845,0,0,0-2.662-5.563C14.886,2.486,5.355-1.481,2.555.571-1.267,3.364-.092,4.1,1.525,4.982S-.092,8.507,2.251,11s-.537,7.377,5.172,9.052C12.268,21.483,20.667,17.559,22.423,10.306Z" transform="translate(253.211 268.041)" fill="none" stroke="#fff" stroke-miterlimit="10" stroke-width="1.22"/><path d="M1.966,0,.725,27.788,0,27.8,1.226.152,1.966,0Z" transform="translate(306.664 264.326)" fill="#64edff"/><path d="M0,3.438,6.724,0" transform="translate(240.121 276.04)" fill="none"/><path d="M4.367,24.691,215.669,0l-7.848,164.292L0,124.565,4.367,24.691Z" transform="translate(61.713 106.866)" fill="url(#u)"/><path d="M146.255,0l-8.7,132.972L3.361,110.239C-6.308,66.479,7.96,5.063,7.96,5.063Z" transform="translate(45.673 119.451)" fill="url(#v)"/><path d="M21.169,3.117s16.683-7.014,34.817,0c0,0-17.626,61.314-20.644,91.148a7.979,7.979,0,0,0,8.247,8.748c12.331-.479,34.092.66,40.924,13.861H9.8a9.778,9.778,0,0,1-9.72-11.047C3.419,80.483,12.218,19.111,21.169,3.117Z" transform="translate(66.555 184.749)" fill="url(#w)"/><path d="M16.124,0,7.42,132.972C-13.368,63.091,16.124,0,16.124,0Z" transform="translate(175.804 119.451)" fill="url(#x)"/><path d="M461.774,0c-14.507,17.329-35.5,30.2-60.531,39.532-73.986,27.563-103-24.662-204.97,8.7C105.872,77.816,34.15,49.824,0,0Z" transform="translate(46.495 301.623)" fill="url(#y)"/><path d="M.363,0V54.322" transform="translate(122.759 47.815)" fill="none" stroke="#fff" stroke-miterlimit="10" stroke-width="1.9"/><path d="M77.156.363H0" transform="translate(84.547 101.774)" fill="none" stroke="#fff" stroke-miterlimit="10" stroke-width="1.9"/><circle cx="2.582" cy="2.582" r="2.582" transform="translate(105.444 105.916)" fill="none" stroke="#fff" stroke-miterlimit="10" stroke-width="0.93"/><circle cx="2.582" cy="2.582" r="2.582" transform="translate(114.374 105.916)" fill="none" stroke="#fff" stroke-miterlimit="10" stroke-width="0.93"/><circle cx="2.582" cy="2.582" r="2.582" transform="translate(491.513 261.468)" fill="none" stroke="#fff" stroke-miterlimit="10" stroke-width="0.93"/><circle cx="2.582" cy="2.582" r="2.582" transform="translate(500.449 261.468)" fill="none" stroke="#fff" stroke-miterlimit="10" stroke-width="0.93"/><path d="M0,0S19.889,15.747,80.006,3.627" transform="translate(304.967 163.204)" fill="none" stroke="#64edff" stroke-miterlimit="10" stroke-width="0.97"/><rect width="60.748" height="4.374" rx="2.187" transform="translate(81.231 139.981) rotate(0.45)" fill="#fff"/><rect width="60.748" height="4.374" rx="2.187" transform="translate(81.166 148.242) rotate(0.45)" fill="#fff"/><rect width="60.748" height="4.374" rx="2.187" transform="translate(81.101 156.496) rotate(0.45)" fill="#fff"/><path d="M4.127.051.5,7.036.181,6.913,0,6.826,3.518,0H3.67Z" transform="translate(323.986 148.472)" fill="#fff"/><path d="M2.4,0,.53,8.385,0,8.247,1.85,0Z" transform="translate(328.954 148.697)" fill="#fff"/><path d="M2.851,0,.537,9.952,0,9.872,2.27.087Z" transform="translate(334.772 148.247)" fill="#fff"/><path d="M2.466,0,.551,11.968H0L1.879.16Z" transform="translate(342.221 146.681)" fill="#fff"/><path d="M.631,0V13.47l-.537.094V.261Z" transform="translate(350.36 144.345)" fill="#fff"/><path d="M4.222,13.484l-.508.2L0,.268.486,0Z" transform="translate(356.22 141.574)" fill="#fff"/><path d="M8.429,11.6l-.45.3L0,.3.457,0Z" transform="translate(360.776 138.767)" fill="#fff"/><path d="M29.37,3.242c-.051.21-.109.421-.167.624l-.065.254A20.4,20.4,0,0,0,18.569.849a17.713,17.713,0,0,0-17.7,17.7c0,.37.1,1.233.189,1.958H.2A18.409,18.409,0,0,1,0,18.569,18.6,18.6,0,0,1,18.569,0,21.347,21.347,0,0,1,29.37,3.242Z" transform="translate(365.708 272.921)" fill="#64edff"/><path d="M18.683,4.041A13.818,13.818,0,0,1,5.518,12.687l-5.3-.131A10.416,10.416,0,0,1,18.676,4.07Z" transform="translate(373.841 281.08)" fill="url(#z)"/><path d="M32.278,8.53l-.725.508a20.31,20.31,0,0,0-7.37-6.412A17.691,17.691,0,0,0,.791,10.43L0,10.046A18.6,18.6,0,0,1,24.56,1.835,21.318,21.318,0,0,1,32.278,8.53Z" transform="translate(217.968 242.442)" fill="#64edff"/><path d="M18.141,5.157a19.142,19.142,0,0,1-17.6.53L0,5.426a10.416,10.416,0,0,1,18.134-.268Z" transform="translate(225.331 250.573)" fill="url(#aa)"/><rect width="102.877" height="6.622" transform="translate(160.861 295.008)" fill="#858585"/><rect width="102.877" height="6.622" transform="translate(160.861 288.385)" fill="#999"/><path d="M4.577,2.285a5.44,5.44,0,0,0-1.146-.261,7.66,7.66,0,0,0-.812-.065,3.475,3.475,0,0,0-.065-.82A4.99,4.99,0,0,0,2.285,0a5.375,5.375,0,0,0-.261,1.139,7.8,7.8,0,0,0-.065.82,7.66,7.66,0,0,0-.812.065A4.94,4.94,0,0,0,0,2.285a4.961,4.961,0,0,0,1.146.268c.268,0,.537.051.812.058a7.8,7.8,0,0,0,.065.82,5.549,5.549,0,0,0,.261,1.146,5.136,5.136,0,0,0,.268-1.146c.036-.276.051-.544.065-.82a7.66,7.66,0,0,0,.812-.065,5.027,5.027,0,0,0,1.146-.261Z" transform="translate(422.249 115.164)" fill="#fff"/><path d="M4.577,2.292a5.077,5.077,0,0,0-1.146-.268c-.276,0-.544-.051-.812-.058a3.475,3.475,0,0,0-.065-.82A5.135,5.135,0,0,0,2.285,0a5.549,5.549,0,0,0-.261,1.146,7.8,7.8,0,0,0-.065.82,3.8,3.8,0,0,0-.812.058A4.961,4.961,0,0,0,0,2.292a5.339,5.339,0,0,0,1.146.261,7.507,7.507,0,0,0,.812.065,7.8,7.8,0,0,0,.065.82,5.375,5.375,0,0,0,.261,1.139,4.99,4.99,0,0,0,.268-1.139c.036-.276.051-.544.065-.82a7.66,7.66,0,0,0,.812-.065A5.44,5.44,0,0,0,4.577,2.292Z" transform="translate(493.174 153.347)" fill="#fff"/><path d="M4.577,2.285a5.44,5.44,0,0,0-1.146-.261,7.819,7.819,0,0,0-.812-.065,7.8,7.8,0,0,0-.065-.82A4.99,4.99,0,0,0,2.285,0a5.375,5.375,0,0,0-.261,1.139,7.8,7.8,0,0,0-.065.82,7.507,7.507,0,0,0-.812.065A5.339,5.339,0,0,0,0,2.285a4.961,4.961,0,0,0,1.146.268c.268,0,.537.051.812.058a7.8,7.8,0,0,0,.065.82,5.549,5.549,0,0,0,.261,1.146,5.136,5.136,0,0,0,.268-1.146c.036-.276.051-.544.065-.82a3.831,3.831,0,0,0,.812-.058A5.077,5.077,0,0,0,4.577,2.285Z" transform="translate(427.319 51.007)" fill="#fff"/><path d="M6.463,3.235a7.145,7.145,0,0,0-1.618-.37c-.384-.051-.769-.08-1.146-.094a8.829,8.829,0,0,0-.094-1.153A7.761,7.761,0,0,0,3.235,0a7.348,7.348,0,0,0-.377,1.618c-.051.384-.073.769-.087,1.153a7.765,7.765,0,0,0-1.153.087A7.573,7.573,0,0,0,0,3.235a7.166,7.166,0,0,0,1.618.377q.573.065,1.153.087a10.285,10.285,0,0,0,.087,1.153A7.254,7.254,0,0,0,3.235,6.47a7.66,7.66,0,0,0,.37-1.618c.051-.384.08-.769.094-1.153a8.72,8.72,0,0,0,1.146-.094,7.145,7.145,0,0,0,1.618-.37Z" transform="translate(480.582 103.276)" fill="#fff"/><path d="M5.179,2.633a6.078,6.078,0,0,0-1.306-.3c-.3,0-.617-.058-.928-.073a7.979,7.979,0,0,0-.073-.928A6.057,6.057,0,0,0,2.611,0a5.672,5.672,0,0,0-.3,1.306c0,.312-.058.617-.073.928a3.98,3.98,0,0,0-.928.073A5.672,5.672,0,0,0,0,2.611a6.057,6.057,0,0,0,1.306.3,7.877,7.877,0,0,0,.928.073,8.124,8.124,0,0,0,.073.936,5.527,5.527,0,0,0,.3,1.3,5.9,5.9,0,0,0,.3-1.3,8.124,8.124,0,0,0,.073-.936,7.877,7.877,0,0,0,.928-.073,6.057,6.057,0,0,0,1.269-.276Z" transform="translate(514.565 87.768)" fill="#fff"/><path d="M50.354,0S16.161-.2,23.726,19.585,0,55.758,0,55.758L31.081,77.99s14.2-35.361,5.8-53.241S50.354,0,50.354,0Z" transform="translate(417.846 71.81)" fill="url(#ab)"/><path d="M46.6,0S16.132,3.075,23.719,22.841,0,59.007,0,59.007L31.074,81.239s14.21-35.361,5.767-53.248S46.6,0,46.6,0Z" transform="translate(421.604 71.81)" fill="url(#ac)"/><path d="M6.608,10.01,5.563,9.016l-.1-.094L0,3.721,7.848,0l4.338,1.77,2.031.834L10.293,6.427,8.719,7.957,8.16,8.5l-.9.878-.218.21-.435.421Z" transform="translate(455.898 60.371)" fill="url(#ad)"/><path d="M8.53,6.572.682,10.285.1,2.5.051,1.871,0,1.19l.6-.065.3-.036.559-.065L2.154.95,2.923.856,10.554,0,9.966,1.9,8.53,6.572Z" transform="translate(464.544 73.493)" fill="url(#ad)"/><path d="M4.734,7.812h-1.1a1.233,1.233,0,0,1-.37,0,1.059,1.059,0,0,1-.551-.326,1.211,1.211,0,0,1-.131-.2L.085,2.009a1,1,0,0,1,0-.805A1.262,1.262,0,0,1,.317.834L.911.152,1.042,0Z" transform="translate(461.384 68.183)" fill="url(#af)"/><path d="M1.336,0,.393,1.066A1.4,1.4,0,0,0,.11,2.582l1.6,3.395h0l1.61,3.395a1.393,1.393,0,0,0,1.349.725l1.451-.044Z" transform="translate(462.295 66.239)" fill="#bababa"/><path d="M11.6,22.1a55.3,55.3,0,0,1-5.331,1.712,1.255,1.255,0,0,1-1.5-.595L.1,13.354a1.255,1.255,0,0,1,.486-1.538c.914-.646,2.5-1.719,4.591-2.967C6.95,7.79,9.111,6.608,11.549,5.455A58.231,58.231,0,0,1,29.37.058L29.885,0h0a14.8,14.8,0,0,1,1.944,2.771,17.88,17.88,0,0,1,2.038,5.8v.109l-.3.283h0C26.534,15.82,17.554,19.925,11.6,22.1Z" transform="translate(462.912 53.292)" fill="url(#ag)"/><circle cx="3.438" cy="3.438" r="3.438" transform="translate(482.018 58.616)" fill="url(#ah)"/><circle cx="2.633" cy="2.633" r="2.633" transform="translate(482.678 59.595)" fill="#7c7c7c"/><circle cx="2.604" cy="2.604" r="2.604" transform="translate(482.78 59.399)" fill="#eaeaea"/><path d="M0,7.2,13.3,0,14,1.472,0,7.2Z" transform="translate(458.473 67.632)" fill="url(#ai)"/><path d="M3.982,8.935V8.827c-.051-.3-.109-.595-.174-.878A18.25,18.25,0,0,0,1.929,3,17.408,17.408,0,0,0,0,.231H0A37.472,37.472,0,0,1,9.937.449L10.5.543h0l-.326.573c-.363.609-.725,1.2-1.124,1.784A37.813,37.813,0,0,1,5.418,7.47c-.435.464-.87.921-1.32,1.364L4,8.928Z" transform="translate(492.826 53.075)" fill="url(#aj)"/><circle cx="35.455" cy="35.455" r="35.455" transform="translate(399.952 312.873)" fill="url(#ak)"/><path d="M6.174,28.769c-11.961,7.166-5.179,25.8,8.7,24.321L15.647,53C41.237,49.986,67.415,32.084,85.8,38.62s65.971-2.9,41.251-26.62S67.713,5.761,54.018,13.3C22.958,30.409,20.5,20.21,6.174,28.769Z" transform="translate(201.458 358.801)" fill="#dde6fa"/><path d="M88.326,0,63.635,99.5a11.765,11.765,0,0,1-10.5,8.9L0,112.553" transform="translate(312.264 162.356)" fill="none" stroke="#64edff" stroke-miterlimit="10" stroke-width="0.97"/><path d="M47.569.363H0" transform="translate(223.88 36.645)" fill="none" stroke="#fff" stroke-miterlimit="10" stroke-width="2"/><path d="M71.57,7.407A73.2,73.2,0,0,1,7.079,45.9c-2.386,0-4.751-.116-7.079-.341A46.423,46.423,0,0,1,71.57,7.407Z" transform="translate(470.732 116.338)" fill="url(#al)"/><circle cx="29.239" cy="29.239" r="29.239" transform="translate(30.944 49.578)" fill="#fff"/></g></svg>