<svg xmlns="http://www.w3.org/2000/svg" xmlns:xlink="http://www.w3.org/1999/xlink" width="1442.18" height="276.93" viewBox="0 0 1442.18 276.93"><defs><linearGradient id="a" y1="0.5" x2="1" y2="0.5" gradientUnits="objectBoundingBox"><stop offset="0" stop-color="#366fe0"/><stop offset="0.2" stop-color="#2c5ecb"/><stop offset="0.52" stop-color="#1e48af"/><stop offset="0.79" stop-color="#153a9d"/><stop offset="1" stop-color="#123597"/></linearGradient><linearGradient id="b" y1="0.5" x2="1" y2="0.5" gradientUnits="objectBoundingBox"><stop offset="0" stop-color="#dde6fa"/><stop offset="0.17" stop-color="#d8e2f9"/><stop offset="0.39" stop-color="#c8d7f7"/><stop offset="0.62" stop-color="#afc5f3"/><stop offset="0.88" stop-color="#8babed"/><stop offset="1" stop-color="#779dea"/></linearGradient><linearGradient id="c" y1="0.502" x2="1" y2="0.502" gradientUnits="objectBoundingBox"><stop offset="0" stop-color="#366fe0"/><stop offset="0.7" stop-color="#94cbff"/><stop offset="1" stop-color="#94cbff"/></linearGradient><linearGradient id="d" y1="0.5" x2="1" y2="0.5" xlink:href="#c"/><linearGradient id="e" xlink:href="#b"/><linearGradient id="g" x1="0.5" y1="1" x2="0.5" gradientUnits="objectBoundingBox"><stop offset="0" stop-color="#123597"/><stop offset="0.16" stop-color="#1b43a9"/><stop offset="0.55" stop-color="#2f63d1"/><stop offset="0.75" stop-color="#366fe0"/><stop offset="1" stop-color="#366fe0"/></linearGradient><linearGradient id="i" xlink:href="#a"/><linearGradient id="j" xlink:href="#a"/><linearGradient id="k" y1="0.501" y2="0.501" xlink:href="#a"/><linearGradient id="l" xlink:href="#a"/></defs><g transform="translate(1 -5293.493)"><g transform="translate(-1 4624.623)"><path d="M1440,0V210.21l-890.25,4.31H22.53L0,209.82V153.26l67.51-3.64,2.3-1.22,10.48-5.56h.02l10.43-5.55,162.59-7.37h.1l80.64-3.66,27.74-6.15.03-.01h.03l38.56-8.55L533.15,98.68l88.49-23.91L675.1,89.48h18.43l42.4,2.51h.08l161.96,9.58h.05l44.37,2.62h31.34l65.28-7.31h.02l80.56-9.02.13-.01,34.66-3.88,54.76-17.62,2.39-.77.26-.36v-.01l1.94-2.71.03-.06,6.42-8.94v-.01l.56-.78,112.45-20.23L1359,15.93l5.73-5.71,3.49-3.48,49.77-3.68L1440,0Z" transform="translate(2.18 668.87)" fill="url(#a)"/><path d="M0,84.58,77.43,73.55,105.08,57l18.43-3.68,11.06-5.51,3.69-5.52,95.86-16.55,20.27-3.68L291.26,0,280.2,11.03,258.08,23.9,143.79,44.13l-5.53,11.03-12.91,5.52L88.49,73.55l-9.22,3.68L0,84.58Z" transform="translate(1076.45 678.61)" fill="url(#b)"/><path d="M0,0,137,2.59C52.25,1.79,0,.92,0,0Z" transform="translate(0 937.7)" fill="url(#c)"/><path d="M1440,0V230.47h-11.24L0,222.37v-128l80.29,2h0l102.89,2.52,61.23-14.63,3.4-.31,5.5-.5h.1l12.2-1.11,53.63-4.85,42.58-3.82h0L603.23,51.81h37.42l40.62-8.76,12.1-2.61,39.12,4.87,3.39.25h.08L844.82,53.4l39.9,2.15L898,55.11h.05l141-4.69h0l8.15-.27,6.54-.29h.17l95.45-4.34,6.24-.28h0l105.86-4.81,18.71-30.87Z" transform="translate(2.18 715.33)" fill="url(#d)"/><path d="M1149.34,5.07l-75,12.77-27.16-1.61-8.51,9.75s-54.42-8.12-57.82-8.12H963.82l-85,19.47-90.16-21.1L700.23,4.86,684.92,16.23l49.32,22.75L640.7,22.73l-22.11-3.25-59.52,4.88L423.01,42.23l-136.06,1.6L256.34,58.46l-3.41,9.77,11.89,14.6-27.21,1.62L229.1,87.7,150.87,66.58,69.82,61.5,47.16,60.08,19.93,63.33,0,61.42V53.97l80.29,2h0l102.89,2.52,61.23-14.63,3.4-.31,5.5-.5h0l12.27-1.11,53.63-4.85,42.61-3.86h.06L603.29,11.37h37.42l40.62-8.76L693.43,0l39.12,4.87,3.39.25h.08l108.8,7.84,39.9,2.15L898,14.67h.05l141-4.69h0l8.15-.27,6.54-.29h.17Z" transform="translate(2.18 755.77)" fill="url(#e)"/><path d="M244.78,48.74l20.72,4.04-56.43-4.04-71.43-6.5H73.01L0,35.97l6.24-.28.03-.01,105.86-4.81L130.84,0l3.4,3.25,14.62.3L147.84,6.5l-5.1,27.62,6.8-27.62,3.06-1.47,13.59,5.4L164.85,13l1.7,8.12V37.37l3.4,3.25,1.7-16.25,5.58-9.59,21.99,7.26-2.06,8.83,1.7,14.62,18.71,1.62,27.21,1.63Z" transform="translate(1151.52 724.87)" fill="url(#b)"/><path d="M1440,8.25V167.31h-11.24L0,159.21V92.96L27.76,104.9l43.2,18.61h56.12l170.07,13,273.82-11.38L443.42,110.51l-19.41-5.57c-22.19-6.43-57.07-16.43-70.58-20.43-3.2-1-5.2-1.56-5.54-1.71l.28.05c1.14.27,6.76.87,15.32,1.66,42.6,4,158.16,13,158.16,13l8.63-13,3.27-4.91-6.8-11.37-13.6-40.62,110.54-4.87,56.13,4.87h25.51l73.33,15,13.41-6.88h35.75l6.85,18.34,1.65,4.4,4.19-3.2,4.32-3.3h20.41l9.74,10.35,20.84,4.29h96.94c6.8,0,166.67,13,166.67,13l-85-27.62,129.25,11.38,91.84-6.5L1332.94,39l-37.42-16.25L1244.52,0h44.22Z" transform="translate(2.18 778.49)" fill="url(#g)"/><path d="M0,12.99,39.12,9.74,62.93,0H95.24l25.51,9.74,25.52,13L30.62,16.24,0,12.99Z" transform="translate(903.09 820.73)" fill="url(#a)"/><path d="M0,4.87,8.5,6.5H20.4V3.25L10.2,0,0,4.87Z" transform="translate(1122.49 822.35)" fill="url(#i)"/><path d="M0,12.19l21.26,4.06H51.03V8.13L25.52,0,0,12.19Z" transform="translate(302.73 840.22)" fill="url(#j)"/><path d="M0,4.46,7.8,5.95H18.71V2.98L9.35,0,0,4.46Z" transform="translate(363.96 848.89)" fill="url(#k)"/><path d="M45.92,26,20.41,22.75,0,19.5,13.61,13l3.4-4.87L25.51,0,61.23,21.12l18.7,3.25,5.1,3.25L45.92,26Z" transform="translate(1151.4 809.35)" fill="url(#l)"/><path d="M5.47,1.45l-2.3.31L0,1.58.05.72,2.82,0,5.47,1.45Z" transform="translate(1064.38 743.61)" fill="#d45ba7" opacity="0.62" style="mix-blend-mode:multiply;isolation:isolate"/><path d="M69.73,29.24H40.82l-6.8-6.5L0,16.24l25.51-13L57.83,0l69.73,22.74,3.4,8.12L69.73,29.24Z" transform="translate(277.22 875.97)" fill="url(#a)"/><path d="M25.51,13h-17L0,11.38,17.01,0h6.8L37.42,13Z" transform="translate(227.9 885.71)" fill="url(#a)"/><path d="M11.59,8.28H3.86L0,7.24,7.73,0h3.09L17,8.28Z" transform="translate(260.22 879.21)" fill="url(#a)"/></g></g></svg>