<svg xmlns="http://www.w3.org/2000/svg" xmlns:xlink="http://www.w3.org/1999/xlink" width="115.361" height="101.211" viewBox="0 0 115.361 101.211">
  <defs>
    <linearGradient id="linear-gradient" y1="0.5" x2="1" y2="0.5" gradientUnits="objectBoundingBox">
      <stop offset="0" stop-color="#366fe0"/>
      <stop offset="0.7" stop-color="#94cbff"/>
      <stop offset="1" stop-color="#94cbff"/>
    </linearGradient>
    <linearGradient id="linear-gradient-2" y1="0.5" x2="1" y2="0.5" gradientUnits="objectBoundingBox">
      <stop offset="0" stop-color="#dde6fa"/>
      <stop offset="0.17" stop-color="#d8e2f9"/>
      <stop offset="0.39" stop-color="#c8d7f7"/>
      <stop offset="0.62" stop-color="#afc5f3"/>
      <stop offset="0.88" stop-color="#8babed"/>
      <stop offset="1" stop-color="#779dea"/>
    </linearGradient>
    <linearGradient id="linear-gradient-5" x1="0" y1="0.498" x2="1" y2="0.498" xlink:href="#linear-gradient-2"/>
    <linearGradient id="linear-gradient-6" x1="0" y1="0.5" x2="0.995" y2="0.5" xlink:href="#linear-gradient-2"/>
    <linearGradient id="linear-gradient-7" x1="0" y1="0.498" x2="1" y2="0.498" xlink:href="#linear-gradient-2"/>
    <linearGradient id="linear-gradient-8" x1="0" y1="0.5" x2="1.005" y2="0.5" xlink:href="#linear-gradient-2"/>
    <linearGradient id="linear-gradient-9" x1="0.005" y1="0.5" x2="1" y2="0.5" xlink:href="#linear-gradient-2"/>
    <linearGradient id="linear-gradient-13" x1="0" y1="0.502" x2="1" y2="0.502" xlink:href="#linear-gradient-2"/>
    <linearGradient id="linear-gradient-16" x1="0" y1="0.499" x2="1" y2="0.499" xlink:href="#linear-gradient-2"/>
    <linearGradient id="linear-gradient-19" x1="0" y1="0.501" x2="1" y2="0.501" xlink:href="#linear-gradient-2"/>
    <linearGradient id="linear-gradient-35" x1="0" y1="0.498" x2="1" y2="0.498" xlink:href="#linear-gradient-2"/>
    <linearGradient id="linear-gradient-36" x1="0" y1="0.498" x2="1" y2="0.498" xlink:href="#linear-gradient-2"/>
    <linearGradient id="linear-gradient-37" x1="-0.006" y1="0.502" x2="1" y2="0.502" xlink:href="#linear-gradient-2"/>
    <linearGradient id="linear-gradient-38" x1="0" y1="0.502" x2="1" y2="0.502" xlink:href="#linear-gradient-2"/>
    <linearGradient id="linear-gradient-39" x1="0" y1="0.502" x2="1" y2="0.502" xlink:href="#linear-gradient-2"/>
    <linearGradient id="linear-gradient-40" x1="0" y1="0.498" x2="1" y2="0.498" xlink:href="#linear-gradient-2"/>
    <linearGradient id="linear-gradient-42" x1="-0.005" y1="0.5" x2="1" y2="0.5" xlink:href="#linear-gradient-2"/>
    <linearGradient id="linear-gradient-43" x1="0" y1="0.498" x2="1" y2="0.498" xlink:href="#linear-gradient-2"/>
    <linearGradient id="linear-gradient-44" x1="0" y1="0.502" x2="1" y2="0.502" xlink:href="#linear-gradient-2"/>
    <linearGradient id="linear-gradient-45" x1="0" y1="0.498" x2="1" y2="0.498" xlink:href="#linear-gradient-2"/>
    <linearGradient id="linear-gradient-46" x1="0" y1="0.497" x2="1" y2="0.497" xlink:href="#linear-gradient-2"/>
    <linearGradient id="linear-gradient-47" x1="0" y1="0.497" x2="1" y2="0.497" xlink:href="#linear-gradient-2"/>
    <linearGradient id="linear-gradient-48" x1="0" y1="0.503" x2="1" y2="0.503" xlink:href="#linear-gradient-2"/>
    <linearGradient id="linear-gradient-50" x1="0" y1="0.504" x2="1" y2="0.504" xlink:href="#linear-gradient-2"/>
    <linearGradient id="linear-gradient-51" x1="0" y1="0.505" x2="1" y2="0.505" xlink:href="#linear-gradient-2"/>
    <linearGradient id="linear-gradient-53" x1="0.004" y1="0.5" x2="1" y2="0.5" xlink:href="#linear-gradient-2"/>
    <linearGradient id="linear-gradient-54" x1="0" y1="0.489" x2="1" y2="0.489" xlink:href="#linear-gradient-2"/>
    <linearGradient id="linear-gradient-58" x1="0" y1="0.505" x2="0.996" y2="0.505" xlink:href="#linear-gradient-2"/>
    <linearGradient id="linear-gradient-60" x1="0" y1="0.496" x2="1" y2="0.496" xlink:href="#linear-gradient-2"/>
    <linearGradient id="linear-gradient-64" x1="0" y1="0.501" x2="1.004" y2="0.501" xlink:href="#linear-gradient-2"/>
    <linearGradient id="linear-gradient-65" x1="-0.001" y1="0.5" x2="0.997" y2="0.5" xlink:href="#linear-gradient-2"/>
    <linearGradient id="linear-gradient-66" x1="0.001" y1="0.499" x2="0.999" y2="0.499" xlink:href="#linear-gradient-2"/>
    <linearGradient id="linear-gradient-67" x1="-0.013" y1="0.503" x2="1" y2="0.503" xlink:href="#linear-gradient-2"/>
    <linearGradient id="linear-gradient-68" x1="-0.264" y1="0.436" x2="1.055" y2="0.436" xlink:href="#linear-gradient-2"/>
    <linearGradient id="linear-gradient-69" x1="-0.09" y1="0.5" x2="0.948" y2="0.5" xlink:href="#linear-gradient-2"/>
    <linearGradient id="linear-gradient-70" x1="0.5" y1="1" x2="0.5" gradientUnits="objectBoundingBox">
      <stop offset="0" stop-color="#94cbff"/>
      <stop offset="0.3" stop-color="#94cbff"/>
      <stop offset="1" stop-color="#366fe0"/>
    </linearGradient>
    <linearGradient id="linear-gradient-71" x1="0" y1="0.5" x2="1" y2="0.5" xlink:href="#linear-gradient-2"/>
    <linearGradient id="linear-gradient-72" x1="0.003" y1="0.483" x2="0.997" y2="0.483" xlink:href="#linear-gradient-2"/>
    <linearGradient id="linear-gradient-73" x1="0.003" y1="0.503" x2="0.997" y2="0.503" xlink:href="#linear-gradient-2"/>
    <linearGradient id="linear-gradient-74" x1="0.005" y1="0.503" x2="0.995" y2="0.503" xlink:href="#linear-gradient-2"/>
  </defs>
  <g id="Group_6" data-name="Group 6" transform="translate(-284.24)">
    <path id="Path_1" data-name="Path 1" d="M399.54,70.21,396,83.14l-4.68,17.19a1.19,1.19,0,0,1-1.84.66L358.45,79.26a1.52,1.52,0,0,1-.59-1.63l4.45-16.34,3.78-13.89a1.12,1.12,0,0,1,1.72-.62L399,68.58a1.51,1.51,0,0,1,.54,1.63Z" fill="url(#linear-gradient)"/>
    <path id="Path_110" data-name="Path 110" d="M398.54,70.21,395,83.14c-.62-.48-1.26-.92-1.92-1.34A52.83,52.83,0,0,0,379.33,76,27.19,27.19,0,0,1,374,74a24.16,24.16,0,0,1-4.74-3.65,46.108,46.108,0,0,1-6.36-6.6,20.718,20.718,0,0,1-1.56-2.5l3.78-13.89a1.12,1.12,0,0,1,1.72-.62L398,68.58a1.51,1.51,0,0,1,.54,1.63Z" fill="#0a4651" opacity="0.3"/>
    <g id="Group_3" data-name="Group 3">
      <path id="Path_112" data-name="Path 112" d="M366.19,71.74l-2.25-1.57-.09.35,2.25,1.57.09-.35" fill="url(#linear-gradient-2)"/>
      <path id="Path_113" data-name="Path 113" d="M364.19,69.3l-.11.34,2.21,1.74.1-.35-2.2-1.73" fill="url(#linear-gradient-2)"/>
      <path id="Path_114" data-name="Path 114" d="M364.46,68.46l-.11.33,2.15,1.91.11-.34-2.15-1.9" fill="url(#linear-gradient-2)"/>
      <path id="Path_115" data-name="Path 115" d="M364.77,67.66l-.13.32,2.09,2.07.13-.32-2.09-2.07" fill="url(#linear-gradient-5)"/>
      <path id="Path_116" data-name="Path 116" d="M365.1,66.89l-.14.31,2.03,2.23.14-.32-2.03-2.22" fill="url(#linear-gradient-6)"/>
      <path id="Path_117" data-name="Path 117" d="M365.46,66.16l-.16.3,1.96,2.37.15-.3-1.95-2.37" fill="url(#linear-gradient-7)"/>
      <path id="Path_118" data-name="Path 118" d="M365.83,65.47l-.16.28,1.89,2.52.15-.29-1.88-2.51" fill="url(#linear-gradient-8)"/>
      <path id="Path_119" data-name="Path 119" d="M366.24,64.81l-.18.27,1.81,2.65.17-.27-1.8-2.65" fill="url(#linear-gradient-9)"/>
      <path id="Path_120" data-name="Path 120" d="M366.66,64.2l-.18.25,1.72,2.77.18-.25-1.72-2.77" fill="url(#linear-gradient-2)"/>
      <path id="Path_121" data-name="Path 121" d="M367.11,63.63l-.19.23,1.63,2.89.19-.24-1.63-2.88" fill="url(#linear-gradient-2)"/>
      <path id="Path_122" data-name="Path 122" d="M367.57,63.09l-.2.22,1.54,3,.2-.23-1.54-2.99" fill="url(#linear-gradient-2)"/>
      <path id="Path_123" data-name="Path 123" d="M368.06,62.6l-.21.2,1.44,3.09.21-.2-1.44-3.09" fill="url(#linear-gradient-13)"/>
      <path id="Path_124" data-name="Path 124" d="M368.56,62.14l-.22.19,1.35,3.18.21-.18-1.34-3.19" fill="url(#linear-gradient-13)"/>
      <path id="Path_125" data-name="Path 125" d="M369.07,61.73l-.22.17,1.24,3.27.22-.17-1.24-3.27" fill="url(#linear-gradient-2)"/>
      <path id="Path_126" data-name="Path 126" d="M369.61,61.37l-.23.15,1.13,3.34.23-.16-1.13-3.33" fill="url(#linear-gradient-16)"/>
      <path id="Path_127" data-name="Path 127" d="M370.15,61.04l-.23.13,1.02,3.41.24-.14-1.03-3.4" fill="url(#linear-gradient-2)"/>
      <path id="Path_128" data-name="Path 128" d="M370.71,60.76l-.24.11.92,3.47.24-.12-.92-3.46" fill="url(#linear-gradient-2)"/>
      <path id="Path_129" data-name="Path 129" d="M371.28,60.51l-.25.11.82,3.5.24-.09-.81-3.52" fill="url(#linear-gradient-19)"/>
      <path id="Path_130" data-name="Path 130" d="M371.86,60.32l-.25.08.69,3.55.25-.07-.69-3.56" fill="url(#linear-gradient-16)"/>
      <path id="Path_131" data-name="Path 131" d="M372.45,60.17l-.26.06.59,3.58.25-.05-.58-3.59" fill="url(#linear-gradient-2)"/>
      <path id="Path_132" data-name="Path 132" d="M373.05,60.06l-.26.04.46,3.61.26-.03-.46-3.62" fill="url(#linear-gradient-19)"/>
      <path id="Path_133" data-name="Path 133" d="M373.65,60.01l-.26.02.35,3.62.25-.02-.34-3.62" fill="url(#linear-gradient-2)"/>
      <path id="Path_134" data-name="Path 134" d="M374.26,60H374l.22,3.63h.26L374.26,60" fill="url(#linear-gradient-16)"/>
      <path id="Path_135" data-name="Path 135" d="M374.88,60.04l-.26-.02.09,3.62.26.02-.09-3.62" fill="url(#linear-gradient-2)"/>
      <path id="Path_136" data-name="Path 136" d="M375.5,60.13l-.26-.04-.03,3.6.26.04.03-3.6" fill="url(#linear-gradient-2)"/>
      <path id="Path_137" data-name="Path 137" d="M376.12,60.26l-.26-.06-.15,3.57.26.07.15-3.58" fill="url(#linear-gradient-2)"/>
      <path id="Path_138" data-name="Path 138" d="M376.75,60.45l-.26-.09-.28,3.55.26.08.28-3.54" fill="url(#linear-gradient-19)"/>
      <path id="Path_139" data-name="Path 139" d="M377.37,60.68l-.26-.1-.4,3.5.25.1.41-3.5" fill="url(#linear-gradient-2)"/>
      <path id="Path_140" data-name="Path 140" d="M377.99,60.97l-.25-.12-.53,3.43.26.14.52-3.45" fill="url(#linear-gradient-16)"/>
      <path id="Path_141" data-name="Path 141" d="M378.61,61.31l-.25-.15-.65,3.38.25.15.65-3.38" fill="url(#linear-gradient-16)"/>
      <path id="Path_142" data-name="Path 142" d="M379.23,61.69l-.25-.16-.77,3.3.25.17.77-3.31" fill="url(#linear-gradient-16)"/>
      <path id="Path_143" data-name="Path 143" d="M379.6,61.95l-.89,3.22.24.18.89-3.22-.24-.18" fill="url(#linear-gradient-2)"/>
      <path id="Path_144" data-name="Path 144" d="M380.2,62.42l-1.01,3.12.24.2,1-3.13-.23-.19" fill="url(#linear-gradient-2)"/>
      <path id="Path_145" data-name="Path 145" d="M380.77,62.91l-1.12,3.04.23.21L381,63.13l-.23-.22" fill="url(#linear-gradient-35)"/>
      <path id="Path_146" data-name="Path 146" d="M381.33,63.46l-1.23,2.92.22.23,1.23-2.92-.22-.23" fill="url(#linear-gradient-36)"/>
      <path id="Path_147" data-name="Path 147" d="M381.87,64.03l-1.33,2.81.21.24,1.33-2.8-.21-.25" fill="url(#linear-gradient-37)"/>
      <path id="Path_148" data-name="Path 148" d="M382.38,64.65l-1.44,2.68.21.25,1.44-2.67-.21-.26" fill="url(#linear-gradient-38)"/>
      <path id="Path_149" data-name="Path 149" d="M382.88,65.29l-1.54,2.55.2.28,1.53-2.55-.19-.28" fill="url(#linear-gradient-39)"/>
      <path id="Path_150" data-name="Path 150" d="M383.34,65.97l-1.62,2.41.19.3,1.63-2.42-.2-.29" fill="url(#linear-gradient-40)"/>
      <path id="Path_151" data-name="Path 151" d="M383.79,66.68l-1.71,2.27.17.3,1.72-2.27-.18-.3" fill="url(#linear-gradient-7)"/>
      <path id="Path_152" data-name="Path 152" d="M384.22,67.41l-1.8,2.12.17.32,1.8-2.12-.17-.32" fill="url(#linear-gradient-42)"/>
      <path id="Path_153" data-name="Path 153" d="M384.62,68.17l-1.88,1.97.16.32,1.87-1.96-.15-.33" fill="url(#linear-gradient-43)"/>
      <path id="Path_154" data-name="Path 154" d="M384.99,68.95l-1.95,1.82.15.33,1.95-1.81-.15-.34" fill="url(#linear-gradient-44)"/>
      <path id="Path_155" data-name="Path 155" d="M385.33,69.75l-2.02,1.66.14.35,2.02-1.65-.14-.36" fill="url(#linear-gradient-45)"/>
      <path id="Path_156" data-name="Path 156" d="M385.65,70.58l-2.08,1.49.13.36,2.08-1.49-.13-.36" fill="url(#linear-gradient-46)"/>
      <path id="Path_157" data-name="Path 157" d="M385.95,71.43l-2.14,1.32.12.37,2.14-1.33-.12-.36" fill="url(#linear-gradient-47)"/>
      <path id="Path_158" data-name="Path 158" d="M386.22,72.28l-2.2,1.15.11.38,2.19-1.15-.1-.38" fill="url(#linear-gradient-48)"/>
      <path id="Path_159" data-name="Path 159" d="M386.45,73.16l-2.23.98.09.38,2.24-.98-.1-.38" fill="url(#linear-gradient-2)"/>
      <path id="Path_160" data-name="Path 160" d="M386.67,74.05l-2.28.81.08.38,2.28-.81-.08-.38" fill="url(#linear-gradient-50)"/>
      <path id="Path_161" data-name="Path 161" d="M386.85,74.95l-2.31.63.07.38,2.31-.63-.07-.38" fill="url(#linear-gradient-51)"/>
      <path id="Path_162" data-name="Path 162" d="M387,75.86l-2.34.45.06.39,2.34-.45-.06-.39" fill="url(#linear-gradient-2)"/>
      <path id="Path_163" data-name="Path 163" d="M387.13,76.78l-2.37.26.05.4,2.36-.27-.04-.39" fill="url(#linear-gradient-53)"/>
      <path id="Path_164" data-name="Path 164" d="M387.22,77.71l-2.38.08.03.39,2.38-.08-.03-.39" fill="url(#linear-gradient-54)"/>
      <path id="Path_165" data-name="Path 165" d="M387.28,78.64l-2.39-.11.02.39,2.39.11-.02-.39" fill="url(#linear-gradient-2)"/>
      <path id="Path_166" data-name="Path 166" d="M387.31,79.57l-2.39-.29v.39l2.4.29-.01-.39" fill="url(#linear-gradient-2)"/>
      <path id="Path_167" data-name="Path 167" d="M387.31,80.51l-2.39-.49-.01.4,2.4.48v-.39" fill="url(#linear-gradient-2)"/>
      <path id="Path_168" data-name="Path 168" d="M387.29,81.44l-2.39-.66-.03.38,2.39.67.03-.39" fill="url(#linear-gradient-58)"/>
      <path id="Path_169" data-name="Path 169" d="M387.22,82.38l-2.37-.86-.04.39,2.37.85.04-.38" fill="url(#linear-gradient-2)"/>
      <path id="Path_170" data-name="Path 170" d="M387.12,83.31l-2.35-1.04-.06.37,2.36,1.04.05-.37" fill="url(#linear-gradient-60)"/>
      <path id="Path_171" data-name="Path 171" d="M386.98,84.23,384.66,83l-.06.38,2.32,1.22.06-.37" fill="url(#linear-gradient-2)"/>
      <path id="Path_172" data-name="Path 172" d="M386.82,85.14l-2.29-1.4-.08.36,2.29,1.4.08-.36" fill="url(#linear-gradient-2)"/>
      <path id="Path_173" data-name="Path 173" d="M386.61,86.04l-2.24-1.57-.09.35,2.25,1.57.08-.35" fill="url(#linear-gradient-2)"/>
      <path id="Path_174" data-name="Path 174" d="M378.33,66.07c-4.69-3.29-9.92-.43-11.66,6.4h0c1.72-6.79,6.93-9.65,11.61-6.37s7.09,11.47,5.36,18.26h0c1.73-6.83-.68-15-5.38-18.33" fill="url(#linear-gradient-64)"/>
      <path id="Path_175" data-name="Path 175" d="M375.11,78.77a.65.65,0,0,1-.19-.21,1.06,1.06,0,0,1,0-1.09.37.37,0,0,1,.54-.1.7.7,0,0,1,.19.22,1.06,1.06,0,0,1,0,1.09.37.37,0,0,1-.54.09m5.25-7.49s-5.34,5.34-5.67,5.78a1.79,1.79,0,0,0,0,1.83,1.1,1.1,0,0,0,.32.35.62.62,0,0,0,.9-.16c.33-.45,4.47-7.8,4.47-7.8" fill="url(#linear-gradient-65)"/>
      <path id="Path_176" data-name="Path 176" d="M375.46,77.37a.37.37,0,0,0-.54.1,1.06,1.06,0,0,0,0,1.09.65.65,0,0,0,.19.21.37.37,0,0,0,.54-.09,1.06,1.06,0,0,0,0-1.09.7.7,0,0,0-.19-.22" fill="url(#linear-gradient-66)"/>
      <path id="Path_177" data-name="Path 177" d="M384.4,86.82l-.15-.11-.38.14.01.15.01.03.02.02.03.02h.03l.13-.05-.02.04-.02.04-.24.66-.15-.1-.07.18.48.34.08-.18-.14-.1.38-1.08" fill="url(#linear-gradient-67)"/>
      <path id="Path_178" data-name="Path 178" d="M385,87.23h-.23l-.12.08-.09.13.1.09h.11l.06-.06h.08l.05.09v.2h-.2l-.07.18.08.06v.34h-.11l-.05-.08v-.15h-.1v.34l.06.12.1.09.14.06h.13l.11-.09.09-.18a.42.42,0,0,0-.06-.35h-.02l.06-.07v-.39l-.05-.12-.1-.1" fill="url(#linear-gradient-68)"/>
      <path id="Path_179" data-name="Path 179" d="M385.35,88.82h0V88.5a1.7,1.7,0,0,1,.09-.29l.09-.17.08-.07h.06v.33a.286.286,0,0,1-.06.22l-.06.14-.06.11h-.1m.39-1.08h-.16l-.16.07a.69.69,0,0,0-.15.2,1.56,1.56,0,0,0-.12.35.73.73,0,0,0,0,.25v.2l.06.16.1.11.16.06.16-.07a.861.861,0,0,0,.15-.2,1.3,1.3,0,0,0,.12-.35.81.81,0,0,0,0-.25V88l-.06-.17-.1-.1" fill="url(#linear-gradient-69)"/>
    </g>
    <g id="Group_5" data-name="Group 5">
      <path id="Path_111" data-name="Path 111" d="M398.54,70.21,395,83.14l-4.68,17.19a1.19,1.19,0,0,1-1.84.66L357.45,79.26a1.52,1.52,0,0,1-.59-1.63l4.45-16.34,3.78-13.89a1.12,1.12,0,0,1,1.72-.62L398,68.58a1.51,1.51,0,0,1,.54,1.63Z" opacity="0.8" fill="url(#linear-gradient-70)"/>
      <g id="Group_4" data-name="Group 4">
        <path id="Path_180" data-name="Path 180" d="M339,54.84,337.21,62l.81.57,1.8-7.08-.12-.08a7.271,7.271,0,0,1-.67-.55m2.36,1.49a6.07,6.07,0,0,1-.85-.42L338.73,63l.81.57,1.85-7.28m-3.74-3.11-1.95,7.7.81.57,1.86-7.33a7.528,7.528,0,0,1-.72-.94m5.41,3.54a4.36,4.36,0,0,1-.91-.16l-1.91,7.5.81.57,2-7.91m-6.59-5.89-2.28,9,.81.57,2.08-8.2a14,14,0,0,1-.61-1.36m8.42,5.71a5.359,5.359,0,0,1-1,.18l-2.14,8.4.81.57,2.33-9.15m2-.69-1.06.4-2.52,9.93.81.57,2.77-10.9M335.5,47.68,332.67,58.8l.81.57L336,49.49c-.18-.58-.34-1.19-.49-1.81m-19.4-14.92L313,45l.81.57,3.1-12.21a9.625,9.625,0,0,1-.8-.63m2.36,1.53a7.552,7.552,0,0,1-.85-.43l-3.11,12.23.81.57,3.15-12.37m30.26,21.19a4.63,4.63,0,0,0-1,.14l-3,11.66.81.57,3.14-12.37m-34-24.14L311.48,44l.82.57,3.14-12.39q-.39-.39-.75-.81m5.45,3.37a5.39,5.39,0,0,1-.92-.16L316,47.15l.82.57,3.3-13m30.3,21.09a4.75,4.75,0,0,0-.9-.26l-3.25,12.8.81.57,3.34-13.11m1.36.75c-.22-.15-.42-.27-.63-.39L347.81,69.4l.81.57L352,56.7l-.19-.15m-38.43-27L310,42.91l.81.57,3.28-12.92c-.24-.34-.47-.68-.69-1M334.7,43.8l-3.54,13.94.81.57,3.14-12.37c-.14-.72-.28-1.43-.41-2.14M322,34.52a8.369,8.369,0,0,1-1,.18l-3.43,13.51.81.56L322,34.52m-9.81-7.24-3.7,14.57.81.57,3.53-13.88c-.23-.41-.44-.83-.64-1.26M324,33.74l-1.07.47L319.1,49.27l.81.56L324,33.74m-12.9-9.12-4.11,16.17.82.57,3.87-15.27c-.2-.49-.39-1-.58-1.47M289.2,9.14c-.39.2-.76.4-1.11.61l-3.85,15.14.82.57L289.2,9.14m44.7,30.8-4.26,16.74.82.57L334.34,42c-.14-.69-.28-1.36-.44-2m-7.95-7c-.36.12-.72.26-1.07.41l-4.32,17,.82.56,4.57-18M310,21.71l-4.58,18,.81.57,4.32-17c-.18-.52-.36-1-.55-1.57M291.2,8.28c-.36.13-.71.27-1.06.42L285.76,26l.81.57L291.2,8.28m41.71,28.55-4.78,18.79.81.57,4.53-17.82q-.241-.784-.56-1.54m-5.11-4.18a4.54,4.54,0,0,0-1,.05l-4.74,18.69.81.56,4.91-19.3M309,18.86l-5,19.81.81.57,4.79-18.87c-.18-.51-.38-1-.57-1.51M293.12,7.76a9.157,9.157,0,0,0-1,.24l-4.83,19,.81.57,5-19.82m38.54,27-5,19.84.81.57,4.93-19.39a7.631,7.631,0,0,0-.7-1m-2.19-1.65a4.581,4.581,0,0,0-.88-.3l-5,19.67.81.57,5.07-19.94m1.09.62-.36-.23-5.1,20,.82.57L331,34c-.15-.12-.29-.24-.45-.35M295,7.54a4.222,4.222,0,0,0-1,.08l-5.2,20.45.82.57L295,7.54m12.86,8.76L302.4,37.61l.82.57,5.22-20.55c-.2-.45-.41-.89-.62-1.33m-11.1-8.69c-.32,0-.63-.07-.94-.08l-5.48,21.6.81.57,5.61-22.09m9.86,6.53-5.69,22.41.81.57,5.56-21.88c-.21-.37-.44-.73-.68-1.1m-8.16-6.21c-.3-.09-.6-.15-.9-.21l-5.71,22.47.81.57,5.8-22.83m6.83,4.43-5.87,23.13.81.57L306,13.27c-.23-.31-.47-.62-.73-.91M300.06,8.5c-.29-.13-.58-.24-.87-.34l-5.87,23.09.82.57L300.06,8.5m3.78,2.42-6,23.51.82.57,5.93-23.35-.77-.73m-2.2-1.61c-.29-.17-.56-.33-.84-.47l-6,23.47.81.57,6-23.57m.87.56-.16-.1-6,23.6.81.57,6-23.58-.64-.49" fill="url(#linear-gradient-71)"/>
        <path id="Path_181" data-name="Path 181" d="M304.76.21l-.3-.21-1,.44V.8h.11l.6-.25a1.026,1.026,0,0,1-.07.25l-.65,2.54L303,3l-.1.4,1.43,1,.11-.39-.52-.36.89-3.47" fill="#66aad7"/>
        <path id="Path_182" data-name="Path 182" d="M307.35,2l-1.27-.89-.68,1.68.2.25a1,1,0,0,1,.44.19.88.88,0,0,1,.24.23.87.87,0,0,1,.14.27,1.15,1.15,0,0,1,0,.31,1.389,1.389,0,0,1,0,.35.94.94,0,0,1-.14.32.54.54,0,0,1-.18.21.45.45,0,0,1-.23,0,.61.61,0,0,1-.26-.1,1.21,1.21,0,0,1-.2-.19l-.13-.21-.09-.16-.07-.11H305l-.16.15.1.25a1.591,1.591,0,0,0,.14.26.84.84,0,0,0,.18.23,1.1,1.1,0,0,0,.22.21,1,1,0,0,0,.4.17.7.7,0,0,0,.38-.06.77.77,0,0,0,.31-.29,1.35,1.35,0,0,0,.22-.5,2.2,2.2,0,0,0,.06-.5,1.61,1.61,0,0,0-.07-.49,1.46,1.46,0,0,0-.2-.44,1.42,1.42,0,0,0-.35-.34,1.37,1.37,0,0,0-.38-.2l.36-.88.81.57c.08.06.14.07.18,0l.09-.15.06-.23" fill="#66aad7"/>
        <path id="Path_183" data-name="Path 183" d="M307.87,6.47a.64.64,0,0,1-.2-.23,1.18,1.18,0,0,1-.14-.39,3.459,3.459,0,0,1,0-.56,4.168,4.168,0,0,1,.13-.76,3.49,3.49,0,0,1,.24-.7,1.38,1.38,0,0,1,.25-.38.37.37,0,0,1,.25-.12.41.41,0,0,1,.25.08.76.76,0,0,1,.2.23A1.27,1.27,0,0,1,309,4a3.472,3.472,0,0,1,0,.57,4.454,4.454,0,0,1-.14.76,3.681,3.681,0,0,1-.23.69,1.24,1.24,0,0,1-.26.38.33.33,0,0,1-.25.12.46.46,0,0,1-.24-.08M308.76,3a.75.75,0,0,0-.41-.14A.63.63,0,0,0,308,3a1.58,1.58,0,0,0-.36.48,4.211,4.211,0,0,0-.3.82,4.93,4.93,0,0,0-.15.94,3.539,3.539,0,0,0,.05.75,2.069,2.069,0,0,0,.21.58,1.1,1.1,0,0,0,.36.38.75.75,0,0,0,.4.16.65.65,0,0,0,.41-.15,1.56,1.56,0,0,0,.36-.47,4.331,4.331,0,0,0,.3-.83,6,6,0,0,0,.15-.93,3.586,3.586,0,0,0-.05-.76,2,2,0,0,0-.22-.58,1.48,1.48,0,0,0-.35-.39" fill="#66aad7"/>
        <path id="Path_184" data-name="Path 184" d="M306.22,8c-.26-.18-.54,0-.64.35a1,1,0,0,0,.3,1c.25.18.54,0,.64-.35a1,1,0,0,0-.3-1" fill="url(#linear-gradient-72)"/>
        <path id="Path_185" data-name="Path 185" d="M330.12,22.17l-.29-.21-1.05.44.05.31v.11H329l.59-.24-.07.25-.64,2.53-.56-.4-.1.41,1.43,1,.1-.4-.51-.36.88-3.47" fill="#66aad7"/>
        <path id="Path_186" data-name="Path 186" d="M332,23.45a.85.85,0,0,0-.34-.15.46.46,0,0,0-.31,0,.61.61,0,0,0-.28.21,1.361,1.361,0,0,0-.23.4l.18.18.12.07.1-.09.11-.18.15-.1h.18a.46.46,0,0,1,.19.09.8.8,0,0,1,.17.15l.11.23v.26a1.051,1.051,0,0,1,0,.3.82.82,0,0,1-.11.25l-.15.12a.35.35,0,0,1-.23,0,.89.89,0,0,1-.3-.16l-.09.38a1.87,1.87,0,0,1,.32.3.84.84,0,0,1,.17.28,1,1,0,0,1,0,.28,1.54,1.54,0,0,1,0,.3.771.771,0,0,1-.1.23.4.4,0,0,1-.15.14.42.42,0,0,1-.21.06.57.57,0,0,1-.25-.1.79.79,0,0,1-.22-.23.85.85,0,0,1-.11-.26l-.05-.26v-.22l-.06-.16-.12-.06h-.19a3.924,3.924,0,0,0,0,.49,1.56,1.56,0,0,0,.09.44,1.47,1.47,0,0,0,.21.39,1.339,1.339,0,0,0,.34.33,1.141,1.141,0,0,0,.36.16.69.69,0,0,0,.35,0,.67.67,0,0,0,.28-.23,1.19,1.19,0,0,0,.19-.44,1.43,1.43,0,0,0,0-.68,1.31,1.31,0,0,0-.29-.59h.21l.2-.09a.79.79,0,0,0,.15-.19,1,1,0,0,0,.11-.3,1.7,1.7,0,0,0,0-.44,1.5,1.5,0,0,0-.09-.43,1.35,1.35,0,0,0-.19-.38,1.18,1.18,0,0,0-.3-.29" fill="#66aad7"/>
        <path id="Path_187" data-name="Path 187" d="M333.24,28.44a.931.931,0,0,1-.21-.23,1.341,1.341,0,0,1-.13-.4,3.319,3.319,0,0,1,0-.56,4.454,4.454,0,0,1,.14-.76,3.128,3.128,0,0,1,.24-.7,1.559,1.559,0,0,1,.24-.38.41.41,0,0,1,.26-.12.43.43,0,0,1,.24.08.78.78,0,0,1,.21.23,1.05,1.05,0,0,1,.12.39,2.572,2.572,0,0,1,0,.57,5.816,5.816,0,0,1-.14.77A3,3,0,0,1,334,28a1,1,0,0,1-.25.37.38.38,0,0,1-.25.13.41.41,0,0,1-.24-.08m.89-3.51a.77.77,0,0,0-.42-.15.57.57,0,0,0-.39.14,1.64,1.64,0,0,0-.36.49,3.081,3.081,0,0,0-.3.82,4.17,4.17,0,0,0-.15.93,2.559,2.559,0,0,0,.05.75,1.53,1.53,0,0,0,.21.58,1.21,1.21,0,0,0,.35.39.78.78,0,0,0,.41.14.53.53,0,0,0,.41-.14,1.74,1.74,0,0,0,.36-.47,3.682,3.682,0,0,0,.29-.82,4.257,4.257,0,0,0,.15-.93,3.151,3.151,0,0,0,0-.77,1.62,1.62,0,0,0-.23-.57,1.09,1.09,0,0,0-.34-.39" fill="#66aad7"/>
        <path id="Path_188" data-name="Path 188" d="M331.59,29.93c-.26-.18-.54,0-.64.35a1,1,0,0,0,.3,1c.25.18.54,0,.64-.35a1,1,0,0,0-.3-1" fill="url(#linear-gradient-73)"/>
        <path id="Path_189" data-name="Path 189" d="M351.15,45.56l-.29-.21-1.05.44.05.31h0v.06H350l.59-.25a1.026,1.026,0,0,1-.07.25l-.64,2.54-.57-.4-.1.4,1.44,1,.11-.4-.52-.36.88-3.47" fill="#66aad7"/>
        <path id="Path_190" data-name="Path 190" d="M352.12,50.32a.83.83,0,0,1-.21-.24,1.209,1.209,0,0,1-.13-.38,2.61,2.61,0,0,1,0-.57,5.709,5.709,0,0,1,.14-.76,3.683,3.683,0,0,1,.23-.69,1.651,1.651,0,0,1,.25-.39.39.39,0,0,1,.26-.12.53.53,0,0,1,.24.08.83.83,0,0,1,.21.24,1,1,0,0,1,.12.38,2.13,2.13,0,0,1,0,.57,4.411,4.411,0,0,1-.13.77,3.678,3.678,0,0,1-.23.69,1.24,1.24,0,0,1-.26.38.42.42,0,0,1-.25.12.41.41,0,0,1-.24-.08m.89-3.51a.72.72,0,0,0-.42-.15.66.66,0,0,0-.4.15,1.56,1.56,0,0,0-.36.47,3.78,3.78,0,0,0-.29.83,4.262,4.262,0,0,0-.15.93,2.63,2.63,0,0,0,.05.76,1.66,1.66,0,0,0,.21.58,1.28,1.28,0,0,0,.35.38.77.77,0,0,0,.41.15.59.59,0,0,0,.4-.15,1.41,1.41,0,0,0,.36-.47,3.47,3.47,0,0,0,.3-.82,4.25,4.25,0,0,0,.15-.94,3.071,3.071,0,0,0-.05-.76,1.83,1.83,0,0,0-.21-.57,1.221,1.221,0,0,0-.35-.39" fill="#66aad7"/>
        <path id="Path_191" data-name="Path 191" d="M354.26,51.82a.92.92,0,0,1-.2-.23,1.21,1.21,0,0,1-.13-.38,2.631,2.631,0,0,1,0-.57,5.434,5.434,0,0,1,.14-.76,4.777,4.777,0,0,1,.23-.7,1.19,1.19,0,0,1,.26-.38.35.35,0,0,1,.25-.12.38.38,0,0,1,.24.08.71.71,0,0,1,.21.24,1.281,1.281,0,0,1,.13.38,2.7,2.7,0,0,1,0,.57,4.319,4.319,0,0,1-.13.76,3.6,3.6,0,0,1-.24.69,1.14,1.14,0,0,1-.25.39.48.48,0,0,1-.25.12.63.63,0,0,1-.25-.09m.9-3.51a.78.78,0,0,0-.41-.14.62.62,0,0,0-.4.15,1.32,1.32,0,0,0-.36.47,3.57,3.57,0,0,0-.3.83,4.17,4.17,0,0,0-.15.93,3.068,3.068,0,0,0,0,.76,2,2,0,0,0,.21.58,1.25,1.25,0,0,0,.35.37.78.78,0,0,0,.41.16.64.64,0,0,0,.4-.15,1.41,1.41,0,0,0,.36-.47,3.718,3.718,0,0,0,.31-.83,4.888,4.888,0,0,0,.14-.93,2.629,2.629,0,0,0,0-.76,2.331,2.331,0,0,0-.21-.58,1.48,1.48,0,0,0-.35-.39" fill="#66aad7"/>
        <path id="Path_192" data-name="Path 192" d="M352.62,53.32c-.26-.18-.55,0-.64.35a1,1,0,0,0,.29,1c.26.18.55,0,.64-.35a1,1,0,0,0-.29-1" fill="url(#linear-gradient-74)"/>
      </g>
    </g>
  </g>
</svg>
