<svg xmlns="http://www.w3.org/2000/svg" xmlns:xlink="http://www.w3.org/1999/xlink" width="493.725" height="405.49" viewBox="0 0 493.725 405.49">
  <defs>
    <linearGradient id="linear-gradient" x1="0.5" y1="1" x2="0.5" gradientUnits="objectBoundingBox">
      <stop offset="0" stop-color="#9cb7f0"/>
      <stop offset="0.03" stop-color="#9fb9f1"/>
      <stop offset="0.26" stop-color="#bacdf5"/>
      <stop offset="0.5" stop-color="#cedbf8"/>
      <stop offset="0.75" stop-color="#d9e3f9"/>
      <stop offset="1" stop-color="#dde6fa"/>
    </linearGradient>
    <linearGradient id="linear-gradient-2" x1="-0.001" y1="0.5" x2="1.001" y2="0.5" gradientUnits="objectBoundingBox">
      <stop offset="0" stop-color="#366fe0"/>
      <stop offset="0.7" stop-color="#94cbff"/>
      <stop offset="1" stop-color="#94cbff"/>
    </linearGradient>
    <linearGradient id="linear-gradient-3" y1="0.501" x2="1" y2="0.501" gradientUnits="objectBoundingBox">
      <stop offset="0" stop-color="#4e54c8"/>
      <stop offset="1" stop-color="#8f94fb"/>
    </linearGradient>
    <linearGradient id="linear-gradient-4" x1="0.5" y1="1" x2="0.5" gradientUnits="objectBoundingBox">
      <stop offset="0" stop-color="#8f94fb"/>
      <stop offset="0.05" stop-color="#888df5"/>
      <stop offset="0.27" stop-color="#6e74e1"/>
      <stop offset="0.49" stop-color="#5c62d3"/>
      <stop offset="0.73" stop-color="#5157cb"/>
      <stop offset="1" stop-color="#4e54c8"/>
    </linearGradient>
    <linearGradient id="linear-gradient-5" x1="0.5" y1="1" x2="0.5" y2="0" xlink:href="#linear-gradient-3"/>
    <linearGradient id="linear-gradient-6" x1="0.5" y1="1" x2="0.5" y2="0" xlink:href="#linear-gradient-3"/>
    <linearGradient id="linear-gradient-7" y1="0.5" x2="1" y2="0.5" gradientUnits="objectBoundingBox">
      <stop offset="0" stop-color="#fc4c5c"/>
      <stop offset="0.68" stop-color="#fb9f02"/>
      <stop offset="1" stop-color="#fb9f02"/>
    </linearGradient>
    <linearGradient id="linear-gradient-8" x1="0.5" y1="1" x2="0.5" gradientUnits="objectBoundingBox">
      <stop offset="0" stop-color="#366fe0"/>
      <stop offset="0.25" stop-color="#366fe0"/>
      <stop offset="0.45" stop-color="#2f63d1"/>
      <stop offset="0.84" stop-color="#1b43a9"/>
      <stop offset="1" stop-color="#123597"/>
    </linearGradient>
    <linearGradient id="linear-gradient-9" x1="0" y1="0.5" x2="1" y2="0.5" xlink:href="#linear-gradient-3"/>
    <linearGradient id="linear-gradient-10" x1="-0.003" y1="0.5" x2="1.003" y2="0.5" xlink:href="#linear-gradient-3"/>
    <linearGradient id="linear-gradient-11" x1="0.5" y1="0.998" x2="0.5" y2="0.001" xlink:href="#linear-gradient-3"/>
    <linearGradient id="linear-gradient-12" x1="-0.359" y1="0.5" x2="0.641" y2="0.5" xlink:href="#linear-gradient-3"/>
    <linearGradient id="linear-gradient-13" x1="0" y1="0.5" x2="1.001" y2="0.5" xlink:href="#linear-gradient-8"/>
    <clipPath id="clip-path">
      <path id="Path_56" data-name="Path 56" d="M297.12,102.54l9.84-38.72L355,97.46l-9.84,38.73Z" fill="none"/>
    </clipPath>
    <linearGradient id="linear-gradient-14" x1="0" y1="0.5" x2="0.999" y2="0.5" xlink:href="#linear-gradient-7"/>
    <linearGradient id="linear-gradient-15" x1="0.5" y1="1" x2="0.5" y2="0" xlink:href="#linear-gradient-7"/>
    <linearGradient id="linear-gradient-16" x1="0.5" y1="0.999" x2="0.5" y2="0" xlink:href="#linear-gradient-3"/>
    <linearGradient id="linear-gradient-17" y1="0.5" x2="1" y2="0.5" gradientUnits="objectBoundingBox">
      <stop offset="0" stop-color="#123597"/>
      <stop offset="0.16" stop-color="#1b43a9"/>
      <stop offset="0.55" stop-color="#2f63d1"/>
      <stop offset="0.75" stop-color="#366fe0"/>
      <stop offset="1" stop-color="#366fe0"/>
    </linearGradient>
    <linearGradient id="linear-gradient-18" y1="0.5" x2="1" y2="0.5" gradientUnits="objectBoundingBox">
      <stop offset="0" stop-color="#4e54c8"/>
      <stop offset="0.35" stop-color="#5157ca"/>
      <stop offset="0.56" stop-color="#595fd1"/>
      <stop offset="0.74" stop-color="#686ddc"/>
      <stop offset="0.89" stop-color="#7c81ec"/>
      <stop offset="1" stop-color="#8f94fb"/>
    </linearGradient>
    <linearGradient id="linear-gradient-19" x1="0.002" y1="0.5" x2="1" y2="0.5" xlink:href="#linear-gradient-18"/>
    <linearGradient id="linear-gradient-20" x1="0" y1="0.5" x2="1" y2="0.5" xlink:href="#linear-gradient-18"/>
    <linearGradient id="linear-gradient-21" x1="0" y1="0.499" x2="1" y2="0.499" xlink:href="#linear-gradient-18"/>
    <linearGradient id="linear-gradient-23" x1="0" y1="0.5" x2="1" y2="0.5" xlink:href="#linear-gradient-2"/>
    <linearGradient id="linear-gradient-24" y1="0.5" x2="1" y2="0.5" gradientUnits="objectBoundingBox">
      <stop offset="0" stop-color="#dde6fa"/>
      <stop offset="0.2" stop-color="#d9e3f9"/>
      <stop offset="0.4" stop-color="#cedbf8"/>
      <stop offset="0.59" stop-color="#bacdf5"/>
      <stop offset="0.79" stop-color="#9fbaf0"/>
      <stop offset="0.97" stop-color="#7ca1eb"/>
      <stop offset="1" stop-color="#779dea"/>
    </linearGradient>
    <linearGradient id="linear-gradient-25" x1="0" y1="0.503" x2="1" y2="0.503" xlink:href="#linear-gradient-8"/>
    <linearGradient id="linear-gradient-26" x1="0.147" y1="0.897" x2="0.77" y2="-0.022" gradientUnits="objectBoundingBox">
      <stop offset="0" stop-color="#2a5bc7"/>
      <stop offset="0.13" stop-color="#2452bc"/>
      <stop offset="0.42" stop-color="#1a42a7"/>
      <stop offset="0.71" stop-color="#14389b"/>
      <stop offset="1" stop-color="#123597"/>
    </linearGradient>
    <linearGradient id="linear-gradient-27" x1="0" y1="0.5" x2="1" y2="0.5" xlink:href="#linear-gradient-24"/>
    <linearGradient id="linear-gradient-28" x1="0.001" y1="0.501" x2="1.001" y2="0.501" xlink:href="#linear-gradient-7"/>
    <linearGradient id="linear-gradient-29" x1="0" y1="0.5" x2="1" y2="0.5" xlink:href="#linear-gradient-8"/>
    <linearGradient id="linear-gradient-30" x1="0.001" y1="0.5" x2="1" y2="0.5" xlink:href="#linear-gradient-2"/>
    <linearGradient id="linear-gradient-31" x1="0.001" y1="0.5" x2="1" y2="0.5" gradientUnits="objectBoundingBox">
      <stop offset="0" stop-color="#64edb2"/>
      <stop offset="0.25" stop-color="#99f3cc"/>
      <stop offset="0.49" stop-color="#c5f8e2"/>
      <stop offset="0.7" stop-color="#e5fcf2"/>
      <stop offset="0.88" stop-color="#f8fefc"/>
      <stop offset="1" stop-color="#fff"/>
    </linearGradient>
    <radialGradient id="radial-gradient" cx="0.499" cy="0.5" r="0.419" gradientTransform="translate(-0.088) scale(1.175 1)" gradientUnits="objectBoundingBox">
      <stop offset="0" stop-color="#a4eed2"/>
      <stop offset="0.14" stop-color="#a2edd2" stop-opacity="0.98"/>
      <stop offset="0.27" stop-color="#9aead2" stop-opacity="0.941"/>
      <stop offset="0.4" stop-color="#8de5d2" stop-opacity="0.859"/>
      <stop offset="0.52" stop-color="#7bded3" stop-opacity="0.741"/>
      <stop offset="0.65" stop-color="#64d5d3" stop-opacity="0.6"/>
      <stop offset="0.77" stop-color="#48cbd3" stop-opacity="0.42"/>
      <stop offset="0.89" stop-color="#28bed4" stop-opacity="0.212"/>
      <stop offset="1" stop-color="#06b1d4" stop-opacity="0"/>
    </radialGradient>
    <linearGradient id="linear-gradient-32" x1="0.001" y1="0.5" x2="1" y2="0.5" xlink:href="#linear-gradient-8"/>
    <linearGradient id="linear-gradient-33" x1="0" y1="0.501" x2="1" y2="0.501" xlink:href="#linear-gradient-2"/>
    <linearGradient id="linear-gradient-34" x1="0" y1="0.5" x2="1" y2="0.5" xlink:href="#linear-gradient-8"/>
    <linearGradient id="linear-gradient-35" x1="0.002" y1="0.5" x2="1.002" y2="0.5" xlink:href="#linear-gradient-2"/>
    <linearGradient id="linear-gradient-36" x1="-0.004" y1="0.499" x2="0.998" y2="0.499" xlink:href="#linear-gradient-3"/>
    <linearGradient id="linear-gradient-37" x1="0" y1="0.5" x2="1" y2="0.5" xlink:href="#linear-gradient-31"/>
    <linearGradient id="linear-gradient-38" x1="0" y1="0.5" x2="1.001" y2="0.5" xlink:href="#linear-gradient"/>
    <radialGradient id="radial-gradient-2" cx="0.502" cy="0.498" r="0.5" gradientTransform="translate(0.127 -0.101) rotate(13.14)" gradientUnits="objectBoundingBox">
      <stop offset="0" stop-color="#cacaca"/>
      <stop offset="0.03" stop-color="#bcbcbc"/>
      <stop offset="0.16" stop-color="#8a8a8a"/>
      <stop offset="0.3" stop-color="#606060"/>
      <stop offset="0.43" stop-color="#3d3d3d"/>
      <stop offset="0.57" stop-color="#222"/>
      <stop offset="0.71" stop-color="#0f0f0f"/>
      <stop offset="0.85" stop-color="#040404"/>
      <stop offset="1"/>
    </radialGradient>
    <radialGradient id="radial-gradient-3" cx="0.5" cy="0.5" r="0.5" gradientTransform="matrix(1, 0, 0, 1, 0, 0)" xlink:href="#radial-gradient-2"/>
    <linearGradient id="linear-gradient-39" x1="0.5" y1="1.001" x2="0.5" y2="0.001" xlink:href="#linear-gradient-7"/>
    <linearGradient id="linear-gradient-40" x1="0.5" y1="1" x2="0.5" y2="0" xlink:href="#linear-gradient-7"/>
  </defs>
  <g id="Group_3" data-name="Group 3" transform="translate(-594 -442.86)">
    <g id="home_Layer1" transform="translate(593.99 404)">
      <g id="Layer_2" data-name="Layer 2">
        <g id="Layer_1" data-name="Layer 1">
          <path id="Path_2" data-name="Path 2" d="M437.87,273.52C391,329,305.71,359.6,238.56,370.36c-34.24,5.48-58,7.18-58,7.18-63.24,14.77-24-117.47-116.77-119.19C-2.51,257.13,161.57,81.05,253.84,55S330.61,131.77,386,138.12,508.69,189.74,437.87,273.52Z" fill="url(#linear-gradient)"/>
          <path id="Path_3" data-name="Path 3" d="M469,134.64A1105.78,1105.78,0,0,0,329.86,259.7,172.924,172.924,0,0,0,316,236.14c26.08-32.68,50.74-66.41,77-99,14.2-17.73,28.86-35.74,47.65-48.14A133.46,133.46,0,0,1,469,134.64Z" fill="#fff"/>
          <path id="Path_4" data-name="Path 4" d="M348.29,150.13l-54.9-38.45a2.64,2.64,0,0,1-1-2.87L306.9,55.35a2,2,0,0,1,3.05-1.1L365,92.81a2.64,2.64,0,0,1,1,2.87L351.55,149a2.12,2.12,0,0,1-3.26,1.13Z" fill="url(#linear-gradient-2)"/>
          <path id="Path_5" data-name="Path 5" d="M271.3,125.87,235.37,152.8l-46.92-13.06,1.7-19,42.45,2.07,24.11-11.53C261.49,109.62,275,118.47,271.3,125.87Z" fill="url(#linear-gradient-3)"/>
          <path id="Path_6" data-name="Path 6" d="M239.06,214.06s51.64-29.46,79.83-26.77,30,7.18,21.74,50.4a652.332,652.332,0,0,0-10,83.2l-35.06-.35L298,239.08l-62.13-1.7Z" fill="url(#linear-gradient-4)"/>
          <path id="Path_7" data-name="Path 7" d="M430.07,301.91c-6.13,15.62-20,16.42-20,16.42s-5-10.46-33.44-30.21-43.95-42.67-43.95-42.67-11.94,18.31-40.4,29.85c-68.21,27.65-119.51-27-119.51-27l67.75-15.49s47.78-31.42,81.33-35.2c2.5-.28,4.94-.44,7.3-.47,8.27-.09,15.55,1.52,20.86,5.65a62.449,62.449,0,0,1,6.46,6.56c1.46,1.63,3.08,3.51,4.85,5.57C384.25,241.85,430.07,301.91,430.07,301.91Z" fill="url(#linear-gradient-5)"/>
          <path id="Path_8" data-name="Path 8" d="M228.85,242.15s41.63,40.09,95.86-11.57a12.25,12.25,0,0,1,19.12,3l15.05,27.05" fill="none" stroke="#64edff" stroke-miterlimit="10" stroke-width="1"/>
          <path id="Path_9" data-name="Path 9" d="M206.53,252.05s45.47,32.77,97.23-5.48" fill="none" stroke="#64edff" stroke-miterlimit="10" stroke-width="1"/>
          <path id="Path_10" data-name="Path 10" d="M478.15,254.79c.94,1.7,8.71,2.26,5.15,13.13a.215.215,0,0,1-.05.16l-1.36-.53-2.13,5.52,1.3.51c-1.07,2.36-2.38,4.94-3.93,7.66L475.44,280l-3.51,4.77,2.13,1.55c-1.31,2-2.73,4.14-4.26,6.24l-2-1.77-3.92,4.42,2.31,2.07c-1.64,2-3.38,4.06-5.21,6l-2.15-2.08-4.12,4.25,2.14,2.06c-1.87,1.82-3.8,3.56-5.82,5.22l-1.83-2.26L444,314.7l1.8,2.23c-2.07,1.63-4.05,3.15-5.94,4.52l-1.21-2.14-5.82,3.27,1.47,2.62c-8.79,5.4-15.29,6.27-20-1.08l61.13-70.37A2.22,2.22,0,0,1,478.15,254.79Z" fill="url(#linear-gradient-6)"/>
          <path id="Path_11" data-name="Path 11" d="M471.83,251.26c9.54,4.13,5.57,14.4-1.11,26.51-5.21,9.47-14.48,19.55-21.65,26.45h0c-2,1.92-3.83,3.6-5.38,4.95-7.06,6.17-22.95,18.52-31.88,14-5.34-2.72-11.51-10-15.6-15.45-2.74-3.65-4.56-6.45-4.56-6.45l20-25.88a8.29,8.29,0,0,1,4.2-2c2.36-.26,4.86,1.88,5.2,2S449.5,262.12,454.58,259,462.29,247.14,471.83,251.26Z" fill="url(#linear-gradient-7)"/>
          <path id="Path_12" data-name="Path 12" d="M396.13,307.62l13.12-7.9s10.38-1.3,14.92,3.56,7.05-9.87,24.82.86h0" fill="none" stroke="#fff" stroke-miterlimit="10" stroke-width="1"/>
          <path id="Path_13" data-name="Path 13" d="M388.31,300.41c1.91.63,8.71,1.81,12.27-6.41,1.4-3.24,3.27-4.63,5-5.14a8.29,8.29,0,0,0,6.1-6.77c.59-4.28,3.7-7.43,4.13-8.73.82-2.47-32.76-34-35.54-36.14s-6.55-.72-8.33,2.19-4.23,10.94-17,12.27-8.48,12.62-8.48,12.62S386.41,299.78,388.31,300.41Z" fill="url(#linear-gradient-8)"/>
          <path id="Path_14" data-name="Path 14" d="M243.3,230.17s-12.79,42.19-53.36,34.22a74.854,74.854,0,0,1-6.4-4.87q-1.59-1.32-3.44-3c-13.91-12.6-37-39.94-32.55-79.16,6.59-58.47,32.59-58.32,32.59-58.32l38.55,10.4s23.25,14.41,13,43.56c-6.19,17.58,5.67,28.55,9.58,36.38a26.519,26.519,0,0,1,2.16,9.44,71.722,71.722,0,0,1-.13,11.35Z" fill="url(#linear-gradient-9)"/>
          <ellipse id="Ellipse_1" data-name="Ellipse 1" cx="5.61" cy="6.71" rx="5.61" ry="6.71" transform="matrix(0.989, -0.147, 0.147, 0.989, 222.616, 209.634)" fill="url(#linear-gradient-10)"/>
          <ellipse id="Ellipse_2" data-name="Ellipse 2" cx="3.77" cy="4.51" rx="3.77" ry="4.51" transform="matrix(0.989, -0.147, 0.147, 0.989, 225.471, 210.654)" fill="url(#linear-gradient-11)"/>
          <path id="Path_15" data-name="Path 15" d="M213.73,164.12s-2.52,26.8-4.7,36.22-1.8,22.43,19.82,41.81" fill="none" stroke="#64edff" stroke-miterlimit="10" stroke-width="1"/>
          <path id="Path_16" data-name="Path 16" d="M204.51,137.64s1.92-12.51,10.58-12.07c28.15,1.44,32,27.08,61,27,17.23-.07,42.64-12.76,42.64-12.76l14,14.13s-27.4,29.15-54.37,33.06-63.28-10.07-71-18.44S204.51,137.64,204.51,137.64Z" fill="url(#linear-gradient-12)"/>
          <path id="Path_17" data-name="Path 17" d="M210.64,129s24.13,27.77,70.39,32.06l53.53-18.58" fill="none" stroke="#64edff" stroke-miterlimit="10" stroke-width="1"/>
          <path id="Path_18" data-name="Path 18" d="M347,150.13l-54.91-38.45a2.65,2.65,0,0,1-1-2.87l14.56-53.46a2,2,0,0,1,3-1.1l55.07,38.56a2.65,2.65,0,0,1,1,2.87L350.29,149a2.11,2.11,0,0,1-3.29,1.13Z" opacity="0.9" fill="url(#linear-gradient-13)"/>
          <g id="Group_2" data-name="Group 2">
            <g id="Group_1" data-name="Group 1" clip-path="url(#clip-path)">
              <path id="Path_19" data-name="Path 19" d="M305.22,106.42l-.1-.07-.41.17.02.11.01.01.01.03h.02l.02.01.24-.11-.02.1-.26,1.03-.22-.16-.04.15.56.39.03-.15-.2-.14.34-1.37" fill="#fff"/>
              <path id="Path_20" data-name="Path 20" d="M311.58,110.85l-.13-.06-.13.01-.11.08-.08.16.06.06.05.03.03-.04.05-.07.06-.04.07-.01.08.04.07.06.05.1.02.1-.03.13-.04.12-.06.08-.09.08-.11.06-.45.25-.03.03-.02.04-.01.06.69.49.03-.11v-.06l-.03-.04-.35-.24-.06-.03-.06-.03.37-.21.12-.08.11-.07.08-.11.05-.14.02-.19-.03-.18-.08-.16-.11-.11" fill="#fff"/>
              <path id="Path_21" data-name="Path 21" d="M318,115.37l-.14-.06h-.12l-.11.09-.08.15.06.07h0v-.07h.2l.08.07v.32l-.05.09h-.15l-.12-.06v.14l.13.11.07.11v.33l-.07.06h-.19l-.09-.09-.05-.11v-.2h-.07v.36l.08.15.13.13.14.06h.14l.1-.09.08-.17a.579.579,0,0,0,0-.26.55.55,0,0,0-.12-.24h.16l.06-.07.05-.12v-.34l-.08-.15-.11-.11" fill="#fff"/>
              <path id="Path_22" data-name="Path 22" d="M324,120.68l.57-.48v.06h0l-.15.63-.38-.26m.73-.63-.12-.08-.75.62v.14h0l.46.32-.1.4.11.07.1-.39.13.09h0v-.12l-.15-.11.24-1" fill="#fff"/>
              <path id="Path_23" data-name="Path 23" d="M331.22,124.62l-.5-.34-.26.64.07.1.1.03.08.05.1.08.05.12.02.12-.02.14-.05.14-.08.07-.09.03-.11-.05-.08-.07-.05-.08-.03-.07-.03-.04h-.04l-.06.05.04.11.05.09.07.09.09.08.16.06.14-.02.12-.11.08-.2.03-.19-.03-.19-.08-.17-.13-.14-.16-.07.15-.36.33.23.07.01.03-.06.02-.08" fill="#fff"/>
              <path id="Path_24" data-name="Path 24" d="M337,130.31l-.09-.09-.05-.12v-.39l.07-.06h.19l.08.08.06.12v.39l-.07.07H337m.58-1.21-.12-.08h-.07l-.4.32a.86.86,0,0,0-.16.18l-.08.18v.45l.09.18.13.13.15.06h.14l.12-.1.07-.18v-.39l-.08-.16-.11-.12h-.2l.45-.35" fill="#fff"/>
              <path id="Path_25" data-name="Path 25" d="M344.19,133.71l-.7-.5-.04.13.01.04.02.03.53.38-.03.03-.03.03-.75.94.09.07.05.01.04-.03.75-.96.02-.03.02-.06.02-.08" fill="#fff"/>
              <path id="Path_26" data-name="Path 26" d="M300.54,98.27l-.08-.09v-.39a.676.676,0,0,1,.05-.3,1.734,1.734,0,0,1,.1-.28l.1-.15h.21l.08.1.05.16v.22a1.886,1.886,0,0,1-.06.31.77.77,0,0,1-.09.27l-.1.16h-.21m.36-1.39h-.17l-.15.06a.39.39,0,0,0-.14.18,2.2,2.2,0,0,0-.12.32,1.64,1.64,0,0,0-.05.37,1.381,1.381,0,0,0,0,.29l.09.22.13.16h.32a.59.59,0,0,0,.14-.19,2.2,2.2,0,0,0,.12-.32,2.993,2.993,0,0,0,.06-.36,1.26,1.26,0,0,0,0-.3L301,97l-.13-.16" fill="#fff"/>
              <path id="Path_27" data-name="Path 27" d="M304.36,80.68l-.49-.34-.26.64.07.09.1.04.09.04.09.09.05.12.02.12-.02.14-.05.14-.08.07-.09.03-.11-.05-.08-.07-.05-.09-.03-.06-.03-.04h-.04l-.06.06.04.09.05.1.07.09.09.08.16.06.14-.02.12-.11.08-.2.03-.2-.03-.18-.08-.18-.13-.13-.16-.08.15-.36.33.23.06.01.03-.05.02-.08" fill="#fff"/>
              <path id="Path_28" data-name="Path 28" d="M304.57,82.43l-.08-.09-.05-.16V82a1.869,1.869,0,0,1,.05-.3,1.111,1.111,0,0,1,.1-.28l.1-.15h.2l.09.1v.38a1.24,1.24,0,0,1,0,.31,1.18,1.18,0,0,1-.1.27l-.09.15-.11.06h-.1m.35-1.38-.16-.07-.16.07a.62.62,0,0,0-.14.19,1.37,1.37,0,0,0-.11.31,1.351,1.351,0,0,0-.06.37.9.9,0,0,0,0,.29l.08.23.14.15.16.06.15-.06a.55.55,0,0,0,.15-.18,1.58,1.58,0,0,0,.11-.33,2.706,2.706,0,0,0,.06-.36,1.423,1.423,0,0,0,0-.3l-.08-.22-.14-.15" fill="#fff"/>
              <path id="Path_29" data-name="Path 29" d="M307.37,64.13l-.11-.08-.41.17.03.11.01.02.01.02.01.01.03.01.24-.11-.02.1-.27,1.02-.22-.15-.03.14.55.39.04-.14-.21-.15.35-1.36" fill="#fff"/>
              <path id="Path_30" data-name="Path 30" d="M307.75,66l-.08-.1-.06-.15v-.23a1.33,1.33,0,0,1,.05-.3.9.9,0,0,1,.1-.27l.1-.16.1-.05h.1l.08.09.06.16v.23a1.4,1.4,0,0,1-.05.31,1.518,1.518,0,0,1-.09.26L308,66h-.2m.35-1.38-.16-.06-.15.06a.71.71,0,0,0-.15.18,1.582,1.582,0,0,0-.11.33,1.689,1.689,0,0,0-.06.36,1.416,1.416,0,0,0,0,.3l.08.22.14.15.16.06.16-.06a.7.7,0,0,0,.14-.18,1.48,1.48,0,0,0,.11-.32,1.351,1.351,0,0,0,.06-.37,1,1,0,0,0,0-.3l-.08-.22-.14-.15" fill="#fff"/>
              <path id="Path_31" data-name="Path 31" d="M308.59,66.59l-.08-.09-.05-.16v-.23a2.325,2.325,0,0,1,.05-.3,1.3,1.3,0,0,1,.1-.27l.1-.16h.2l.09.09.05.16v.23a1.5,1.5,0,0,1-.05.31,1.518,1.518,0,0,1-.09.26l-.1.16h-.21m.35-1.38-.16-.06-.15.06a.49.49,0,0,0-.14.19,1,1,0,0,0-.12.32,1.689,1.689,0,0,0-.06.36,1.416,1.416,0,0,0,0,.3l.08.22.14.15.16.06.16-.06a.7.7,0,0,0,.14-.18,1.693,1.693,0,0,0,.11-.32,1.351,1.351,0,0,0,.06-.37,1,1,0,0,0,0-.3l-.08-.22-.14-.15" fill="#fff"/>
              <path id="Path_32" data-name="Path 32" d="M312.32,107.09l-6.15-4.3-.05.21,6.14,4.3.06-.21m6.44,4.51-6.14-4.3-.05.22,6.14,4.3.05-.22m6.46,4.52-6.14-4.3L319,112l6.14,4.3.06-.22m6.45,4.52-6.15-4.3v.21l6.14,4.3.06-.21m6.45,4.51-6.15-4.3-.05.22,6.14,4.3.06-.22m6.45,4.52-6.14-4.3-.06.22,6.15,4.3.05-.22M305.96,102.3l-3.56-2.49-.11.45,3.55,2.49.12-.45m40.61,28.43-1.6-1.12-.12.45,1.6,1.13.12-.46" fill="#93aba4"/>
              <path id="Path_33" data-name="Path 33" d="M314.34,70.63l-.3-.22-8.11,31.93-.12.45-.08.34.3.21.09-.34.05-.21-.16-.12,2.34-9.19.16.1,1-3.81-.17-.1a.25.25,0,0,1-.07-.26.1.1,0,0,1,.16-.09h0l.15.08,4.77-18.78" fill="#93aba4"/>
              <path id="Path_34" data-name="Path 34" d="M312.62,107.3l-.3-.21-.06.21-.09.34.31.22.09-.34.05-.22m5-20.12a1.322,1.322,0,0,0-.2-.12l-1.85,7.28.21.14.1.07,1.85-7.29-.1-.07h0m3.19-12-.3-.21-3,11.77.21.13.1.08,3-11.77" fill="#93aba4"/>
              <path id="Path_35" data-name="Path 35" d="M319.08,111.82l-.32-.22-.05.22-.09.34.31.22L319,112l.06-.22m3.43-13.52-.18-.12h0l-.1-.08L321,102.87l.11.07.21.13,1.21-4.77m4.74-18.64-.32-.22-4.64,18.3.1.07.21.14,4.65-18.29" fill="#93aba4"/>
              <path id="Path_36" data-name="Path 36" d="M325.52,116.34l-.3-.22-.06.22-.08.34.3.21.09-.34v-.21m8.17-32.16-.3-.22L330.58,95l.19.11.12.09,2.8-11" fill="#93aba4"/>
              <path id="Path_37" data-name="Path 37" d="M332,120.85l-.3-.21-.06.21-.08.34.3.22.09-.34.05-.22m8.17-32.16-.3-.21-4.41,17.34.17.13.14.09,4.4-17.35" fill="#93aba4"/>
              <path id="Path_38" data-name="Path 38" d="M338.43,125.37l-.31-.22-.06.22-.09.34.32.22.08-.34.06-.22m8.17-32.16-.31-.22-3.37,13.26.25.17h.06l3.37-13.25" fill="#93aba4"/>
              <path id="Path_39" data-name="Path 39" d="M353.05,97.73l-.31-.22-4.24,16.7.14.1a.27.27,0,0,1,.08.26.112.112,0,0,1-.17.1l-.14-.11-.63,2.5.14.1-3.2,12.61-.15-.1-.05.22-.09.34.3.21.09-.34.12-.45,8.11-31.92" fill="#93aba4"/>
              <path id="Path_40" data-name="Path 40" d="M345.32,110.7l.15.7.09.13a11.461,11.461,0,0,0,2.85,3l.14.11c.07,0,.15,0,.17-.1a.27.27,0,0,0-.08-.26l-.14-.1a11.17,11.17,0,0,1-2.77-2.95l-.41-.56M317.7,86.83l-.21-.13c-1.36-.74-2.94.18-4.39,1.13a21.07,21.07,0,0,1-2.1,1.34,1.78,1.78,0,0,1-1.39.24l-.15-.08h0c-.06,0-.14,0-.16.09a.25.25,0,0,0,.07.26l.17.1a1.9,1.9,0,0,0,1.58-.23c1-.49,2.16-1.42,3.31-2.06a3.19,3.19,0,0,1,3-.42,1.318,1.318,0,0,1,.2.12h0l.1.07a4.21,4.21,0,0,1,1.27,2c.5,1.4.76,3.2,1.19,4.86a6.9,6.9,0,0,0,2,3.92l.1.08h0l.18.12A4.72,4.72,0,0,0,326,99l.3-.42h-.32A4.56,4.56,0,0,1,322.6,98l-.21-.14-.1-.07a4.67,4.67,0,0,1-1.42-2.15,43.326,43.326,0,0,1-1.21-4.87,6.859,6.859,0,0,0-1.86-3.81l-.1-.08" fill="#b4f6ff"/>
              <path id="Path_41" data-name="Path 41" d="M342.92,106.25c-2.8-1.7-4.44,1.57-7.18-.21l-.89,3.51a2.12,2.12,0,0,0,1.84.24,7.15,7.15,0,0,0,1.89-1c1.2-.8,2.45-1.63,3.9-.79l.44-1.73M330.58,95c-1.27-.61-2.75,1.36-4.25,3.52a4.37,4.37,0,0,1,3.19.65L330.58,95m.31.2-1.06,4.18c1.38,1.07,1.9,3.11,2.42,5.08s1,3.83,2.29,4.85l.89-3.51c-2.66-2.15-1.92-8.56-4.54-10.6" fill="#5efff3" opacity="0.27"/>
              <path id="Path_42" data-name="Path 42" d="M330.77,95.13l-.19-.11-1.06,4.17.19.12.12.09,1.06-4.18-.12-.09" fill="#85c2b9"/>
              <path id="Path_43" data-name="Path 43" d="M335.43,105.82l-.89,3.51.17.13.14.09.89-3.51-.14-.09-.17-.13" fill="#85c2b9"/>
              <path id="Path_44" data-name="Path 44" d="M342.71,108.53l-4.22,16.61,6.14,4.3,3.15-12.38c-1.47-1.16-1.86-3.44-2.31-5.66a11.08,11.08,0,0,0-2.76-2.87m.52-2.07-.44,1.72a10.561,10.561,0,0,1,2.53,2.52c-.38-1.74-.89-3.36-2.09-4.24" fill="#5efff3" opacity="0.27"/>
              <path id="Path_45" data-name="Path 45" d="M344.63,129.44l-6.14-4.3-.06.23,6.14,4.3.06-.23" fill="#85c2b9"/>
              <path id="Path_46" data-name="Path 46" d="M315.55,94.34c-2.51-1.56-5.35.19-7-.76l-2.28,9,6.15,4.3,3.17-12.51m.31.21-3.18,12.52,6.14,4.3,2.16-8.5c-2.76-2.05-2.61-6.45-5.12-8.32m13.57,5A4.48,4.48,0,0,0,326.1,99h0c-1.64,2.37-3.3,4.78-4.73,4.11l-2.16,8.52,6.14,4.3,4.15-16.35m.31.21-4.16,16.35,6.15,4.3,2.72-10.72c-1.39-1.1-1.93-3.14-2.44-5.09s-1-3.86-2.27-4.84m12.65,8.57a2.6,2.6,0,0,0-2.74.2,15.6,15.6,0,0,1-2.89,1.66,2.26,2.26,0,0,1-2-.29L332,120.62l6.15,4.3,4.21-16.6" fill="#5efff3" opacity="0.27"/>
              <path id="Path_47" data-name="Path 47" d="M312.38,106.85l-6.15-4.3-.06.24,6.15,4.3.06-.24m6.44,4.52-6.14-4.3-.06.23,6.14,4.3.06-.23m6.46,4.52-6.14-4.3-.06.23,6.14,4.3.06-.23m6.45,4.51-6.15-4.3-.06.24,6.15,4.3.06-.24m6.45,4.52-6.15-4.3-.06.23,6.15,4.3.06-.23" fill="#85c2b9"/>
              <path id="Path_48" data-name="Path 48" d="M308.51,93.58l-.16-.1L306,102.67l.16.12.06-.24,2.28-9" fill="#85c2b9"/>
              <path id="Path_49" data-name="Path 49" d="M315.76,94.48l-.21-.14-3.17,12.51-.06.24.3.21.06-.23,3.18-12.52-.1-.07" fill="#85c2b9"/>
              <path id="Path_50" data-name="Path 50" d="M321.3,103.07l-.21-.13-.11-.07-2.16,8.5-.06.23.32.22.06-.23,2.16-8.52" fill="#85c2b9"/>
              <path id="Path_51" data-name="Path 51" d="M329.62,99.67l-.19-.13-4.15,16.35-.06.23.3.22.06-.24,4.16-16.35-.12-.08" fill="#85c2b9"/>
              <path id="Path_52" data-name="Path 52" d="M334.45,109.68l-2.72,10.72-.06.24.3.21.06-.23,2.73-10.73a.41.41,0,0,1-.11-.07h0l-.17-.12" fill="#85c2b9"/>
              <path id="Path_53" data-name="Path 53" d="M342.65,108.48l-.26-.16-4.21,16.6-.06.23.31.22.06-.23,4.22-16.61h-.06m.52-2.06-.25-.17-.44,1.73a1.748,1.748,0,0,1,.25.16h.06l.44-1.72h-.06" fill="#85c2b9"/>
              <path id="Path_54" data-name="Path 54" d="M347.78,117.06l-3.15,12.38-.06.23.15.1,3.2-12.61-.14-.1" fill="#85c2b9"/>
              <path id="Path_55" data-name="Path 55" d="M342.73,108.14a1.749,1.749,0,0,0-.25-.16c-1.45-.84-2.7,0-3.9.79a7.15,7.15,0,0,1-1.89,1,2.12,2.12,0,0,1-1.84-.24l-.14-.09-.17-.13c-1.27-1-1.78-2.9-2.29-4.85s-1-4-2.42-5.08l-.12-.09-.19-.12a4.37,4.37,0,0,0-3.19-.65L326,99h0a4.48,4.48,0,0,1,3.37.58l.19.13.12.08c1.25,1,1.75,2.86,2.27,4.84s1.05,4,2.44,5.09l.17.12h0a.41.41,0,0,0,.11.07,2.26,2.26,0,0,0,2,.29,15.6,15.6,0,0,0,2.89-1.66,2.6,2.6,0,0,1,2.74-.2l.26.16h.06a11.08,11.08,0,0,1,2.76,2.87l-.15-.7a10.561,10.561,0,0,0-2.53-2.52h-.06" fill="#9df8fc"/>
            </g>
          </g>
          <path id="Path_57" data-name="Path 57" d="M326.17,132.54s-.5-3,5.47-10.74,12.54-11.38,14.87-9.67,2.34,2.41,2.34,2.41l-6,8.57a29.64,29.64,0,0,0,18.48-17.65s1.64-.73,1.39,4.89l.32-1.49s1.58,4.6-.11,11.49l.55-.74s4,12.76-7.8,20.14-10.82,3.9-26.2,18.69c0,0-10.22-2.42-12.8-18.55C316.66,139.89,317.63,140.35,326.17,132.54Z" fill="url(#linear-gradient-14)"/>
          <path id="Path_58" data-name="Path 58" d="M192.86,106.59s1.48,7.89-4.11,11c0,0,11.53,4.54,13.79,8.36,0,0,5.17-11.24,20.48-11.78,6.49-.23,8.26-25-3.77-36.86Z" fill="#f0beb4"/>
          <path id="Path_59" data-name="Path 59" d="M217.39,95.75s-4.2-7-7.56-2.82-1.83,10.12,5.39,11Z" fill="#f0beb4"/>
          <path id="Path_60" data-name="Path 60" d="M337.18,371.1c-14.36,3.74-32.59,15-40.45,12.44a7.2,7.2,0,0,1-1.48-.67,4.341,4.341,0,0,1-.95-.8c-5-5.28-.33-22.39-.38-24.61a9.16,9.16,0,0,0-.39-3.24,10.76,10.76,0,0,0-1.43-2.41c-1.85-2.52,1.88-4.28,1.88-4.28-.23-1.82,1.37-8.7,1.37-8.7L330,337c6,1.13,5.94,7.22,5.94,7.22,4.32-.54,25.23-2.53,36,1,3,1,1.87,4.17,3.45,5.84.12.12.22.25.32.37C381.7,359.16,352.32,367.15,337.18,371.1Z" fill="url(#linear-gradient-15)"/>
          <path id="Path_61" data-name="Path 61" d="M293.53,354.22l.2-.17s12.94-3,16.27.27,16.25,1.08,19.2,8.89l-32.47,20.33a7.2,7.2,0,0,1-1.48-.67" fill="none" stroke="#fff" stroke-miterlimit="10" stroke-width="1"/>
          <path id="Path_62" data-name="Path 62" d="M375.74,351.47c-7.3-3.1-29.72,4.4-44.62,9.7-17.14,6.1-29.09,12.3-34.08,16-2.37,1.75-2.87,3.53-2.74,4.92a4.34,4.34,0,0,0,.95.8,7.2,7.2,0,0,0,1.48.67c3.56,1.19,9.6.75,16.48-.42l-.1-1.93,5.88-.31.06,1.12c1.83-.39,3.7-.8,5.56-1.24l-.13-2.35,5.88-.31.07,1.24,5.43-1.39-.37-1.92,5.78-1.12.29,1.49c1.66-.51,3.43-1.12,5.26-1.8l-.62-3.18,5.79-1.11.39,2c1.83-.8,3.68-1.66,5.48-2.56l-.5-2.56,5.79-1.12.14.77C372.39,361.6,379,355.61,375.74,351.47Z" fill="url(#linear-gradient-16)"/>
          <path id="Path_63" data-name="Path 63" d="M321.05,287.43c3.91.14,11.33-3.16,15.19,1.81,2.49,3.2-4.22,40-3.85,43.32s.31,5-3.09,6.53-15.66,11.13-22.63,11.06-14-10-13.81-12.76-.3-42.65-.5-46.56,2.74-13.93,9.57-13.86S316.26,287.25,321.05,287.43Z" fill="url(#linear-gradient-17)"/>
          <path id="Path_64" data-name="Path 64" d="M363.15,366.1l-2.96-10.9-4.49.11,4.55,11.35Z" fill="url(#linear-gradient-18)"/>
          <path id="Path_65" data-name="Path 65" d="M351.99,370.31l-2.48-10.69-3.51.09,3.62,11.05Z" fill="url(#linear-gradient-19)"/>
          <path id="Path_66" data-name="Path 66" d="M341.27,374.92l-2.74-10.97-3.19.43,3.94,10.92Z" fill="url(#linear-gradient-20)"/>
          <path id="Path_67" data-name="Path 67" d="M330.36,378.1l-2.8-9.06-2.89.07,2.96,9.06Z" fill="url(#linear-gradient-21)"/>
          <path id="Path_68" data-name="Path 68" d="M318.99,380.88l-2.3-8.42-2.79.68,2.52,7.8Z" fill="url(#linear-gradient-18)"/>
          <path id="Path_69" data-name="Path 69" d="M243.3,230.17s-12.79,42.19-53.36,34.22a74.854,74.854,0,0,1-6.4-4.87q-1.59-1.32-3.44-3c51.62,4.71,63.3-37.7,63.3-37.7a71.72,71.72,0,0,1-.1,11.35Z" fill="url(#linear-gradient-23)"/>
          <path id="Path_70" data-name="Path 70" d="M361.32,214.94a27.51,27.51,0,0,1-39.47-17.31" fill="none" stroke="#64edff" stroke-miterlimit="10" stroke-width="1"/>
          <path id="Path_71" data-name="Path 71" d="M356.47,209.37a20.38,20.38,0,0,1-27.32-12.21c8.27-.09,15.55,1.52,20.86,5.65a62.451,62.451,0,0,1,6.46,6.56Z" fill="url(#linear-gradient-24)"/>
          <path id="Path_72" data-name="Path 72" d="M180.14,119l4.88-7.52a3.3,3.3,0,0,1,2.73.31c3.82,2.45,9.13,7,24.27,7.45.46,0,1.72-.42,1.42.76l-.17,7.54C198.18,126.7,190.42,125.5,180.14,119Z" fill="url(#linear-gradient-25)"/>
          <path id="Path_73" data-name="Path 73" d="M222.25,60.25A28.13,28.13,0,0,1,230,58.14c-6.14-3.64-13.91-2.06-20.85-.38l4.44-5c-6,3.9-15.78,4.29-21.47,8.18a19.39,19.39,0,0,0-8.25,5.81c-6.39,7.26-1,15.56-1,15.56-8.08,8.15,0,16.37,3.48,19s6.63,8.33,6.63,8.33c15.17,8.46,21.39-6.51,21.39-6.51-5.78-1.33-5.32-6.64-3-7.51s4.06,3,4.06,3,2.61-5.43,0-9.61S218,82.66,218,82.66c7.61-3.44,8.72-8.65,8.38-12.3A22,22,0,0,0,228,66.79l1.61,1a11.89,11.89,0,0,0-7.36-7.54Z" fill="url(#linear-gradient-26)"/>
          <ellipse id="Ellipse_3" data-name="Ellipse 3" cx="17.77" cy="8.82" rx="17.77" ry="8.82" transform="matrix(0.999, -0.044, 0.044, 0.999, 260.825, 171.346)" fill="none" stroke="#64edff" stroke-miterlimit="10" stroke-width="1"/>
          <ellipse id="Ellipse_4" data-name="Ellipse 4" cx="11.29" cy="7.18" rx="11.29" ry="7.18" transform="matrix(0.999, -0.044, 0.044, 0.999, 267.444, 174.343)" fill="url(#linear-gradient-27)"/>
          <path id="Path_74" data-name="Path 74" d="M188.77,112.81a1.89,1.89,0,0,0-2.05,1.4,12.181,12.181,0,0,0-.33,2.71,13.36,13.36,0,0,1-2.34,5.34" fill="none" stroke="#64edff" stroke-linecap="round" stroke-miterlimit="10" stroke-width="1"/>
          <path id="Path_75" data-name="Path 75" d="M192,114.59a3.81,3.81,0,0,0-1.82,1.79,11.74,11.74,0,0,0-.85,2.46,22.429,22.429,0,0,0-.93,5.25" fill="none" stroke="#64edff" stroke-linecap="round" stroke-miterlimit="10" stroke-width="1"/>
          <path id="Path_76" data-name="Path 76" d="M195.56,116.35a2.43,2.43,0,0,0-1.17,1.71,8.591,8.591,0,0,0,0,2.15,56.285,56.285,0,0,1-.14,6" fill="none" stroke="#64edff" stroke-linecap="round" stroke-miterlimit="10" stroke-width="1"/>
          <path id="Path_77" data-name="Path 77" d="M200.71,118a6.07,6.07,0,0,0-1.73,4.21,17.93,17.93,0,0,0,.6,4.6" fill="none" stroke="#64edff" stroke-linecap="round" stroke-miterlimit="10" stroke-width="1"/>
          <path id="Path_78" data-name="Path 78" d="M204.44,118.64a21.79,21.79,0,0,0,.16,9.44" fill="none" stroke="#64edff" stroke-linecap="round" stroke-miterlimit="10" stroke-width="1"/>
          <path id="Path_79" data-name="Path 79" d="M209.09,119.28c-.3,3-.47,5.92-.5,8.89" fill="none" stroke="#64edff" stroke-linecap="round" stroke-miterlimit="10" stroke-width="1"/>
          <path id="Path_80" data-name="Path 80" d="M224,88.07a.9.9,0,0,0,.12-.48.69.69,0,0,0-.24-.45,1.45,1.45,0,0,0-1.85.17A5.34,5.34,0,0,0,220.91,89c-.21.39-.81,1.31-.59,1.78s.83.07,1.25-.16A5.64,5.64,0,0,0,224,88.07Z" fill="#1b4736"/>
          <ellipse id="Ellipse_5" data-name="Ellipse 5" cx="1.44" cy="0.53" rx="1.44" ry="0.53" transform="translate(223.894 95.033) rotate(-83.57)" fill="#1b4736"/>
          <circle id="Ellipse_6" data-name="Ellipse 6" cx="43.93" cy="43.93" r="43.93" transform="translate(162.03 39.86)" fill="none" stroke="#64edb2" stroke-miterlimit="10" stroke-width="2"/>
          <path id="Path_81" data-name="Path 81" d="M307.71,84.41a7.7,7.7,0,0,1-3.14,6.36c-3.49,2.8-13,4.93-13,4.93L299,85.2Z" fill="#fc4c5c"/>
          <path id="Path_82" data-name="Path 82" d="M301,94.77a4.62,4.62,0,0,1-2.72,3.91c-2.77,1.41-9.18.78-9.18.78l5.4-5.37Z" fill="#fc4c5c"/>
          <path id="Path_83" data-name="Path 83" d="M307.29,113.13A14.34,14.34,0,0,0,297,109.61c-6.33.31-6.9-1.73-6.37-3s8.27-13.78,10-16.13c0,0,7.65-2,9.63-5.63a7.4,7.4,0,0,0,.79-5,1.64,1.64,0,0,0-2.31-1.19l-10.73,5-6.43,7.06s-5.87.69-7.12,1.07a3.34,3.34,0,0,0-1.06,1h0s-2.95.12-4,1.57-3.72,9-7.06,10.36-18,6.85-18.49,7c-.1,1,2.23-.19,5.07,1,3.75,1.59,7.44,3.63,11.08,13.41a1.07,1.07,0,0,0,1.75.4c2.94-2.9,10.35-10.25,10.35-10.25s5.62,3.69,8.2,3,9.12-4.46,13.18-2.89S307.6,113.36,307.29,113.13Z" fill="url(#linear-gradient-28)"/>
          <path id="Path_84" data-name="Path 84" d="M270.28,106.78s4-1.59,4.86-3.73,2.6-9.82,8.31-10.23c0,0,2.3-2.91,8.18-2.06,0,0,4.62-7.57,6.43-7.06s2.5,4.84-.53,9.12-10.9,9-11.67,15.12C285.86,107.94,278.13,104,270.28,106.78Z" fill="none" stroke="#fff" stroke-miterlimit="10" stroke-width="1"/>
          <path id="Path_85" data-name="Path 85" d="M356.14,116.46s4.44.52,2.32,6c0,0,3.85,3.25-.59,8,0,0,3.4.7.22,7.72l-12.53,7.17s-4.62-11.44-10.47-12.11c0,0,6.61-6.74,8-8.71S356.14,116.46,356.14,116.46Z" fill="none" stroke="#fff" stroke-miterlimit="10" stroke-width="1"/>
          <path id="Path_86" data-name="Path 86" d="M318.93,138.26s-.33,11.46,10.82,15.31c0,0-9.28-5.29-9.8-15.94Z" fill="#fc4c5c"/>
          <path id="Path_87" data-name="Path 87" d="M263.75,111.71a19.09,19.09,0,0,1,8.77,14.17l1.15-1.13S274.46,115.8,263.75,111.71Z" fill="#fc4c5c"/>
          <path id="Path_88" data-name="Path 88" d="M203.47,144.35s3.73,7.93,3.09,16.17" fill="none" stroke="#b3b3b3" stroke-linecap="round" stroke-miterlimit="10" stroke-width="1.15"/>
          <path id="Path_89" data-name="Path 89" d="M219.39,146.18c-12,23.5-24.08,99.53-27.55,107-2.78,6-23.88,11.44-32.64,9.6a25,25,0,0,1-3.75-1.11c-1.08-.41-2.21-.9-3.4-1.49-13.3-6.66-14.59-7-20-8.87a18.77,18.77,0,0,1-6.42-3.69c-2.8-2.5-8.6-7.19-9.09-12.48-.64-7-5.49-41.83,10.09-77.08a114.9,114.9,0,0,1,19-29.77c13.2-15,32.07-9.68,47-7,5.85,1.07,12.26,2.52,17.49,4.91h0c.59.27,1.16.56,1.72.85h0C219.06,130.89,224.05,137.07,219.39,146.18Z" fill="url(#linear-gradient-29)"/>
          <path id="Path_90" data-name="Path 90" d="M175.67,205.94c-10.79,30-18,47.65-16.47,56.86l-3.75-1.11c-1.08-.41-2.21-.9-3.4-1.49-13.3-6.66-14.59-7-20-8.87a18.77,18.77,0,0,1-6.42-3.69c-2.8-10.47-11.13-35.37-5.77-64.32a168.6,168.6,0,0,1,6.77-25.24,114.9,114.9,0,0,1,19-29.77,28.35,28.35,0,0,1,11.68-8.11,36.81,36.81,0,0,1,14-2c7.32.23,14.7,1.93,21.32,3.13a101.462,101.462,0,0,1,11.6,2.67,48.327,48.327,0,0,1,6,2.23h.05a8.56,8.56,0,0,1,1.72.85h0a5.23,5.23,0,0,1,1.51,1.46,3.81,3.81,0,0,1,.06,4.05C211.29,137.27,186.45,175.94,175.67,205.94Z" fill="url(#linear-gradient-30)"/>
          <path id="Path_91" data-name="Path 91" d="M202.84,131.09l-11.43,20.14c-3.8,6.71-7.61,13.43-11.26,20.22-.91,1.7-1.78,3.4-2.65,5.13s-1.79,3.43-2.72,5.13Q172,186.8,169,191.78a194.932,194.932,0,0,1-12.88,19.29,71,71,0,0,1-7.79,8.66,26,26,0,0,1-4.73,3.51,8.31,8.31,0,0,1-5.87,1.18,10.11,10.11,0,0,1-4.88-3.46,20,20,0,0,1-2.85-5.17,43.539,43.539,0,0,1-2.39-11.41,104.3,104.3,0,0,1,.9-23.16,154.353,154.353,0,0,1,5-22.6A155.311,155.311,0,0,0,129,181.29a104.3,104.3,0,0,0-.61,23,44.13,44.13,0,0,0,2.43,11.17,18.769,18.769,0,0,0,2.73,4.92,9.21,9.21,0,0,0,4.41,3.14,7.41,7.41,0,0,0,5.2-1.12,24.718,24.718,0,0,0,4.53-3.4,70,70,0,0,0,7.65-8.56,195.406,195.406,0,0,0,12.89-19.15q3-5,5.76-10c1.88-3.36,3.59-6.81,5.46-10.21C187,157.57,194.9,144.33,202.84,131.09Z" fill="#64edff"/>
          <path id="Path_92" data-name="Path 92" d="M213.52,128.6,203,130.5l-.06.09c-1.11,1.83-19.1,31.22-23.65,40-4.71,9-27.07,48.41-38.84,43.74-8.39-3.34-11.49-18.66-9.76-37.07a130.169,130.169,0,0,1,4.41-23.15,67.32,67.32,0,0,1,13-24.9c.45-.55.91-1.08,1.37-1.59a59.532,59.532,0,0,1,7.88-7.39,37,37,0,0,1,14-2L204.23,124a49.186,49.186,0,0,1,6,2.23h.05a8,8,0,0,1,1.72.85h0A5.1,5.1,0,0,1,213.52,128.6Z" fill="url(#linear-gradient-31)"/>
          <path id="Path_93" data-name="Path 93" d="M175.33,146.8q-6.78,9.91-14,19.49c-3.46,4.56-7.07,9.13-11.72,12.48a30.78,30.78,0,0,1-13,5.4,3.51,3.51,0,0,1-2.29-.17,3.72,3.72,0,0,1-1.35-1.82c-.75-1.64-1.5-3.28-2.2-5a130.17,130.17,0,0,1,4.41-23.15,67.32,67.32,0,0,1,13-24.9c9.58-4.29,25-5.83,30.82,1.62C183.38,136.42,178.61,142,175.33,146.8Z" opacity="0.6" fill="url(#radial-gradient)"/>
          <path id="Path_94" data-name="Path 94" d="M213.52,128.61,203,130.5l-.06.09c-13.51,2.36-34,5.26-44.39,3.34-6.62-1.23-8.81-3.77-9.07-6.35a60,60,0,0,1,7.88-7.38,32.4,32.4,0,0,1,8.57-1.84,44.82,44.82,0,0,1,5.44-.14L204.23,124a48.166,48.166,0,0,1,6,2.23h.05a8.56,8.56,0,0,1,1.72.85h0c.16.1.31.22.47.34A4.51,4.51,0,0,1,213.52,128.61Z" fill="url(#linear-gradient-32)"/>
          <path id="Path_95" data-name="Path 95" d="M212.48,127.48c-13.5,2.33-33.39,5.08-43.58,3.2-6.63-1.23-8.81-3.76-9.07-6.35a59.812,59.812,0,0,1,6.14-6,44.822,44.822,0,0,1,5.44-.14L204.23,124a48.166,48.166,0,0,1,6,2.23h.05a8.56,8.56,0,0,1,1.72.85h0A5.348,5.348,0,0,0,212.48,127.48Z" fill="url(#linear-gradient-33)"/>
          <path id="Path_96" data-name="Path 96" d="M180.26,238.4S167.31,277,195,278.35c30.6,1.53,39.36-45.41,35-63" fill="none" stroke="#fff" stroke-linecap="round" stroke-linejoin="round" stroke-width="5.73"/>
          <path id="Path_97" data-name="Path 97" d="M176.22,224.73s-6.88,25.42-6.78,29.16c0,0,11.84,1.53,18.6-4.49,0,0,4.84-37.51,3-37.65S177.57,219.64,176.22,224.73Z" fill="url(#linear-gradient-34)"/>
          <path id="Path_98" data-name="Path 98" d="M191,211.75s-10.06,9.93-11.11,12.41-2.36,29.58-2.36,29.58-4.95,1.21-8.13.15c0,0,6.75-29.78,7.66-31.07S185.58,212.67,191,211.75Z" fill="url(#linear-gradient-35)"/>
          <path id="Path_99" data-name="Path 99" d="M187,77.76c-.89-3.1.67-6.47,3-8.7s5.35-3.56,8.25-5" fill="none" stroke="#6df0f7" stroke-linecap="round" stroke-miterlimit="10" stroke-width="1"/>
          <path id="Path_100" data-name="Path 100" d="M200.42,68c4.64-2.34,7.69-5.53,12.34-7.87a27.7,27.7,0,0,1,8-2.48" fill="none" stroke="#6df0f7" stroke-linecap="round" stroke-miterlimit="10" stroke-width="1"/>
          <path id="Path_101" data-name="Path 101" d="M212.11,68.31c4.68.21,8.16-5.51,13.61-3.1" fill="none" stroke="#6df0f7" stroke-linecap="round" stroke-miterlimit="10" stroke-width="1"/>
          <path id="Path_102" data-name="Path 102" d="M190.14,334.37l-3.71-14.43a5.76,5.76,0,0,0-2.7-3.57l-7.32-4.23,2.16,8.75s7,11.22,9.59,20.68l1.57-3.23a5.8,5.8,0,0,0,.41-3.97Z" fill="#fff"/>
          <path id="Path_103" data-name="Path 103" d="M83.94,259.91s16.48-3.59,26.23-1.63l-3.25-3a5.79,5.79,0,0,0-3.68-1.54l-14.88-.65a5.77,5.77,0,0,0-4.2,1.55L78,260.38l14.2.75Z" fill="#fff"/>
          <circle id="Ellipse_7" data-name="Ellipse 7" cx="92.63" cy="92.63" r="92.63" transform="translate(0.01 259.09)" fill="#fff"/>
          <path id="Path_104" data-name="Path 104" d="M151.11,354.07c-.07,2.24,0,4.65,1.23,6.51,1.47,2.17,4.2,3,6.73,3.75a2.66,2.66,0,0,0,1.9.06A2.69,2.69,0,0,0,162,363l3.16-6.72a14.24,14.24,0,0,0,1.63-4.94c.24-3.1-1.53-6-3.43-8.44C152.89,329.33,151.39,345,151.11,354.07Z" fill="#dde6fa"/>
          <path id="Path_105" data-name="Path 105" d="M92.29,279c2.25-.13,4.64-.38,6.38-1.81,2-1.66,2.65-4.46,3.14-7a2.63,2.63,0,0,0-.12-1.9,2.6,2.6,0,0,0-1.44-.93l-7-2.56a14.26,14.26,0,0,0-5.06-1.18c-3.11,0-5.82,2.06-8.1,4.17C67.5,279.44,83.28,279.53,92.29,279Z" fill="#dde6fa"/>
          <path id="Path_106" data-name="Path 106" d="M126.09,284.58a13,13,0,0,0-3.28-3.49c-8.42-6.2-13.92-2.55-6.12,4.66C120.2,289,133,295.48,126.09,284.58Z" fill="#dde6fa"/>
          <path id="Path_107" data-name="Path 107" d="M151.39,312.71c3,4.51,7.92,7.91,13.31,8.11a2,2,0,0,0,1.38-.33,2.06,2.06,0,0,0,.52-1.1,64.109,64.109,0,0,0,1.24-6.75,7.69,7.69,0,0,0-.09-3.31,8.17,8.17,0,0,0-2-3c-3.32-3.56-6.86-7.25-11.5-8.71-4.84-1.52-7-1.24-6.81,3.62a23.82,23.82,0,0,0,3.95,11.47Z" fill="#dde6fa"/>
          <path id="Path_108" data-name="Path 108" d="M121.61,322.36a8.66,8.66,0,0,0,6.66,4.05.75.75,0,0,0,.94-.71,29.557,29.557,0,0,0,.62-3.38,3.67,3.67,0,0,0,0-1.65,4,4,0,0,0-1-1.48c-1.67-1.78-3.44-3.63-5.76-4.36s-3.48-.62-3.4,1.81a12,12,0,0,0,1.94,5.72Z" fill="url(#linear-gradient-36)"/>
          <path id="Path_109" data-name="Path 109" d="M113.42,128.52c1.35-3.79,2.15-8.49-.58-11.44-2.29-2.48-6.36-2.61-9.39-1.11s-5.21,4.29-7,7.13-3.49,5.85-5.9,8.22c-3.24,3.19-7.6,5-11.27,7.64s-13,12.9-10.13,18.34c2.11,4,12.28,5,16.23,3.85C98.34,157.41,109.2,140.38,113.42,128.52Z" fill="#dde6fa"/>
          <circle id="Ellipse_8" data-name="Ellipse 8" cx="16.15" cy="16.15" r="16.15" transform="translate(423.62 149.41)" fill="url(#linear-gradient-37)"/>
          <circle id="Ellipse_9" data-name="Ellipse 9" cx="8.26" cy="8.26" r="8.26" transform="translate(119.14 87.9)" fill="url(#linear-gradient-38)"/>
          <circle id="Ellipse_10" data-name="Ellipse 10" cx="30.34" cy="30.34" r="30.34" transform="translate(215.33 333.02)" fill="none" stroke="#fff" stroke-miterlimit="10" stroke-width="2.55"/>
          <circle id="Ellipse_11" data-name="Ellipse 11" cx="30.34" cy="30.34" r="30.34" transform="translate(431.78 160.85)" fill="none" stroke="#fff" stroke-miterlimit="10" stroke-width="2.55"/>
          <circle id="Ellipse_12" data-name="Ellipse 12" cx="4.39" cy="4.39" r="4.39" transform="translate(326.87 100.16) rotate(-13.14)" fill="url(#radial-gradient-2)"/>
          <circle id="Ellipse_13" data-name="Ellipse 13" cx="4.39" cy="4.39" r="4.39" transform="translate(318.93 93.96)" fill="url(#radial-gradient-3)"/>
          <circle id="Ellipse_14" data-name="Ellipse 14" cx="4.39" cy="4.39" r="4.39" transform="translate(312.27 82.49)" fill="url(#radial-gradient-3)"/>
          <path id="Path_193" data-name="Path 193" d="M321.05,287.43s-1.16,36.75-2.06,42-15.61,11.84-26.08,2" fill="none" stroke="#64edff" stroke-miterlimit="10" stroke-width="1"/>
          <path id="Path_194" data-name="Path 194" d="M364.1,248.88s22.89,24.86,28.36,31.55-1.27,17.6-9.36,15.88" fill="none" stroke="#64edff" stroke-miterlimit="10" stroke-width="1"/>
          <path id="Path_195" data-name="Path 195" d="M421,275.37s1.33,10.93,3.78,12.06,4.16-.58,3.94-2.07-3.85-11.68-3.85-11.68Z" fill="#fff"/>
          <path id="Path_196" data-name="Path 196" d="M430.7,270.61s1.33,10.93,3.78,12.05,4.15-.57,3.94-2.06-3.85-11.68-3.85-11.68Z" fill="#fff"/>
          <path id="Path_197" data-name="Path 197" d="M336.26,344.1s-6.63,2-6.77,3.15,12.76-3.72,12.76-3.72Z" fill="#fff"/>
          <path id="Path_198" data-name="Path 198" d="M346.3,343.27s-5.07,1.36-5.07,2.21,9.63-2.38,9.63-2.38Z" fill="#fff"/>
          <path id="Path_199" data-name="Path 199" d="M292.38,289.69c.31-4.43,3.31-12.78,9.55-12.72,6.82.08,14.33,10.28,19.12,10.46,3.91.14,11.33-3.16,15.19,1.81a6.171,6.171,0,0,1,.54,3c.06-2.36-.09-4-.54-4.62-3.86-5-11.28-1.66-15.19-1.81-4.79-.18-12.3-10.37-19.12-10.45s-9.78,9.95-9.57,13.86C292.36,289.36,292.37,289.51,292.38,289.69Z" fill="url(#linear-gradient-39)"/>
          <path id="Path_200" data-name="Path 200" d="M355.25,251.52c13.23-1.38,15.77-9.7,17.61-12.71a6.65,6.65,0,0,1,5.91-3.32c-2.69-1.48-6-.06-7.66,2.62-1.78,2.91-4.23,10.94-17,12.27S345.62,263,345.62,263l.51.46C345.41,260.49,344.55,252.63,355.25,251.52Z" fill="url(#linear-gradient-40)"/>
        </g>
      </g>
    </g>
  </g>
</svg>
