<svg id="Layer_1" data-name="Layer 1" xmlns="http://www.w3.org/2000/svg" xmlns:xlink="http://www.w3.org/1999/xlink" viewBox="0 0 517.75 473.93" height="952" width="970"><defs><style>.cls-1{fill:url(#radial-gradient);}.cls-2{fill:url(#linear-gradient);}.cls-3{fill:#fff;}.cls-4{fill:url(#linear-gradient-2);}.cls-5{fill:url(#linear-gradient-3);}.cls-10,.cls-28,.cls-39,.cls-52,.cls-57,.cls-6,.cls-64,.cls-65{fill:none;}.cls-28,.cls-6{stroke:#64edff;}.cls-10,.cls-28,.cls-39,.cls-52,.cls-6,.cls-64,.cls-65{stroke-miterlimit:10;}.cls-7{fill:url(#linear-gradient-4);}.cls-48,.cls-8{opacity:0.8;isolation:isolate;}.cls-8{fill:url(#linear-gradient-5);}.cls-9{fill:url(#linear-gradient-6);}.cls-10,.cls-52,.cls-57,.cls-64,.cls-65{stroke:#fff;}.cls-10,.cls-28,.cls-57{stroke-linecap:round;}.cls-11{fill:url(#linear-gradient-7);}.cls-12{fill:#f0beb4;}.cls-13{fill:#b3b3b3;}.cls-14{fill:#1b4736;}.cls-15{fill:#e7dad0;}.cls-16{fill:url(#linear-gradient-8);}.cls-17{fill:url(#linear-gradient-9);}.cls-18{fill:url(#linear-gradient-10);}.cls-19{fill:url(#linear-gradient-11);}.cls-20{fill:url(#linear-gradient-12);}.cls-21{fill:url(#linear-gradient-13);}.cls-22{fill:url(#linear-gradient-14);}.cls-23{fill:url(#linear-gradient-15);}.cls-24{fill:url(#linear-gradient-16);}.cls-25{fill:url(#linear-gradient-17);}.cls-26{fill:url(#linear-gradient-18);}.cls-27{fill:url(#linear-gradient-19);}.cls-29{fill:url(#linear-gradient-20);}.cls-30{fill:url(#linear-gradient-21);}.cls-31{fill:url(#linear-gradient-22);}.cls-32{fill:url(#linear-gradient-23);}.cls-33{fill:url(#linear-gradient-24);}.cls-34{fill:url(#linear-gradient-25);}.cls-35{fill:url(#linear-gradient-26);}.cls-36{fill:url(#linear-gradient-27);}.cls-37{fill:url(#linear-gradient-28);}.cls-38{fill:url(#linear-gradient-29);}.cls-39{stroke:#64edb2;stroke-width:2px;}.cls-40{fill:url(#linear-gradient-30);}.cls-41{fill:url(#linear-gradient-31);}.cls-42{fill:url(#linear-gradient-32);}.cls-43{fill:url(#linear-gradient-33);}.cls-44{fill:url(#linear-gradient-34);}.cls-45{fill:url(#linear-gradient-35);}.cls-46{fill:url(#linear-gradient-36);}.cls-47{fill:url(#linear-gradient-37);}.cls-48{fill:url(#linear-gradient-38);}.cls-49{fill:url(#linear-gradient-39);}.cls-50{fill:url(#linear-gradient-40);}.cls-51{fill:url(#linear-gradient-41);}.cls-53{fill:url(#linear-gradient-42);}.cls-54{fill:url(#linear-gradient-43);}.cls-55{fill:url(#linear-gradient-44);}.cls-56{fill:url(#linear-gradient-45);}.cls-57{stroke-linejoin:round;stroke-width:5.73px;}.cls-58{fill:#927a67;}.cls-59{fill:#dde6fa;}.cls-60{fill:url(#linear-gradient-46);}.cls-61{fill:url(#linear-gradient-47);}.cls-62{fill:url(#linear-gradient-48);}.cls-63{fill:url(#linear-gradient-49);}.cls-64{stroke-width:4.91px;}.cls-65{stroke-width:2.76px;}</style><radialGradient id="radial-gradient" cx="160.21" cy="434" r="15" gradientTransform="matrix(1, 0, 0, -1, 0, 476.2)" gradientUnits="userSpaceOnUse"><stop offset="0" stop-color="#fff"/><stop offset="1" stop-color="#fff" stop-opacity="0"/></radialGradient><linearGradient id="linear-gradient" x1="258.06" y1="101.74" x2="258.06" y2="418.93" gradientTransform="matrix(1, 0, 0, -1, 0, 476.2)" gradientUnits="userSpaceOnUse"><stop offset="0" stop-color="#779dea"/><stop offset="0.12" stop-color="#8babed"/><stop offset="0.38" stop-color="#afc5f3"/><stop offset="0.61" stop-color="#c8d7f7"/><stop offset="0.83" stop-color="#d8e2f9"/><stop offset="1" stop-color="#dde6fa"/></linearGradient><linearGradient id="linear-gradient-2" x1="218.01" y1="253.94" x2="218.01" y2="401.93" gradientTransform="matrix(1, 0, 0, -1, 0, 476.2)" gradientUnits="userSpaceOnUse"><stop offset="0" stop-color="#366fe0"/><stop offset="0.25" stop-color="#366fe0"/><stop offset="0.44" stop-color="#2758c3"/><stop offset="0.65" stop-color="#1c45ab"/><stop offset="0.84" stop-color="#14399c"/><stop offset="1" stop-color="#123597"/></linearGradient><linearGradient id="linear-gradient-3" x1="288.82" y1="327.45" x2="288.82" y2="379.66" gradientTransform="matrix(1, 0, 0, -1, 0, 476.2)" gradientUnits="userSpaceOnUse"><stop offset="0" stop-color="#123597"/><stop offset="0.44" stop-color="#214db5"/><stop offset="1" stop-color="#366fe0"/></linearGradient><linearGradient id="linear-gradient-4" x1="128.31" y1="417.46" x2="143.06" y2="417.46" gradientTransform="matrix(1, 0, 0, -1, 0, 476.2)" gradientUnits="userSpaceOnUse"><stop offset="0" stop-color="#dde6fa"/><stop offset="0.17" stop-color="#d8e2f9"/><stop offset="0.39" stop-color="#c8d7f7"/><stop offset="0.62" stop-color="#afc5f3"/><stop offset="0.88" stop-color="#8babed"/><stop offset="1" stop-color="#779dea"/></linearGradient><linearGradient id="linear-gradient-5" x1="134.75" y1="413.86" x2="161.68" y2="413.86" gradientTransform="matrix(1, 0, 0, -1, 0, 476.2)" gradientUnits="userSpaceOnUse"><stop offset="0" stop-color="#123597"/><stop offset="0.24" stop-color="#14389b"/><stop offset="0.47" stop-color="#1a41a7"/><stop offset="0.7" stop-color="#2351ba"/><stop offset="0.93" stop-color="#3167d6"/><stop offset="1" stop-color="#366fe0"/></linearGradient><linearGradient id="linear-gradient-6" x1="370.87" y1="69.34" x2="370.87" y2="121.2" gradientTransform="matrix(1, 0, 0, -1, 0, 476.2)" gradientUnits="userSpaceOnUse"><stop offset="0" stop-color="#fc4c5c"/><stop offset="0.68" stop-color="#fb9f02"/><stop offset="1" stop-color="#fb9f02"/></linearGradient><linearGradient id="linear-gradient-7" x1="328.9" y1="88.44" x2="416.92" y2="88.44" gradientTransform="matrix(1, 0, 0, -1, 0, 476.2)" gradientUnits="userSpaceOnUse"><stop offset="0" stop-color="#4e54c8"/><stop offset="1" stop-color="#8f94fb"/></linearGradient><linearGradient id="linear-gradient-8" x1="244.99" y1="422.52" x2="244.99" y2="438.56" gradientTransform="matrix(1, 0, 0, -1, 0, 476.2)" gradientUnits="userSpaceOnUse"><stop offset="0" stop-color="#123597"/><stop offset="0.16" stop-color="#1b43a9"/><stop offset="0.55" stop-color="#2f63d1"/><stop offset="0.75" stop-color="#366fe0"/><stop offset="1" stop-color="#366fe0"/></linearGradient><linearGradient id="linear-gradient-9" x1="200.18" y1="444.91" x2="253.85" y2="444.91" gradientTransform="matrix(1, 0, 0, -1, 0, 476.2)" gradientUnits="userSpaceOnUse"><stop offset="0" stop-color="#2a5bc7"/><stop offset="0.13" stop-color="#2452bc"/><stop offset="0.42" stop-color="#1a42a7"/><stop offset="0.71" stop-color="#14389b"/><stop offset="1" stop-color="#123597"/></linearGradient><linearGradient id="linear-gradient-10" x1="220.18" y1="449.29" x2="246.2" y2="449.29" gradientTransform="matrix(1, 0, 0, -1, 0, 476.2)" gradientUnits="userSpaceOnUse"><stop offset="0" stop-color="#366fe0"/><stop offset="0.7" stop-color="#94cbff"/><stop offset="1" stop-color="#94cbff"/></linearGradient><linearGradient id="linear-gradient-11" x1="208.91" y1="450.71" x2="220.21" y2="450.71" xlink:href="#linear-gradient-10"/><linearGradient id="linear-gradient-12" x1="211.65" y1="443.89" x2="231.35" y2="443.89" xlink:href="#linear-gradient-10"/><linearGradient id="linear-gradient-13" x1="235.11" y1="440.28" x2="239.72" y2="440.28" xlink:href="#linear-gradient-10"/><linearGradient id="linear-gradient-14" x1="248.17" y1="437.79" x2="249.75" y2="437.79" xlink:href="#linear-gradient-10"/><linearGradient id="linear-gradient-15" x1="246.67" y1="436.99" x2="247.63" y2="436.99" xlink:href="#linear-gradient-10"/><linearGradient id="linear-gradient-16" x1="244.17" y1="437.38" x2="245.1" y2="437.38" xlink:href="#linear-gradient-10"/><linearGradient id="linear-gradient-17" x1="245.09" y1="437.66" x2="245.1" y2="437.66" xlink:href="#linear-gradient-10"/><linearGradient id="linear-gradient-18" x1="216.45" y1="190.04" x2="373.41" y2="190.04" xlink:href="#linear-gradient-3"/><linearGradient id="linear-gradient-19" x1="322.65" y1="143.71" x2="369.62" y2="150.07" gradientTransform="matrix(1, 0, 0, -1, 0, 476.2)" gradientUnits="userSpaceOnUse"><stop offset="0.25" stop-color="#4e54c8"/><stop offset="1" stop-color="#8f94fb"/></linearGradient><linearGradient id="linear-gradient-20" x1="283.8" y1="191.2" x2="283.8" y2="302.85" xlink:href="#linear-gradient-3"/><linearGradient id="linear-gradient-21" x1="199.88" y1="280.79" x2="298.34" y2="280.79" xlink:href="#linear-gradient-6"/><linearGradient id="linear-gradient-22" x1="202.26" y1="280.79" x2="298.34" y2="280.79" xlink:href="#linear-gradient-10"/><linearGradient id="linear-gradient-23" x1="237.04" y1="266.24" x2="237.04" y2="392.86" xlink:href="#linear-gradient-3"/><linearGradient id="linear-gradient-24" x1="219.62" y1="391.03" x2="253.39" y2="391.03" xlink:href="#linear-gradient-10"/><linearGradient id="linear-gradient-25" x1="258.02" y1="141.53" x2="355" y2="141.53" xlink:href="#linear-gradient-8"/><linearGradient id="linear-gradient-26" x1="261.12" y1="161.22" x2="355.88" y2="161.22" xlink:href="#linear-gradient-6"/><linearGradient id="linear-gradient-27" x1="287.94" y1="231.27" x2="326.11" y2="209.74" xlink:href="#linear-gradient-19"/><linearGradient id="linear-gradient-28" x1="357.21" y1="231.69" x2="373.41" y2="231.69" xlink:href="#linear-gradient-4"/><linearGradient id="linear-gradient-29" x1="337.92" y1="285.72" x2="357.13" y2="285.72" xlink:href="#linear-gradient-4"/><linearGradient id="linear-gradient-30" x1="156.22" y1="330.7" x2="156.22" y2="381.5" xlink:href="#linear-gradient-3"/><linearGradient id="linear-gradient-31" x1="131.93" y1="336.98" x2="131.93" y2="403.34" xlink:href="#linear-gradient-3"/><linearGradient id="linear-gradient-32" x1="154.94" y1="398.15" x2="154.94" y2="413.72" xlink:href="#linear-gradient-4"/><linearGradient id="linear-gradient-33" x1="158.7" y1="410.78" x2="158.7" y2="423.78" xlink:href="#linear-gradient-4"/><linearGradient id="linear-gradient-34" x1="141.78" y1="416.11" x2="162.97" y2="416.11" xlink:href="#linear-gradient-4"/><linearGradient id="linear-gradient-35" x1="153.41" y1="377.47" x2="153.41" y2="402.05" xlink:href="#linear-gradient-4"/><linearGradient id="linear-gradient-36" x1="115.5" y1="394.66" x2="150.45" y2="394.66" xlink:href="#linear-gradient-4"/><linearGradient id="linear-gradient-37" x1="290.89" y1="308.29" x2="290.89" y2="348.72" xlink:href="#linear-gradient-3"/><linearGradient id="linear-gradient-38" x1="177.99" y1="328.21" x2="265.78" y2="328.21" gradientTransform="matrix(0.98, 0.2, 0.2, -0.98, -60.2, 426.16)" xlink:href="#linear-gradient-5"/><linearGradient id="linear-gradient-39" x1="242.2" y1="324.89" x2="291.42" y2="324.89" xlink:href="#linear-gradient-4"/><linearGradient id="linear-gradient-40" x1="307.16" y1="335.33" x2="316.29" y2="335.33" xlink:href="#linear-gradient-7"/><linearGradient id="linear-gradient-41" x1="112.34" y1="344" x2="129.81" y2="344" xlink:href="#linear-gradient-7"/><linearGradient id="linear-gradient-42" x1="162.85" y1="374.69" x2="179.35" y2="374.69" xlink:href="#linear-gradient-10"/><linearGradient id="linear-gradient-43" x1="201.51" y1="411.66" x2="240.8" y2="411.66" xlink:href="#linear-gradient-9"/><linearGradient id="linear-gradient-44" x1="205.84" y1="294.35" x2="219.68" y2="294.35" xlink:href="#linear-gradient-10"/><linearGradient id="linear-gradient-45" x1="211.46" y1="288.93" x2="211.46" y2="300.73" xlink:href="#linear-gradient-8"/><linearGradient id="linear-gradient-46" x1="152.64" y1="163.22" x2="152.64" y2="171.3" gradientTransform="matrix(1, 0, 0, -1, 0, 476.2)" gradientUnits="userSpaceOnUse"><stop offset="0" stop-color="#9cb7f0"/><stop offset="0.03" stop-color="#9fb9f1"/><stop offset="0.26" stop-color="#bacdf5"/><stop offset="0.5" stop-color="#cedbf8"/><stop offset="0.75" stop-color="#d9e3f9"/><stop offset="1" stop-color="#dde6fa"/></linearGradient><linearGradient id="linear-gradient-47" x1="223.14" y1="107.2" x2="223.14" y2="131.8" xlink:href="#linear-gradient-46"/><linearGradient id="linear-gradient-48" x1="394.39" y1="384.07" x2="429.37" y2="384.07" gradientTransform="matrix(1, 0, 0, -1, 0, 476.2)" gradientUnits="userSpaceOnUse"><stop offset="0" stop-color="#64edb2"/><stop offset="0.25" stop-color="#99f3cc"/><stop offset="0.49" stop-color="#c5f8e2"/><stop offset="0.7" stop-color="#e5fcf2"/><stop offset="0.88" stop-color="#f8fefc"/><stop offset="1" stop-color="#fff"/></linearGradient><linearGradient id="linear-gradient-49" x1="46.29" y1="187.72" x2="70.39" y2="187.72" xlink:href="#linear-gradient-4"/></defs><title>Artboard 1</title><g id="Layer_2" data-name="Layer 2"><g id="Layer_1-2" data-name="Layer 1-2"><circle class="cls-1" cx="160.21" cy="42.2" r="15"/><path class="cls-2" d="M82.2,127.74C-28.38,244.31,65.84,331.94,186,341a50.53,50.53,0,0,1,30.12,13.07c28.91,26.3,37.33,21.81,81,15.71,164-51.72,274.35-259.49,90.49-225.18-16.39-.66-12.7-17-10.8-35.77a37.65,37.65,0,0,0-24.89-39.26C265.19,38.78,151.57,68.6,82.2,127.74Z"/><path class="cls-3" d="M31.51,151.31s95.09,71.41,185.14,69.16l6,15.12S136.18,275,0,215.87Z"/><path class="cls-4" d="M274.29,184.43s-59.86,35.91-73,37.79c-3.27.46-7.36-3.26-11.66-9.67-13-19.39-27.91-63.34-27.91-89.91,0-35.35,10.14-35.39,10.14-35.39S179,75.4,216.48,74.77l37.73-.5A9.76,9.76,0,0,1,264.05,83Z"/><path class="cls-5" d="M269.2,96.54s25.57,15.91,35.06,28.55,8,18.13,0,22.65-37.45-7.53-37.45-7.53Z"/><line class="cls-6" x1="266.81" y1="122.64" x2="290" y2="136.8"/><path class="cls-7" d="M128.31,69.49S131,53,138,48l5,13.36Z"/><rect class="cls-8" x="134.75" y="34.57" width="26.93" height="55.55" rx="2.82"/><path class="cls-9" d="M374.93,391.59c-15.4,4.57-34.71,17.47-43.3,14.94a8,8,0,0,1-1.63-.68,5,5,0,0,1-1.06-.83c-5.59-5.54-1.17-24.21-1.3-26.62a9.85,9.85,0,0,0-.55-3.49,11.21,11.21,0,0,0-1.64-2.55c-2.09-2.66,1.89-4.7,1.89-4.7-.32-2,1.16-9.46,1.16-9.46L366,355c6.58,1,6.69,7.6,6.69,7.6,4.66-.75,27.21-3.66,39-.19,3.33,1,2.17,4.44,3.94,6.2a3.33,3.33,0,0,1,.36.39C422.67,377.05,391.17,386.77,374.93,391.59Z"/><path class="cls-10" d="M327.09,374.91l.21-.19s13.9-3.68,17.62-.3,17.62.58,21.09,8.93l-34.38,23.18"/><path class="cls-11" d="M415.94,369c-8-3.1-32,5.84-47.92,12.12-18.33,7.22-31,14.37-36.29,18.53-2.5,2-3,3.92-2.79,5.42a5,5,0,0,0,1.06.83,8,8,0,0,0,1.63.68c3.89,1.15,10.41.46,17.81-1.06l-.18-2.09,6.35-.55.1,1.21c2-.48,4-1,6-1.54l-.22-2.54,6.36-.55.11,1.34q3-.85,5.82-1.7l-.47-2.07,6.22-1.41.36,1.59c1.79-.61,3.68-1.33,5.63-2.14l-.78-3.41,6.22-1.42.49,2.18c2-.93,3.92-1.92,5.84-3l-.63-2.76,6.22-1.41.19.82C412.69,380,419.57,373.31,415.94,369Z"/><path class="cls-12" d="M250.63,98.79c-2.7,2-30.32-.74-32.22-1.24-3.33-2.74-.41-7.31,2.59-11.76,1.87-2.77,3.77-5.5,4.21-7.72-24.76-2.7-28.91-13.54-18.08-41.85,4.81-5.85,12.41-5,17.69-4.21,7.67,1.15,14.34,6.65,16.85,11.88a38.79,38.79,0,0,1-.49,8.94c12.61-4.09,9.46,5.43,4.55,8C245.76,65.77,251.43,96.7,250.63,98.79Z"/><path class="cls-13" d="M231.28,85.54a14.14,14.14,0,0,1-10.28.25c1.87-2.77,3.77-5.5,4.21-7.72,0,0,8.82,1.3,12.15-3.3C237.36,74.77,240,81.81,231.28,85.54Z"/><path class="cls-14" d="M223.93,53.81a1.33,1.33,0,0,0,.18.75,1.12,1.12,0,0,0,.56.49,1.09,1.09,0,0,0,.25.1,1,1,0,0,0,.35,0,1.21,1.21,0,0,0,.72-.31,1.31,1.31,0,0,0,.31-.55,1.35,1.35,0,0,0,0-.69,1,1,0,0,0-.64-.78h0a1,1,0,0,0-.84-.19,1.09,1.09,0,0,0-.62.43A1.3,1.3,0,0,0,223.93,53.81Z"/><path class="cls-14" d="M205.11,49.89a1.4,1.4,0,0,0,1,1.4c1,.25,1.92-.78,1.35-2.07-.23-.49-.78-.78-1.19-.46a1.23,1.23,0,0,0-.65.19A1.12,1.12,0,0,0,205.11,49.89Z"/><path class="cls-14" d="M228.24,48.79l.19.06a.7.7,0,0,0,.45-.05h.28a1.33,1.33,0,0,0,.49-.28,1,1,0,0,0,.25-.41,1,1,0,0,0,0-.49,2.66,2.66,0,0,0-1.62-1.73,23.51,23.51,0,0,0-3.53-1.34,2.9,2.9,0,0,0-1.31-.09l-.23.07a1.13,1.13,0,0,0-.35.21,1,1,0,0,0-.18.23v.13h0a.73.73,0,0,0-.35.67v.16a1.08,1.08,0,0,0,.08.19.7.7,0,0,0,.18.2,1.87,1.87,0,0,0,.29.2l.39.2,1.32.64c.31.15.63.3.95.42s.75.36,1.12.52a9.4,9.4,0,0,0,1.15.44A3.15,3.15,0,0,0,228.24,48.79Z"/><path class="cls-14" d="M210.33,43.83a1,1,0,0,0,.76-.66,1,1,0,0,0-.25-.89,7.36,7.36,0,0,0-3-1.32c-2.26-.44-2.78.43-2.5,1.11-.41.77.74,1.12,1.58,1.35A8.77,8.77,0,0,0,210.33,43.83Z"/><path class="cls-15" d="M211.89,57.8h1a4.78,4.78,0,0,1,1.06.08c.77.1,1.56.12,2.33.23l.54.08a.44.44,0,0,0,.32,0,.41.41,0,0,0,.19-.25.42.42,0,0,0,0-.31.39.39,0,0,0-.25-.2l-1-.14L215,57.1a8.49,8.49,0,0,1-1.12-.11,8.39,8.39,0,0,0-1-.06H212v-.08a2.21,2.21,0,0,1,.16-.54c.11-.37.21-.74.31-1.11s.19-.72.27-1.08L213,53c.19-.81.42-1.61.64-2.41s.41-1.53.63-2.3l.26-1a.41.41,0,1,0-.8-.22c-.2.72-.39,1.45-.59,2.17-.11.39-.21.79-.32,1.18s-.22.76-.32,1.15-.22.84-.31,1.26-.16.74-.25,1.11c-.17.73-.37,1.46-.58,2.19l-.15.51a2.71,2.71,0,0,0-.09.41.58.58,0,0,0,.3.56.35.35,0,0,0,.14.06A1.18,1.18,0,0,0,211.89,57.8Z"/><path class="cls-16" d="M240.55,53.66a.51.51,0,0,0,.46-.11h0a5.12,5.12,0,0,1,.73-.39l.52-.17c.28-.08.59-.16,1-.24.94-.23,2.37-.44,2.31-.43a6.48,6.48,0,0,1,.77-.08h.26a3,3,0,0,1,.6,0h.16a.46.46,0,0,0,.57-.32h0a.45.45,0,0,0,0-.28h0c.15-.53.3-1,.45-1.6a35.23,35.23,0,0,0,.87-4.08h0c.1-.57.15-1.15.26-2,0-.35.06-.1.2-.35a.54.54,0,0,0,0-.43,1.92,1.92,0,0,0-.08-.54c-.08-.22-.17-.73-.17-.71a6.13,6.13,0,0,0-1.13-2.57,4.76,4.76,0,0,0-2.28-1.45,3.7,3.7,0,0,0-1.87,0,3.38,3.38,0,0,0-1.4.74,5.24,5.24,0,0,0-1,1.15,11.37,11.37,0,0,0-1.4,4,5.26,5.26,0,0,0,.22,1.76,2.35,2.35,0,0,0,.06.29c.1.43.22-.41.05,2-.07.92-.14,1.88-.25,2.81l-.06.5v.16h0v.56c0,.22-.06.44-.08.66a1,1,0,0,1-.07.42v.25a.39.39,0,0,0,0,.3.53.53,0,0,0,.11.21A.6.6,0,0,0,240.55,53.66Z"/><path class="cls-17" d="M208.31,38.72a13.24,13.24,0,0,0,1.65-.19c2.55-.38,3.78-.4,5.21-.65.62-.1,1.59-.33,1.55-.32,1.42-.32,2.23-.45,3.27-.71,4.25-1.08.78-.15,4.65-1.24,1.12-.32,2.36-.56,3.29-.81a4.39,4.39,0,0,1,.52-.13v.07c-.21.49-.48,1-.71,1.45-.45,1-.56,1.27-.53,1.59a1,1,0,0,0,.55.88,2.81,2.81,0,0,0,1.31.25,14,14,0,0,0,1.45-.16l1.42-.21a14.93,14.93,0,0,1,3.06-.17,12.79,12.79,0,0,1,1.85.22,5.09,5.09,0,0,1,.85.23.9.9,0,0,1,.41.31.83.83,0,0,1,.13.34,6.7,6.7,0,0,1-.07,1.1,2.89,2.89,0,0,0,.09,1.79,1.62,1.62,0,0,0,.45.49,3.25,3.25,0,0,0,1.06.51h.11a3.71,3.71,0,0,0,.58.11,2.15,2.15,0,0,0,.62,0,3.28,3.28,0,0,0,.82-.2,7.65,7.65,0,0,0,.82-.38l.75-.42.15-.1c.15-.09.31-.19.47-.27h.11a.24.24,0,0,1,.06.11,5.44,5.44,0,0,1,.17.78v.13a.77.77,0,0,0,.07.39,1.33,1.33,0,0,0,.05.19,1,1,0,0,0,.21.4.9.9,0,0,0,.39.25h0a1,1,0,0,0,.43,0,1.32,1.32,0,0,0,.42-.23c.14-.11.27-.23.4-.35l.27-.23a.38.38,0,0,1,.13-.09h.2l.08.06a1.3,1.3,0,0,1,.26.31v.07l.21.29a2.22,2.22,0,0,0,.37.38,1.2,1.2,0,0,0,.39.2h0a1.52,1.52,0,0,0,.6,0,2,2,0,0,0,.9-.51,6,6,0,0,0,.5-.51l.09.36v.16c.06.2.11.41.17.61a3.73,3.73,0,0,0,.26.73.88.88,0,0,0,.55.5h.19c.37,0,.63-.35.8-.61a5.18,5.18,0,0,0,.34-.76h0c.09-.23.16-.47.23-.69.14-.5.26-1,.35-1.51s.2-1.13.26-1.74.09-1.1.12-1.73a17,17,0,0,0,0-1.75,11.25,11.25,0,0,0-.29-1.83c-.13-.59-.29-1.17-.47-1.72a13.22,13.22,0,0,0-1.45-3.12,14,14,0,0,0-2-2.64,20.15,20.15,0,0,0-2.69-2.28A18.48,18.48,0,0,0,243.94,24l-1.48-.66c-.48-.21-1-.41-1.52-.59-1.09-.39-2.2-.74-3.24-1.06L236,21.2c-5-1.56-5.75-1.75-11.72-2.12a60.49,60.49,0,0,1-7.36-.83c-1-.16-2.09-.35-3.21-.62-.59-.14-1.09-.26-1.56-.39h-.05l-1.1-.37-.38-.12-.69-.2c-1.16-.32-1.6.33-1.43,1.31a6.18,6.18,0,0,0,.7,1.91l-.31-.09a22.35,22.35,0,0,0-3.14-.62,5.89,5.89,0,0,0-3.16.39,1.79,1.79,0,0,0-.74,1.21,2.07,2.07,0,0,0,.16,1.23,6.39,6.39,0,0,0,2.25,2.66,18.92,18.92,0,0,0,2.3,1.45l-.47.1c-3.29.76-4.5,1.31-5.42,2.79a4.12,4.12,0,0,0-.46,1c-.4,1.75,3.48,1.7,5.84,2h-.11l-.37.22a10.93,10.93,0,0,0-2.48,1.73c-1,1.09-.68,2.14.31,3.14a4.9,4.9,0,0,0,1.39,1A6.94,6.94,0,0,0,208.31,38.72Z"/><path class="cls-18" d="M230.34,25.49c-1.7-.3-3.4-.65-5.08-1s-3.21-.76-4.78-1.24a.41.41,0,1,1,.22-.8h0c.41.13.83.26,1.25.37,1.59.44,3.2.81,4.81,1.15.85.19,1.71.36,2.56.52l2.55.46c.84.16,1.69.31,2.53.51s1.69.42,2.53.67,1.65.53,2.46.83,1.66.64,2.47,1c.4.18.79.39,1.17.6a21.37,21.37,0,0,1,2.13,1.36c.32.24.62.51.93.77a.43.43,0,0,1,.11.28.42.42,0,0,1-.41.42.41.41,0,0,1-.29-.13l-.67-.55A15.08,15.08,0,0,0,243,29.47a18.49,18.49,0,0,0-2.08-1.06l-.58-.24c-.78-.31-1.58-.61-2.39-.88s-1.68-.53-2.53-.76-1.67-.41-2.52-.58Z"/><path class="cls-19" d="M209.44,23.46c.67.24,1.35.49,2,.77l2,.87.9.36a18.57,18.57,0,0,0,2.41.73c.81.2,1.63.37,2.46.49a4.08,4.08,0,0,1,.69.09.41.41,0,0,1,.25.19.42.42,0,0,1,0,.31.39.39,0,0,1-.2.25.42.42,0,0,1-.31,0h-.13l-.78-.1-.78-.13c-.53-.11-1.06-.22-1.59-.35l-.54-.15a18.32,18.32,0,0,1-1.9-.62c-1.47-.56-2.16-1-4.75-1.93a.41.41,0,1,1,.22-.8Z"/><path class="cls-20" d="M212.17,31.21a54.1,54.1,0,0,0,5.62,1.36,9.87,9.87,0,0,0,2.66,0,17.17,17.17,0,0,0,3-.69q1.25-.39,2.52-.66a11.92,11.92,0,0,1,2.6-.16,8.42,8.42,0,0,1,2.48.55.41.41,0,0,1,.29.5.42.42,0,0,1-.51.29,7.46,7.46,0,0,0-.8-.26A9.21,9.21,0,0,0,226.6,32a10.28,10.28,0,0,0-1.08.21c-1.09.27-2.32.69-3.48,1a11.36,11.36,0,0,1-5.28.1c-.82-.16-1.63-.37-2.44-.59L211.94,32a.42.42,0,0,1-.22-.55.42.42,0,0,1,.45-.25Z"/><path class="cls-21" d="M235.42,35.7c.71-.12,1.42-.24,2.13-.32.34,0,.69-.08,1-.09a2.64,2.64,0,0,1,.84.09.41.41,0,0,1,.29.5.42.42,0,0,1-.51.29H239a9.24,9.24,0,0,0-1.66.09c-.58.08-1.16.18-1.74.28a.41.41,0,0,1-.5-.51.36.36,0,0,1,0-.09A.4.4,0,0,1,235.42,35.7Z"/><path class="cls-22" d="M248.28,36.67a.44.44,0,0,1-.11-.29.4.4,0,0,1,.12-.29.41.41,0,0,1,.58,0h0a2.07,2.07,0,0,1,.27.45,7,7,0,0,1,.43,1.62,17.22,17.22,0,0,1,.18,2.27.42.42,0,0,1-.43.41h-.09c-.44-.13-.21-.39-.43-2.23a7.63,7.63,0,0,0-.39-1.7A1.71,1.71,0,0,0,248.28,36.67Z"/><path class="cls-23" d="M247.19,38.11c.23.06.34.25.41,1q0,.44,0,.87a.42.42,0,0,1-.48.35.42.42,0,0,1-.35-.35,4.33,4.33,0,0,0-.12-1.34h0a.36.36,0,0,1,0-.25.43.43,0,0,1,.52-.29Z"/><path class="cls-24" d="M245.05,38.31c.11.19,0,.49-.07.93a.42.42,0,0,1-.52.28.4.4,0,0,1-.24-.18c-.1-.19,0-.3.06-.85a.36.36,0,0,1,.21-.33.39.39,0,0,1,.55.13Z"/><path class="cls-25" d="M245.09,38.57v0Z"/><circle class="cls-12" cx="244.62" cy="56.25" r="5.9"/><path class="cls-26" d="M373.11,258.07a2.16,2.16,0,0,1,0,.36,30.57,30.57,0,0,1-.09,4.88c-.15,1.69-.36,3.8-.58,6.87-.48,6.78-8.82,78.29-8.82,78.29l-32.88,2.85-10.32-84.07-9.15.79c-83.76,3-94.82-32.45-94.82-32.45L265.76,221s66.06,2.79,89.12,7.47H355a29.82,29.82,0,0,1,6.57,2.12C376.87,237.69,372.86,255.18,373.11,258.07Z"/><line class="cls-6" x1="337.61" y1="243.39" x2="343.02" y2="321.78"/><path class="cls-27" d="M368.34,350.07c.52,3.55.53,5.44-3.1,7.17S348.7,369.86,341.16,370s-15.55-10.31-15.41-13.31-1.87-46.13-2.24-50.35S326,291.2,333.36,291s15.88,10.59,21.08,10.61c4.23,0,12.14-3.83,16.49,1.4a4.55,4.55,0,0,1,.62,2.22C372.57,314.5,367.87,346.9,368.34,350.07Z"/><path class="cls-28" d="M323.48,312.13s5.29-6.58,11.12-5,7.52,49,4.55,50.11-13.49-5.07-13.49-5.07"/><path class="cls-29" d="M354.65,205.72a69.18,69.18,0,0,1-3.25,7.69,80.07,80.07,0,0,1-3.95,7C342.2,228.67,319.87,285,319.87,285l-33.94-6.83,19.19-55.06s-19.77,24.8-47.88,30.5c-40.14,8.15-46.79-33.13-46.79-33.13,14.85-36.34,87.89-42,87.89-42s21.44-6.7,38.4-4.79a37.55,37.55,0,0,1,7.35,1.55,22,22,0,0,1,5.3,2.46C359.22,184,358.15,195.75,354.65,205.72Z"/><path class="cls-6" d="M223.33,199.84s-.44,29.33,36.11,19.23c28.65-7.92,45.49-34.53,54.44-34.64s3.82,7.47,2.45,9.92S304.55,218,304.67,226"/><path class="cls-6" d="M304.26,189.9s-18.89,21.27-28.78,27.25-42.26,32.19-63.6.25"/><path class="cls-30" d="M207.74,210s.76,7.93,2.71,10.51c0,0,8.06-20.53,46.28-31.21s41.61-10.78,41.61-10.78l-5-2.37-16.46-5.84-59,15-18,21.28,5.63-.63Z"/><path class="cls-31" d="M207.74,210s.76,7.93,2.71,10.51c0,0,8.06-20.53,46.28-31.21s41.61-10.78,41.61-10.78l-5-2.37-16.46-5.84-59,15-15.62,18.46L205.5,206Z"/><path class="cls-32" d="M293.32,176.11s-30.45.86-47.19,7.25a162.63,162.63,0,0,0-24.4,11.87c-9.12,5.49-15.76,11.21-14,14.73a16.12,16.12,0,0,1-13.63-13.27c-2.39-12.17-5.1-57-13.34-67.12,0,0,.68-3.68,1.38-8.73,1.09-8,2.16-19.44.49-25.38,0,0,12.09-5,20.25-5.07,0,0,13.45-7.73,16.73-7s9,9.2,28,3.72a12.27,12.27,0,0,1,12.71,3.14,39.75,39.75,0,0,1,3.92,1.81c2.28,1.22,4.74,2.88,4.91,4.49.32,3,1.24,17.55,2.16,24.61,0,0,3.1,35.67,18.4,51.76A28.8,28.8,0,0,0,293.32,176.11Z"/><path class="cls-33" d="M219.62,83.38s1.84-4.62,5-3.6,14.74,4.94,23.5-1.12c0,0,1.89.68,2.1,2s3.17,6,3.17,6-11.87,7.1-21.43,4.4C220.14,87.71,219.62,83.38,219.62,83.38Z"/><path class="cls-34" d="M354.35,350.35c-1.41,1.55.73,9.71-11.65,9.86h-.18l.06-1.58-6.4-.26-.06,1.51c-2.79-.26-5.9-.71-9.22-1.35l.67-2.17-6.11-1.92-.84,2.71c-2.56-.62-5.2-1.34-7.89-2.18l1.12-2.67-5.9-2.48-1.31,3.1c-2.66-1-5.34-2.05-8-3.24l1.38-2.93-5.8-2.75-1.37,2.92q-3.77-1.92-7.37-4.15l1.67-2.65-6.1-3.86-1.66,2.62c-2.4-1.56-4.64-3.06-6.71-4.52l1.77-2-5.37-4.82L266.91,330c-8.61-7.12-11.77-13.48-5.88-20.87l93.45,38.09A2.4,2.4,0,0,1,354.35,350.35Z"/><path class="cls-35" d="M355.82,342.53c-.9,11.22-12.81,10.74-27.55,8.12-11.53-2-25.09-8-34.67-13h0c-2.67-1.38-5-2.68-7-3.79-8.8-5.08-27-17.06-25.44-27.8.93-6.42,6.27-15.29,10.39-21.37,2.79-4.1,5-6.94,5-6.94l33.5,11.46a9.06,9.06,0,0,1,3.52,3.61c1.09,2.32-.23,5.64-.24,6s23.51,24.55,28.47,28.67S356.72,331.32,355.82,342.53Z"/><path class="cls-10" d="M271.59,284.73l12.68,10.69s5,10.18,1.56,16.53,12.57,3.78,7.77,25.74h0"/><path class="cls-36" d="M338.86,245.07a1.76,1.76,0,0,1-.1.3c-1.42,3.53-23.21,44.88-26,44.76-1.53-.06-7.08.68-11.82,1.37a7.81,7.81,0,0,1-8.09-3.95c-1-1.85-3-3.62-7.11-4.16-9.62-1.26-10.41-8.68-10.33-10.85.08-1.87,18.64-40.76,23.81-51.55h0l1.32-2.75s10.47-7.83,15.66,5.07,14.28,13.06,17.84,14S340,241.63,338.86,245.07Z"/><path class="cls-37" d="M373.11,258.07a2.16,2.16,0,0,1,0,.36,16.65,16.65,0,0,1-11.6-27.84C376.87,237.69,372.86,255.18,373.11,258.07Z"/><path class="cls-6" d="M373.05,263.31A21.56,21.56,0,0,1,355,228.47"/><path class="cls-6" d="M351.4,213.41c-11.83-1.66-21-11.13-21.38-22.84a23.15,23.15,0,0,1,6.72-16.88"/><path class="cls-38" d="M354.65,205.72a17.26,17.26,0,0,1-10.56-30.48,22,22,0,0,1,5.3,2.46C359.22,184,358.15,195.75,354.65,205.72Z"/><path class="cls-6" d="M195.58,201.17s18.51-28.35,56-34.94c21.52-3.79,31.73-2.39,31.73-2.39"/><path class="cls-6" d="M239.77,109.51s-1.37,39.06,17.62,70.67"/><path class="cls-6" d="M192.46,92.13a52.56,52.56,0,0,0,45.7,18.38c25.27-2.54,28.65-16.92,28.65-16.92"/><circle class="cls-39" cx="231.24" cy="48.74" r="47.74"/><path class="cls-40" d="M187.73,94.73s-22.19-1.39-38.94,15.19c-21.25,21-31.56,26.81-31.56,26.81s33.7,15.26,61.51,5.52,12-37.27,12-37.27Z"/><path class="cls-41" d="M145.27,79.27s-3.24,22.57,5.48,37.66c0,0-2.14,15.88-24.27,21.82s-13.93-46.15,3.84-65.89Z"/><path class="cls-42" d="M144.35,66.73s14.72-5.07,18.31-4.14,3.75,9.47.88,10.75-16.16,4.71-16.16,4.71Z"/><path class="cls-43" d="M160.09,52.42s5.4.52,8.25,2.89-.61,10.17-3.75,10.11S148,62.85,148,62.85Z"/><path class="cls-44" d="M141.78,56.56s14.72-5.07,18.31-4.14,3.75,9.48.88,10.75-16.16,4.71-16.16,4.71Z"/><path class="cls-45" d="M147.38,78.05s13-4,13.9-3.9,4.56,10-2.92,11.13l-4.9.78c-2.85.45-9.61,12.67-9.61,12.67Z"/><path class="cls-46" d="M142.58,56.16a50.57,50.57,0,0,0-19.26,21.89c-6.82,15-8.19,16.15-7.75,19s12.44,16.09,33.74,6.36c0,0-4.58-13.38-1.06-16.46,0,0,5.49-8.27-.87-8.87,0,0,6.84-7.13-1.66-10.72,0,0,4.26-3.88,2.09-7.72S142.58,56.16,142.58,56.16Z"/><polygon class="cls-3" points="402.85 385.24 399.25 373.55 394.39 373.83 399.74 385.94 402.85 385.24"/><polygon class="cls-3" points="390.93 390.19 387.86 378.72 384.07 378.94 388.38 390.77 390.93 390.19"/><polygon class="cls-3" points="379.5 395.57 376.13 383.81 372.7 384.39 377.36 396.05 379.5 395.57"/><polygon class="cls-3" points="367.82 399.41 364.45 389.71 361.33 389.89 364.86 399.58 367.82 399.41"/><polygon class="cls-3" points="355.61 402.83 352.81 393.81 349.82 394.64 352.83 402.99 355.61 402.83"/><path class="cls-47" d="M286.77,132.62a11.79,11.79,0,0,1,11.57-5c7.72,1.21,18,7.56,13.42,26.49,0,0-11.77,19.51-32.72,12.13L268.88,155.6,271,141.05Z"/><rect class="cls-48" x="181.84" y="120.81" width="80.1" height="54.36" rx="4.06" transform="translate(-24.77 46.52) rotate(-11.34)"/><path class="cls-49" d="M283.94,132.62s6.28,8.08,7.38,18.21S283.94,170,283.94,170s-28.23-5.54-33.14-9.18-4.47-8.38,3.16-7.6c0,0-9.93,3.29-10.34-3.65S256.86,143,256.86,143s-14.32,2.76-14.65-1.56,6.38-9.21,16.54-7.25c0,0,8.88,1.84,10.17,5.45Z"/><path class="cls-50" d="M307.88,130.47s5.84,2.28,7.49,7,1.36,8.68-3.09,13.8A24.05,24.05,0,0,1,307.88,130.47Z"/><path class="cls-51" d="M112.47,122.24s17.1,4.47,17.34,19.12c0,0-7.85,3.66-13.22-4.63S112.47,122.24,112.47,122.24Z"/><path class="cls-6" d="M129.81,106.89s-2,16,3.91,25.31c0,0,14.58-2.47,15.07-22.28"/><path class="cls-6" d="M133.72,132.2s58.2-1.09,57-27.22c0,0,.3-10.35-10.46-9.87"/><path class="cls-6" d="M309.37,131.19s-2.34,10.43,3.84,19"/><path class="cls-6" d="M112.34,124.21s11.41,2.88,15.91,17.66"/><path class="cls-52" d="M117.23,91.62s7.28,14.84,31,7.67"/><path class="cls-52" d="M268.92,139.65s1.87,2.5-1.59,5.19c0,0,4.66,1.91,3.91,4.44s-3.91,3.57-3.91,3.57,4.2.87,3.28,6.63c0,0,10,3.69,14.23,2.42a14.05,14.05,0,0,0,3.06-11.64c-1.39-6.86-7.66-15.91-7.66-15.91"/><path class="cls-52" d="M121.82,86s7.4-19.91,15.22-23.72,7.31,4.42,7.31,4.42,8.31,1.68,3,11.32c0,0,5,4.38-.16,10.69L143,95.61S123.62,94.25,121.82,86Z"/><path class="cls-6" d="M226,80.46a3.33,3.33,0,0,0-.58.76,15.77,15.77,0,0,0-2.31,6.11"/><path class="cls-6" d="M230.9,81.56q-1.31,4.38-2.31,8.84"/><path class="cls-6" d="M235,82V92.12"/><path class="cls-6" d="M238.78,82.05a5,5,0,0,1,1,3.53,4.81,4.81,0,0,0-.07,1,3.75,3.75,0,0,0,.34,1.14,29,29,0,0,1,1.23,3.87"/><path class="cls-6" d="M242.93,81.22a15.44,15.44,0,0,0,.65,3.82,14.43,14.43,0,0,0,.91,2,11.52,11.52,0,0,0,1.82,2.8"/><path class="cls-6" d="M246.21,79.9l.35,3a3,3,0,0,0,.17.83,2.74,2.74,0,0,0,.41.7c1,1.37,2,2.71,3.07,4"/><path class="cls-53" d="M174.44,95.41s4.7,2.26,4.91,7.35c0,0-9.23,3-10.39,4.88,0,0-4.59-8.07-6.11-8C162.85,99.63,170.27,95.05,174.44,95.41Z"/><path class="cls-54" d="M240.4,51.7s-4.08,7.51-1.62,12.16,2,12.4-3.83,14.8-29.49,6.28-31.44-3.89-2-11.91-2-11.91,8-6,20.77,2.63S236.52,64,236.52,64s-2.26-13.24,4.28-16.35Z"/><path class="cls-15" d="M212.41,67.16s5.52,1.91,10,.45c0,0-2.87,3.28-10.21,1.37Z"/><circle class="cls-55" cx="212.76" cy="181.85" r="6.92"/><circle class="cls-56" cx="211.46" cy="181.37" r="5.9"/><path class="cls-57" d="M209.53,179.38s-4-.4-5.63,7.89c-1.12,5.57,7.33,48.14-16.16,41.9s-14.05-65.58-14.05-65.58"/><path class="cls-58" d="M247.52,55.87a8.29,8.29,0,0,0-2.18.59,9.62,9.62,0,0,0-1.93,1.08l-1,.77.56-1.14a13.85,13.85,0,0,1,1.4-2.3,7.75,7.75,0,0,1,.9-1,2.39,2.39,0,0,1,1.19-.66,2.67,2.67,0,0,0-1,.88c-.26.34-.49.71-.72,1.08-.45.74-.87,1.52-1.27,2.29l-.47-.38a6.6,6.6,0,0,1,2.15-1A5.08,5.08,0,0,1,247.52,55.87Z"/><path class="cls-3" d="M220.31,317.62s11,7.16,17.38,14.59l.05-3.58a5.81,5.81,0,0,0-1.31-3.75L227,313.45a5.71,5.71,0,0,0-3.94-2.08l-8.39-.71,5.65,7Z"/><path class="cls-3" d="M109.27,302.66s13.33-10.21,23-12.56L128,288.75a5.69,5.69,0,0,0-4,.17l-13.69,5.69a5.75,5.75,0,0,0-3.13,3.18l-3.13,7.81,13.11-5.33Z"/><circle class="cls-3" cx="155.9" cy="381.71" r="92.19"/><path class="cls-59" d="M198.6,328.53c1.81,1.32,3.8,2.64,6,2.65,2.61,0,4.85-1.76,6.86-3.43a2,2,0,0,0,.59-3.16l-3.74-6.38a14.5,14.5,0,0,0-3.14-4.11c-2.42-1.93-5.78-2.09-8.87-1.91C179.27,313.17,191.34,323.22,198.6,328.53Z"/><path class="cls-59" d="M121.45,329.21c2-1.06,4-2.3,5-4.32,1.13-2.35.5-5.13-.15-7.66a2.71,2.71,0,0,0-.9-1.67,2.63,2.63,0,0,0-1.7-.22l-7.37.64a14.41,14.41,0,0,0-5.06,1.07c-2.79,1.36-4.37,4.32-5.54,7.19C99.29,340.08,113.55,333.5,121.45,329.21Z"/><path class="cls-60" d="M157.67,307.08a12.65,12.65,0,0,0-4.42-1.76c-10.21-2-13.63,3.58-3.55,6.79C154.24,313.55,168.46,314,157.67,307.08Z"/><path class="cls-61" d="M216.21,357.67c.78,4.61,3.52,9,7.72,11.08a1.71,1.71,0,0,0,1.21.22,1.66,1.66,0,0,0,.79-.69,56.64,56.64,0,0,0,3.35-4.91,6.76,6.76,0,0,0,1.09-2.66,7,7,0,0,0-.58-3c-1.38-4-2.9-8.15-6.07-10.93s-5.09-3.42-6.66.49A20.66,20.66,0,0,0,216.21,357.67Z"/><path class="cls-59" d="M169.6,343a8.6,8.6,0,0,0,7.71.84.9.9,0,0,0,.55-.44,1,1,0,0,0,0-.6,34,34,0,0,0-.86-3.3,3.89,3.89,0,0,0-.74-1.48,4.06,4.06,0,0,0-1.54-.9c-2.25-.9-4.62-1.82-7-1.5s-3.41.92-2.31,3.07A11.86,11.86,0,0,0,169.6,343Z"/><circle class="cls-62" cx="411.88" cy="92.13" r="17.49"/><circle class="cls-63" cx="58.34" cy="288.48" r="12.05"/><circle class="cls-64" cx="456.96" cy="248.82" r="58.34"/><circle class="cls-65" cx="329.93" cy="72.12" r="32.84"/><path class="cls-59" d="M37,124.4c-3.23.4-6.85-.27-8.92-2.78-1.85-2.24-2-5.5-1.24-8.3a11.36,11.36,0,0,1,5.77-7.15c3.2-1.51,7.09-1.17,10.17-2.91C49.6,99.4,48.66,88,55.39,84c2.5-1.47,5.54-1.58,8.44-1.57,1.66,0,3.5.11,4.69,1.28,2.82,2.76,2,12.38.56,15.67-1.49,3.47-4.09,4.46-6.9,6.69C54,112.59,48.32,123,37,124.4Z"/></g></g></svg>