<svg xmlns="http://www.w3.org/2000/svg" xmlns:xlink="http://www.w3.org/1999/xlink" viewBox="0 0 364.54 266.21"><defs><style>.cls-1{isolation:isolate;}.cls-2{fill:url(#linear-gradient);}.cls-3{fill:url(#linear-gradient-2);}.cls-4{fill:#4c4c4c;mix-blend-mode:screen;}.cls-5{fill:url(#linear-gradient-3);}.cls-6{fill:url(#linear-gradient-4);}.cls-7{fill:url(#linear-gradient-5);}.cls-8{fill:url(#linear-gradient-6);}.cls-9{fill:url(#linear-gradient-7);}.cls-10{fill:url(#linear-gradient-8);}.cls-11,.cls-37{fill:none;}.cls-11{stroke:#e6e6e6;stroke-linecap:round;stroke-linejoin:round;stroke-width:2.85px;}.cls-12{fill:url(#linear-gradient-9);}.cls-13{fill:url(#linear-gradient-10);}.cls-14{fill:#ecfdf6;}.cls-15{fill:url(#linear-gradient-11);}.cls-16{fill:url(#linear-gradient-12);}.cls-17{fill:url(#linear-gradient-13);}.cls-18{fill:url(#linear-gradient-14);}.cls-19{fill:url(#linear-gradient-15);}.cls-20{fill:url(#linear-gradient-16);}.cls-21{fill:url(#linear-gradient-17);}.cls-22{fill:url(#linear-gradient-18);}.cls-23{fill:url(#linear-gradient-19);}.cls-24{fill:#e6e6e6;}.cls-25{fill:url(#linear-gradient-20);}.cls-26{fill:url(#linear-gradient-21);}.cls-27{fill:url(#linear-gradient-22);}.cls-28{fill:url(#linear-gradient-23);}.cls-29{fill:url(#linear-gradient-24);}.cls-30{fill:url(#linear-gradient-25);}.cls-31{fill:url(#linear-gradient-26);}.cls-32{fill:url(#linear-gradient-27);}.cls-33{fill:url(#linear-gradient-28);}.cls-34{fill:url(#linear-gradient-29);}.cls-35{fill:url(#linear-gradient-30);}.cls-36{fill:#f7f7f7;}.cls-37{stroke:#ecfdf6;stroke-miterlimit:10;stroke-width:2px;}.cls-38{fill:#dde6fa;}.cls-39{fill:#64edb2;}.cls-40{fill:#32baaa;}</style><linearGradient id="linear-gradient" x1="11.23" y1="138.61" x2="343.08" y2="138.61" gradientUnits="userSpaceOnUse"><stop offset="0" stop-color="#9cb7f0"/><stop offset="0.03" stop-color="#9fb9f1"/><stop offset="0.26" stop-color="#bacdf5"/><stop offset="0.5" stop-color="#cedbf8"/><stop offset="0.75" stop-color="#d9e3f9"/><stop offset="1" stop-color="#dde6fa"/></linearGradient><linearGradient id="linear-gradient-2" x1="293.43" y1="43.59" x2="305.42" y2="43.59" xlink:href="#linear-gradient"/><linearGradient id="linear-gradient-3" x1="316.72" y1="102.21" x2="328.71" y2="102.21" gradientUnits="userSpaceOnUse"><stop offset="0" stop-color="#366fe0"/><stop offset="0.2" stop-color="#2c5ecb"/><stop offset="0.52" stop-color="#1e48af"/><stop offset="0.79" stop-color="#153a9d"/><stop offset="1" stop-color="#123597"/></linearGradient><linearGradient id="linear-gradient-4" x1="316.72" y1="103.12" x2="328.71" y2="103.12" xlink:href="#linear-gradient"/><linearGradient id="linear-gradient-5" x1="316.72" y1="113.29" x2="328.71" y2="113.29" xlink:href="#linear-gradient-3"/><linearGradient id="linear-gradient-6" x1="322.72" y1="120.19" x2="322.72" y2="108.2" gradientUnits="userSpaceOnUse"><stop offset="0" stop-color="#dde6fa"/><stop offset="0.25" stop-color="#d9e3f9"/><stop offset="0.5" stop-color="#cedbf8"/><stop offset="0.74" stop-color="#bacdf5"/><stop offset="0.97" stop-color="#9fb9f1"/><stop offset="1" stop-color="#9cb7f0"/></linearGradient><linearGradient id="linear-gradient-7" x1="122.72" y1="142.65" x2="294.08" y2="142.65" xlink:href="#linear-gradient-3"/><linearGradient id="linear-gradient-8" x1="23.89" y1="139.15" x2="294.08" y2="139.15" gradientUnits="userSpaceOnUse"><stop offset="0" stop-color="#4e54c8"/><stop offset="1" stop-color="#8f94fb"/></linearGradient><linearGradient id="linear-gradient-9" x1="156.02" y1="94.13" x2="187.7" y2="94.13" xlink:href="#linear-gradient-3"/><linearGradient id="linear-gradient-10" x1="186.14" y1="89.32" x2="225.68" y2="89.32" xlink:href="#linear-gradient-3"/><linearGradient id="linear-gradient-11" x1="117.09" y1="171.54" x2="129.57" y2="171.54" xlink:href="#linear-gradient-3"/><linearGradient id="linear-gradient-12" x1="139.86" y1="179.39" x2="148.57" y2="179.39" xlink:href="#linear-gradient-3"/><linearGradient id="linear-gradient-13" x1="151.36" y1="188.79" x2="169.66" y2="188.79" xlink:href="#linear-gradient-3"/><linearGradient id="linear-gradient-14" x1="167.08" y1="202.85" x2="197.22" y2="202.85" xlink:href="#linear-gradient-3"/><linearGradient id="linear-gradient-15" x1="154.81" y1="92.58" x2="171.3" y2="92.58" xlink:href="#linear-gradient"/><linearGradient id="linear-gradient-16" x1="115.12" y1="172.52" x2="124.04" y2="172.52" xlink:href="#linear-gradient"/><linearGradient id="linear-gradient-17" x1="133.44" y1="179.76" x2="144.93" y2="179.76" xlink:href="#linear-gradient"/><linearGradient id="linear-gradient-18" x1="148.02" y1="188.5" x2="157.32" y2="188.5" xlink:href="#linear-gradient"/><linearGradient id="linear-gradient-19" x1="167.08" y1="209.04" x2="180.76" y2="209.04" xlink:href="#linear-gradient"/><linearGradient id="linear-gradient-20" x1="249.22" y1="111.93" x2="277.11" y2="111.93" xlink:href="#linear-gradient-3"/><linearGradient id="linear-gradient-21" x1="186.64" y1="84.86" x2="188.75" y2="84.86" xlink:href="#linear-gradient-3"/><linearGradient id="linear-gradient-22" x1="290.32" y1="49.41" x2="302.31" y2="49.41" xlink:href="#linear-gradient"/><linearGradient id="linear-gradient-23" x1="291.83" y1="59.44" x2="303.81" y2="59.44" xlink:href="#linear-gradient"/><linearGradient id="linear-gradient-24" x1="294.25" y1="70.15" x2="306.24" y2="70.15" xlink:href="#linear-gradient"/><linearGradient id="linear-gradient-25" x1="296.85" y1="81.16" x2="308.84" y2="81.16" xlink:href="#linear-gradient"/><linearGradient id="linear-gradient-26" x1="299.4" y1="90.29" x2="311.39" y2="90.29" xlink:href="#linear-gradient"/><linearGradient id="linear-gradient-27" x1="301.84" y1="101.04" x2="313.83" y2="101.04" xlink:href="#linear-gradient"/><linearGradient id="linear-gradient-28" x1="303.81" y1="111.49" x2="315.8" y2="111.49" xlink:href="#linear-gradient"/><linearGradient id="linear-gradient-29" x1="314.75" y1="123.47" x2="326.74" y2="123.47" xlink:href="#linear-gradient"/><linearGradient id="linear-gradient-30" x1="307.84" y1="119.73" x2="319.82" y2="119.73" xlink:href="#linear-gradient"/></defs><title>Asset 14</title><g class="cls-1"><g id="Layer_2" data-name="Layer 2"><g id="Layer_1-2" data-name="Layer 1"><path class="cls-2" d="M326.46,146.79c-13.84-13.08-35-18.36-44.72-34.77-14.74-25,5.76-60.82-10.9-84.54C251-.76,203.56,12.07,181.51,30.63c-31.9,26.86-63.58,49-105,58.75-18.92,4.46-40.23,7.34-52.61,22.32-5.59,6.77-8.62,15.3-10.53,23.86-6.62,29.68,1.71,65.17,27.93,80.55,20.3,11.91,45.51,9.22,69,10.61a187,187,0,0,1,61.75,14.43c3,1.25,5.88,2.58,8.8,3.95C237.69,217,283,225.32,283,225.32c-26.14,2.46-53.39,19.1-72.43,33.39,3.13,1.22,6.31,2.34,9.54,3.3a105.22,105.22,0,0,0,81.29-9.5c18.24-10.48,33.47-27.19,39.29-47.41S341.75,161.25,326.46,146.79Z"/><path class="cls-3" d="M305.42,43.59a6,6,0,1,1-6-6A6,6,0,0,1,305.42,43.59Z"/><path class="cls-4" d="M295,42.44a1.09,1.09,0,0,1,0-.26,5.11,5.11,0,0,1,.4-1.07,4,4,0,0,1,2.44-2.17,5.85,5.85,0,0,1,2.79,0s2.34.38,2.37,1.26c0,.26-1.51.31-1.7.32a6.53,6.53,0,0,0-4.94,2.07c-.37.49-.87,1.32-1.32.34A.89.89,0,0,1,295,42.44Z"/><circle class="cls-5" cx="322.72" cy="102.21" r="5.99"/><path class="cls-6" d="M328.71,103.12a6,6,0,1,1-6-6A6,6,0,0,1,328.71,103.12Z"/><path class="cls-4" d="M318.23,102a2.51,2.51,0,0,1,0-.27,5.24,5.24,0,0,1,.4-1.06,4,4,0,0,1,2.43-2.17,6,6,0,0,1,2.8,0s2.34.38,2.37,1.27c0,.25-1.51.3-1.7.31a6.49,6.49,0,0,0-4.94,2.08c-.37.48-.87,1.32-1.32.34A.92.92,0,0,1,318.23,102Z"/><path class="cls-7" d="M328.71,113.29a6,6,0,1,1-6-6A6,6,0,0,1,328.71,113.29Z"/><circle class="cls-8" cx="322.72" cy="114.2" r="5.99"/><path class="cls-4" d="M318.23,113.05a2,2,0,0,1,0-.26,5.11,5.11,0,0,1,.4-1.07,4,4,0,0,1,2.43-2.17,6,6,0,0,1,2.8,0s2.34.38,2.37,1.27c0,.25-1.51.3-1.7.31a6.53,6.53,0,0,0-4.94,2.08c-.37.48-.87,1.32-1.32.34A.92.92,0,0,1,318.23,113.05Z"/><path class="cls-9" d="M122.72,164.72l93.7-83.41,77.66,54.2s-46.32,62-91,68.47Z"/><path class="cls-10" d="M104.45,62.81s19.47,14.93,34.4,13.31c0,0,38.94-4.54,71.73,12.33,0,0,25,7.14,38,20.45L282.94,131s10.39,6.5,10.71,17.86c0,0,3.58,19.14-10.06,22.71,0,0-5.84,5.84-17.2-17.85l-27.91-18.17s-5.84,1,7.14,8.76l18.5,13.31s14.93,14.93,7.79,22.39c0,0-9.09,13-17.53,7.14l-27.58-23s-7.3-4.87-2.6,1.62l27.1,21.91s4.38,6.16-1.13,11.35c0,0-6,13.15-22.88,1.46l-19-14.76s-6.65-4.06-1.3,1.95l17.85,13.79s7.47,8.11-1.62,14.28c0,0-8.5,9.25-24-3.41,0,0-26-15.2-30.34-15.41,0,0-47.59-21.64-55.82-27.27s-29.85-16.75-38.5-28.71L23.89,112,67,68.84a32.39,32.39,0,0,1,37.3-6.08Z"/><path class="cls-11" d="M144.81,83.1s62.71,6.43,80.39,16.08-1.6,28.94-6.43,27.33c0,0,3.22,17.69-12.86,22.52,0,0,4.82,20.9-12.87,25.72,0,0,0,17.69-12.86,19.3s-74-49.85-75.57-51.46S148,97.57,144.81,83.1Z"/><path class="cls-12" d="M156,99.09S176.92,103,187.7,86.5C187.7,86.5,181.73,109.37,156,99.09Z"/><path class="cls-13" d="M186.14,86.5s14.83-7.82,39.54,7.63c0,0-28.64-10.25-38.67-6.19Z"/><path class="cls-14" d="M291.48,140.49s-7.64-11.28-24.07-19.49l-18.19-11.67s-15.45-15.09-35.89-20c0,0-12.33-5.74-25.63-2.82,0,0-6.17,11.53-16.07,13.15,0,0-20.28,3.77-14.6-7.3,1.38-2.71,5.4-5.41,10.16-17.74,0,0,2.59-13,17.31-10.6L207,62.49s7.58-3.46,18.18,3.25l34.62,7.57s6.91,3,10.81-2.17l35.7-33,43.81,54.2"/><path class="cls-14" d="M167.08,206.91s-.23-8.57,8.81-7.37l19.67,10.59S168.71,213.72,167.08,206.91Z"/><path class="cls-15" d="M117.09,166.2s6.6-5.31,8.47,4.38c0,0,4.2,5.74,4,7.76l-6.24-.54Z"/><path class="cls-16" d="M139.86,171.89s5-1.37,6.47,3.75c0,0,2.61,3.51,2.2,5.69l-.74,5.73-2.86-1.34Z"/><path class="cls-17" d="M151.36,181.26a11.7,11.7,0,0,1,13.39,4.28L169.66,197l-5.48-2.26Z"/><path class="cls-18" d="M167.08,194.63s24,11,29.06,15.08l1.08,1.36s-27.07-14.94-29.65-15Z"/><path class="cls-14" d="M152.64,200.25s-9.41-13.15-3.73-16.55c0,0,12-6.81,17,8.28,0,0,6.82,13-3.25,14A11.8,11.8,0,0,1,152.64,200.25Z"/><path class="cls-14" d="M112.89,176.89s-1.46-8.31,5.35-8.7c0,0,10.71,4.64,10.71,12.43,0,0,3.93,9.09-8.09,5.68C120.86,186.3,114.51,183.05,112.89,176.89Z"/><path class="cls-14" d="M131,188.5c-1.32-3.12.27-11.31,4.91-12.75,0,0,10.75-1.49,11.16,6.41,0,0-2.53,5.09,2.7,14.82.76,1.41-9,7.9-16-2.93C133.78,194.05,131.64,189.94,131,188.5Z"/><path class="cls-19" d="M154.86,98.84c.9-4.28,5.63-11.25,8.92-13.63,0,0,6-4.11,7.52,2.16,0,0-1.85,10.56-7.52,13.39C163.78,100.76,154,102.79,154.86,98.84Z"/><path class="cls-20" d="M115.34,175.38c-.49-1.78,0-3.31.14-6.23.29-5.39,9.1-5,8.48,1.66-.12,1.29.21,4.57,0,5.73C123.55,179.1,117.26,182.42,115.34,175.38Z"/><path class="cls-21" d="M133.45,183.36a36.68,36.68,0,0,1,1.83-8.42c.86-2.43,7.83-6.58,9.65,2.69,0,0-1,6.46-1.46,8.1C142.58,188.73,133.19,188.37,133.45,183.36Z"/><path class="cls-22" d="M148.16,182.17s-.87,8.51,1.83,11.43c0,0,3.84,4.47,6.74.45,0,0,1.32-1.32,0-9.64C156.73,184.41,152.68,179.23,148.16,182.17Z"/><path class="cls-23" d="M167.08,206.91s.87,2.27,6.17.86c0,0,8.22,1.95,7.47,3.3C180.72,211.07,167.08,212.21,167.08,206.91Z"/><path class="cls-24" d="M155.49,96.81,166,99.14l-2.19,1.62s-7.87,1.95-9-1.14A5.53,5.53,0,0,1,155.49,96.81Z"/><path class="cls-4" d="M154.81,99.62s5.62-10.75,8.25-12.49c.31-.21,3.77-3,1.28,1.3l-8,12.55S154.81,100.38,154.81,99.62Z"/><path class="cls-24" d="M115.5,169s3.45-2.1,8.48,1.62a4.68,4.68,0,0,0-2.29-4.59,4.54,4.54,0,0,0-5.2.67A5.18,5.18,0,0,0,115.5,169Z"/><path class="cls-24" d="M135.05,175.64s5.75-1.5,9.81,2.46c0,0-.13-3.34-2.05-5.11,0,0-2.3-2.48-5.86,0A4.26,4.26,0,0,0,135.05,175.64Z"/><path class="cls-24" d="M148,184.93a12,12,0,0,1,9,1.87l-.33-2.39s-3.43-4.4-7.77-2.69c0,0-1,.34-.94,1Z"/><path class="cls-24" d="M167.1,207.15s1.27,1.89,6.15.62l1.69.44s-3.88,2.93-7.08.61A2.48,2.48,0,0,1,167.1,207.15Z"/><path class="cls-4" d="M116.49,166.66a4.73,4.73,0,0,1,2.3-1.16l-.53,9.49s-1.46,2.74-2-.62Z"/><path class="cls-4" d="M136.44,173.36a5.4,5.4,0,0,1,3-1.47L138,182.17s-2.56,4.6-2.9-.39Z"/><path class="cls-4" d="M148.54,181.94s.71-.76,2.82-.68l.32,10.15s-1.1,3.14-2.38-1.24A77,77,0,0,1,148.54,181.94Z"/><path class="cls-25" d="M249.22,109.33s16.21,7.33,27.89,2.79c0,0-5.95,5.42-23.5,0Z"/><path class="cls-26" d="M186.89,87.72l0-.09,1.71-6.94s.64,4.08-1,7S186.89,87.72,186.89,87.72Z"/><circle class="cls-27" cx="296.31" cy="49.41" r="5.99"/><path class="cls-4" d="M291.83,48.27a2.51,2.51,0,0,1,0-.27,5.87,5.87,0,0,1,.39-1.06,4.08,4.08,0,0,1,2.44-2.18,6,6,0,0,1,2.79,0s2.35.38,2.38,1.27c0,.25-1.51.3-1.7.31a6.49,6.49,0,0,0-4.94,2.08c-.37.48-.88,1.32-1.33.34A1,1,0,0,1,291.83,48.27Z"/><path class="cls-28" d="M303.81,59.44a6,6,0,1,1-6-6A6,6,0,0,1,303.81,59.44Z"/><path class="cls-4" d="M293.34,58.3a1.26,1.26,0,0,1,0-.27,4.5,4.5,0,0,1,.39-1.06,4.05,4.05,0,0,1,2.44-2.18,5.85,5.85,0,0,1,2.79,0s2.35.38,2.37,1.26c0,.26-1.5.31-1.7.32a6.51,6.51,0,0,0-4.94,2.08c-.37.48-.87,1.32-1.32.33A.87.87,0,0,1,293.34,58.3Z"/><circle class="cls-29" cx="300.25" cy="70.15" r="5.99"/><path class="cls-4" d="M295.76,69a2.34,2.34,0,0,1,0-.26,5.11,5.11,0,0,1,.4-1.07,4,4,0,0,1,2.43-2.17,5.89,5.89,0,0,1,2.8,0s2.34.38,2.37,1.26c0,.26-1.51.31-1.7.32a6.49,6.49,0,0,0-4.94,2.08c-.37.48-.87,1.31-1.32.33A.9.9,0,0,1,295.76,69Z"/><path class="cls-30" d="M308.84,81.16a6,6,0,1,1-6-6A6,6,0,0,1,308.84,81.16Z"/><path class="cls-4" d="M298.36,80a1.09,1.09,0,0,1,0-.26,4.58,4.58,0,0,1,.39-1.07,4,4,0,0,1,2.44-2.17,6,6,0,0,1,2.79,0s2.35.38,2.38,1.27c0,.25-1.51.31-1.7.31a6.53,6.53,0,0,0-4.95,2.08c-.36.48-.87,1.32-1.32.34A.91.91,0,0,1,298.36,80Z"/><path class="cls-31" d="M311.39,90.29a6,6,0,1,1-6-6A6,6,0,0,1,311.39,90.29Z"/><path class="cls-4" d="M300.91,89.14a2.51,2.51,0,0,1,0-.27,5.24,5.24,0,0,1,.4-1.06,4,4,0,0,1,2.43-2.17,5.85,5.85,0,0,1,2.79,0s2.35.37,2.38,1.26c0,.25-1.51.3-1.7.31a6.49,6.49,0,0,0-4.94,2.08c-.37.48-.87,1.32-1.33.34A1,1,0,0,1,300.91,89.14Z"/><path class="cls-32" d="M313.83,101a6,6,0,1,1-6-6A6,6,0,0,1,313.83,101Z"/><path class="cls-4" d="M303.35,99.89a2,2,0,0,1,0-.26,5.11,5.11,0,0,1,.4-1.07,4,4,0,0,1,2.43-2.17,5.89,5.89,0,0,1,2.8,0s2.34.37,2.37,1.26c0,.25-1.51.31-1.7.31a6.53,6.53,0,0,0-4.94,2.08c-.37.48-.88,1.32-1.33.34A1,1,0,0,1,303.35,99.89Z"/><path class="cls-33" d="M315.8,111.49a6,6,0,1,1-6-6A6,6,0,0,1,315.8,111.49Z"/><path class="cls-4" d="M305.33,110.34a.75.75,0,0,1,0-.26,4.58,4.58,0,0,1,.39-1.07,4,4,0,0,1,2.44-2.17,6,6,0,0,1,2.79,0s2.34.38,2.37,1.27c0,.25-1.51.31-1.7.31a6.51,6.51,0,0,0-4.94,2.08c-.37.48-.87,1.32-1.32.34A.91.91,0,0,1,305.33,110.34Z"/><path class="cls-34" d="M326.74,123.47a6,6,0,1,1-6-6A6,6,0,0,1,326.74,123.47Z"/><path class="cls-4" d="M316.26,122.33a2.51,2.51,0,0,1,0-.27,5,5,0,0,1,.4-1.06,4.06,4.06,0,0,1,2.43-2.18,6,6,0,0,1,2.8,0s2.34.38,2.37,1.26c0,.26-1.51.31-1.7.32a6.49,6.49,0,0,0-4.94,2.08c-.37.48-.88,1.32-1.33.34A1,1,0,0,1,316.26,122.33Z"/><circle class="cls-35" cx="313.83" cy="119.73" r="5.99"/><path class="cls-4" d="M309.35,118.59a1.26,1.26,0,0,1,0-.27,4.67,4.67,0,0,1,.39-1.06,4,4,0,0,1,2.44-2.17,6,6,0,0,1,2.79,0s2.34.38,2.37,1.27c0,.25-1.51.3-1.7.31a6.51,6.51,0,0,0-4.94,2.08c-.37.48-.87,1.32-1.32.34A.91.91,0,0,1,309.35,118.59Z"/><polygon class="cls-36" points="153.73 126 145.16 134.58 176.33 134.58 184.89 126 153.73 126"/><rect class="cls-36" x="155.55" y="136.41" width="20.78" height="8.57"/><polygon class="cls-36" points="186.72 124.18 186.72 113.78 176.32 113.8 165.95 124.18 186.72 124.18"/><polygon class="cls-36" points="165.94 146.81 165.94 155.34 174.48 146.81 165.94 146.81"/><circle class="cls-37" cx="38.84" cy="211.64" r="37.84"/><path class="cls-38" d="M102.59,38.52c3.2,3.68,8.39,5,13.26,5.06,4.06.08,8.92-1.13,10.24-5,2.08-6.09,7.2-10.71,12.78-13.9s11.75-5.23,17.59-7.93c3.33-1.54,6.93-3.8,7.47-7.43.42-2.87-1.38-5.73-3.84-7.27A16.25,16.25,0,0,0,151.74,0c-3.12-.08-6.41.27-9,2a29.77,29.77,0,0,0-4.5,4.41,25.79,25.79,0,0,1-17.14,7.74c-7.14.33-16.07-.8-20.4,6.66C97.78,25.85,98.84,34.21,102.59,38.52Z"/><path class="cls-39" d="M120.21,256.29a15.35,15.35,0,0,0,9.47,1.37c3.17-.7,6.09-3.08,6.78-6.25.86-4-1.81-7.83-4.49-10.91A4.71,4.71,0,0,0,130.1,239c-1.47-.53-3.06.48-4.09,1.66s-1.81,2.63-3.14,3.46c-2.71,1.7-6.3.16-9.41.88C110,245.78,119.28,255.87,120.21,256.29Z"/><circle class="cls-40" cx="352.82" cy="148.91" r="11.71"/></g></g></g></svg>