<svg xmlns="http://www.w3.org/2000/svg" xmlns:xlink="http://www.w3.org/1999/xlink" viewBox="0 0 347.66 277.43"><defs><style>.cls-1{fill:url(#linear-gradient);}.cls-2{fill:none;stroke:#fff;stroke-miterlimit:10;stroke-width:2.66px;}.cls-3{fill:#dde6fa;}.cls-4{fill:#32baaa;}.cls-5{fill:url(#linear-gradient-2);}.cls-6{fill:#ecfdf6;}.cls-7{fill:#f7f7f7;}.cls-8{fill:url(#linear-gradient-3);}.cls-9{fill:#64edb2;}.cls-10{fill:url(#linear-gradient-4);}.cls-11{fill:#10c680;}</style><linearGradient id="linear-gradient" y1="155.46" x2="340.74" y2="155.46" gradientUnits="userSpaceOnUse"><stop offset="0" stop-color="#9cb7f0"/><stop offset="0.03" stop-color="#9fb9f1"/><stop offset="0.26" stop-color="#bacdf5"/><stop offset="0.5" stop-color="#cedbf8"/><stop offset="0.75" stop-color="#d9e3f9"/><stop offset="1" stop-color="#dde6fa"/></linearGradient><linearGradient id="linear-gradient-2" x1="118.59" y1="65.35" x2="257.43" y2="65.35" gradientUnits="userSpaceOnUse"><stop offset="0" stop-color="#4e54c8"/><stop offset="1" stop-color="#8f94fb"/></linearGradient><linearGradient id="linear-gradient-3" x1="33.89" y1="213.9" x2="225.5" y2="213.9" xlink:href="#linear-gradient-2"/><linearGradient id="linear-gradient-4" x1="191.83" y1="208.17" x2="274.44" y2="208.17" gradientUnits="userSpaceOnUse"><stop offset="0" stop-color="#366fe0"/><stop offset="1" stop-color="#94cbff"/></linearGradient></defs><title>Asset 12</title><g id="Layer_2" data-name="Layer 2"><g id="Layer_1-2" data-name="Layer 1"><path class="cls-1" d="M125.89,37.71c54.57-20.62,15.89,41.74,78,25,280.6-46,62.83,175.39-61.43,211-80,20.5-25.6-50-64.25-57.78C-85.3,250.07,46,54.94,125.89,37.71Z"/><circle class="cls-2" cx="66.43" cy="82.26" r="33.85"/><path class="cls-3" d="M49.77,12.5c-.4,4.34,2,8.48,4.94,11.69,2.47,2.67,6.26,5.06,9.56,3.52,5.22-2.42,11.37-2,16.89-.35s10.66,4.35,16,6.45c3,1.19,6.74,2.12,9.41.22,2.12-1.51,2.85-4.44,2.33-7a14.67,14.67,0,0,0-3.85-6.67c-1.88-2.07-4.15-4-6.88-4.57a27.19,27.19,0,0,0-5.64-.18A23.07,23.07,0,0,1,76.94,9.37C72.31,5,67.51-1.51,60,.32,55,1.54,50.23,7.4,49.77,12.5Z"/><path class="cls-4" d="M52,253.83a13.73,13.73,0,0,0,8.48,1.23,7.84,7.84,0,0,0,6.06-5.59c.77-3.57-1.62-7-4-9.76a4.24,4.24,0,0,0-1.68-1.36c-1.32-.47-2.74.43-3.66,1.49a14.12,14.12,0,0,1-2.81,3.1c-2.42,1.52-5.63.14-8.42.78C42.93,244.43,51.2,253.46,52,253.83Z"/><rect class="cls-5" x="118.59" y="39.51" width="138.85" height="51.68"/><path class="cls-6" d="M133.37,66.05a3.35,3.35,0,0,1-2.32-.61,3.43,3.43,0,0,1-.71-2.33V58.73a24.85,24.85,0,0,1,.88-6.36A23.69,23.69,0,0,1,133.51,47l3.6,1.09a36.69,36.69,0,0,0-.71,4.14,41.54,41.54,0,0,0-.21,4.41c1.6,0,2.42.87,2.47,2.6l-.07,3.83a3.23,3.23,0,0,1-.78,2.33,3.51,3.51,0,0,1-2.32.61Zm12.33,0a3.33,3.33,0,0,1-2.32-.61,3.43,3.43,0,0,1-.71-2.33V58.73a24.85,24.85,0,0,1,.88-6.36A23.24,23.24,0,0,1,145.84,47l3.6,1.09a36.69,36.69,0,0,0-.71,4.14,41.54,41.54,0,0,0-.21,4.41c1.6,0,2.42.87,2.47,2.6l-.07,3.83a3.23,3.23,0,0,1-.78,2.33,3.54,3.54,0,0,1-2.33.61Z"/><rect class="cls-7" x="161.01" y="51.08" width="84.85" height="1.54"/><rect class="cls-7" x="161.01" y="59.56" width="84.85" height="1.54"/><rect class="cls-7" x="161.01" y="68.05" width="84.85" height="1.54"/><rect class="cls-7" x="161.01" y="76.53" width="42.43" height="1.54"/><rect class="cls-6" x="33.89" y="86.9" width="191.61" height="136.37"/><rect class="cls-8" x="33.89" y="204.54" width="191.61" height="18.72"/><rect class="cls-7" x="42.99" y="212.03" width="172.12" height="4.37"/><rect class="cls-9" x="42.99" y="212.03" width="115.73" height="4.37"/><circle class="cls-3" cx="129.7" cy="152.74" r="31.21"/><rect class="cls-6" x="185.93" y="158.28" width="94.42" height="100.85"/><rect class="cls-10" x="191.83" y="166.86" width="82.61" height="82.61"/><circle class="cls-7" cx="254.16" cy="44.02" r="14.65" transform="translate(105.49 254.82) rotate(-64.63)"/><path class="cls-11" d="M266.6,43.71a12.44,12.44,0,1,1-12.75-12.13A12.44,12.44,0,0,1,266.6,43.71Z"/><path class="cls-7" d="M258.1,48A4.05,4.05,0,0,1,257,51.24a3.35,3.35,0,0,1-1.77.91l0,1.12-2,0,0-1.17A3.48,3.48,0,0,1,251,50.51a5.9,5.9,0,0,1-.81-2.65l2.29-.22a3.35,3.35,0,0,0,.78,2,1.2,1.2,0,0,0,1,.42,1.49,1.49,0,0,0,1.24-.8,2,2,0,0,0,.21-1.06,3,3,0,0,0-.94-2l-2.2-2a8.86,8.86,0,0,1-1.65-1.89A4.73,4.73,0,0,1,250.2,40a4.46,4.46,0,0,1,.53-2.26,3.25,3.25,0,0,1,2.08-1.66l0-1,2-.05,0,1a3.4,3.4,0,0,1,1.63.78,4,4,0,0,1,1.31,2.7l-2.3.47a3,3,0,0,0-.6-1.52,1.14,1.14,0,0,0-.95-.36,1.11,1.11,0,0,0-1,.61,2.27,2.27,0,0,0-.25,1.18,3.55,3.55,0,0,0,1,2.21,8.11,8.11,0,0,0,1.08,1,13.6,13.6,0,0,1,1.14.95,8.21,8.21,0,0,1,1.4,1.72A5,5,0,0,1,258.1,48Z"/><circle class="cls-7" cx="276.38" cy="164.12" r="14.65" transform="translate(9.67 343.54) rotate(-64.63)"/><path class="cls-11" d="M288.81,163.81a12.44,12.44,0,1,1-12.75-12.12A12.43,12.43,0,0,1,288.81,163.81Z"/><path class="cls-7" d="M280.31,168.12a4.07,4.07,0,0,1-1.07,3.23,3.58,3.58,0,0,1-1.77.91l0,1.11-2,.06,0-1.17a3.47,3.47,0,0,1-2.25-1.65,6,6,0,0,1-.82-2.65l2.3-.22a3.42,3.42,0,0,0,.77,2,1.28,1.28,0,0,0,1,.42,1.48,1.48,0,0,0,1.24-.81,1.88,1.88,0,0,0,.22-1.06,3,3,0,0,0-.94-1.95l-2.2-2a8.84,8.84,0,0,1-1.65-1.9,4.7,4.7,0,0,1-.68-2.36,4.46,4.46,0,0,1,.52-2.26A3.22,3.22,0,0,1,275,156.2l0-1,2,0,0,1a3.33,3.33,0,0,1,1.62.78,4,4,0,0,1,1.32,2.7l-2.31.48a2.92,2.92,0,0,0-.59-1.53,1.23,1.23,0,0,0-1.94.25,2.17,2.17,0,0,0-.25,1.18,3.51,3.51,0,0,0,1,2.21,9.63,9.63,0,0,0,1.08,1c.57.44.95.76,1.15.95a9.21,9.21,0,0,1,1.4,1.72A4.89,4.89,0,0,1,280.31,168.12Z"/><circle class="cls-7" cx="34.09" cy="91.23" r="14.65" transform="translate(-62.95 82.95) rotate(-64.63)"/><path class="cls-11" d="M46.53,90.92A12.44,12.44,0,1,1,33.78,78.79,12.45,12.45,0,0,1,46.53,90.92Z"/><path class="cls-7" d="M38,95.22A4.06,4.06,0,0,1,37,98.45a3.42,3.42,0,0,1-1.77.91l0,1.12-2,0,0-1.17a3.49,3.49,0,0,1-2.25-1.64,6.07,6.07,0,0,1-.82-2.65l2.3-.23a3.45,3.45,0,0,0,.77,2,1.22,1.22,0,0,0,1,.42,1.52,1.52,0,0,0,1.24-.8,2,2,0,0,0,.21-1.07,3,3,0,0,0-.94-1.94c-.49-.44-1.23-1.09-2.2-2a8.86,8.86,0,0,1-1.65-1.89,4.73,4.73,0,0,1-.68-2.36A4.44,4.44,0,0,1,30.66,85a3.22,3.22,0,0,1,2.08-1.66l0-1,2,0,0,1a3.4,3.4,0,0,1,1.62.77,4,4,0,0,1,1.32,2.7l-2.3.48a3,3,0,0,0-.6-1.52,1.14,1.14,0,0,0-1-.36,1.09,1.09,0,0,0-1,.61,2.27,2.27,0,0,0-.25,1.18,3.57,3.57,0,0,0,1,2.21,8.87,8.87,0,0,0,1.08,1,13.6,13.6,0,0,1,1.14,1A8,8,0,0,1,37.24,93,4.86,4.86,0,0,1,38,95.22Z"/><path class="cls-6" d="M202.1,119.61a86.34,86.34,0,0,1,2.51,16.22,142.92,142.92,0,0,1,106,20c9.14,6,17.56,13,26,20-1-.83,8.09-20.93,8.9-23.2,2-5.76,4-9.61-1.08-13.85-5.33-4.42-16.42-6.37-23-8.59-7.63-2.6-15.33-5-23.12-7C267,114.86,233.8,111.6,202.1,119.61Z"/><path class="cls-9" d="M292.2,202a11.07,11.07,0,0,1,2.08-2.59,12,12,0,0,1,6.23-2.51c1.85-.28,4-.22,5.23,1.22,1.34,1.61.72,4.1-.47,5.83s-2.88,3.11-3.78,5c-1.25,2.64-.75,5.72-.67,8.64.1,3.34-.69,7.16-3.57,8.86a7.47,7.47,0,0,1-2.56.87C283.79,229.13,289.18,207,292.2,202Z"/><polygon class="cls-3" points="191.83 228.24 224.89 199.95 239.91 214.96 265.5 189.36 275.11 198.97 275.11 250.48 191.83 250.48 191.83 228.24"/><polygon class="cls-7" points="119.08 147.7 112.81 153.98 135.63 153.97 141.9 147.7 119.08 147.7"/><rect class="cls-7" x="120.42" y="155.31" width="15.21" height="6.28"/><polygon class="cls-7" points="143.24 146.36 143.24 138.75 135.63 138.76 128.03 146.36 143.24 146.36"/><polygon class="cls-7" points="128.03 162.93 128.03 169.18 134.28 162.93 128.03 162.93"/></g></g></svg>