<svg xmlns="http://www.w3.org/2000/svg" xmlns:xlink="http://www.w3.org/1999/xlink" viewBox="0 0 358.9 264.68"><defs><style>.cls-1{fill:url(#linear-gradient);}.cls-2{fill:none;stroke:#fff;stroke-miterlimit:10;stroke-width:2.75px;}.cls-15,.cls-3{fill:#dde6fa;}.cls-4{fill:#32baaa;}.cls-5{fill:#64edb2;}.cls-6{fill:url(#linear-gradient-2);}.cls-7,.cls-9{fill:#ecfdf6;}.cls-15,.cls-16,.cls-7,.cls-8{fill-rule:evenodd;}.cls-8{fill:#10c680;}.cls-10{fill:url(#linear-gradient-3);}.cls-11{fill:url(#linear-gradient-4);}.cls-12,.cls-16{fill:#fff;}.cls-12{opacity:0.19;}.cls-13{fill:url(#linear-gradient-5);}.cls-14{fill:url(#linear-gradient-6);}</style><linearGradient id="linear-gradient" x1="8.92" y1="132.34" x2="302.76" y2="132.34" gradientUnits="userSpaceOnUse"><stop offset="0" stop-color="#9cb7f0"/><stop offset="0.03" stop-color="#9fb9f1"/><stop offset="0.26" stop-color="#bacdf5"/><stop offset="0.5" stop-color="#cedbf8"/><stop offset="0.75" stop-color="#d9e3f9"/><stop offset="1" stop-color="#dde6fa"/></linearGradient><linearGradient id="linear-gradient-2" x1="190.59" y1="115.89" x2="358.9" y2="115.89" gradientUnits="userSpaceOnUse"><stop offset="0" stop-color="#366fe0"/><stop offset="1" stop-color="#94cbff"/></linearGradient><linearGradient id="linear-gradient-3" x1="0.51" y1="199.74" x2="92.96" y2="199.74" gradientUnits="userSpaceOnUse"><stop offset="0" stop-color="#4e54c8"/><stop offset="1" stop-color="#8f94fb"/></linearGradient><linearGradient id="linear-gradient-4" x1="59.79" y1="102.18" x2="184.52" y2="102.18" xlink:href="#linear-gradient-3"/><linearGradient id="linear-gradient-5" x1="132.83" y1="134.16" x2="132.83" y2="91.42" gradientTransform="translate(49.43 -40.21) rotate(21.07)" gradientUnits="userSpaceOnUse"><stop offset="0" stop-color="#8f94fb"/><stop offset="1" stop-color="#4e54c8"/></linearGradient><linearGradient id="linear-gradient-6" x1="132.83" y1="124.23" x2="132.83" y2="101.35" gradientUnits="userSpaceOnUse"><stop offset="0" stop-color="#366fe0"/><stop offset="0.2" stop-color="#2c5ecb"/><stop offset="0.52" stop-color="#1e48af"/><stop offset="0.79" stop-color="#153a9d"/><stop offset="1" stop-color="#123597"/></linearGradient></defs><title>Asset 8</title><g id="Layer_2" data-name="Layer 2"><g id="Layer_1-2" data-name="Layer 1"><path class="cls-1" d="M121.78,9.05C111,18.16,109.3,19.81,111.6,37.38c26.51,70.15-64.8,26.06-89.76,69.85-55,99.79,80.68,76.6,127.41,133.5a81.31,81.31,0,0,0,8.15,8.6c12.58-19.93,23.45-49.41,9-81.53l17.72-3.59S219,204.65,194.68,264.68c17.23.12,33.93-8.06,46.77-20.06,33.35-31.14,4-56.28,27.57-72.12C376.42,100.45,200-36.4,121.78,9.05Z"/><circle class="cls-2" cx="65.21" cy="36.88" r="35.06"/><path class="cls-3" d="M257.73,20.63c-1.9,3.49-1.39,7.82-.07,11.56,1.1,3.13,3.41,6.49,6.72,6.4,5.25-.15,10.24,2.44,14.27,5.79s7.35,7.48,11.09,11.17c2.12,2.1,4.88,4.2,7.8,3.57a6.29,6.29,0,0,0,4.46-5,13.36,13.36,0,0,0-.82-7,12.48,12.48,0,0,0-4.11-6.3,24.17,24.17,0,0,0-4.66-2.18A21,21,0,0,1,281.6,27.8c-2.29-5.36-4-12.51-10.91-13.68C266,13.33,260,16.53,257.73,20.63Z"/><path class="cls-4" d="M1,62.67a14.25,14.25,0,0,0-.5,8.86,8.1,8.1,0,0,0,6.32,5.74c3.75.47,7.08-2.3,9.7-5a4.35,4.35,0,0,0,1.25-1.85c.36-1.4-.69-2.79-1.87-3.64s-2.57-1.46-3.45-2.62c-1.78-2.36-.65-5.8-1.57-8.61C9.87,52.43,1.31,61.79,1,62.67Z"/><path class="cls-5" d="M86,231.09A11.46,11.46,0,0,1,89,232.88a12.42,12.42,0,0,1,3.43,6.05c.54,1.87.78,4.11-.54,5.54-1.47,1.59-4.11,1.29-6,.31s-3.59-2.53-5.65-3.2c-2.88-.92-6,0-9,.49-3.41.56-7.44.28-9.58-2.45a7.8,7.8,0,0,1-1.24-2.52C57.07,226.16,80.55,228.67,86,231.09Z"/><rect class="cls-6" x="190.59" y="77.02" width="168.31" height="77.74"/><path class="cls-7" d="M229.68,134.65a17.47,17.47,0,1,1,17.47-17.46A17.5,17.5,0,0,1,229.68,134.65Z"/><path class="cls-8" d="M229.68,105.05a6.79,6.79,0,0,1,4.81,11.59h0a6.77,6.77,0,0,1-9.54,0l-.06,0a6.79,6.79,0,0,1,4.8-11.59Zm9.43,24.3v-.62A9.42,9.42,0,0,0,223,122.07l-.05.06a9.38,9.38,0,0,0-2.72,6.6v.63h0a15.38,15.38,0,0,0,18.86,0Z"/><rect class="cls-9" x="257.56" y="100.9" width="85.9" height="3.85" rx="1.22"/><rect class="cls-9" x="257.56" y="113.64" width="39.42" height="3.85" rx="1.22"/><rect class="cls-9" x="305.66" y="113.64" width="13.49" height="3.85" rx="1.22"/><rect class="cls-9" x="279.73" y="126.98" width="17.48" height="3.85" rx="1.22"/><rect class="cls-9" x="257.56" y="126.98" width="13.49" height="3.85" rx="1.22"/><path class="cls-10" d="M4,242.49H4A11.87,11.87,0,0,1,4,225.7l72.18-72.19L93,170.3,20.78,242.49A11.88,11.88,0,0,1,4,242.49Z"/><path class="cls-9" d="M132.83,39.62A73.17,73.17,0,1,0,206,112.79,73.17,73.17,0,0,0,132.83,39.62Zm0,129.62a56.46,56.46,0,1,1,56.45-56.45A56.45,56.45,0,0,1,132.83,169.24Z"/><path class="cls-11" d="M92.91,152.71a56.46,56.46,0,1,1,79.84-79.84c3.93-3.94,8-7.79,11.77-11.87-10.31-9.2-21.31-16.07-34.92-19.26a76.65,76.65,0,0,0-39.34,1.44,74.52,74.52,0,0,0-47.94,50c-6.71,24.13.19,51.86,17.5,70,.42.44.84.87,1.27,1.3Z"/><circle class="cls-12" cx="132.83" cy="112.79" r="56.45" transform="translate(-40.85 126.96) rotate(-45)"/><path class="cls-9" d="M180,112.79s-21.14,21.37-47.21,21.37-47.22-21.37-47.22-21.37,21.14-21.37,47.22-21.37S180,112.79,180,112.79Z"/><circle class="cls-13" cx="132.83" cy="112.79" r="21.37" transform="translate(-31.67 55.3) rotate(-21.07)"/><circle class="cls-14" cx="132.83" cy="112.79" r="11.44"/><path class="cls-15" d="M210.41,36.62A13.58,13.58,0,1,1,224,23,13.61,13.61,0,0,1,210.41,36.62Z"/><path class="cls-16" d="M210.41,13.6a5.28,5.28,0,0,1,3.73,9h0a5.28,5.28,0,0,1-7.43,0l0,0a5.28,5.28,0,0,1,0-7.47,5.3,5.3,0,0,1,3.74-1.54Zm7.33,18.9V32a7.33,7.33,0,0,0-12.52-5.18l0,0A7.33,7.33,0,0,0,203.07,32v.48h0a12,12,0,0,0,14.67,0Z"/><path class="cls-15" d="M123.67,247.07a18.71,18.71,0,1,1,18.7-18.71A18.75,18.75,0,0,1,123.67,247.07Z"/><path class="cls-16" d="M123.67,215.36a7.28,7.28,0,0,1,5.14,12.42h0a7.27,7.27,0,0,1-10.23.05l-.06-.05a7.28,7.28,0,0,1,5.15-12.42Zm10.1,26v-.66a10.1,10.1,0,0,0-17.24-7.14l0,.06a10.07,10.07,0,0,0-2.91,7.08v.67h0a16.47,16.47,0,0,0,20.2,0Z"/><polygon class="cls-9" points="62.01 54.71 62.01 46.24 69.78 46.93 62.01 54.71"/><polygon class="cls-9" points="69.78 46.95 54.22 46.95 54.22 37.95 69.79 39.16 69.78 46.95"/><polygon class="cls-9" points="77.57 31.37 60.1 33.28 69.78 23.6 77.57 23.58 77.57 31.37"/><polygon class="cls-9" points="69.79 39.16 46.45 39.16 54.23 31.37 77.56 31.37 69.79 39.16"/></g></g></svg>