<svg xmlns="http://www.w3.org/2000/svg" xmlns:xlink="http://www.w3.org/1999/xlink" viewBox="0 0 475.05 430.01" height="952" width="970"><defs><style>.cls-1{isolation:isolate;}.cls-2{fill:url(#linear-gradient);}.cls-3{fill:#fff;}.cls-19,.cls-21,.cls-4,.cls-42,.cls-48{fill:none;stroke-miterlimit:10;}.cls-4,.cls-42{stroke:#fff;}.cls-4{stroke-width:2.24px;}.cls-5{fill:url(#linear-gradient-2);}.cls-6{fill:url(#linear-gradient-3);}.cls-7{fill:url(#linear-gradient-4);}.cls-8{fill:url(#linear-gradient-5);}.cls-9{fill:url(#linear-gradient-6);}.cls-10{fill:url(#linear-gradient-7);}.cls-11{fill:#f0beb4;}.cls-12{fill:#1b4736;}.cls-13{fill:url(#linear-gradient-8);}.cls-14{fill:#b3b3b3;mix-blend-mode:multiply;}.cls-15{fill:url(#linear-gradient-9);}.cls-16{fill:url(#linear-gradient-10);}.cls-17{fill:url(#linear-gradient-11);}.cls-18{fill:url(#linear-gradient-12);}.cls-19,.cls-21{stroke:#64edff;}.cls-20{fill:url(#linear-gradient-13);}.cls-21{stroke-linecap:round;}.cls-22{fill:url(#linear-gradient-14);}.cls-23{fill:url(#linear-gradient-15);}.cls-24{fill:url(#linear-gradient-16);}.cls-25{fill:url(#linear-gradient-17);}.cls-26{fill:url(#linear-gradient-18);}.cls-27{fill:url(#linear-gradient-19);}.cls-28{fill:url(#linear-gradient-20);}.cls-29{fill:url(#linear-gradient-21);}.cls-30{fill:url(#linear-gradient-22);}.cls-31{fill:url(#linear-gradient-23);}.cls-32{fill:url(#linear-gradient-24);}.cls-33{fill:url(#linear-gradient-25);}.cls-34{fill:url(#linear-gradient-26);}.cls-35,.cls-56{fill:#e6e6e6;}.cls-36{fill:url(#linear-gradient-27);}.cls-37{fill:url(#linear-gradient-28);}.cls-38{fill:url(#linear-gradient-29);}.cls-39{fill:url(#linear-gradient-30);}.cls-40{fill:url(#linear-gradient-31);}.cls-41{fill:url(#linear-gradient-32);}.cls-43{fill:url(#linear-gradient-33);}.cls-44{fill:url(#linear-gradient-34);}.cls-45{fill:url(#linear-gradient-35);}.cls-46{fill:url(#linear-gradient-36);}.cls-47{fill:url(#linear-gradient-37);}.cls-48{stroke:#64edb2;stroke-width:2px;}.cls-49{fill:url(#linear-gradient-38);}.cls-50{fill:url(#linear-gradient-39);}.cls-51{fill:url(#linear-gradient-40);}.cls-52{fill:url(#linear-gradient-41);}.cls-53{fill:url(#linear-gradient-42);}.cls-54{fill:url(#linear-gradient-43);}.cls-55{fill:#32baaa;}.cls-56{font-size:24.63px;font-family:Muli-Bold, Muli;font-weight:700;}.cls-57{letter-spacing:-0.01em;}.cls-58{letter-spacing:-0.01em;}.cls-59{letter-spacing:0em;}.cls-60{fill:url(#linear-gradient-44);}.cls-61{fill:url(#linear-gradient-45);}.cls-62{fill:url(#linear-gradient-46);}.cls-63{fill:url(#linear-gradient-47);}.cls-64{fill:url(#linear-gradient-48);}.cls-65{fill:#dde6fa;}.cls-66{fill:url(#linear-gradient-49);}.cls-67{fill:url(#linear-gradient-50);}.cls-68{fill:url(#linear-gradient-51);}.cls-69{fill:url(#linear-gradient-52);}</style><linearGradient id="linear-gradient" x1="236.91" y1="394.76" x2="236.91" y2="25.13" gradientUnits="userSpaceOnUse"><stop offset="0" stop-color="#779dea"/><stop offset="0.12" stop-color="#8babed"/><stop offset="0.38" stop-color="#afc5f3"/><stop offset="0.61" stop-color="#c8d7f7"/><stop offset="0.83" stop-color="#d8e2f9"/><stop offset="1" stop-color="#dde6fa"/></linearGradient><linearGradient id="linear-gradient-2" x1="138.92" y1="128.45" x2="279.04" y2="128.45" gradientUnits="userSpaceOnUse"><stop offset="0" stop-color="#366fe0"/><stop offset="0.25" stop-color="#366fe0"/><stop offset="0.45" stop-color="#2f63d1"/><stop offset="0.84" stop-color="#1b43a9"/><stop offset="1" stop-color="#123597"/></linearGradient><linearGradient id="linear-gradient-3" x1="131.62" y1="30.9" x2="199.18" y2="30.9" gradientUnits="userSpaceOnUse"><stop offset="0" stop-color="#2a5bc7"/><stop offset="0.13" stop-color="#2452bc"/><stop offset="0.42" stop-color="#1a42a7"/><stop offset="0.71" stop-color="#14389b"/><stop offset="1" stop-color="#123597"/></linearGradient><linearGradient id="linear-gradient-4" x1="134.33" y1="29.1" x2="144.61" y2="29.1" gradientUnits="userSpaceOnUse"><stop offset="0" stop-color="#366fe0"/><stop offset="0.7" stop-color="#94cbff"/><stop offset="1" stop-color="#94cbff"/></linearGradient><linearGradient id="linear-gradient-5" x1="141.46" y1="19.82" x2="168.22" y2="19.82" xlink:href="#linear-gradient-4"/><linearGradient id="linear-gradient-6" x1="158.84" y1="17.15" x2="177.08" y2="17.15" xlink:href="#linear-gradient-4"/><linearGradient id="linear-gradient-7" x1="183.13" y1="22.92" x2="189.74" y2="22.92" xlink:href="#linear-gradient-4"/><linearGradient id="linear-gradient-8" x1="156.96" y1="46.42" x2="163.6" y2="46.42" gradientUnits="userSpaceOnUse"><stop offset="0" stop-color="#fc4c5c"/><stop offset="0.68" stop-color="#fb9f02"/><stop offset="1" stop-color="#fb9f02"/></linearGradient><linearGradient id="linear-gradient-9" x1="268.96" y1="367.77" x2="294.38" y2="367.77" gradientUnits="userSpaceOnUse"><stop offset="0" stop-color="#123597"/><stop offset="0.16" stop-color="#1b43a9"/><stop offset="0.55" stop-color="#2f63d1"/><stop offset="0.75" stop-color="#366fe0"/><stop offset="1" stop-color="#366fe0"/></linearGradient><linearGradient id="linear-gradient-10" x1="275.86" y1="384.96" x2="275.86" y2="327.23" gradientUnits="userSpaceOnUse"><stop offset="0" stop-color="#fb9f02"/><stop offset="0.32" stop-color="#fb9f02"/><stop offset="1" stop-color="#fc4c5c"/></linearGradient><linearGradient id="linear-gradient-11" x1="215.86" y1="330.41" x2="259.64" y2="330.41" gradientUnits="userSpaceOnUse"><stop offset="0" stop-color="#4e54c8"/><stop offset="0.28" stop-color="#5c62d3"/><stop offset="0.81" stop-color="#8085ef"/><stop offset="1" stop-color="#8f94fb"/></linearGradient><linearGradient id="linear-gradient-12" x1="217.22" y1="340.09" x2="217.22" y2="202.76" gradientUnits="userSpaceOnUse"><stop offset="0" stop-color="#4e54c8"/><stop offset="0.22" stop-color="#555acd"/><stop offset="0.53" stop-color="#676ddc"/><stop offset="0.9" stop-color="#858af3"/><stop offset="1" stop-color="#8f94fb"/></linearGradient><linearGradient id="linear-gradient-13" x1="226.3" y1="335.3" x2="280.38" y2="335.3" xlink:href="#linear-gradient-2"/><linearGradient id="linear-gradient-14" x1="144.9" y1="184.53" x2="144.9" y2="118.53" xlink:href="#linear-gradient-12"/><linearGradient id="linear-gradient-15" x1="264.3" y1="140.87" x2="264.3" y2="75.21" xlink:href="#linear-gradient-12"/><linearGradient id="linear-gradient-16" x1="209.1" y1="207.13" x2="209.1" y2="77.41" xlink:href="#linear-gradient-12"/><linearGradient id="linear-gradient-17" x1="111.53" y1="184.43" x2="111.53" y2="116.99" xlink:href="#linear-gradient-12"/><linearGradient id="linear-gradient-18" x1="81.62" y1="120.15" x2="121.66" y2="120.15" gradientUnits="userSpaceOnUse"><stop offset="0" stop-color="#dde6fa"/><stop offset="0.17" stop-color="#d8e2f9"/><stop offset="0.39" stop-color="#c8d7f7"/><stop offset="0.62" stop-color="#afc5f3"/><stop offset="0.88" stop-color="#8babed"/><stop offset="1" stop-color="#779dea"/></linearGradient><linearGradient id="linear-gradient-19" x1="101.55" y1="89.01" x2="101.55" y2="56.82" xlink:href="#linear-gradient-9"/><linearGradient id="linear-gradient-20" x1="12.83" y1="74.6" x2="102.86" y2="74.6" gradientUnits="userSpaceOnUse"><stop offset="0" stop-color="#366fe0"/><stop offset="0.48" stop-color="#366fe0"/><stop offset="0.62" stop-color="#2f63d1"/><stop offset="0.89" stop-color="#1b43a9"/><stop offset="1" stop-color="#123597"/></linearGradient><linearGradient id="linear-gradient-21" x1="13.25" y1="87.82" x2="102.86" y2="87.82" xlink:href="#linear-gradient-2"/><linearGradient id="linear-gradient-22" x1="74.16" y1="73.54" x2="105.15" y2="73.54" gradientUnits="userSpaceOnUse"><stop offset="0" stop-color="#dde6fa"/><stop offset="0.42" stop-color="#dbe5fa"/><stop offset="0.58" stop-color="#d4e0f9"/><stop offset="0.71" stop-color="#c8d7f7"/><stop offset="0.81" stop-color="#b6caf4"/><stop offset="0.89" stop-color="#a0baf0"/><stop offset="0.97" stop-color="#84a7ec"/><stop offset="1" stop-color="#779dea"/></linearGradient><linearGradient id="linear-gradient-23" x1="0.99" y1="72.92" x2="27.21" y2="72.92" xlink:href="#linear-gradient"/><linearGradient id="linear-gradient-24" x1="14.95" y1="110.15" x2="14.95" y2="38.02" xlink:href="#linear-gradient-9"/><linearGradient id="linear-gradient-25" x1="19.04" y1="84.49" x2="19.04" y2="62.67" xlink:href="#linear-gradient-9"/><linearGradient id="linear-gradient-26" x1="19.06" y1="84.64" x2="19.06" y2="73.19" xlink:href="#linear-gradient-9"/><linearGradient id="linear-gradient-27" x1="11.36" y1="81.49" x2="11.36" y2="66.06" xlink:href="#linear-gradient-9"/><linearGradient id="linear-gradient-28" x1="77.28" y1="104.24" x2="92.01" y2="104.24" gradientUnits="userSpaceOnUse"><stop offset="0" stop-color="#05aa63"/><stop offset="0.09" stop-color="#06965f"/><stop offset="0.23" stop-color="#07795a"/><stop offset="0.39" stop-color="#096356"/><stop offset="0.56" stop-color="#095253"/><stop offset="0.75" stop-color="#0a4952"/><stop offset="1" stop-color="#0a4651"/></linearGradient><linearGradient id="linear-gradient-29" x1="86.67" y1="121.49" x2="86.67" y2="85.89" xlink:href="#linear-gradient-9"/><linearGradient id="linear-gradient-30" x1="88.14" y1="117.94" x2="88.14" y2="90.7" xlink:href="#linear-gradient-9"/><linearGradient id="linear-gradient-31" x1="74.98" y1="83.26" x2="105.12" y2="83.26" xlink:href="#linear-gradient-18"/><linearGradient id="linear-gradient-32" x1="99.51" y1="179.11" x2="124.7" y2="179.11" gradientUnits="userSpaceOnUse"><stop offset="0" stop-color="#dde6fa"/><stop offset="0.2" stop-color="#d9e3f9"/><stop offset="0.4" stop-color="#cedbf8"/><stop offset="0.59" stop-color="#bacdf5"/><stop offset="0.79" stop-color="#9fbaf0"/><stop offset="0.97" stop-color="#7ca1eb"/><stop offset="1" stop-color="#779dea"/></linearGradient><linearGradient id="linear-gradient-33" x1="310.8" y1="396.56" x2="356.17" y2="396.56" xlink:href="#linear-gradient-9"/><linearGradient id="linear-gradient-34" x1="330.27" y1="428.09" x2="330.27" y2="353.01" xlink:href="#linear-gradient-10"/><linearGradient id="linear-gradient-35" x1="280.4" y1="376.59" x2="280.4" y2="192.24" gradientUnits="userSpaceOnUse"><stop offset="0" stop-color="#4e54c8"/><stop offset="1" stop-color="#8f94fb"/></linearGradient><linearGradient id="linear-gradient-36" x1="274.96" y1="345.83" x2="338.07" y2="345.83" xlink:href="#linear-gradient-2"/><linearGradient id="linear-gradient-37" x1="162.12" y1="86.35" x2="195.67" y2="86.35" xlink:href="#linear-gradient-2"/><linearGradient id="linear-gradient-38" x1="189.74" y1="197.49" x2="278.58" y2="197.49" xlink:href="#linear-gradient-4"/><linearGradient id="linear-gradient-39" x1="80.19" y1="114.03" x2="91.72" y2="114.03" xlink:href="#linear-gradient-18"/><linearGradient id="linear-gradient-40" x1="76.09" y1="109.4" x2="88.6" y2="109.4" xlink:href="#linear-gradient-18"/><linearGradient id="linear-gradient-41" x1="72.97" y1="102.24" x2="88.69" y2="102.24" xlink:href="#linear-gradient-18"/><linearGradient id="linear-gradient-42" x1="73.9" y1="94.87" x2="89.68" y2="94.87" xlink:href="#linear-gradient-18"/><linearGradient id="linear-gradient-43" x1="95.82" y1="106.86" x2="111.1" y2="106.86" xlink:href="#linear-gradient-18"/><linearGradient id="linear-gradient-44" x1="290.71" y1="142.5" x2="335.12" y2="142.5" xlink:href="#linear-gradient-18"/><linearGradient id="linear-gradient-45" x1="270.23" y1="92.84" x2="288.91" y2="92.84" xlink:href="#linear-gradient-32"/><linearGradient id="linear-gradient-46" x1="252.5" y1="319.79" x2="273.3" y2="319.79" xlink:href="#linear-gradient-32"/><linearGradient id="linear-gradient-47" x1="189.77" y1="325.34" x2="212.21" y2="325.34" xlink:href="#linear-gradient-32"/><linearGradient id="linear-gradient-48" x1="356.37" y1="233.73" x2="373.98" y2="233.73" gradientUnits="userSpaceOnUse"><stop offset="0" stop-color="#9cb7f0"/><stop offset="0.03" stop-color="#9fb9f1"/><stop offset="0.26" stop-color="#bacdf5"/><stop offset="0.5" stop-color="#cedbf8"/><stop offset="0.75" stop-color="#d9e3f9"/><stop offset="1" stop-color="#dde6fa"/></linearGradient><linearGradient id="linear-gradient-49" x1="28.4" y1="203.76" x2="72.16" y2="203.76" gradientUnits="userSpaceOnUse"><stop offset="0" stop-color="#64edb2"/><stop offset="0.25" stop-color="#99f3cc"/><stop offset="0.49" stop-color="#c5f8e2"/><stop offset="0.7" stop-color="#e5fcf2"/><stop offset="0.88" stop-color="#f8fefc"/><stop offset="1" stop-color="#fff"/></linearGradient><linearGradient id="linear-gradient-50" x1="307.99" y1="28.24" x2="358.9" y2="28.24" xlink:href="#linear-gradient-48"/><linearGradient id="linear-gradient-51" x1="274.09" y1="327.44" x2="304.85" y2="327.44" xlink:href="#linear-gradient-8"/><linearGradient id="linear-gradient-52" x1="225.39" y1="330.15" x2="239.71" y2="330.15" xlink:href="#linear-gradient-8"/></defs><title>Asset 10</title><g class="cls-1"><g id="Layer_2" data-name="Layer 2"><g id="Layer_1-2" data-name="Layer 1"><path class="cls-2" d="M312.24,65a56,56,0,0,0,48,34.21c32.77,2.17,73.29,12.29,72.48,49.18C431.34,210.14,319.23,425.75,168.08,391S87.39,241.67,105.45,216.6,2.32,172,54.07,114.55C101,62.55,273.88-27.27,312.24,65Z"/><path class="cls-3" d="M207,214s-88.21,88.89-174.67,28.22L46.25,320s69.42,14.8,141.56-61Z"/><circle class="cls-4" cx="118.05" cy="372.56" r="26.63"/><path class="cls-5" d="M188.61,200.72s73-2.43,85.66-8.26c3.15-1.45,4.63-7.05,4.76-15.12.42-24.43-11.43-71.53-26.51-94.89-20.08-31.07-29-25.35-29-25.35s-13.08-6.32-46.35,14.39l-33.45,21a10.21,10.21,0,0,0-3.67,13.3Z"/><path class="cls-6" d="M194.58,51.42c-14.32-.05-16.68-16.79-43.56-7.68a15.51,15.51,0,0,1-7.68.13c-1.68,0-10.88-3.24-4.58-6.43-2-2.26-9.49-5.13-6.4-10.32h0c1.55-1.83,4.88-2.42,8.21-2.37-8.26-7.8,1.56-7.2,9.21-9.95,2.28-4.29,8.42-2.77,14.16-2.66,5.48-4.46,11.75,0,16.1,6.39.47-12.65,9.7.85,12.74,8.17,2.45,1.3,3.75,3,5.12,6.9C197.87,35.68,202.4,52.47,194.58,51.42Z"/><path class="cls-7" d="M144.6,27.92a.51.51,0,0,0-.22-.3.43.43,0,0,0-.37-.06,6.32,6.32,0,0,0-1.19.31,11.21,11.21,0,0,0-1.28.55c-.39.19-.76.4-1.14.62a8,8,0,0,1-1.05.54,2,2,0,0,1-.42.11,2.1,2.1,0,0,1-.43,0,2.25,2.25,0,0,1-.42-.13l-.73-.39a4.3,4.3,0,0,0-1-.4,2.79,2.79,0,0,0-1.15,0,2.15,2.15,0,0,0-.56.24.48.48,0,1,0,.45.85l.22-.11.3-.07a2.57,2.57,0,0,1,.48,0,3.82,3.82,0,0,1,.74.26l0,0,.53.29a3.17,3.17,0,0,0,.73.32,3.11,3.11,0,0,0,.6.09H139a2.24,2.24,0,0,0,.44-.07,3.17,3.17,0,0,0,.4-.14,6.65,6.65,0,0,0,.66-.32c.42-.23.82-.48,1.24-.69a10.55,10.55,0,0,1,1.28-.59,6.8,6.8,0,0,1,1.25-.34A.49.49,0,0,0,144.6,27.92Z"/><path class="cls-8" d="M168,20.13l-.29-.15-.28-.14-.12-.05c-.2-.09-.41-.18-.63-.26a7.93,7.93,0,0,0-1.47-.38,8.62,8.62,0,0,0-1.53-.1,9.42,9.42,0,0,1-1.3-.05,3.54,3.54,0,0,1-.58-.17l-.62-.26-.69-.25A9.86,9.86,0,0,0,159,18a6.27,6.27,0,0,0-1.5,0,9.41,9.41,0,0,0-1.58.23,10,10,0,0,0-1.52.5,10.87,10.87,0,0,0-1.35.6,25,25,0,0,1-2.5,1.33,3.64,3.64,0,0,1-.72.19,4.25,4.25,0,0,1-.87-.06,8.48,8.48,0,0,1-1.67-.58,9.22,9.22,0,0,0-1.27-.48,7.35,7.35,0,0,0-.84-.2,3,3,0,0,0-.74-.06,5.44,5.44,0,0,0-.81.11,4,4,0,0,0-.79.3,5.2,5.2,0,0,0-.7.45l-.31.23-.08.07a.5.5,0,0,0-.23.53.47.47,0,0,0,.46.37h.12a.72.72,0,0,0,.35-.22l.3-.23h0a4.49,4.49,0,0,1,.83-.46,4.18,4.18,0,0,1,.72-.15h.36l.39.05a10.8,10.8,0,0,1,1.08.29c.34.12.66.27,1,.42a11.83,11.83,0,0,0,1.13.42,5.54,5.54,0,0,0,1.15.2,5.42,5.42,0,0,0,2.94-1c.42-.24.83-.49,1.26-.71s.87-.4,1.32-.58.77-.26,1.16-.36a8,8,0,0,1,1.19-.2,6,6,0,0,1,.85,0,6.84,6.84,0,0,1,.9.08l.61.13a9.19,9.19,0,0,1,1.37.46l.6.24a3.29,3.29,0,0,0,.7.19,8.44,8.44,0,0,0,1.42.06,8.71,8.71,0,0,1,1.44.09,6.83,6.83,0,0,1,1,.25c.3.1.6.22.89.35l.07,0h0l.13.07.26.14a.49.49,0,1,0,.52-.82Z"/><path class="cls-9" d="M176.24,20.55a12.84,12.84,0,0,0-1.67-1.79c-.19-.15-.38-.3-.58-.44s-.43-.26-.65-.38a7.4,7.4,0,0,0-1.41-.42c-.49-.09-1-.17-1.49-.28a3.11,3.11,0,0,1-.78-.26l-.63-.33c-.43-.24-.85-.5-1.28-.75s-.9-.5-1.36-.73c-.22-.1-.43-.19-.66-.27a6,6,0,0,0-.73-.17,14.87,14.87,0,0,0-1.48-.16,9.89,9.89,0,0,0-1.44,0c-.23,0-.47.07-.7.12s-.5.13-.74.21l-.71.26c-.16.05-.33.11-.5.15a.5.5,0,0,1-.58-.36.5.5,0,0,1,.36-.59,3.94,3.94,0,0,0,.49-.14l.64-.23c.23-.08.46-.16.7-.22s.49-.1.74-.13a11.5,11.5,0,0,1,3.1.08,6.05,6.05,0,0,1,1.52.38c.48.2.93.45,1.38.69s.8.45,1.19.69.74.43,1.13.62a6.28,6.28,0,0,0,1.42.35,12.75,12.75,0,0,1,1.49.32,5.18,5.18,0,0,1,1.43.67,9.27,9.27,0,0,1,1.24,1A13.14,13.14,0,0,1,177,19.89a.56.56,0,0,1,.13.35.5.5,0,0,1-.16.34.57.57,0,0,1-.36.13A.45.45,0,0,1,176.24,20.55Z"/><path class="cls-10" d="M189.62,26.61c-.56-.63-1.13-1.24-1.72-1.84a17,17,0,0,1-1.58-1.71,6,6,0,0,1-.33-.54,5.69,5.69,0,0,1-.26-.56c-.12-.33-.22-.67-.31-1a8.49,8.49,0,0,0-.35-1.08,2.92,2.92,0,0,0-.55-.91,1.57,1.57,0,0,0-.46-.39l-.23-.1-.2,0a.44.44,0,0,0-.34.13.47.47,0,0,0-.16.33.49.49,0,0,0,.13.35.46.46,0,0,0,.27.15l-.06,0,.1,0,.11.07a2.62,2.62,0,0,1,.22.25,2.93,2.93,0,0,1,.31.58c.13.36.23.74.33,1.11a9.34,9.34,0,0,0,.5,1.37,8.9,8.9,0,0,0,1.82,2.32c.7.7,1.39,1.41,2,2.16a.41.41,0,0,0,.33.15.47.47,0,0,0,.35-.13A.49.49,0,0,0,189.62,26.61Z"/><path class="cls-11" d="M205.2,47a5.16,5.16,0,0,1-.23,1.47,3.1,3.1,0,0,1-.24.61,6.12,6.12,0,0,1-.38.77,9.77,9.77,0,0,1-2.94,3.34c-.23.15-7.29,4.5-7.57,4.51-.77,2.55-3.09,6-5.69,12-.27.59-.69,1.56-1.13,2.51a.79.79,0,0,0,0,.09c-.24.51-.47,1-.65,1.48a4.59,4.59,0,0,0-.51,2.15,10.37,10.37,0,0,0,.63,2.18c.19.49.64,1.54.85,2,.36.8.68,1.52,1,2.24.23.46.47.92.71,1.37a.51.51,0,0,1,.16.7A15.53,15.53,0,0,1,183.54,90a22,22,0,0,1-2.62,1.47c-4.21,2.06-9.93,2.23-10.69,2.24a.42.42,0,0,1-.4-.06.45.45,0,0,1-.2-.21c-.57,0-.29-.59-2.45-4.33l-.12-.21c-.07-.13-.43-.73-.5-.85l-.12-.21c-.27-.44-.53-.89-.78-1.33s-.17-.3-.29-.53l0-.06c-.75-1.34-1-1.66-1.56-2.58l-.14-.2-.09-.14-.67-1a.72.72,0,0,0-.28-.38,1.85,1.85,0,0,0-.54-.17,2.15,2.15,0,0,0-.56-.12,2.55,2.55,0,0,1-.43-.09c-.28-.08-.3,0-.55-.12a3.24,3.24,0,0,0-.64-.11,5,5,0,0,1-.67-.14c-.41-.09-.79-.14-1-.19a6.77,6.77,0,0,1-1.31-.39c-.54-.22-.44-.14-1-.33a8.9,8.9,0,0,1-1.35-.47,16.59,16.59,0,0,1-2.34-1.09,6.3,6.3,0,0,1-1.92-1.55c-1.21-1.49-1.39-.94-2.53-3a26.74,26.74,0,0,1-3-8.38c-.77-3.37-1.05-5.43-1.3-7.11-.07-.46,0-.31-.09-.63l0-.24,0-.28-.1-.64c-.14-1-.26-2-.35-3-.18-2-.24-3.9-.29-6l0-.69v-.12c0-.78,0-1.47,0-2.13,0-.86,0-1.77,0-2.43v-.57c0-.4,0-.81,0-1.22v-.13c0-.66,0-1.32,0-2a.63.63,0,0,1,0-.19.64.64,0,0,1,0-.24l0-.07a4,4,0,0,1,.2-.61c.19-.48.44-1,.63-1.35l0-.1A26.17,26.17,0,0,1,145,33c.26-.39.56-.84.88-1.26.17-.24.34-.47.52-.69l.23-.3.13-.15,0,0,0-.07a.43.43,0,0,1,.09-.1l0-.06.55-.62c.33-.37.7-.74,1.11-1.13a14,14,0,0,1,1.22-1,13.35,13.35,0,0,1,1.51-1,20.19,20.19,0,0,1,2.9-1.4,21.84,21.84,0,0,1,3.14-1c1.08-.27,2.21-.45,3.08-.58s2.08-.28,3.22-.36,2.11-.14,3-.16,1.71,0,2.53,0c1.25,0,2.55.16,3.86.33.93.12,1.93.31,3,.57a18.68,18.68,0,0,1,2.88.87,7.6,7.6,0,0,1,.71.31l.16.06.06,0a.61.61,0,0,1,.14.07l.12.05.38.18.71.35c1.11.55,1.93,1,2.67,1.47s1.59,1,2.44,1.69a15.55,15.55,0,0,1,2.3,2.15c.31.36.61.73.91,1.11s.68.91,1,1.4a17.24,17.24,0,0,1,1.4,2.72,30.6,30.6,0,0,1,1.74,5.6c.15.72.26,1.44.35,2.17,0,.2.05.4.08.6l0,.13,0,0,.08-.06.58-.37.31-.21a13.56,13.56,0,0,1,2.53-1.34,8.88,8.88,0,0,1,1.39-.45,4.1,4.1,0,0,1,.61-.11,6.75,6.75,0,0,1,.75,0,5.34,5.34,0,0,1,1.55.28,5.54,5.54,0,0,1,1.33.68,2.64,2.64,0,0,1,.48.39,4.9,4.9,0,0,1,.39.46l0,.05h0l.09.13a2.9,2.9,0,0,1,.29.51,5.38,5.38,0,0,1,.28.7A5.44,5.44,0,0,1,205.2,47Z"/><path class="cls-12" d="M149,50.49a1.29,1.29,0,0,1-.45-.29,1.76,1.76,0,0,1-.24-.3,1.53,1.53,0,0,1-.21-.6,1.87,1.87,0,0,1,0-.88,1.47,1.47,0,0,1,1-1,1,1,0,0,1,.4-.15,1.31,1.31,0,0,1,.52,0,1.51,1.51,0,0,1,.33.13,1.27,1.27,0,0,1,.34.27,1.59,1.59,0,0,1,.41,1.18,1.43,1.43,0,0,1-.12.58,1.66,1.66,0,0,1-.26.47,1.78,1.78,0,0,1-.52.46,1.5,1.5,0,0,1-.83.22A1,1,0,0,1,149,50.49Z"/><path class="cls-12" d="M177.26,47.11a1.27,1.27,0,0,1-.28-.23l-.14-.08a1.46,1.46,0,0,1-.47-.52,1.62,1.62,0,0,1-.15-.42,1.46,1.46,0,0,1,0-.9,1.86,1.86,0,0,1,.46-.68,1.73,1.73,0,0,1,.73-.36,1.64,1.64,0,0,1,1.6.51,1.67,1.67,0,0,1,.43,1.08,2,2,0,0,1-.05.6,1.38,1.38,0,0,1-.34.57,1.75,1.75,0,0,1-.2.19,2.35,2.35,0,0,1-.32.23,1.47,1.47,0,0,1-.71.18h-.06A1.23,1.23,0,0,1,177.26,47.11Z"/><path class="cls-12" d="M154.91,36.41v0a.74.74,0,0,0-.35-.46,1.91,1.91,0,0,0-.52-.3,3.13,3.13,0,0,0-.52-.16,7.66,7.66,0,0,0-1.17-.16c-.36,0-.72-.06-1.07-.07a9.36,9.36,0,0,0-1.3.08,5.53,5.53,0,0,0-1.06.21,7.65,7.65,0,0,0-1.12.44A11.66,11.66,0,0,0,145.91,37a3.41,3.41,0,0,0-1,1.08,3.14,3.14,0,0,0-.23.53.85.85,0,0,0,0,.17,2.56,2.56,0,0,0-.05.27,1.51,1.51,0,0,0,0,.3,1,1,0,0,0,.24.5.82.82,0,0,0,.36.24.68.68,0,0,0,.29.06h.08a2.76,2.76,0,0,0,.64-.1l.44-.14c.35-.12.7-.25,1-.4l.88-.37,0,0,1.34-.5,1-.35a8.8,8.8,0,0,1,1.46-.31c.37-.06.75-.09,1.13-.15.56-.08,1.21-.27,1.39-.88A.9.9,0,0,0,154.91,36.41Z"/><path class="cls-12" d="M182.18,34.72a3.92,3.92,0,0,0-.62-.45,6.91,6.91,0,0,0-.78-.36l-.15-.06-.09-.07-.48-.24A10.88,10.88,0,0,0,178.2,33a6.1,6.1,0,0,0-1-.17c-.3,0-.6-.05-.9-.05a16.07,16.07,0,0,0-2.07.18c-.49.07-1,.19-1.48.25a.74.74,0,0,0-.62.35,3.13,3.13,0,0,0-.42.29l-.23.21a2.73,2.73,0,0,0-.37.47,1.27,1.27,0,0,0-.18.57,1.11,1.11,0,0,0,.12.53,1.41,1.41,0,0,0,.58.53,2.07,2.07,0,0,0,.34.15,4.34,4.34,0,0,0,.52.09l.69.06h.25c.52,0,1,0,1.57-.08l1.8-.12h1.34c.69,0,1.38.11,2.07.17l.87.06h.49a2.09,2.09,0,0,0,.35,0,1,1,0,0,0,.56-.38A1,1,0,0,0,182.18,34.72Z"/><path class="cls-13" d="M163,52.51a9.6,9.6,0,0,1-1-.27,12.66,12.66,0,0,1-1.31-.45,9.72,9.72,0,0,1-1.22-.68,10.56,10.56,0,0,1-1.17-1,5.73,5.73,0,0,1-1-1,2.08,2.08,0,0,1-.25-.52,1,1,0,0,1,0-.42c0-.08,0-.15,0-.23a1.63,1.63,0,0,1,.11-.23,2.91,2.91,0,0,1,.17-.3c.22-.34.44-.68.68-1s.64-.85.93-1.3a15.61,15.61,0,0,0,.79-1.45c.11-.23.21-.46.3-.7s.19-.55.28-.82l.24-.78c.05-.14.09-.27.13-.41l.07-.21a.49.49,0,0,1,.5-.43.48.48,0,0,1,.46.5,1.82,1.82,0,0,1-.13.51l-.21.67c-.15.46-.29.93-.46,1.38a13.19,13.19,0,0,1-.7,1.47,10.44,10.44,0,0,1-.74,1.2c-.3.43-.62.85-.92,1.28-.13.2-.26.39-.38.59a2.61,2.61,0,0,0-.17.28l0,.08h0a.29.29,0,0,0,0,.09,1.3,1.3,0,0,0,.14.26,5.64,5.64,0,0,0,.63.66l.73.64a8.33,8.33,0,0,0,.78.54,7,7,0,0,0,.66.37,9.58,9.58,0,0,0,1.27.45,8.25,8.25,0,0,0,1.11.3.49.49,0,0,1,.28.23.5.5,0,0,1,0,.38.49.49,0,0,1-.23.28.52.52,0,0,1-.24.05Z"/><path class="cls-12" d="M157.82,58.47s10.12.43,14.21-5.95c0,0,.36,8.82-6.71,9.41C161.8,62.23,157.82,58.47,157.82,58.47Z"/><path class="cls-14" d="M200.09,45.65a18,18,0,0,1-2.61,4.67,5.57,5.57,0,0,0,1.5-.47l3.36-1.43c-1.24,1.21-4,3.11-5.79,3-.11-.89,1.22-2.11,1.72-2.81A13.53,13.53,0,0,0,200.09,45.65Z"/><path class="cls-14" d="M180.61,76.45a25,25,0,0,1-7.55,9.74,18.28,18.28,0,0,1-5.88,2.87l-.12-.21c-.07-.13-.43-.73-.5-.85l-.12-.21c-.27-.44-.53-.89-.78-1.33s-.17-.3-.29-.53l0-.06c-.75-1.34-1-1.66-1.56-2.58l-.14-.2-.09-.14-.67-1a.72.72,0,0,0-.28-.38,31.3,31.3,0,0,0,5.72-.36,33.63,33.63,0,0,0,6.31-2A36.21,36.21,0,0,0,180.61,76.45Z"/><path class="cls-15" d="M269,382.58s3.55,6.81,10,4.72,12.62-9.22,15.45-28.69l-7.49-10.77Z"/><path class="cls-16" d="M288.42,365.22c-2.48,23.42-15.78,21.13-19.45,17.37-1.26-1.29-2.38-5.7-3.31-10.92-.24-1.35-.47-2.75-.68-4.16-.16-1.09-.32-2.19-.47-3.28-.19-1.41-.36-2.8-.52-4.14-.74-6.23-1.16-11.28-1.16-11.28,1.1-23.14,20.08-21.55,20.08-21.55S290.9,341.81,288.42,365.22Z"/><polygon class="cls-17" points="229.67 312.73 259.64 332.95 249.22 348.08 215.86 340.18 229.67 312.73"/><path class="cls-18" d="M211.44,338.87c-1.38-.6-2.69-1.22-3.91-1.85a36.25,36.25,0,0,1-3.76-2.21c-8.53-5.81-12.33-12.26-14-16.84a23.31,23.31,0,0,1-1.17-4.36,14.85,14.85,0,0,1-.18-1.78c-1.06-5.1-1.89-10.14-2.52-15.1-6.56-51.46,8.33-94,8.33-94l56,.93s-.56,19.15-1,40.47-19.53,68.57-19.53,68.57S229.86,346.86,211.44,338.87Z"/><path class="cls-19" d="M235.56,258.48l-14.54,52s2.92,1.36,2.25,2.74,9,7.34,20.09,10.76"/><path class="cls-20" d="M276.27,328.88c1.25,1.14,5.64,9.45,3.55,15.61-3.75,11-10.22,10.22-11.5,11.62S231.66,348.3,229,347a4.89,4.89,0,0,1-2.19-6.61c1.13-2.22,13.38-6.44,8.67-15.92s4.62-10.16,4.62-10.16S275,327.74,276.27,328.88Z"/><polyline class="cls-21" points="247.58 317.86 248.91 327.24 276.87 337.02"/><path class="cls-22" d="M141.6,118.53s-28.53,20.6-29.85,52.36c0,0,.69,14,10,13.63,37.91-1.37,56.36-25.38,56.36-25.38Z"/><path class="cls-23" d="M281.26,94.92a1.1,1.1,0,0,0-.74.12q-1-.83-2.19-1.59c-39.56-26-70.13-16.58-70.13-16.58l29.1,47.28c14.19,1.58,25,1.21,32.88-.43,10.86,7.28,30.67,19.5,37.52,16.75,0,0,9-16.25,12.7-18.69C320.4,121.78,303.78,101.54,281.26,94.92Z"/><path class="cls-19" d="M232.25,87.68s17.47-3.46,43.54,12.09l38.91,20.08"/><path class="cls-24" d="M279.26,195.88C238,211.76,221,204.17,194.11,207.13c-.52.05-.61-.83-.87-1.23h0c-4.65-6.87-3.58-11-2.8-12.62a4.44,4.44,0,0,1,.46-.75v0c-5.86-4.21-6.5-11.15-10.35-14.36-22.74-19-41.6-56.62-41.6-56.62l23.42-26.12,42.18-17.73c32.42-4.14,47.08,41.81,47.08,41.81,12.48,14.7,20.85,45.2,24.86,62.9l0,.08c.91,4,1.6,7.37,2.06,9.72v.05C279,194.55,279.26,195.88,279.26,195.88Z"/><path class="cls-25" d="M110.12,117s7.53,22.65,22.74,32.7c0,0,5.43,15.86-12.51,31.77s-36.66-36.14-29.26-62.94Z"/><path class="cls-26" d="M111.1,119.62l10.56,17s.14,6.65-16.87,9.69c-11.65,2.09-15.1-2-15.1-2s-1.62-18,.17-24L81.62,117l4.31-23.06,12.4-.49,4.93,10.22Z"/><path class="cls-27" d="M108.9,72.44c.57,8.88-2.25,16.3-6.31,16.56s-7.82-6.73-8.4-15.61,2.26-16.3,6.32-16.56S108.32,63.56,108.9,72.44Z"/><path class="cls-28" d="M13.89,106.49c0,1.28.79,1.91,1.7,1.44C42.36,94.41,71.37,89.06,101.2,89.2c.93,0,1.67-.47,1.66-1.07-.17-10-1-19.54-1.12-29.54,0-.6-.15-1.5-1.07-1.46-29.82,1.13-59-3.25-86.18-15.87-.94-.45-1.68.22-1.66,1.5Q13.37,74.62,13.89,106.49Z"/><path class="cls-29" d="M13.89,106.49Q13.58,87,13.25,67.56C41.31,84,82.81,80.74,102.32,73.88c.23,4.71.46,9.43.54,14.25,0,.6-.73,1.08-1.66,1.07-29.83-.14-58.84,5.21-85.61,18.73C14.68,108.4,13.92,107.77,13.89,106.49Z"/><path class="cls-30" d="M75,90.54C88,89.3,96.65,89.29,102.69,89.08c3.81-11.33,3-21.11-1.22-32.31-7.56.25-17.86.37-27.31-.22C77.85,64.53,79,82.32,75,90.54Z"/><path class="cls-3" d="M18.52,113.16a7.56,7.56,0,0,1-2.2.36c-3.43.06-8.3-2.09-12.09-12.66C1.68,93.75.18,84.33,0,74.33S1,54.87,3.34,47.68,8.84,36.22,12.8,35a7.9,7.9,0,0,1,2.2-.35c3.43-.06,8.3,2.09,12.09,12.66,2.55,7.11,4.05,16.53,4.21,26.52s-1,19.46-3.33,26.66S22.48,111.93,18.52,113.16Z"/><path class="cls-31" d="M14.72,110.17c-2.76,0-6.74-1.94-10-11.64C2.5,91.74,1.17,82.72,1,73.13s.87-18.64,2.9-25.51c2.9-9.79,6.81-11.91,9.57-11.95s6.74,1.93,10,11.63C25.7,54.1,27,63.12,27.2,72.7s-.88,18.64-2.91,25.51C21.39,108,17.49,110.12,14.72,110.17Z"/><path class="cls-32" d="M27.22,73.88c.33,19.92-4.9,36.16-11.67,36.27S3,94.21,2.69,74.29,7.58,38.13,14.35,38,26.88,54,27.22,73.88Z"/><path class="cls-33" d="M26.43,62.67a108.28,108.28,0,0,1-14.88,2.82.74.74,0,0,0-.72.65q0,7.85.08,15.45a.68.68,0,0,0,.7.59,106.71,106.71,0,0,1,15.27,2.31c.25-2.92.38-6,.37-9.15A99.07,99.07,0,0,0,26.43,62.67Z"/><path class="cls-34" d="M10.87,73.88q0,3.89,0,7.71a.68.68,0,0,0,.7.59A105.8,105.8,0,0,1,27,84.64c.23-5,.3-7.6.22-11.45C20.83,73.44,15.67,73.55,10.87,73.88Z"/><ellipse class="cls-35" cx="11.79" cy="74" rx="2.93" ry="8.82" transform="translate(-0.08 0.01) rotate(-0.06)"/><path class="cls-36" d="M9.52,73.78c0,4.26.83,7.72,1.84,7.71s1.83-3.45,1.83-7.71-.83-7.72-1.84-7.72S9.52,69.52,9.52,73.78Z"/><path class="cls-37" d="M89.66,87.34c3.12,8.72,4.22,31.4-3.71,33.48-10,2.6-9.85-1.62-7-4s4.46-19.78,0-27.86C80.27,85.45,89.66,87.34,89.66,87.34Z"/><path class="cls-38" d="M92.11,86.11c3.12,8.73,3.53,31.72-4.26,34.27-10.14,3.32-9.85-1.62-7-4s5.38-19.1.83-28C83,84.86,92.11,86.11,92.11,86.11Z"/><path class="cls-39" d="M82.08,114.5c2-4.67,3.23-15.82.67-23.57,1.88.23,4.28.61,5,1.47.5-.47,4-1.35,5.49-1.7,1.56,8.54,1.38,21.66-2.45,27.24C88.06,117.64,84.17,115.66,82.08,114.5Z"/><path class="cls-35" d="M81.76,97.2l1-.21s.82,5.48.32,6.88C79,104.73,78,104.93,81.76,97.2Z"/><path class="cls-35" d="M82.75,97c.51,1.65.88,5.33.32,6.88C80.06,104.34,79,104.72,82.75,97Z"/><path class="cls-40" d="M75,90.54c1.41-2.93,2.18-7.06,2.42-11.53a185.3,185.3,0,0,0,27.72-3,44.64,44.64,0,0,1-2.43,13.1C96.65,89.29,88,89.3,75,90.54Z"/><path class="cls-41" d="M99.51,172.57s18.1-3.82,25.19,9.78c0,0-5.64,7.1-14.55,1.85S99.51,172.57,99.51,172.57Z"/><path class="cls-19" d="M108.57,150.08S114.14,166,124.07,172c0,0,12.49-9.14,3.68-27.9"/><path class="cls-19" d="M100.31,174.47s12-2.64,23.16,9.09"/><path class="cls-42" d="M88.23,139.73s13.76,10.48,32.6-7.32"/><path class="cls-43" d="M310.8,424.51s3.14,5.92,9.51,5.48c4.91-.35,27.07-7.85,30.78-44.81,0,0,6.5-8.68,4.8-15.34s-7-6.74-7-6.74Z"/><path class="cls-44" d="M311.33,378.86a101.59,101.59,0,0,1-3.35,29.6c-2.23,7.83,2.43,22.63,15.36,19.1s24.9-38.59,24.33-50.35c0,0,6.61-6,5.24-11.53-1-4.06-8.32-9.44-12.23-12.07a3.53,3.53,0,0,0-4.47.43Z"/><path class="cls-45" d="M313.12,376.59l-43.88-44.45-10.46-10.59S256,316.68,252.26,309c-8.5-17.54-28.07-74.63-22.18-95.92,0,0,13-9.94,48.5-20.88,0,0,17.48,31.74,18.61,56,1.59,34.14-4.09,55.37-4.09,55.37l36.65,50.1S340.4,371.54,313.12,376.59Z"/><path class="cls-19" d="M301,327.44l-14.14-20.5a7.78,7.78,0,0,1-1.37-4.66c.25-8.43.77-36.38-2.45-61-3.85-29.35-14.61-42.69-14.61-42.69"/><path class="cls-19" d="M257.52,202.52s23.16,29.91,26.92,51.85"/><path class="cls-46" d="M309.9,378.33c1.94.92,13.81,2.08,20-3.35,11.15-9.71,7.08-16.92,8.1-19.09s-26.82-39.29-29.57-41.78a6.21,6.21,0,0,0-8.82.6c-2.06,2.41-1.12,18.82-14.51,17.86s-9.71,10.31-9.71,10.31S308,377.42,309.9,378.33Z"/><path class="cls-47" d="M162.37,95.41s-1.33-7.52,2.16-7.89S181.7,85.71,187.88,77a1.1,1.1,0,0,1,1.71-.1,5,5,0,0,1,.52.68c.78,1.21,5.56,4.37,5.56,4.37S187.32,93.81,177,95.28C164.27,97.1,162.37,95.41,162.37,95.41Z"/><path class="cls-21" d="M166.82,87.68a3.2,3.2,0,0,0-.23,1,11.83,11.83,0,0,0,.21,5.77,4,4,0,0,1,.31.9"/><path class="cls-21" d="M172,86.65q.61,4.75,1.54,9.44"/><path class="cls-21" d="M176,85.32l4.3,9.67"/><path class="cls-21" d="M179.72,83.79a5.25,5.25,0,0,1,2.46,2.94,6.32,6.32,0,0,0,.34,1,4.08,4.08,0,0,0,.81.95,28.36,28.36,0,0,1,2.82,3.18"/><path class="cls-21" d="M183.33,81.24a16.6,16.6,0,0,0,2.24,3.37,14.1,14.1,0,0,0,1.73,1.54,12.15,12.15,0,0,0,2.92,1.91"/><path class="cls-21" d="M185.91,78.58l1.62,2.76a3.61,3.61,0,0,0,.51.72,2.88,2.88,0,0,0,.7.5c1.51.9,3.06,1.75,4.63,2.53"/><path class="cls-19" d="M151,108.38s40.78,16.44,56.76-31"/><circle class="cls-48" cx="163.82" cy="50.98" r="49.97"/><path class="cls-19" d="M188.48,105s18.8,45.82,30.2,58.12c0,0,2,10,5.24,14.42S227.37,200,227.37,200"/><path class="cls-49" d="M278.58,192.24s-15.86,17.6-44.49,19.95c-28.18,2.31-40.47-6-40.85-6.29h0c-4.65-6.87-3.58-11-2.8-12.62l.46-.75v0s20.3,13.26,51.17,4.34,34.42-14.46,34.42-14.46l0,.08Z"/><path class="cls-19" d="M180.55,178.15s8,11.2,43.37-.64,39.67-15.37,43.37-27.54"/><path class="cls-50" d="M91.49,112.29a2.34,2.34,0,0,1-.26,2.51L89.87,116l-4.09,3.73a1.63,1.63,0,0,1-2.18-.24,10.9,10.9,0,0,1-3.17-4.61,2.22,2.22,0,0,1,.4-2.66l5.55-3.61.72-.48a1.9,1.9,0,0,1,2.35.65A10.41,10.41,0,0,1,91.49,112.29Z"/><path class="cls-51" d="M88.48,108.17a2.18,2.18,0,0,1-.59,2.45l-2.56,1.74L81.4,115a1.89,1.89,0,0,1-2.32-.44,10.47,10.47,0,0,1-2.86-4.84,2.09,2.09,0,0,1,.76-2.58l3.63-1.72h0l3.62-1.72a2.14,2.14,0,0,1,2.46.86A9.7,9.7,0,0,1,88.48,108.17Z"/><path class="cls-52" d="M88.66,102.3a2.55,2.55,0,0,1-1.75,2.3l-2.44.72-7.35,2.17a2.44,2.44,0,0,1-2.67-1A8.17,8.17,0,0,1,73,101.1a2.52,2.52,0,0,1,2-2.39l9.14-1.58,1.21-.21A2.52,2.52,0,0,1,88,98.33,7.37,7.37,0,0,1,88.66,102.3Z"/><path class="cls-53" d="M89.52,95.68a2.54,2.54,0,0,1-2,2.12l-4,.75L77.5,99.7A2.42,2.42,0,0,1,75,98.48,8.06,8.06,0,0,1,74,92.93a2.52,2.52,0,0,1,2.25-2.17l5.24-.37h0L86.77,90a2.5,2.5,0,0,1,2.49,1.66A7.39,7.39,0,0,1,89.52,95.68Z"/><path class="cls-54" d="M97.26,102.06s-2.4,4.56-1,8.5,4.61,10.3,4.61,10.3l10.23-1.24s-2-14.21-1.21-18.55-9.23-8.21-9.23-8.21Z"/><rect class="cls-55" x="277.83" y="150.37" width="94.85" height="46.77" transform="translate(-37.66 108.36) rotate(-17.9)"/><text class="cls-56" transform="translate(290.82 193.51) rotate(-17.9)"><tspan class="cls-57">S</tspan><tspan x="15.69" y="0">AL</tspan><tspan class="cls-58" x="47.95" y="0">E</tspan><tspan class="cls-59" x="62.35" y="0">S</tspan></text><path class="cls-60" d="M290.71,138.94s2.85-10.33,10.65-17.59,20.7-5.82,20.7-5.82,13,27.14,13.06,33.54-4.23,9-8.35,2.11c0,0,9,6.27,3.41,11s-13.8-7-13.8-7,11.28,10.29,7.86,13.27-11.71.42-16.43-9.33c0,0-4-8.6-1.8-11.94Z"/><path class="cls-42" d="M306,147.14s.93-3.14,5.36-1.92c0,0-1.33-5.1,1.26-6.06s5.45,1,5.45,1-1.91-4.06,3.5-6.9c0,0-3.18-10.72-6.88-13.45A14.72,14.72,0,0,0,303,124.58C298.14,130,294.48,141,294.48,141"/><path class="cls-61" d="M270.23,88.54s14.56-4.17,18.68,9.22C288.91,97.76,277.34,96.32,270.23,88.54Z"/><path class="cls-19" d="M252.25,308.89a9.54,9.54,0,0,1,4.07-4.24c5.7-3,13.52.57,17.46,8s2.5,15.93-3.21,19a9.69,9.69,0,0,1-1.24.54"/><path class="cls-62" d="M268.55,331.82a6.52,6.52,0,0,1-1.09.47L258.25,323s-2.49-4.29-5.75-11a8.32,8.32,0,0,1,3.57-3.71c5-2.65,11.84.49,15.28,7S273.54,329.18,268.55,331.82Z"/><path class="cls-19" d="M211.44,338.87a11.38,11.38,0,0,0,1.12-.85c6-5.2,5.88-15.23-.32-22.41s-16.09-8.79-22.11-3.59a11.46,11.46,0,0,0-1.53,1.59"/><path class="cls-63" d="M208.79,336.1a10.14,10.14,0,0,1-1.26.92,36.25,36.25,0,0,1-3.76-2.21c-8.53-5.81-12.33-12.26-14-16.84a9.18,9.18,0,0,1,1.7-1.94c4.65-4,12.29-2.78,17.08,2.77S213.44,332.08,208.79,336.1Z"/><path class="cls-3" d="M367.21,217.27s8.26-6.71,15.55-9.73L380,206.6a4.69,4.69,0,0,0-3.22.08l-11.14,4.41a4.63,4.63,0,0,0-2.58,2.52l-2.64,6.28,6.77-2.62Z"/><path class="cls-3" d="M328.19,292.29l-.14,6.7s-4.54-12.8-3.95-20.78l-2.09,2.9a4.67,4.67,0,0,0-.86,3.09l1,11.95a4.65,4.65,0,0,0,1.66,3.2L329,303.7Z"/><circle class="cls-3" cx="400.49" cy="282.79" r="74.56"/><path class="cls-64" d="M370.19,236.7c1.47-1.07,3-2.27,3.54-4,.66-2-.14-4.17-.92-6.13a1.62,1.62,0,0,0-2.29-1.25l-5.84,1.3a11.51,11.51,0,0,0-3.94,1.39c-2.09,1.38-3.05,3.92-3.68,6.34C353.56,247.74,364.3,241,370.19,236.7Z"/><path class="cls-65" d="M351.51,296.23c-.33-1.78-.77-3.66-2.08-4.91-1.53-1.46-3.83-1.66-5.94-1.79a2.09,2.09,0,0,0-1.5.28,2.14,2.14,0,0,0-.6,1.25l-1.34,5.83a11.52,11.52,0,0,0-.43,4.16c.35,2.48,2.23,4.44,4.15,6.05C354.36,316,352.84,303.38,351.51,296.23Z"/><path class="cls-65" d="M343.5,262.85a10.33,10.33,0,0,0-2.46,3c-4.1,7.35-.63,11.37,4.34,4.41C347.62,267.1,351.51,256.27,343.5,262.85Z"/><path class="cls-65" d="M397,230.4a12.15,12.15,0,0,0,10.45-3.18,1.4,1.4,0,0,0,.47-.87,1.49,1.49,0,0,0-.33-.79,44.91,44.91,0,0,0-2.95-3.8,5.41,5.41,0,0,0-1.77-1.5,5.83,5.83,0,0,0-2.5-.31c-3.4.07-7,.2-9.92,1.94s-3.9,3.07-1.28,5.25A16.78,16.78,0,0,0,397,230.4Z"/><path class="cls-65" d="M374.12,262.62a7,7,0,0,0,2.56-5.73.77.77,0,0,0-.19-.53.85.85,0,0,0-.47-.15,25.54,25.54,0,0,0-2.76-.16,3.1,3.1,0,0,0-1.32.2,3.38,3.38,0,0,0-1.07,1,11.48,11.48,0,0,0-2.9,5c-.37,2-.15,2.84,1.79,2.53A9.74,9.74,0,0,0,374.12,262.62Z"/><circle class="cls-66" cx="50.28" cy="203.76" r="21.88"/><circle class="cls-65" cx="374.02" cy="73.73" r="10.94"/><path class="cls-67" d="M346.72,44.44c4.73-.22,10-2.19,11.62-6.64a13.41,13.41,0,0,0,.51-5.28A10.14,10.14,0,0,0,357.34,27c-1.34-1.82-3.62-2.66-5.77-3.41a112.45,112.45,0,0,1-16.5-6.89c-2.82-1.52-5.58-3.28-8.68-4.09a22.19,22.19,0,0,0-7.36-.47,15.31,15.31,0,0,0-6.15,1.55A9.57,9.57,0,0,0,308,21c-.8,7.86,9.36,12.45,15,15.91C330.14,41.29,338.16,44.83,346.72,44.44Z"/><path class="cls-68" d="M285.14,332.57c13.39,1,12.45-15.45,14.51-17.86a6.36,6.36,0,0,1,5.2-2.15,6.27,6.27,0,0,0-6.49,1.82c-2,2.34-1,18.4-14.25,17.37s-9.54,10-9.54,10l.77.8C274.87,340.82,273,331.7,285.14,332.57Z"/><path class="cls-69" d="M226.83,340.43c1.13-2.22,13.38-6.44,8.67-15.92-4.1-8.26,2.46-9.84,4.21-10.11l-.6-.22s-9.12.73-4.59,10-7.47,13.48-8.6,15.66a4.75,4.75,0,0,0,1.83,6.3A4.94,4.94,0,0,1,226.83,340.43Z"/><path class="cls-19" d="M316.42,324s-6.78,11.39-5.62,14.84c.83,2.5,11.25,14.8,16.95,21.4a2.9,2.9,0,0,0,5-1.2L335,350"/></g></g></g></svg>