<svg xmlns="http://www.w3.org/2000/svg" xmlns:xlink="http://www.w3.org/1999/xlink" viewBox="0 0 298.29 313.71"><defs><style>.cls-1{fill:url(#linear-gradient);}.cls-2{fill:none;stroke:#fff;stroke-miterlimit:10;stroke-width:2.81px;}.cls-3{fill:#ecfdf6;}.cls-4{fill:#dde6fa;}.cls-5{fill:#64edb2;}.cls-6{fill:url(#linear-gradient-2);}.cls-7{isolation:isolate;}.cls-8{fill:#32baaa;}.cls-9{fill:#10c680;}.cls-10{fill:#f7f7f7;}</style><linearGradient id="linear-gradient" x1="25.5" y1="178.74" x2="293.84" y2="178.74" gradientUnits="userSpaceOnUse"><stop offset="0" stop-color="#9cb7f0"/><stop offset="0.03" stop-color="#9fb9f1"/><stop offset="0.26" stop-color="#bacdf5"/><stop offset="0.5" stop-color="#cedbf8"/><stop offset="0.75" stop-color="#d9e3f9"/><stop offset="1" stop-color="#dde6fa"/></linearGradient><linearGradient id="linear-gradient-2" x1="69.29" y1="186.98" x2="255.42" y2="186.98" gradientUnits="userSpaceOnUse"><stop offset="0" stop-color="#4e54c8"/><stop offset="1" stop-color="#8f94fb"/></linearGradient></defs><title>Asset 13</title><g id="Layer_2" data-name="Layer 2"><g id="Layer_1-2" data-name="Layer 1"><path class="cls-1" d="M30.31,134.84c-3.41,6-6.49,13.33-3.76,19.71s9.81,9.07,15.26,13.18a32.52,32.52,0,0,1,12.67,23.39c1.4,20.25-16.2,38.36-14.22,58.56,1.42,14.51,12.66,26.07,24.45,34.64a153.87,153.87,0,0,0,190-7.18c11.24-9.55,21.85-24.24,16.4-37.95-5.62-14.15-25.63-19.05-29.71-33.72-2.54-9.15,2.38-18.89,9.09-25.61s15.15-11.46,22.25-17.77C297,140.54,301,99.84,281.35,74c-13.23-17.42-34.8-27.24-56.54-29.63a89.28,89.28,0,0,0-33.56,2.36c-13.52,3.74-25.71,11.1-37.89,18.07-11.11,6.36-22.75,12.4-35.17,15.75a68.32,68.32,0,0,1-19.42,2.69c-5.37-.13-12.93-3.91-17.87-2.81C61.36,84.76,39.36,118.86,30.31,134.84Z"/><circle class="cls-2" cx="261.14" cy="83.95" r="35.74"/><path class="cls-3" d="M109.44,108.5S37.9,210.77,5.68,214.66L0,176.22S61.09,150.83,101.92,101Z"/><path class="cls-4" d="M205.87,13.19c-.41,4.59,2.11,9,5.23,12.35,2.6,2.82,6.6,5.34,10.09,3.72,5.51-2.56,12-2.09,17.83-.37s11.25,4.59,16.91,6.81c3.22,1.26,7.12,2.23,9.94.23,2.24-1.59,3-4.69,2.46-7.37a15.57,15.57,0,0,0-4.06-7c-2-2.18-4.38-4.2-7.27-4.82a28.11,28.11,0,0,0-5.95-.19,24.29,24.29,0,0,1-16.48-6.62c-4.9-4.65-10-11.48-17.88-9.56C211.37,1.63,206.36,7.81,205.87,13.19Z"/><path class="cls-5" d="M13.81,213.36A11.62,11.62,0,0,1,16,210.63,12.61,12.61,0,0,1,22.59,208c2-.3,4.26-.23,5.53,1.29,1.41,1.7.75,4.33-.51,6.15s-3,3.28-4,5.28c-1.32,2.79-.8,6-.71,9.12.1,3.53-.72,7.57-3.77,9.36a7.77,7.77,0,0,1-2.7.91C4.94,242,10.63,218.58,13.81,213.36Z"/><polygon class="cls-6" points="218.74 292.33 69.29 292.33 105.97 81.62 255.42 81.62 218.74 292.33"/><polygon class="cls-3" points="114.76 89.62 245.06 89.62 211.17 276.15 83.26 274.21 114.76 89.62"/><g class="cls-7"><polyline class="cls-8" points="254.76 231.24 245.19 233.38 246.53 252.34 256.09 250.2 254.76 231.24"/><polyline class="cls-8" points="273.91 207.69 264.36 209.83 267.01 247.76 276.57 245.62 273.91 207.69"/><polyline class="cls-8" points="292.96 182.68 283.4 184.81 287.5 243.18 297.06 241.04 292.96 182.68"/><path class="cls-9" d="M283.56,172.2c-14.27,30.33-43.46,46.58-43.76,46.74l.55,1.52c.31-.17,30.13-16.75,44.66-47.78l-1.45-.48"/><polyline class="cls-9" points="288.67 161.05 278.55 170.55 283.56 172.2 285.01 172.68 290.08 174.34 288.67 161.05"/></g><circle class="cls-10" cx="112.42" cy="92.47" r="33.52"/><circle class="cls-5" cx="112.42" cy="92.47" r="28.39"/><polygon class="cls-4" points="204.93 136.8 195.07 126.94 196.96 125.05 204.93 133.02 219.27 118.68 221.16 120.57 204.93 136.8"/><polygon class="cls-4" points="199.23 168.9 189.36 159.03 191.25 157.14 199.23 165.11 213.57 150.77 215.46 152.66 199.23 168.9"/><polygon class="cls-4" points="193.52 200.99 183.66 191.13 185.55 189.23 193.52 197.21 207.86 182.86 209.75 184.76 193.52 200.99"/><polygon class="cls-4" points="187.81 233.08 177.95 223.22 179.84 221.33 187.81 229.3 202.15 214.96 204.05 216.85 187.81 233.08"/><polygon class="cls-10" points="100.6 87.27 94.4 93.47 116.95 93.47 123.15 87.27 100.6 87.27"/><rect class="cls-10" x="101.92" y="94.8" width="15.03" height="6.2"/><polygon class="cls-10" points="124.47 85.95 124.47 78.42 116.95 78.44 109.44 85.95 124.47 85.95"/><polygon class="cls-10" points="109.44 102.32 109.44 108.5 115.61 102.32 109.44 102.32"/><rect class="cls-4" x="123.6" y="127.88" width="58.05" height="2"/><rect class="cls-4" x="117.18" y="159.41" width="58.05" height="2"/><rect class="cls-4" x="110.76" y="190.95" width="58.05" height="2"/><rect class="cls-4" x="104.33" y="222.48" width="58.05" height="2"/></g></g></svg>