<svg xmlns="http://www.w3.org/2000/svg" xmlns:xlink="http://www.w3.org/1999/xlink" viewBox="0 0 493.73 444.36" height="894" width="990"><defs><style>.cls-1,.cls-10,.cls-13,.cls-41,.cls-43,.cls-46,.cls-54,.cls-57,.cls-62{fill:none;}.cls-2{isolation:isolate;}.cls-3{fill:url(#linear-gradient);}.cls-4{fill:url(#linear-gradient-2);}.cls-5{fill:#fff;}.cls-6{fill:url(#linear-gradient-3);}.cls-7{fill:url(#linear-gradient-4);}.cls-8{fill:url(#linear-gradient-5);}.cls-9{fill:url(#linear-gradient-6);}.cls-10,.cls-41{stroke:#64edff;}.cls-10,.cls-13,.cls-41,.cls-43,.cls-46,.cls-57,.cls-62{stroke-miterlimit:10;}.cls-11{fill:url(#linear-gradient-7);}.cls-12{fill:url(#linear-gradient-8);}.cls-13,.cls-54,.cls-62{stroke:#fff;}.cls-14{fill:url(#linear-gradient-9);}.cls-15{fill:url(#linear-gradient-10);}.cls-16{fill:url(#linear-gradient-11);}.cls-17{fill:url(#linear-gradient-12);}.cls-18{fill:url(#linear-gradient-13);}.cls-19{opacity:0.9;fill:url(#linear-gradient-14);}.cls-20{clip-path:url(#clip-path);}.cls-21{fill:#93aba4;}.cls-22{fill:#b4f6ff;}.cls-23{fill:#5efff3;opacity:0.27;}.cls-24{fill:#85c2b9;}.cls-25{fill:#9df8fc;}.cls-26{fill:url(#linear-gradient-15);}.cls-27{fill:#f0beb4;}.cls-28{fill:url(#linear-gradient-16);}.cls-29{fill:url(#linear-gradient-17);}.cls-30{fill:url(#linear-gradient-18);}.cls-31{fill:url(#linear-gradient-19);}.cls-32{fill:url(#linear-gradient-20);}.cls-33{fill:url(#linear-gradient-21);}.cls-34{fill:url(#linear-gradient-22);}.cls-35{fill:url(#linear-gradient-23);}.cls-36{fill:url(#linear-gradient-24);}.cls-37{fill:url(#linear-gradient-25);}.cls-38{fill:url(#linear-gradient-26);}.cls-39{fill:url(#linear-gradient-27);}.cls-40{fill:url(#linear-gradient-28);}.cls-41,.cls-46,.cls-54,.cls-57{stroke-linecap:round;}.cls-42{fill:#1b4736;}.cls-43{stroke:#64edb2;stroke-width:2px;}.cls-44{fill:#fc4c5c;}.cls-45{fill:url(#linear-gradient-29);}.cls-46{stroke:#b3b3b3;stroke-width:1.15px;}.cls-47{fill:url(#linear-gradient-30);}.cls-48{fill:url(#linear-gradient-31);}.cls-49{fill:#64edff;}.cls-50{fill:url(#linear-gradient-32);}.cls-51{opacity:0.6;mix-blend-mode:screen;fill:url(#radial-gradient);}.cls-52{fill:url(#linear-gradient-33);}.cls-53{fill:url(#linear-gradient-34);}.cls-54{stroke-linejoin:round;stroke-width:5.73px;}.cls-55{fill:url(#linear-gradient-35);}.cls-56{fill:url(#linear-gradient-36);}.cls-57{stroke:#6df0f7;}.cls-58{fill:#dde6fa;}.cls-59{fill:url(#linear-gradient-37);}.cls-60{fill:url(#linear-gradient-38);}.cls-61{fill:url(#linear-gradient-39);}.cls-62{stroke-width:2.55px;}.cls-63,.cls-64,.cls-65{mix-blend-mode:color-dodge;}.cls-63{fill:url(#Degradado_sin_nombre_29);}.cls-64{fill:url(#Degradado_sin_nombre_29-2);}.cls-65{fill:url(#Degradado_sin_nombre_29-3);}.cls-66{fill:#0a4651;opacity:0.3;}.cls-67{opacity:0.8;fill:url(#linear-gradient-40);}.cls-68{fill:url(#linear-gradient-41);}.cls-69{fill:url(#linear-gradient-42);}.cls-70{fill:url(#linear-gradient-43);}.cls-71{fill:url(#linear-gradient-44);}.cls-72{fill:url(#linear-gradient-45);}.cls-73{fill:url(#linear-gradient-46);}.cls-74{fill:url(#linear-gradient-47);}.cls-75{fill:url(#linear-gradient-48);}.cls-76{fill:url(#linear-gradient-49);}.cls-77{fill:url(#linear-gradient-50);}.cls-78{fill:url(#linear-gradient-51);}.cls-79{fill:url(#linear-gradient-52);}.cls-80{fill:url(#linear-gradient-53);}.cls-81{fill:url(#linear-gradient-54);}.cls-82{fill:url(#linear-gradient-55);}.cls-83{fill:url(#linear-gradient-56);}.cls-84{fill:url(#linear-gradient-57);}.cls-85{fill:url(#linear-gradient-58);}.cls-86{fill:url(#linear-gradient-59);}.cls-87{fill:url(#linear-gradient-60);}.cls-88{fill:url(#linear-gradient-61);}.cls-89{fill:url(#linear-gradient-62);}.cls-90{fill:url(#linear-gradient-63);}.cls-91{fill:url(#linear-gradient-64);}.cls-92{fill:url(#linear-gradient-65);}.cls-93{fill:url(#linear-gradient-66);}.cls-94{fill:url(#linear-gradient-67);}.cls-95{fill:url(#linear-gradient-68);}.cls-96{fill:url(#linear-gradient-69);}.cls-97{fill:url(#linear-gradient-70);}.cls-98{fill:url(#linear-gradient-71);}.cls-99{fill:url(#linear-gradient-72);}.cls-100{fill:url(#linear-gradient-73);}.cls-101{fill:url(#linear-gradient-74);}.cls-102{fill:url(#linear-gradient-75);}.cls-103{fill:url(#linear-gradient-76);}.cls-104{fill:url(#linear-gradient-77);}.cls-105{fill:url(#linear-gradient-78);}.cls-106{fill:url(#linear-gradient-79);}.cls-107{fill:url(#linear-gradient-80);}.cls-108{fill:url(#linear-gradient-81);}.cls-109{fill:url(#linear-gradient-82);}.cls-110{fill:url(#linear-gradient-83);}.cls-111{fill:url(#linear-gradient-84);}.cls-112{fill:url(#linear-gradient-85);}.cls-113{fill:url(#linear-gradient-86);}.cls-114{fill:url(#linear-gradient-87);}.cls-115{fill:url(#linear-gradient-88);}.cls-116{fill:url(#linear-gradient-89);}.cls-117{fill:url(#linear-gradient-90);}.cls-118{fill:url(#linear-gradient-91);}.cls-119{fill:url(#linear-gradient-92);}.cls-120{fill:url(#linear-gradient-93);}.cls-121{fill:url(#linear-gradient-94);}.cls-122{fill:url(#linear-gradient-95);}.cls-123{fill:url(#linear-gradient-96);}.cls-124{fill:url(#linear-gradient-97);}.cls-125{fill:url(#linear-gradient-98);}.cls-126{fill:url(#linear-gradient-99);}.cls-127{fill:url(#linear-gradient-100);}.cls-128{fill:url(#linear-gradient-101);}.cls-129{fill:url(#linear-gradient-102);}.cls-130{fill:url(#linear-gradient-103);}.cls-131{fill:url(#linear-gradient-104);}.cls-132{fill:url(#linear-gradient-105);}.cls-133{fill:url(#linear-gradient-106);}.cls-134{fill:url(#linear-gradient-107);}.cls-135{fill:url(#linear-gradient-108);}.cls-136{fill:url(#linear-gradient-109);}.cls-137{fill:#66aad7;}.cls-138{fill:url(#linear-gradient-110);}.cls-139{fill:url(#linear-gradient-111);}.cls-140{fill:url(#linear-gradient-112);}.cls-141{fill:url(#linear-gradient-113);}.cls-142{fill:url(#linear-gradient-114);}</style><linearGradient id="linear-gradient" x1="357.81" y1="73.9" x2="399.59" y2="73.9" gradientUnits="userSpaceOnUse"><stop offset="0" stop-color="#366fe0"/><stop offset="0.7" stop-color="#94cbff"/><stop offset="1" stop-color="#94cbff"/></linearGradient><linearGradient id="linear-gradient-2" x1="258.4" y1="378.69" x2="258.4" y2="50.73" gradientUnits="userSpaceOnUse"><stop offset="0" stop-color="#9cb7f0"/><stop offset="0.03" stop-color="#9fb9f1"/><stop offset="0.26" stop-color="#bacdf5"/><stop offset="0.5" stop-color="#cedbf8"/><stop offset="0.75" stop-color="#d9e3f9"/><stop offset="1" stop-color="#dde6fa"/></linearGradient><linearGradient id="linear-gradient-3" x1="292.25" y1="102.2" x2="366.15" y2="102.2" xlink:href="#linear-gradient"/><linearGradient id="linear-gradient-4" x1="188.45" y1="131.96" x2="271.94" y2="131.96" gradientUnits="userSpaceOnUse"><stop offset="0" stop-color="#4e54c8"/><stop offset="1" stop-color="#8f94fb"/></linearGradient><linearGradient id="linear-gradient-5" x1="290.4" y1="320.89" x2="290.4" y2="187.12" gradientUnits="userSpaceOnUse"><stop offset="0" stop-color="#8f94fb"/><stop offset="0.05" stop-color="#888df5"/><stop offset="0.27" stop-color="#6e74e1"/><stop offset="0.49" stop-color="#5c62d3"/><stop offset="0.73" stop-color="#5157cb"/><stop offset="1" stop-color="#4e54c8"/></linearGradient><linearGradient id="linear-gradient-6" x1="301.42" y1="318.33" x2="301.42" y2="197.16" xlink:href="#linear-gradient-4"/><linearGradient id="linear-gradient-7" x1="449.27" y1="329.44" x2="449.27" y2="253.62" xlink:href="#linear-gradient-4"/><linearGradient id="linear-gradient-8" x1="391.64" y1="287.16" x2="477.5" y2="287.16" gradientUnits="userSpaceOnUse"><stop offset="0" stop-color="#fc4c5c"/><stop offset="0.68" stop-color="#fb9f02"/><stop offset="1" stop-color="#fb9f02"/></linearGradient><linearGradient id="linear-gradient-9" x1="380.81" y1="300.86" x2="380.81" y2="236.18" gradientUnits="userSpaceOnUse"><stop offset="0" stop-color="#366fe0"/><stop offset="0.25" stop-color="#366fe0"/><stop offset="0.45" stop-color="#2f63d1"/><stop offset="0.84" stop-color="#1b43a9"/><stop offset="1" stop-color="#123597"/></linearGradient><linearGradient id="linear-gradient-10" x1="146.99" y1="192.22" x2="243.58" y2="192.22" xlink:href="#linear-gradient-4"/><linearGradient id="linear-gradient-11" x1="223.52" y1="215.44" x2="234.8" y2="215.44" gradientTransform="translate(34.28 -31.44) rotate(8.48)" xlink:href="#linear-gradient-4"/><linearGradient id="linear-gradient-12" x1="229.87" y1="219.04" x2="229.87" y2="210.05" gradientTransform="translate(34.15 -31.55) rotate(8.48)" xlink:href="#linear-gradient-4"/><linearGradient id="linear-gradient-13" x1="156.36" y1="156.6" x2="286.11" y2="156.6" xlink:href="#linear-gradient-4"/><linearGradient id="linear-gradient-14" x1="291" y1="102.2" x2="364.89" y2="102.2" xlink:href="#linear-gradient-9"/><clipPath id="clip-path"><polygon class="cls-1" points="297.12 102.54 306.96 63.82 355 97.46 345.16 136.19 297.12 102.54"/></clipPath><linearGradient id="linear-gradient-15" x1="316.66" y1="131.94" x2="364.1" y2="131.94" xlink:href="#linear-gradient-8"/><linearGradient id="linear-gradient-16" x1="334.05" y1="383.93" x2="334.05" y2="337" xlink:href="#linear-gradient-8"/><linearGradient id="linear-gradient-17" x1="335.42" y1="384.24" x2="335.42" y2="350.74" xlink:href="#linear-gradient-4"/><linearGradient id="linear-gradient-18" x1="292.35" y1="313.56" x2="336.8" y2="313.56" gradientUnits="userSpaceOnUse"><stop offset="0" stop-color="#123597"/><stop offset="0.16" stop-color="#1b43a9"/><stop offset="0.55" stop-color="#2f63d1"/><stop offset="0.75" stop-color="#366fe0"/><stop offset="1" stop-color="#366fe0"/></linearGradient><linearGradient id="linear-gradient-19" x1="355.7" y1="360.93" x2="363.15" y2="360.93" gradientUnits="userSpaceOnUse"><stop offset="0" stop-color="#4e54c8"/><stop offset="0.35" stop-color="#5157ca"/><stop offset="0.56" stop-color="#595fd1"/><stop offset="0.74" stop-color="#686ddc"/><stop offset="0.89" stop-color="#7c81ec"/><stop offset="1" stop-color="#8f94fb"/></linearGradient><linearGradient id="linear-gradient-20" x1="346.01" y1="365.19" x2="351.99" y2="365.19" xlink:href="#linear-gradient-19"/><linearGradient id="linear-gradient-21" x1="335.34" y1="369.63" x2="341.27" y2="369.63" xlink:href="#linear-gradient-19"/><linearGradient id="linear-gradient-22" x1="324.67" y1="373.6" x2="330.36" y2="373.6" xlink:href="#linear-gradient-19"/><linearGradient id="linear-gradient-23" x1="313.9" y1="376.7" x2="318.99" y2="376.7" xlink:href="#linear-gradient-19"/><linearGradient id="linear-gradient-24" x1="180.1" y1="242.11" x2="243.58" y2="242.11" xlink:href="#linear-gradient"/><linearGradient id="linear-gradient-25" x1="329.15" y1="204.08" x2="356.47" y2="204.08" gradientUnits="userSpaceOnUse"><stop offset="0" stop-color="#dde6fa"/><stop offset="0.2" stop-color="#d9e3f9"/><stop offset="0.4" stop-color="#cedbf8"/><stop offset="0.59" stop-color="#bacdf5"/><stop offset="0.79" stop-color="#9fbaf0"/><stop offset="0.97" stop-color="#7ca1eb"/><stop offset="1" stop-color="#779dea"/></linearGradient><linearGradient id="linear-gradient-26" x1="180.14" y1="119.47" x2="213.49" y2="119.47" xlink:href="#linear-gradient-9"/><linearGradient id="linear-gradient-27" x1="186.82" y1="106.08" x2="218.37" y2="51.43" gradientUnits="userSpaceOnUse"><stop offset="0" stop-color="#2a5bc7"/><stop offset="0.13" stop-color="#2452bc"/><stop offset="0.42" stop-color="#1a42a7"/><stop offset="0.71" stop-color="#14389b"/><stop offset="1" stop-color="#123597"/></linearGradient><linearGradient id="linear-gradient-28" x1="267.75" y1="181.02" x2="290.32" y2="181.02" gradientTransform="translate(8.26 -12.13) rotate(2.53)" xlink:href="#linear-gradient-25"/><linearGradient id="linear-gradient-29" x1="253.91" y1="102.7" x2="311.23" y2="102.7" xlink:href="#linear-gradient-8"/><linearGradient id="linear-gradient-30" x1="115.38" y1="190.68" x2="221.2" y2="190.68" xlink:href="#linear-gradient-9"/><linearGradient id="linear-gradient-31" x1="118.15" y1="190.5" x2="214.13" y2="190.5" xlink:href="#linear-gradient"/><linearGradient id="linear-gradient-32" x1="130.27" y1="166.43" x2="213.52" y2="166.43" gradientUnits="userSpaceOnUse"><stop offset="0" stop-color="#64edb2"/><stop offset="0.25" stop-color="#99f3cc"/><stop offset="0.49" stop-color="#c5f8e2"/><stop offset="0.7" stop-color="#e5fcf2"/><stop offset="0.88" stop-color="#f8fefc"/><stop offset="1" stop-color="#fff"/></linearGradient><radialGradient id="radial-gradient" cx="155.74" cy="154.93" r="24.64" gradientUnits="userSpaceOnUse"><stop offset="0" stop-color="#a4eed2"/><stop offset="0.14" stop-color="#a2edd2" stop-opacity="0.98"/><stop offset="0.27" stop-color="#9aead2" stop-opacity="0.94"/><stop offset="0.4" stop-color="#8de5d2" stop-opacity="0.86"/><stop offset="0.52" stop-color="#7bded3" stop-opacity="0.74"/><stop offset="0.65" stop-color="#64d5d3" stop-opacity="0.6"/><stop offset="0.77" stop-color="#48cbd3" stop-opacity="0.42"/><stop offset="0.89" stop-color="#28bed4" stop-opacity="0.21"/><stop offset="1" stop-color="#06b1d4" stop-opacity="0"/></radialGradient><linearGradient id="linear-gradient-33" x1="149.52" y1="126.38" x2="213.52" y2="126.38" xlink:href="#linear-gradient-9"/><linearGradient id="linear-gradient-34" x1="159.83" y1="124.75" x2="212.48" y2="124.75" xlink:href="#linear-gradient"/><linearGradient id="linear-gradient-35" x1="169.44" y1="232.9" x2="191.46" y2="232.9" xlink:href="#linear-gradient-9"/><linearGradient id="linear-gradient-36" x1="169.44" y1="233.04" x2="191.04" y2="233.04" xlink:href="#linear-gradient"/><linearGradient id="linear-gradient-37" x1="119.62" y1="320.42" x2="129.9" y2="320.42" xlink:href="#linear-gradient-4"/><linearGradient id="linear-gradient-38" x1="423.62" y1="165.56" x2="455.92" y2="165.56" xlink:href="#linear-gradient-32"/><linearGradient id="linear-gradient-39" x1="119.14" y1="96.16" x2="135.67" y2="96.16" xlink:href="#linear-gradient-2"/><radialGradient id="Degradado_sin_nombre_29" cx="332.14" cy="103.41" r="4.39" gradientTransform="translate(32.22 -72.82) rotate(13.14)" gradientUnits="userSpaceOnUse"><stop offset="0" stop-color="#cacaca"/><stop offset="0.03" stop-color="#bcbcbc"/><stop offset="0.16" stop-color="#8a8a8a"/><stop offset="0.3" stop-color="#606060"/><stop offset="0.43" stop-color="#3d3d3d"/><stop offset="0.57" stop-color="#222"/><stop offset="0.71" stop-color="#0f0f0f"/><stop offset="0.85" stop-color="#040404"/><stop offset="1"/></radialGradient><radialGradient id="Degradado_sin_nombre_29-2" cx="323.32" cy="98.35" r="4.39" gradientTransform="matrix(1, 0, 0, 1, 0, 0)" xlink:href="#Degradado_sin_nombre_29"/><radialGradient id="Degradado_sin_nombre_29-3" cx="316.66" cy="86.88" r="4.39" gradientTransform="matrix(1, 0, 0, 1, 0, 0)" xlink:href="#Degradado_sin_nombre_29"/><linearGradient id="linear-gradient-40" x1="377.7" y1="101.22" x2="377.7" y2="46.58" gradientUnits="userSpaceOnUse"><stop offset="0" stop-color="#94cbff"/><stop offset="0.3" stop-color="#94cbff"/><stop offset="1" stop-color="#366fe0"/></linearGradient><linearGradient id="linear-gradient-41" x1="363.85" y1="71.13" x2="366.19" y2="71.13" gradientUnits="userSpaceOnUse"><stop offset="0" stop-color="#dde6fa"/><stop offset="0.17" stop-color="#d8e2f9"/><stop offset="0.39" stop-color="#c8d7f7"/><stop offset="0.62" stop-color="#afc5f3"/><stop offset="0.88" stop-color="#8babed"/><stop offset="1" stop-color="#779dea"/></linearGradient><linearGradient id="linear-gradient-42" x1="364.08" y1="70.34" x2="366.39" y2="70.34" xlink:href="#linear-gradient-41"/><linearGradient id="linear-gradient-43" x1="364.35" y1="69.58" x2="366.61" y2="69.58" xlink:href="#linear-gradient-41"/><linearGradient id="linear-gradient-44" x1="364.64" y1="68.85" x2="366.86" y2="68.85" xlink:href="#linear-gradient-41"/><linearGradient id="linear-gradient-45" x1="364.96" y1="68.16" x2="367.12" y2="68.16" xlink:href="#linear-gradient-41"/><linearGradient id="linear-gradient-46" x1="365.3" y1="67.49" x2="367.41" y2="67.49" xlink:href="#linear-gradient-41"/><linearGradient id="linear-gradient-47" x1="365.67" y1="66.87" x2="367.72" y2="66.87" xlink:href="#linear-gradient-41"/><linearGradient id="linear-gradient-48" x1="366.07" y1="66.27" x2="368.04" y2="66.27" xlink:href="#linear-gradient-41"/><linearGradient id="linear-gradient-49" x1="366.48" y1="65.71" x2="368.38" y2="65.71" xlink:href="#linear-gradient-41"/><linearGradient id="linear-gradient-50" x1="366.92" y1="65.19" x2="368.74" y2="65.19" xlink:href="#linear-gradient-41"/><linearGradient id="linear-gradient-51" x1="367.37" y1="64.7" x2="369.11" y2="64.7" xlink:href="#linear-gradient-41"/><linearGradient id="linear-gradient-52" x1="367.85" y1="64.25" x2="369.5" y2="64.25" xlink:href="#linear-gradient-41"/><linearGradient id="linear-gradient-53" x1="368.34" y1="63.83" x2="369.9" y2="63.83" xlink:href="#linear-gradient-41"/><linearGradient id="linear-gradient-54" x1="368.85" y1="63.45" x2="370.31" y2="63.45" xlink:href="#linear-gradient-41"/><linearGradient id="linear-gradient-55" x1="369.38" y1="63.11" x2="370.74" y2="63.11" xlink:href="#linear-gradient-41"/><linearGradient id="linear-gradient-56" x1="369.92" y1="62.81" x2="371.18" y2="62.81" xlink:href="#linear-gradient-41"/><linearGradient id="linear-gradient-57" x1="370.47" y1="62.55" x2="371.63" y2="62.55" xlink:href="#linear-gradient-41"/><linearGradient id="linear-gradient-58" x1="371.03" y1="62.32" x2="372.09" y2="62.32" xlink:href="#linear-gradient-41"/><linearGradient id="linear-gradient-59" x1="371.61" y1="62.13" x2="372.55" y2="62.13" xlink:href="#linear-gradient-41"/><linearGradient id="linear-gradient-60" x1="372.19" y1="61.99" x2="373.03" y2="61.99" xlink:href="#linear-gradient-41"/><linearGradient id="linear-gradient-61" x1="372.79" y1="61.89" x2="373.51" y2="61.89" xlink:href="#linear-gradient-41"/><linearGradient id="linear-gradient-62" x1="373.39" y1="61.83" x2="373.99" y2="61.83" xlink:href="#linear-gradient-41"/><linearGradient id="linear-gradient-63" x1="374" y1="61.81" x2="374.48" y2="61.81" xlink:href="#linear-gradient-41"/><linearGradient id="linear-gradient-64" x1="374.62" y1="61.84" x2="374.97" y2="61.84" xlink:href="#linear-gradient-41"/><linearGradient id="linear-gradient-65" x1="375.21" y1="61.91" x2="375.5" y2="61.91" xlink:href="#linear-gradient-41"/><linearGradient id="linear-gradient-66" x1="375.71" y1="62.02" x2="376.12" y2="62.02" xlink:href="#linear-gradient-41"/><linearGradient id="linear-gradient-67" x1="376.21" y1="62.18" x2="376.75" y2="62.18" xlink:href="#linear-gradient-41"/><linearGradient id="linear-gradient-68" x1="376.71" y1="62.38" x2="377.37" y2="62.38" xlink:href="#linear-gradient-41"/><linearGradient id="linear-gradient-69" x1="377.21" y1="62.63" x2="377.99" y2="62.63" xlink:href="#linear-gradient-41"/><linearGradient id="linear-gradient-70" x1="377.71" y1="62.92" x2="378.61" y2="62.92" xlink:href="#linear-gradient-41"/><linearGradient id="linear-gradient-71" x1="378.21" y1="63.26" x2="379.23" y2="63.26" xlink:href="#linear-gradient-41"/><linearGradient id="linear-gradient-72" x1="378.71" y1="63.65" x2="379.84" y2="63.65" xlink:href="#linear-gradient-41"/><linearGradient id="linear-gradient-73" x1="379.19" y1="64.08" x2="380.43" y2="64.08" xlink:href="#linear-gradient-41"/><linearGradient id="linear-gradient-74" x1="379.65" y1="64.53" x2="381" y2="64.53" xlink:href="#linear-gradient-41"/><linearGradient id="linear-gradient-75" x1="380.1" y1="65.03" x2="381.55" y2="65.03" xlink:href="#linear-gradient-41"/><linearGradient id="linear-gradient-76" x1="380.53" y1="65.56" x2="382.08" y2="65.56" xlink:href="#linear-gradient-41"/><linearGradient id="linear-gradient-77" x1="380.94" y1="66.12" x2="382.59" y2="66.12" xlink:href="#linear-gradient-41"/><linearGradient id="linear-gradient-78" x1="381.34" y1="66.71" x2="383.07" y2="66.71" xlink:href="#linear-gradient-41"/><linearGradient id="linear-gradient-79" x1="381.72" y1="67.32" x2="383.54" y2="67.32" xlink:href="#linear-gradient-41"/><linearGradient id="linear-gradient-80" x1="382.08" y1="67.96" x2="383.97" y2="67.96" xlink:href="#linear-gradient-41"/><linearGradient id="linear-gradient-81" x1="382.41" y1="68.63" x2="384.39" y2="68.63" xlink:href="#linear-gradient-41"/><linearGradient id="linear-gradient-82" x1="382.74" y1="69.31" x2="384.77" y2="69.31" xlink:href="#linear-gradient-41"/><linearGradient id="linear-gradient-83" x1="383.04" y1="70.03" x2="385.14" y2="70.03" xlink:href="#linear-gradient-41"/><linearGradient id="linear-gradient-84" x1="383.31" y1="70.75" x2="385.47" y2="70.75" xlink:href="#linear-gradient-41"/><linearGradient id="linear-gradient-85" x1="383.57" y1="71.5" x2="385.78" y2="71.5" xlink:href="#linear-gradient-41"/><linearGradient id="linear-gradient-86" x1="383.81" y1="72.27" x2="386.07" y2="72.27" xlink:href="#linear-gradient-41"/><linearGradient id="linear-gradient-87" x1="384.02" y1="73.05" x2="386.32" y2="73.05" xlink:href="#linear-gradient-41"/><linearGradient id="linear-gradient-88" x1="384.22" y1="73.84" x2="386.55" y2="73.84" xlink:href="#linear-gradient-41"/><linearGradient id="linear-gradient-89" x1="384.39" y1="74.65" x2="386.75" y2="74.65" xlink:href="#linear-gradient-41"/><linearGradient id="linear-gradient-90" x1="384.54" y1="75.46" x2="386.92" y2="75.46" xlink:href="#linear-gradient-41"/><linearGradient id="linear-gradient-91" x1="384.66" y1="76.28" x2="387.06" y2="76.28" xlink:href="#linear-gradient-41"/><linearGradient id="linear-gradient-92" x1="384.77" y1="77.11" x2="387.17" y2="77.11" xlink:href="#linear-gradient-41"/><linearGradient id="linear-gradient-93" x1="384.84" y1="77.94" x2="387.25" y2="77.94" xlink:href="#linear-gradient-41"/><linearGradient id="linear-gradient-94" x1="384.89" y1="78.78" x2="387.3" y2="78.78" xlink:href="#linear-gradient-41"/><linearGradient id="linear-gradient-95" x1="384.92" y1="79.62" x2="387.32" y2="79.62" xlink:href="#linear-gradient-41"/><linearGradient id="linear-gradient-96" x1="384.91" y1="80.46" x2="387.31" y2="80.46" xlink:href="#linear-gradient-41"/><linearGradient id="linear-gradient-97" x1="384.87" y1="81.31" x2="387.28" y2="81.31" xlink:href="#linear-gradient-41"/><linearGradient id="linear-gradient-98" x1="384.81" y1="82.14" x2="387.22" y2="82.14" xlink:href="#linear-gradient-41"/><linearGradient id="linear-gradient-99" x1="384.71" y1="82.97" x2="387.12" y2="82.97" xlink:href="#linear-gradient-41"/><linearGradient id="linear-gradient-100" x1="384.6" y1="83.8" x2="386.98" y2="83.8" xlink:href="#linear-gradient-41"/><linearGradient id="linear-gradient-101" x1="384.45" y1="84.62" x2="386.82" y2="84.62" xlink:href="#linear-gradient-41"/><linearGradient id="linear-gradient-102" x1="384.28" y1="85.43" x2="386.61" y2="85.43" xlink:href="#linear-gradient-41"/><linearGradient id="linear-gradient-103" x1="366.67" y1="74.55" x2="384.27" y2="74.55" xlink:href="#linear-gradient-41"/><linearGradient id="linear-gradient-104" x1="374.43" y1="75.32" x2="380.36" y2="75.32" xlink:href="#linear-gradient-41"/><linearGradient id="linear-gradient-105" x1="374.77" y1="78.07" x2="375.8" y2="78.07" xlink:href="#linear-gradient-41"/><linearGradient id="linear-gradient-106" x1="383.59" y1="87.45" x2="384.4" y2="87.45" xlink:href="#linear-gradient-41"/><linearGradient id="linear-gradient-107" x1="384.34" y1="87.88" x2="385.19" y2="87.88" xlink:href="#linear-gradient-41"/><linearGradient id="linear-gradient-108" x1="385.11" y1="88.39" x2="385.91" y2="88.39" xlink:href="#linear-gradient-41"/><linearGradient id="linear-gradient-109" x1="284.24" y1="38.75" x2="351.99" y2="38.75" xlink:href="#linear-gradient-41"/><linearGradient id="linear-gradient-110" x1="305.55" y1="8.65" x2="306.55" y2="8.65" xlink:href="#linear-gradient-41"/><linearGradient id="linear-gradient-111" x1="330.92" y1="30.61" x2="331.92" y2="30.61" xlink:href="#linear-gradient-41"/><linearGradient id="linear-gradient-112" x1="351.95" y1="54" x2="352.94" y2="54" xlink:href="#linear-gradient-41"/><linearGradient id="linear-gradient-113" x1="314.57" y1="292.26" x2="314.57" y2="275.38" xlink:href="#linear-gradient-8"/><linearGradient id="linear-gradient-114" x1="361.85" y1="263.46" x2="361.85" y2="234.89" xlink:href="#linear-gradient-8"/></defs><title>Asset 7</title><g class="cls-2"><g id="Layer_2" data-name="Layer 2"><g id="Layer_1-2" data-name="Layer 1"><path class="cls-3" d="M399.54,70.21,396,83.14l-4.68,17.19a1.19,1.19,0,0,1-1.84.66L358.45,79.26a1.52,1.52,0,0,1-.59-1.63l4.45-16.34,3.78-13.89a1.12,1.12,0,0,1,1.72-.62L399,68.58A1.51,1.51,0,0,1,399.54,70.21Z"/><path class="cls-4" d="M437.87,273.52C391,329,305.71,359.6,238.56,370.36c-34.24,5.48-58,7.18-58,7.18-63.24,14.77-24-117.47-116.77-119.19C-2.51,257.13,161.57,81.05,253.84,55S330.61,131.77,386,138.12,508.69,189.74,437.87,273.52Z"/><path class="cls-5" d="M469,134.64A1105.79,1105.79,0,0,0,329.86,259.7,172.93,172.93,0,0,0,316,236.14c26.08-32.68,50.74-66.41,77-99C407.2,119.41,421.86,101.4,440.65,89A133.46,133.46,0,0,1,469,134.64Z"/><path class="cls-6" d="M348.29,150.13l-54.9-38.45a2.64,2.64,0,0,1-1-2.87L306.9,55.35a2,2,0,0,1,3.05-1.1L365,92.81a2.64,2.64,0,0,1,1,2.87L351.55,149A2.12,2.12,0,0,1,348.29,150.13Z"/><path class="cls-7" d="M271.3,125.87,235.37,152.8l-46.92-13.06,1.7-19,42.45,2.07,24.11-11.53C261.49,109.62,275,118.47,271.3,125.87Z"/><path class="cls-8" d="M239.06,214.06s51.64-29.46,79.83-26.77,30,7.18,21.74,50.4a652.32,652.32,0,0,0-10,83.2l-35.06-.35L298,239.08l-62.13-1.7Z"/><path class="cls-9" d="M430.07,301.91c-6.13,15.62-20,16.42-20,16.42s-5-10.46-33.44-30.21-43.95-42.67-43.95-42.67-11.94,18.31-40.4,29.85c-68.21,27.65-119.51-27-119.51-27l67.75-15.49s47.78-31.42,81.33-35.2c2.5-.28,4.94-.44,7.3-.47,8.27-.09,15.55,1.52,20.86,5.65a62.45,62.45,0,0,1,6.46,6.56c1.46,1.63,3.08,3.51,4.85,5.57C384.25,241.85,430.07,301.91,430.07,301.91Z"/><path class="cls-10" d="M228.85,242.15s41.63,40.09,95.86-11.57a12.25,12.25,0,0,1,19.12,3l15.05,27.05"/><path class="cls-10" d="M206.53,252.05s45.47,32.77,97.23-5.48"/><path class="cls-11" d="M478.15,254.79c.94,1.7,8.71,2.26,5.15,13.13,0,.05,0,.1-.05.16l-1.36-.53-2.13,5.52,1.3.51c-1.07,2.36-2.38,4.94-3.93,7.66L475.44,280l-3.51,4.77,2.13,1.55c-1.31,2-2.73,4.14-4.26,6.24l-2-1.77-3.92,4.42,2.31,2.07c-1.64,2-3.38,4.06-5.21,6l-2.15-2.08-4.12,4.25,2.14,2.06c-1.87,1.82-3.8,3.56-5.82,5.22l-1.83-2.26L444,314.7l1.8,2.23c-2.07,1.63-4.05,3.15-5.94,4.52l-1.21-2.14-5.82,3.27,1.47,2.62c-8.79,5.4-15.29,6.27-20-1.08l61.13-70.37A2.22,2.22,0,0,1,478.15,254.79Z"/><path class="cls-12" d="M471.83,251.26c9.54,4.13,5.57,14.4-1.11,26.51-5.21,9.47-14.48,19.55-21.65,26.45v0c-2,1.92-3.83,3.6-5.38,4.95-7.06,6.17-22.95,18.52-31.88,14-5.34-2.72-11.51-10-15.6-15.45-2.74-3.65-4.56-6.45-4.56-6.45l20-25.88a8.29,8.29,0,0,1,4.2-2c2.36-.26,4.86,1.88,5.2,2S449.5,262.12,454.58,259,462.29,247.14,471.83,251.26Z"/><path class="cls-13" d="M396.13,307.62l13.12-7.9s10.38-1.3,14.92,3.56,7.05-9.87,24.82.86v0"/><path class="cls-14" d="M388.31,300.41c1.91.63,8.71,1.81,12.27-6.41,1.4-3.24,3.27-4.63,5-5.14a8.29,8.29,0,0,0,6.1-6.77c.59-4.28,3.7-7.43,4.13-8.73.82-2.47-32.76-34-35.54-36.14s-6.55-.72-8.33,2.19-4.23,10.94-17,12.27-8.48,12.62-8.48,12.62S386.41,299.78,388.31,300.41Z"/><path class="cls-15" d="M243.3,230.17s-12.79,42.19-53.36,34.22a74.86,74.86,0,0,1-6.4-4.87q-1.59-1.32-3.44-3c-13.91-12.6-37-39.94-32.55-79.16,6.59-58.47,32.59-58.32,32.59-58.32l38.55,10.4s23.25,14.41,13,43.56c-6.19,17.58,5.67,28.55,9.58,36.38a26.52,26.52,0,0,1,2.16,9.44A71.72,71.72,0,0,1,243.3,230.17Z"/><ellipse class="cls-16" cx="229.16" cy="215.44" rx="5.61" ry="6.71" transform="translate(-29.27 36.15) rotate(-8.48)"/><ellipse class="cls-17" cx="229.87" cy="214.55" rx="3.77" ry="4.51" transform="translate(-29.13 36.25) rotate(-8.48)"/><path class="cls-10" d="M213.73,164.12s-2.52,26.8-4.7,36.22-1.8,22.43,19.82,41.81"/><path class="cls-18" d="M204.51,137.64s1.92-12.51,10.58-12.07c28.15,1.44,32,27.08,61,27,17.23-.07,42.64-12.76,42.64-12.76l14,14.13S305.33,183.09,278.36,187s-63.28-10.07-71-18.44S204.51,137.64,204.51,137.64Z"/><path class="cls-10" d="M210.64,129s24.13,27.77,70.39,32.06l53.53-18.58"/><path class="cls-19" d="M347,150.13l-54.91-38.45a2.65,2.65,0,0,1-1-2.87l14.56-53.46a2,2,0,0,1,3-1.1l55.07,38.56a2.65,2.65,0,0,1,1,2.87L350.29,149A2.11,2.11,0,0,1,347,150.13Z"/><g class="cls-2"><g class="cls-20"><polyline class="cls-5" points="305.22 106.42 305.12 106.35 304.71 106.52 304.73 106.63 304.74 106.64 304.75 106.67 304.77 106.67 304.79 106.68 305.03 106.57 305.01 106.67 304.75 107.7 304.53 107.54 304.49 107.69 305.05 108.08 305.08 107.93 304.88 107.79 305.22 106.42"/><polyline class="cls-5" points="311.58 110.85 311.45 110.79 311.32 110.8 311.21 110.88 311.13 111.04 311.19 111.1 311.24 111.13 311.27 111.09 311.32 111.02 311.38 110.98 311.45 110.97 311.53 111.01 311.6 111.07 311.65 111.17 311.67 111.27 311.64 111.4 311.6 111.52 311.54 111.6 311.45 111.68 311.34 111.74 310.89 111.99 310.86 112.02 310.84 112.06 310.83 112.12 311.52 112.61 311.55 112.5 311.55 112.44 311.52 112.4 311.17 112.16 311.11 112.13 311.05 112.1 311.42 111.89 311.54 111.81 311.65 111.74 311.73 111.63 311.78 111.49 311.8 111.3 311.77 111.12 311.69 110.96 311.58 110.85"/><path class="cls-5" d="M318,115.37l-.14-.06h-.12l-.11.09-.08.15.06.07,0,0,0,0,0-.07.06,0h.07l.07,0,.08.07,0,.09,0,.1v.13l-.05.09-.06,0h-.09l-.12-.06,0,.14.13.11.07.11,0,.12,0,.12,0,.09-.07.06-.09,0-.1,0-.09-.09-.05-.11v-.2l0,0,0,0h-.07v.19l0,.17.08.15.13.13.14.06h.14l.1-.09.08-.17a.58.58,0,0,0,0-.26.55.55,0,0,0-.12-.24h.09l.07,0,.06-.07.05-.12,0-.18,0-.16-.08-.15-.11-.11"/><path class="cls-5" d="M324,120.68l.57-.48,0,.06,0,0-.15.63-.38-.26m.73-.63-.12-.08-.75.62v.14l0,0,.46.32-.1.4.11.07.1-.39.13.09h0v0l0-.12-.15-.11.24-1"/><polyline class="cls-5" points="331.22 124.62 330.72 124.28 330.46 124.92 330.53 125.02 330.63 125.05 330.71 125.1 330.81 125.18 330.86 125.3 330.88 125.42 330.86 125.56 330.81 125.7 330.73 125.77 330.64 125.8 330.53 125.75 330.45 125.68 330.4 125.6 330.37 125.53 330.34 125.49 330.3 125.49 330.24 125.54 330.28 125.65 330.33 125.74 330.4 125.83 330.49 125.91 330.65 125.97 330.79 125.95 330.91 125.84 330.99 125.64 331.02 125.45 330.99 125.26 330.91 125.09 330.78 124.95 330.62 124.88 330.77 124.52 331.1 124.75 331.17 124.76 331.2 124.7 331.22 124.62"/><path class="cls-5" d="M337,130.31l-.09-.09-.05-.12,0-.13,0-.14,0-.12.07-.06.09,0,.1,0,.08.08.06.12,0,.13,0,.15,0,.11-.07.07-.09,0-.1,0m.58-1.21-.12-.08h-.07l-.4.32a.86.86,0,0,0-.16.18l-.08.18,0,.24,0,.21.09.18.13.13.15.06.14,0,.12-.1.07-.18,0-.21,0-.18-.08-.16-.11-.12-.1,0h-.1l0,0,0,0,.45-.35"/><polyline class="cls-5" points="344.19 133.71 343.49 133.21 343.45 133.34 343.46 133.38 343.48 133.41 344.01 133.79 343.98 133.82 343.95 133.85 343.2 134.79 343.29 134.86 343.34 134.87 343.38 134.84 344.13 133.88 344.15 133.85 344.17 133.79 344.19 133.71"/><path class="cls-5" d="M300.54,98.27l-.08-.09,0-.16v-.23c0-.09,0-.19.05-.3a1.73,1.73,0,0,1,.1-.28l.1-.15.11,0,.1,0,.08.1.05.16v.22a1.88,1.88,0,0,1-.06.31.77.77,0,0,1-.09.27l-.1.16-.1,0-.11,0m.36-1.39-.17,0-.15.06a.39.39,0,0,0-.14.18,2.2,2.2,0,0,0-.12.32,1.64,1.64,0,0,0-.05.37,1.38,1.38,0,0,0,0,.29l.09.22.13.16.17,0,.15,0a.59.59,0,0,0,.14-.19,2.2,2.2,0,0,0,.12-.32,3,3,0,0,0,.06-.36,1.26,1.26,0,0,0,0-.3L301,97l-.13-.16"/><polyline class="cls-5" points="304.36 80.68 303.87 80.34 303.61 80.98 303.68 81.07 303.78 81.11 303.87 81.15 303.96 81.24 304.01 81.36 304.03 81.48 304.01 81.62 303.96 81.76 303.88 81.83 303.79 81.86 303.68 81.81 303.6 81.74 303.55 81.65 303.52 81.59 303.49 81.55 303.45 81.55 303.39 81.61 303.43 81.7 303.48 81.8 303.55 81.89 303.64 81.97 303.8 82.03 303.94 82.01 304.06 81.9 304.14 81.7 304.17 81.5 304.14 81.32 304.06 81.14 303.93 81.01 303.77 80.93 303.92 80.57 304.25 80.8 304.31 80.81 304.34 80.76 304.36 80.68"/><path class="cls-5" d="M304.57,82.43l-.08-.09-.05-.16V82a1.87,1.87,0,0,1,.05-.3,1.11,1.11,0,0,1,.1-.28l.1-.15.1,0,.1,0,.09.1,0,.16v.22a1.24,1.24,0,0,1,0,.31,1.18,1.18,0,0,1-.1.27l-.09.15-.11.06-.1,0m.35-1.38-.16-.07-.16.07a.62.62,0,0,0-.14.19,1.37,1.37,0,0,0-.11.31,1.35,1.35,0,0,0-.06.37.9.9,0,0,0,0,.29l.08.23.14.15.16.06.15-.06a.55.55,0,0,0,.15-.18,1.58,1.58,0,0,0,.11-.33,2.7,2.7,0,0,0,.06-.36,1.42,1.42,0,0,0,0-.3l-.08-.22-.14-.15"/><polyline class="cls-5" points="307.37 64.13 307.26 64.05 306.85 64.22 306.88 64.33 306.89 64.35 306.9 64.37 306.91 64.38 306.94 64.39 307.18 64.28 307.16 64.38 306.89 65.4 306.67 65.25 306.64 65.39 307.19 65.78 307.23 65.64 307.02 65.49 307.37 64.13"/><path class="cls-5" d="M307.75,66l-.08-.1-.06-.15v-.23a1.33,1.33,0,0,1,.05-.3.9.9,0,0,1,.1-.27l.1-.16.1-.05.1,0,.08.09.06.16v.23a1.4,1.4,0,0,1-.05.31,1.52,1.52,0,0,1-.09.26L308,66l-.1,0-.1,0m.35-1.38-.16-.06-.15.06a.71.71,0,0,0-.15.18,1.58,1.58,0,0,0-.11.33,1.69,1.69,0,0,0-.06.36,1.42,1.42,0,0,0,0,.3l.08.22.14.15.16.06.16-.06a.7.7,0,0,0,.14-.18,1.48,1.48,0,0,0,.11-.32,1.35,1.35,0,0,0,.06-.37,1,1,0,0,0,0-.3l-.08-.22-.14-.15"/><path class="cls-5" d="M308.59,66.59l-.08-.09-.05-.16v-.23a2.32,2.32,0,0,1,.05-.3,1.3,1.3,0,0,1,.1-.27l.1-.16.11,0,.09,0,.09.09.05.16v.23a1.5,1.5,0,0,1-.05.31,1.52,1.52,0,0,1-.09.26l-.1.16-.11,0-.1,0m.35-1.38-.16-.06-.15.06a.49.49,0,0,0-.14.19,1,1,0,0,0-.12.32,1.69,1.69,0,0,0-.06.36,1.42,1.42,0,0,0,0,.3l.08.22.14.15.16.06.16-.06a.7.7,0,0,0,.14-.18,1.69,1.69,0,0,0,.11-.32,1.35,1.35,0,0,0,.06-.37,1,1,0,0,0,0-.3l-.08-.22-.14-.15"/><path class="cls-21" d="M312.32,107.09l-6.15-4.3-.05.21,6.14,4.3.06-.21m6.44,4.51-6.14-4.3-.05.22,6.14,4.3.05-.22m6.46,4.52-6.14-4.3L319,112l6.14,4.3.06-.22m6.45,4.52-6.15-4.3,0,.21,6.14,4.3.06-.21m6.45,4.51-6.15-4.3-.05.22,6.14,4.3.06-.22m6.45,4.52-6.14-4.3-.06.22,6.15,4.3.05-.22m-38.64-27.33-3.56-2.49-.11.45,3.55,2.49.12-.45m40.61,28.43-1.6-1.12-.12.45,1.6,1.13.12-.46"/><path class="cls-21" d="M314.34,70.63l-.3-.22-8.11,31.93-.12.45-.08.34.3.21.09-.34.05-.21-.16-.12,2.34-9.19.16.1,1-3.81-.17-.1a.25.25,0,0,1-.07-.26c0-.1.1-.14.16-.09h0l.15.08,4.77-18.78"/><path class="cls-21" d="M312.62,107.3l-.3-.21-.06.21-.09.34.31.22.09-.34.05-.22m5-20.12a1.32,1.32,0,0,0-.2-.12l-1.85,7.28.21.14.1.07,1.85-7.29-.1-.07h0m3.19-12-.3-.21-3,11.77.21.13.1.08,3-11.77"/><path class="cls-21" d="M319.08,111.82l-.32-.22-.05.22-.09.34.31.22L319,112l.06-.22m3.43-13.52-.18-.12,0,0-.1-.08L321,102.87l.11.07.21.13,1.21-4.77m4.74-18.64-.32-.22-4.64,18.3.1.07.21.14,4.65-18.29"/><path class="cls-21" d="M325.52,116.34l-.3-.22-.06.22-.08.34.3.21.09-.34,0-.21m8.17-32.16-.3-.22L330.58,95l.19.11.12.09,2.8-11"/><path class="cls-21" d="M332,120.85l-.3-.21-.06.21-.08.34.3.22.09-.34.05-.22m8.17-32.16-.3-.21-4.41,17.34.17.13.14.09,4.4-17.35"/><path class="cls-21" d="M338.43,125.37l-.31-.22-.06.22-.09.34.32.22.08-.34.06-.22m8.17-32.16-.31-.22-3.37,13.26.25.17.06,0,3.37-13.25"/><path class="cls-21" d="M353.05,97.73l-.31-.22-4.24,16.7.14.1a.27.27,0,0,1,.08.26c0,.1-.1.14-.17.1l-.14-.11-.63,2.5.14.1-3.2,12.61-.15-.1-.05.22-.09.34.3.21.09-.34.12-.45,8.11-31.92"/><path class="cls-22" d="M345.32,110.7l.15.7.09.13a11.46,11.46,0,0,0,2.85,3l.14.11c.07,0,.15,0,.17-.1a.27.27,0,0,0-.08-.26l-.14-.1a11.17,11.17,0,0,1-2.77-2.95l-.41-.56M317.7,86.83l-.21-.13c-1.36-.74-2.94.18-4.39,1.13A21.07,21.07,0,0,1,311,89.17a1.78,1.78,0,0,1-1.39.24l-.15-.08h0c-.06,0-.14,0-.16.09a.25.25,0,0,0,.07.26l.17.1a1.9,1.9,0,0,0,1.58-.23c1-.49,2.16-1.42,3.31-2.06a3.19,3.19,0,0,1,3-.42,1.32,1.32,0,0,1,.2.12h0l.1.07a4.21,4.21,0,0,1,1.27,2c.5,1.4.76,3.2,1.19,4.86a6.9,6.9,0,0,0,2,3.92l.1.08,0,0,.18.12A4.72,4.72,0,0,0,326,99l.3-.42-.32,0A4.56,4.56,0,0,1,322.6,98l-.21-.14-.1-.07a4.67,4.67,0,0,1-1.42-2.15,43.32,43.32,0,0,1-1.21-4.87c-.38-1.59-.87-3-1.86-3.81l-.1-.08"/><path class="cls-23" d="M342.92,106.25c-2.8-1.7-4.44,1.57-7.18-.21l-.89,3.51a2.12,2.12,0,0,0,1.84.24,7.15,7.15,0,0,0,1.89-1c1.2-.8,2.45-1.63,3.9-.79l.44-1.73M330.58,95c-1.27-.61-2.75,1.36-4.25,3.52a4.37,4.37,0,0,1,3.19.65L330.58,95m.31.2-1.06,4.18c1.38,1.07,1.9,3.11,2.42,5.08s1,3.83,2.29,4.85l.89-3.51c-2.66-2.15-1.92-8.56-4.54-10.6"/><path class="cls-24" d="M330.77,95.13l-.19-.11-1.06,4.17.19.12.12.09,1.06-4.18-.12-.09"/><path class="cls-24" d="M335.43,105.82l-.89,3.51.17.13.14.09.89-3.51-.14-.09-.17-.13"/><path class="cls-23" d="M342.71,108.53l-4.22,16.61,6.14,4.3,3.15-12.38c-1.47-1.16-1.86-3.44-2.31-5.66a11.08,11.08,0,0,0-2.76-2.87m.52-2.07-.44,1.72a10.56,10.56,0,0,1,2.53,2.52c-.38-1.74-.89-3.36-2.09-4.24"/><polyline class="cls-24" points="344.63 129.44 338.49 125.14 338.43 125.37 344.57 129.67 344.63 129.44"/><path class="cls-23" d="M315.55,94.34c-2.51-1.56-5.35.19-7-.76l-2.28,9,6.15,4.3,3.17-12.51m.31.21-3.18,12.52,6.14,4.3,2.16-8.5c-2.76-2.05-2.61-6.45-5.12-8.32m13.57,5a4.48,4.48,0,0,0-3.37-.58h0c-1.64,2.37-3.3,4.78-4.73,4.11l-2.16,8.52,6.14,4.3,4.15-16.35m.31.21-4.16,16.35,6.15,4.3,2.72-10.72c-1.39-1.1-1.93-3.14-2.44-5.09s-1-3.86-2.27-4.84m12.65,8.57a2.6,2.6,0,0,0-2.74.2,15.6,15.6,0,0,1-2.89,1.66,2.26,2.26,0,0,1-2-.29L332,120.62l6.15,4.3,4.21-16.6"/><path class="cls-24" d="M312.38,106.85l-6.15-4.3-.06.24,6.15,4.3.06-.24m6.44,4.52-6.14-4.3-.06.23,6.14,4.3.06-.23m6.46,4.52-6.14-4.3-.06.23,6.14,4.3.06-.23m6.45,4.51-6.15-4.3-.06.24,6.15,4.3.06-.24m6.45,4.52-6.15-4.3-.06.23,6.15,4.3.06-.23"/><path class="cls-24" d="M308.51,93.58l-.16-.1L306,102.67l.16.12.06-.24,2.28-9"/><path class="cls-24" d="M315.76,94.48l-.21-.14-3.17,12.51-.06.24.3.21.06-.23,3.18-12.52-.1-.07"/><path class="cls-24" d="M321.3,103.07l-.21-.13-.11-.07-2.16,8.5-.06.23.32.22.06-.23,2.16-8.52"/><path class="cls-24" d="M329.62,99.67l-.19-.13-4.15,16.35-.06.23.3.22.06-.24,4.16-16.35-.12-.08"/><path class="cls-24" d="M334.45,109.68l-2.72,10.72-.06.24.3.21.06-.23,2.73-10.73a.41.41,0,0,1-.11-.07l0,0-.17-.12"/><path class="cls-24" d="M342.65,108.48l-.26-.16-4.21,16.6-.06.23.31.22.06-.23,4.22-16.61-.06,0m.52-2.06-.25-.17-.44,1.73a1.75,1.75,0,0,1,.25.16l.06,0,.44-1.72-.06,0"/><path class="cls-24" d="M347.78,117.06l-3.15,12.38-.06.23.15.1,3.2-12.61-.14-.1"/><path class="cls-25" d="M342.73,108.14a1.75,1.75,0,0,0-.25-.16c-1.45-.84-2.7,0-3.9.79a7.15,7.15,0,0,1-1.89,1,2.12,2.12,0,0,1-1.84-.24l-.14-.09-.17-.13c-1.27-1-1.78-2.9-2.29-4.85s-1-4-2.42-5.08l-.12-.09-.19-.12a4.37,4.37,0,0,0-3.19-.65L326,99h0a4.48,4.48,0,0,1,3.37.58l.19.13.12.08c1.25,1,1.75,2.86,2.27,4.84s1.05,4,2.44,5.09l.17.12,0,0a.41.41,0,0,0,.11.07,2.26,2.26,0,0,0,2,.29,15.6,15.6,0,0,0,2.89-1.66,2.6,2.6,0,0,1,2.74-.2l.26.16.06,0a11.08,11.08,0,0,1,2.76,2.87l-.15-.7a10.56,10.56,0,0,0-2.53-2.52l-.06,0"/></g></g><path class="cls-26" d="M326.17,132.54s-.5-3,5.47-10.74,12.54-11.38,14.87-9.67,2.34,2.41,2.34,2.41l-6,8.57a29.64,29.64,0,0,0,18.48-17.65s1.64-.73,1.39,4.89l.32-1.49s1.58,4.6-.11,11.49l.55-.74s4,12.76-7.8,20.14-10.82,3.9-26.2,18.69c0,0-10.22-2.42-12.8-18.55C316.66,139.89,317.63,140.35,326.17,132.54Z"/><path class="cls-27" d="M192.86,106.59s1.48,7.89-4.11,11c0,0,11.53,4.54,13.79,8.36,0,0,5.17-11.24,20.48-11.78,6.49-.23,8.26-25-3.77-36.86Z"/><path class="cls-27" d="M217.39,95.75s-4.2-7-7.56-2.82-1.83,10.12,5.39,11Z"/><path class="cls-28" d="M337.18,371.1c-14.36,3.74-32.59,15-40.45,12.44a7.2,7.2,0,0,1-1.48-.67,4.34,4.34,0,0,1-.95-.8c-5-5.28-.33-22.39-.38-24.61a9.16,9.16,0,0,0-.39-3.24,10.76,10.76,0,0,0-1.43-2.41c-1.85-2.52,1.88-4.28,1.88-4.28-.23-1.82,1.37-8.7,1.37-8.7L330,337c6,1.13,5.94,7.22,5.94,7.22,4.32-.54,25.23-2.53,36,1,3,1,1.87,4.17,3.45,5.84.12.12.22.25.32.37C381.7,359.16,352.32,367.15,337.18,371.1Z"/><path class="cls-13" d="M293.53,354.22l.2-.17s12.94-3,16.27.27,16.25,1.08,19.2,8.89l-32.47,20.33a7.2,7.2,0,0,1-1.48-.67"/><path class="cls-29" d="M375.74,351.47c-7.3-3.1-29.72,4.4-44.62,9.7-17.14,6.1-29.09,12.3-34.08,16-2.37,1.75-2.87,3.53-2.74,4.92a4.34,4.34,0,0,0,.95.8,7.2,7.2,0,0,0,1.48.67c3.56,1.19,9.6.75,16.48-.42l-.1-1.93,5.88-.31.06,1.12c1.83-.39,3.7-.8,5.56-1.24l-.13-2.35,5.88-.31.07,1.24,5.43-1.39-.37-1.92,5.78-1.12.29,1.49c1.66-.51,3.43-1.12,5.26-1.8l-.62-3.18,5.79-1.11.39,2c1.83-.8,3.68-1.66,5.48-2.56l-.5-2.56,5.79-1.12.14.77C372.39,361.6,379,355.61,375.74,351.47Z"/><path class="cls-30" d="M321.05,287.43c3.91.14,11.33-3.16,15.19,1.81,2.49,3.2-4.22,40-3.85,43.32s.31,5-3.09,6.53-15.66,11.13-22.63,11.06-14-10-13.81-12.76-.3-42.65-.5-46.56,2.74-13.93,9.57-13.86S316.26,287.25,321.05,287.43Z"/><polygon class="cls-31" points="363.15 366.1 360.19 355.2 355.7 355.31 360.25 366.66 363.15 366.1"/><polygon class="cls-32" points="351.99 370.31 349.51 359.62 346 359.71 349.62 370.76 351.99 370.31"/><polygon class="cls-33" points="341.27 374.92 338.53 363.95 335.34 364.38 339.28 375.3 341.27 374.92"/><polygon class="cls-34" points="330.36 378.1 327.56 369.04 324.67 369.11 327.63 378.17 330.36 378.1"/><polygon class="cls-35" points="318.99 380.88 316.69 372.46 313.9 373.14 316.42 380.94 318.99 380.88"/><path class="cls-36" d="M243.3,230.17s-12.79,42.19-53.36,34.22a74.86,74.86,0,0,1-6.4-4.87q-1.59-1.32-3.44-3c51.62,4.71,63.3-37.7,63.3-37.7A71.72,71.72,0,0,1,243.3,230.17Z"/><path class="cls-10" d="M361.32,214.94a27.51,27.51,0,0,1-39.47-17.31"/><path class="cls-37" d="M356.47,209.37a20.38,20.38,0,0,1-27.32-12.21c8.27-.09,15.55,1.52,20.86,5.65A62.45,62.45,0,0,1,356.47,209.37Z"/><path class="cls-38" d="M180.14,119l4.88-7.52a3.3,3.3,0,0,1,2.73.31c3.82,2.45,9.13,7,24.27,7.45.46,0,1.72-.42,1.42.76l-.17,7.54C198.18,126.7,190.42,125.5,180.14,119Z"/><path class="cls-39" d="M222.25,60.25A28.13,28.13,0,0,1,230,58.14c-6.14-3.64-13.91-2.06-20.85-.38l4.44-5c-6,3.9-15.78,4.29-21.47,8.18a19.39,19.39,0,0,0-8.25,5.81c-6.39,7.26-1,15.56-1,15.56-8.08,8.15,0,16.37,3.48,19s6.63,8.33,6.63,8.33c15.17,8.46,21.39-6.51,21.39-6.51-5.78-1.33-5.32-6.64-3-7.51s4.06,3,4.06,3,2.61-5.43,0-9.61S218,82.66,218,82.66c7.61-3.44,8.72-8.65,8.38-12.3A22,22,0,0,0,228,66.79l1.61,1A11.89,11.89,0,0,0,222.25,60.25Z"/><ellipse class="cls-10" cx="278.96" cy="179.38" rx="17.77" ry="8.82" transform="translate(-7.64 12.48) rotate(-2.53)"/><ellipse class="cls-40" cx="279.03" cy="181.02" rx="11.29" ry="7.18" transform="translate(-7.71 12.49) rotate(-2.53)"/><path class="cls-41" d="M188.77,112.81a1.89,1.89,0,0,0-2.05,1.4,12.18,12.18,0,0,0-.33,2.71,13.36,13.36,0,0,1-2.34,5.34"/><path class="cls-41" d="M192,114.59a3.81,3.81,0,0,0-1.82,1.79,11.74,11.74,0,0,0-.85,2.46,22.43,22.43,0,0,0-.93,5.25"/><path class="cls-41" d="M195.56,116.35a2.43,2.43,0,0,0-1.17,1.71,8.59,8.59,0,0,0,0,2.15,56.28,56.28,0,0,1-.14,6"/><path class="cls-41" d="M200.71,118a6.07,6.07,0,0,0-1.73,4.21,17.93,17.93,0,0,0,.6,4.6"/><path class="cls-41" d="M204.44,118.64a21.79,21.79,0,0,0,.16,9.44"/><path class="cls-41" d="M209.09,119.28c-.3,3-.47,5.92-.5,8.89"/><path class="cls-42" d="M224,88.07a.9.9,0,0,0,.12-.48.69.69,0,0,0-.24-.45,1.45,1.45,0,0,0-1.85.17A5.34,5.34,0,0,0,220.91,89c-.21.39-.81,1.31-.59,1.78s.83.07,1.25-.16A5.64,5.64,0,0,0,224,88.07Z"/><ellipse class="cls-42" cx="224.58" cy="93.66" rx="1.44" ry="0.53" transform="translate(106.36 306.34) rotate(-83.57)"/><circle class="cls-43" cx="205.96" cy="83.79" r="43.93"/><path class="cls-44" d="M307.71,84.41a7.7,7.7,0,0,1-3.14,6.36c-3.49,2.8-13,4.93-13,4.93L299,85.2Z"/><path class="cls-44" d="M301,94.77a4.62,4.62,0,0,1-2.72,3.91c-2.77,1.41-9.18.78-9.18.78l5.4-5.37Z"/><path class="cls-45" d="M307.29,113.13A14.34,14.34,0,0,0,297,109.61c-6.33.31-6.9-1.73-6.37-3s8.27-13.78,10-16.13c0,0,7.65-2,9.63-5.63a7.4,7.4,0,0,0,.79-5,1.64,1.64,0,0,0-2.31-1.19l-10.73,5-6.43,7.06s-5.87.69-7.12,1.07a3.34,3.34,0,0,0-1.06,1h0s-2.95.12-4,1.57-3.72,9-7.06,10.36-18,6.85-18.49,7c-.1,1,2.23-.19,5.07,1,3.75,1.59,7.44,3.63,11.08,13.41a1.07,1.07,0,0,0,1.75.4c2.94-2.9,10.35-10.25,10.35-10.25s5.62,3.69,8.2,3,9.12-4.46,13.18-2.89S307.6,113.36,307.29,113.13Z"/><path class="cls-13" d="M270.28,106.78s4-1.59,4.86-3.73,2.6-9.82,8.31-10.23c0,0,2.3-2.91,8.18-2.06,0,0,4.62-7.57,6.43-7.06s2.5,4.84-.53,9.12-10.9,9-11.67,15.12C285.86,107.94,278.13,104,270.28,106.78Z"/><path class="cls-13" d="M356.14,116.46s4.44.52,2.32,6c0,0,3.85,3.25-.59,8,0,0,3.4.7.22,7.72l-12.53,7.17s-4.62-11.44-10.47-12.11c0,0,6.61-6.74,8-8.71S356.14,116.46,356.14,116.46Z"/><path class="cls-44" d="M318.93,138.26s-.33,11.46,10.82,15.31c0,0-9.28-5.29-9.8-15.94Z"/><path class="cls-44" d="M263.75,111.71a19.09,19.09,0,0,1,8.77,14.17l1.15-1.13S274.46,115.8,263.75,111.71Z"/><path class="cls-46" d="M203.47,144.35s3.73,7.93,3.09,16.17"/><path class="cls-47" d="M219.39,146.18c-12,23.5-24.08,99.53-27.55,107-2.78,6-23.88,11.44-32.64,9.6a25,25,0,0,1-3.75-1.11c-1.08-.41-2.21-.9-3.4-1.49-13.3-6.66-14.59-7-20-8.87a18.77,18.77,0,0,1-6.42-3.69c-2.8-2.5-8.6-7.19-9.09-12.48-.64-7-5.49-41.83,10.09-77.08a114.9,114.9,0,0,1,19-29.77c13.2-15,32.07-9.68,47-7,5.85,1.07,12.26,2.52,17.49,4.91l0,0h0c.59.27,1.16.56,1.72.85h0C219.06,130.89,224.05,137.07,219.39,146.18Z"/><path class="cls-48" d="M175.67,205.94c-10.79,30-18,47.65-16.47,56.86l-3.75-1.11c-1.08-.41-2.21-.9-3.4-1.49-13.3-6.66-14.59-7-20-8.87a18.77,18.77,0,0,1-6.42-3.69c-2.8-10.47-11.13-35.37-5.77-64.32a168.6,168.6,0,0,1,6.77-25.24,114.9,114.9,0,0,1,19-29.77,28.35,28.35,0,0,1,11.68-8.11,36.81,36.81,0,0,1,14-2c7.32.23,14.7,1.93,21.32,3.13A101.46,101.46,0,0,1,204.23,124a48.33,48.33,0,0,1,6,2.23h0l.05,0h0a8.56,8.56,0,0,1,1.72.85h0a5.23,5.23,0,0,1,1.51,1.46,3.81,3.81,0,0,1,.06,4.05C211.29,137.27,186.45,175.94,175.67,205.94Z"/><path class="cls-49" d="M202.84,131.09l-11.43,20.14c-3.8,6.71-7.61,13.43-11.26,20.22-.91,1.7-1.78,3.4-2.65,5.13s-1.79,3.43-2.72,5.13Q172,186.8,169,191.78a194.93,194.93,0,0,1-12.88,19.29,71,71,0,0,1-7.79,8.66,26,26,0,0,1-4.73,3.51,8.31,8.31,0,0,1-5.87,1.18,10.11,10.11,0,0,1-4.88-3.46,20,20,0,0,1-2.85-5.17,43.54,43.54,0,0,1-2.39-11.41,104.3,104.3,0,0,1,.9-23.16,154.35,154.35,0,0,1,5-22.6A155.31,155.31,0,0,0,129,181.29a104.3,104.3,0,0,0-.61,23,44.13,44.13,0,0,0,2.43,11.17,18.77,18.77,0,0,0,2.73,4.92,9.21,9.21,0,0,0,4.41,3.14,7.41,7.41,0,0,0,5.2-1.12,24.72,24.72,0,0,0,4.53-3.4,70,70,0,0,0,7.65-8.56,195.4,195.4,0,0,0,12.89-19.15q3-5,5.76-10c1.88-3.36,3.59-6.81,5.46-10.21C187,157.57,194.9,144.33,202.84,131.09Z"/><path class="cls-50" d="M213.52,128.6,203,130.5l-.06.09c-1.11,1.83-19.1,31.22-23.65,40-4.71,9-27.07,48.41-38.84,43.74-8.39-3.34-11.49-18.66-9.76-37.07a130.17,130.17,0,0,1,4.41-23.15,67.32,67.32,0,0,1,13-24.9c.45-.55.91-1.08,1.37-1.59a59.53,59.53,0,0,1,7.88-7.39,37,37,0,0,1,14-2L204.23,124a49.19,49.19,0,0,1,6,2.23h0l.05,0h0a8,8,0,0,1,1.72.85h0A5.1,5.1,0,0,1,213.52,128.6Z"/><path class="cls-51" d="M175.33,146.8q-6.78,9.91-14,19.49c-3.46,4.56-7.07,9.13-11.72,12.48a30.78,30.78,0,0,1-13,5.4,3.51,3.51,0,0,1-2.29-.17,3.72,3.72,0,0,1-1.35-1.82c-.75-1.64-1.5-3.28-2.2-5a130.17,130.17,0,0,1,4.41-23.15,67.32,67.32,0,0,1,13-24.9c9.58-4.29,25-5.83,30.82,1.62C183.38,136.42,178.61,142,175.33,146.8Z"/><path class="cls-52" d="M213.52,128.61,203,130.5l-.06.09c-13.51,2.36-34,5.26-44.39,3.34-6.62-1.23-8.81-3.77-9.07-6.35a60,60,0,0,1,7.88-7.38,32.4,32.4,0,0,1,8.57-1.84,44.82,44.82,0,0,1,5.44-.14L204.23,124a48.17,48.17,0,0,1,6,2.23h0l.05,0h0a8.56,8.56,0,0,1,1.72.85s0,0,0,0c.16.1.31.22.47.34A4.51,4.51,0,0,1,213.52,128.61Z"/><path class="cls-53" d="M212.48,127.48c-13.5,2.33-33.39,5.08-43.58,3.2-6.63-1.23-8.81-3.76-9.07-6.35a59.81,59.81,0,0,1,6.14-6,44.82,44.82,0,0,1,5.44-.14L204.23,124a48.17,48.17,0,0,1,6,2.23h0l.05,0h0a8.56,8.56,0,0,1,1.72.85s0,0,0,0C212.17,127.24,212.32,127.36,212.48,127.48Z"/><path class="cls-54" d="M180.26,238.4S167.31,277,195,278.35c30.6,1.53,39.36-45.41,35-63"/><path class="cls-55" d="M176.22,224.73s-6.88,25.42-6.78,29.16c0,0,11.84,1.53,18.6-4.49,0,0,4.84-37.51,3-37.65S177.57,219.64,176.22,224.73Z"/><path class="cls-56" d="M191,211.75s-10.06,9.93-11.11,12.41-2.36,29.58-2.36,29.58-4.95,1.21-8.13.15c0,0,6.75-29.78,7.66-31.07S185.58,212.67,191,211.75Z"/><path class="cls-57" d="M187,77.76c-.89-3.1.67-6.47,3-8.7s5.35-3.56,8.25-5"/><path class="cls-57" d="M200.42,68c4.64-2.34,7.69-5.53,12.34-7.87a27.7,27.7,0,0,1,8-2.48"/><path class="cls-57" d="M212.11,68.31c4.68.21,8.16-5.51,13.61-3.1"/><path class="cls-5" d="M190.14,334.37l-3.71-14.43a5.76,5.76,0,0,0-2.7-3.57l-7.32-4.23,2.16,8.75s7,11.22,9.59,20.68l1.57-3.23A5.8,5.8,0,0,0,190.14,334.37Z"/><path class="cls-5" d="M83.94,259.91s16.48-3.59,26.23-1.63l-3.25-3a5.79,5.79,0,0,0-3.68-1.54l-14.88-.65a5.77,5.77,0,0,0-4.2,1.55L78,260.38l14.2.75Z"/><circle class="cls-5" cx="92.64" cy="351.72" r="92.63"/><path class="cls-58" d="M151.11,354.07c-.07,2.24,0,4.65,1.23,6.51,1.47,2.17,4.2,3,6.73,3.75a2.66,2.66,0,0,0,1.9.06A2.69,2.69,0,0,0,162,363l3.16-6.72a14.24,14.24,0,0,0,1.63-4.94c.24-3.1-1.53-6-3.43-8.44C152.89,329.33,151.39,345,151.11,354.07Z"/><path class="cls-58" d="M92.29,279c2.25-.13,4.64-.38,6.38-1.81,2-1.66,2.65-4.46,3.14-7a2.63,2.63,0,0,0-.12-1.9,2.6,2.6,0,0,0-1.44-.93l-7-2.56a14.26,14.26,0,0,0-5.06-1.18c-3.11,0-5.82,2.06-8.1,4.17C67.5,279.44,83.28,279.53,92.29,279Z"/><path class="cls-58" d="M126.09,284.58a13,13,0,0,0-3.28-3.49c-8.42-6.2-13.92-2.55-6.12,4.66C120.2,289,133,295.48,126.09,284.58Z"/><path class="cls-58" d="M151.39,312.71c3,4.51,7.92,7.91,13.31,8.11a2,2,0,0,0,1.38-.33,2.06,2.06,0,0,0,.52-1.1,64.11,64.11,0,0,0,1.24-6.75,7.69,7.69,0,0,0-.09-3.31,8.17,8.17,0,0,0-2-3c-3.32-3.56-6.86-7.25-11.5-8.71-4.84-1.52-7-1.24-6.81,3.62A23.82,23.82,0,0,0,151.39,312.71Z"/><path class="cls-59" d="M121.61,322.36a8.66,8.66,0,0,0,6.66,4.05.75.75,0,0,0,.94-.71,29.56,29.56,0,0,0,.62-3.38,3.67,3.67,0,0,0,0-1.65,4,4,0,0,0-1-1.48c-1.67-1.78-3.44-3.63-5.76-4.36s-3.48-.62-3.4,1.81A12,12,0,0,0,121.61,322.36Z"/><path class="cls-58" d="M113.42,128.52c1.35-3.79,2.15-8.49-.58-11.44-2.29-2.48-6.36-2.61-9.39-1.11s-5.21,4.29-7,7.13-3.49,5.85-5.9,8.22c-3.24,3.19-7.6,5-11.27,7.64s-13,12.9-10.13,18.34c2.11,4,12.28,5,16.23,3.85C98.34,157.41,109.2,140.38,113.42,128.52Z"/><circle class="cls-60" cx="439.77" cy="165.56" r="16.15"/><circle class="cls-61" cx="127.4" cy="96.16" r="8.26"/><circle class="cls-62" cx="245.67" cy="363.36" r="30.34"/><circle class="cls-62" cx="462.12" cy="191.19" r="30.34"/><circle class="cls-63" cx="332.14" cy="103.41" r="4.39" transform="translate(-14.81 78.24) rotate(-13.14)"/><circle class="cls-64" cx="323.32" cy="98.35" r="4.39"/><circle class="cls-65" cx="316.66" cy="86.88" r="4.39"/><path class="cls-66" d="M398.54,70.21,395,83.14c-.62-.48-1.26-.92-1.92-1.34A52.83,52.83,0,0,0,379.33,76,27.19,27.19,0,0,1,374,74a24.16,24.16,0,0,1-4.74-3.65,46.11,46.11,0,0,1-6.36-6.6,20.72,20.72,0,0,1-1.56-2.5l3.78-13.89a1.12,1.12,0,0,1,1.72-.62L398,68.58A1.51,1.51,0,0,1,398.54,70.21Z"/><path class="cls-67" d="M398.54,70.21,395,83.14l-4.68,17.19a1.19,1.19,0,0,1-1.84.66L357.45,79.26a1.52,1.52,0,0,1-.59-1.63l4.45-16.34,3.78-13.89a1.12,1.12,0,0,1,1.72-.62L398,68.58A1.51,1.51,0,0,1,398.54,70.21Z"/><g class="cls-2"><polyline class="cls-68" points="366.19 71.74 363.94 70.17 363.85 70.52 366.1 72.09 366.19 71.74"/><polyline class="cls-69" points="364.19 69.3 364.08 69.64 366.29 71.38 366.39 71.03 364.19 69.3"/><polyline class="cls-70" points="364.46 68.46 364.35 68.79 366.5 70.7 366.61 70.36 364.46 68.46"/><polyline class="cls-71" points="364.77 67.66 364.64 67.98 366.73 70.05 366.86 69.73 364.77 67.66"/><polyline class="cls-72" points="365.1 66.89 364.96 67.2 366.99 69.43 367.13 69.11 365.1 66.89"/><polyline class="cls-73" points="365.46 66.16 365.3 66.46 367.26 68.83 367.41 68.53 365.46 66.16"/><polyline class="cls-74" points="365.83 65.47 365.67 65.75 367.56 68.27 367.71 67.98 365.83 65.47"/><polyline class="cls-75" points="366.24 64.81 366.06 65.08 367.87 67.73 368.04 67.46 366.24 64.81"/><polyline class="cls-76" points="366.66 64.2 366.48 64.45 368.2 67.22 368.38 66.97 366.66 64.2"/><polyline class="cls-77" points="367.11 63.63 366.92 63.86 368.55 66.75 368.74 66.51 367.11 63.63"/><polyline class="cls-78" points="367.57 63.09 367.37 63.31 368.91 66.31 369.11 66.08 367.57 63.09"/><polyline class="cls-79" points="368.06 62.6 367.85 62.8 369.29 65.89 369.5 65.69 368.06 62.6"/><polyline class="cls-80" points="368.56 62.14 368.34 62.33 369.69 65.51 369.9 65.33 368.56 62.14"/><polyline class="cls-81" points="369.07 61.73 368.85 61.9 370.09 65.17 370.31 65 369.07 61.73"/><polyline class="cls-82" points="369.61 61.37 369.38 61.52 370.51 64.86 370.74 64.7 369.61 61.37"/><polyline class="cls-83" points="370.15 61.04 369.92 61.17 370.94 64.58 371.18 64.44 370.15 61.04"/><polyline class="cls-84" points="370.71 60.76 370.47 60.87 371.39 64.34 371.63 64.22 370.71 60.76"/><polyline class="cls-85" points="371.28 60.51 371.03 60.62 371.85 64.12 372.09 64.03 371.28 60.51"/><polyline class="cls-86" points="371.86 60.32 371.61 60.4 372.3 63.95 372.55 63.88 371.86 60.32"/><polyline class="cls-87" points="372.45 60.17 372.19 60.23 372.78 63.81 373.03 63.76 372.45 60.17"/><polyline class="cls-88" points="373.05 60.06 372.79 60.1 373.25 63.71 373.51 63.68 373.05 60.06"/><polyline class="cls-89" points="373.65 60.01 373.39 60.03 373.74 63.65 373.99 63.63 373.65 60.01"/><polyline class="cls-90" points="374.26 60 374 60 374.22 63.63 374.48 63.63 374.26 60"/><polyline class="cls-91" points="374.88 60.04 374.62 60.02 374.71 63.64 374.97 63.66 374.88 60.04"/><polyline class="cls-92" points="375.5 60.13 375.24 60.09 375.21 63.69 375.47 63.73 375.5 60.13"/><polyline class="cls-93" points="376.12 60.26 375.86 60.2 375.71 63.77 375.97 63.84 376.12 60.26"/><polyline class="cls-94" points="376.75 60.45 376.49 60.36 376.21 63.91 376.47 63.99 376.75 60.45"/><polyline class="cls-95" points="377.37 60.68 377.11 60.58 376.71 64.08 376.96 64.18 377.37 60.68"/><polyline class="cls-96" points="377.99 60.97 377.74 60.85 377.21 64.28 377.47 64.42 377.99 60.97"/><polyline class="cls-97" points="378.61 61.31 378.36 61.16 377.71 64.54 377.96 64.69 378.61 61.31"/><polyline class="cls-98" points="379.23 61.69 378.98 61.53 378.21 64.83 378.46 65 379.23 61.69"/><polyline class="cls-99" points="379.6 61.95 378.71 65.17 378.95 65.35 379.84 62.13 379.6 61.95"/><polyline class="cls-100" points="380.2 62.42 379.19 65.54 379.43 65.74 380.43 62.61 380.2 62.42"/><polyline class="cls-101" points="380.77 62.91 379.65 65.95 379.88 66.16 381 63.13 380.77 62.91"/><polyline class="cls-102" points="381.33 63.46 380.1 66.38 380.32 66.61 381.55 63.69 381.33 63.46"/><polyline class="cls-103" points="381.87 64.03 380.54 66.84 380.75 67.08 382.08 64.28 381.87 64.03"/><polyline class="cls-104" points="382.38 64.65 380.94 67.33 381.15 67.58 382.59 64.91 382.38 64.65"/><polyline class="cls-105" points="382.88 65.29 381.34 67.84 381.54 68.12 383.07 65.57 382.88 65.29"/><polyline class="cls-106" points="383.34 65.97 381.72 68.38 381.91 68.68 383.54 66.26 383.34 65.97"/><polyline class="cls-107" points="383.79 66.68 382.08 68.95 382.25 69.25 383.97 66.98 383.79 66.68"/><polyline class="cls-108" points="384.22 67.41 382.42 69.53 382.59 69.85 384.39 67.73 384.22 67.41"/><polyline class="cls-109" points="384.62 68.17 382.74 70.14 382.9 70.46 384.77 68.5 384.62 68.17"/><polyline class="cls-110" points="384.99 68.95 383.04 70.77 383.19 71.1 385.14 69.29 384.99 68.95"/><polyline class="cls-111" points="385.33 69.75 383.31 71.41 383.45 71.76 385.47 70.11 385.33 69.75"/><polyline class="cls-112" points="385.65 70.58 383.57 72.07 383.7 72.43 385.78 70.94 385.65 70.58"/><polyline class="cls-113" points="385.95 71.43 383.81 72.75 383.93 73.12 386.07 71.79 385.95 71.43"/><polyline class="cls-114" points="386.22 72.28 384.02 73.43 384.13 73.81 386.32 72.66 386.22 72.28"/><polyline class="cls-115" points="386.45 73.16 384.22 74.14 384.31 74.52 386.55 73.54 386.45 73.16"/><polyline class="cls-116" points="386.67 74.05 384.39 74.86 384.47 75.24 386.75 74.43 386.67 74.05"/><polyline class="cls-117" points="386.85 74.95 384.54 75.58 384.61 75.96 386.92 75.33 386.85 74.95"/><polyline class="cls-118" points="387 75.86 384.66 76.31 384.72 76.7 387.06 76.25 387 75.86"/><polyline class="cls-119" points="387.13 76.78 384.76 77.04 384.81 77.44 387.17 77.17 387.13 76.78"/><polyline class="cls-120" points="387.22 77.71 384.84 77.79 384.87 78.18 387.25 78.1 387.22 77.71"/><polyline class="cls-121" points="387.28 78.64 384.89 78.53 384.91 78.92 387.3 79.03 387.28 78.64"/><polyline class="cls-122" points="387.31 79.57 384.92 79.28 384.92 79.67 387.32 79.96 387.31 79.57"/><polyline class="cls-123" points="387.31 80.51 384.92 80.02 384.91 80.42 387.31 80.9 387.31 80.51"/><polyline class="cls-124" points="387.29 81.44 384.9 80.78 384.87 81.16 387.26 81.83 387.29 81.44"/><polyline class="cls-125" points="387.22 82.38 384.85 81.52 384.81 81.91 387.18 82.76 387.22 82.38"/><polyline class="cls-126" points="387.12 83.31 384.77 82.27 384.71 82.64 387.07 83.68 387.12 83.31"/><polyline class="cls-127" points="386.98 84.23 384.66 83 384.6 83.38 386.92 84.6 386.98 84.23"/><polyline class="cls-128" points="386.82 85.14 384.53 83.74 384.45 84.1 386.74 85.5 386.82 85.14"/><polyline class="cls-129" points="386.61 86.04 384.37 84.47 384.28 84.82 386.53 86.39 386.61 86.04"/><path class="cls-130" d="M378.33,66.07c-4.69-3.29-9.92-.43-11.66,6.4l0,0c1.72-6.79,6.93-9.65,11.61-6.37s7.09,11.47,5.36,18.26l0,0c1.73-6.83-.68-15-5.38-18.33"/><path class="cls-131" d="M375.11,78.77a.65.65,0,0,1-.19-.21,1.06,1.06,0,0,1,0-1.09.37.37,0,0,1,.54-.1.7.7,0,0,1,.19.22,1.06,1.06,0,0,1,0,1.09.37.37,0,0,1-.54.09m5.25-7.49s-5.34,5.34-5.67,5.78a1.79,1.79,0,0,0,0,1.83,1.1,1.1,0,0,0,.32.35.62.62,0,0,0,.9-.16c.33-.45,4.47-7.8,4.47-7.8"/><path class="cls-132" d="M375.46,77.37a.37.37,0,0,0-.54.1,1.06,1.06,0,0,0,0,1.09.65.65,0,0,0,.19.21.37.37,0,0,0,.54-.09,1.06,1.06,0,0,0,0-1.09.7.7,0,0,0-.19-.22"/><polyline class="cls-133" points="384.4 86.82 384.25 86.71 383.87 86.85 383.88 87 383.89 87.03 383.91 87.05 383.94 87.07 383.97 87.07 384.1 87.02 384.08 87.06 384.06 87.1 383.82 87.76 383.67 87.66 383.6 87.84 384.08 88.18 384.16 88 384.02 87.9 384.4 86.82"/><path class="cls-134" d="M385,87.23l-.12,0h-.11l-.12.08-.09.13.1.09.06,0,.05,0,.06-.06h.08l.05.09v.11l0,.09-.05,0h-.06l-.09,0-.07.18.08.06,0,.07v.12l0,.09,0,.06-.05,0-.06,0-.05-.08,0-.15v0l0,0,0,0h0l-.1,0v.19l0,.15.06.12.1.09.14.06h.13l.11-.09.09-.18a.42.42,0,0,0-.06-.35H385l.06,0,.06-.07,0-.13v-.13l0-.13-.05-.12-.1-.1"/><path class="cls-135" d="M385.35,88.82l0,0v-.17l0-.15a1.7,1.7,0,0,1,.09-.29l.09-.17.08-.07.06,0,0,0,0,.07v.11l0,.15c0,.08,0,.16-.06.22l-.06.14-.06.11-.05,0h-.05l0,0m.39-1.08-.16,0-.16.07a.69.69,0,0,0-.15.2,1.56,1.56,0,0,0-.12.35.73.73,0,0,0,0,.25v.2l.06.16.1.11.16.06.16-.07a.86.86,0,0,0,.15-.2,1.3,1.3,0,0,0,.12-.35.81.81,0,0,0,0-.25V88l-.06-.17-.1-.1"/></g><g class="cls-2"><path class="cls-136" d="M339,54.84,337.21,62l.81.57,1.8-7.08-.12-.08a7.27,7.27,0,0,1-.67-.55m2.36,1.49a6.07,6.07,0,0,1-.85-.42L338.73,63l.81.57,1.85-7.28m-3.74-3.11-1.95,7.7.81.57,1.86-7.33a7.53,7.53,0,0,1-.72-.94m5.41,3.54a4.36,4.36,0,0,1-.91-.16l-1.91,7.5.81.57,2-7.91m-6.59-5.89-2.28,9,.81.57,2.08-8.2a14,14,0,0,1-.61-1.36m8.42,5.71a5.36,5.36,0,0,1-1,.18l-2.14,8.4.81.57,2.33-9.15m2-.69-1.06.4-2.52,9.93.81.57,2.77-10.9M335.5,47.68,332.67,58.8l.81.57L336,49.49c-.18-.58-.34-1.19-.49-1.81M316.11,32.76,313,45l.81.57,3.1-12.21a9.62,9.62,0,0,1-.8-.63m2.36,1.53a7.55,7.55,0,0,1-.85-.43l-3.11,12.23.81.57,3.15-12.37m30.26,21.19a4.63,4.63,0,0,0-1,.14l-3,11.66.81.57,3.14-12.37m-34-24.14L311.48,44l.82.57,3.14-12.39q-.39-.39-.75-.81m5.45,3.37a5.39,5.39,0,0,1-.92-.16L316,47.15l.82.57,3.3-13m30.3,21.09a4.75,4.75,0,0,0-.9-.26l-3.25,12.8.81.57,3.34-13.11m1.36.75c-.22-.15-.42-.27-.63-.39L347.81,69.4l.81.57L352,56.7l-.19-.15m-38.43-27L310,42.91l.81.57,3.28-12.92c-.24-.34-.47-.68-.69-1M334.7,43.8l-3.54,13.94.81.57,3.14-12.37c-.14-.72-.28-1.43-.41-2.14M322,34.52a8.37,8.37,0,0,1-1,.18l-3.43,13.51.81.56L322,34.52m-9.81-7.24-3.7,14.57.81.57,3.53-13.88c-.23-.41-.44-.83-.64-1.26M324,33.74l-1.07.47-3.83,15.06.81.56L324,33.74m-12.9-9.12-4.11,16.17.82.57,3.87-15.27c-.2-.49-.39-1-.58-1.47M289.2,9.14c-.39.2-.76.4-1.11.61l-3.85,15.14.82.57L289.2,9.14m44.7,30.8-4.26,16.74.82.57L334.34,42c-.14-.69-.28-1.36-.44-2m-7.95-7c-.36.12-.72.26-1.07.41l-4.32,17,.82.56,4.57-18M310,21.71l-4.58,18,.81.57,4.32-17c-.18-.52-.36-1-.55-1.57M291.2,8.28c-.36.13-.71.27-1.06.42L285.76,26l.81.57L291.2,8.28m41.71,28.55-4.78,18.79.81.57,4.53-17.82a16.38,16.38,0,0,0-.56-1.54m-5.11-4.18a4.54,4.54,0,0,0-1,.05l-4.74,18.69.81.56,4.91-19.3M309,18.86l-5,19.81.81.57,4.79-18.87c-.18-.51-.38-1-.57-1.51M293.12,7.76c-.35.07-.69.14-1,.24l-4.83,19,.81.57,5-19.82m38.54,27-5,19.84.81.57,4.93-19.39a7.63,7.63,0,0,0-.7-1m-2.19-1.65a4.58,4.58,0,0,0-.88-.3l-5,19.67.81.57,5.07-19.94m1.09.62-.36-.23-5.1,20,.82.57L331,34c-.15-.12-.29-.24-.45-.35M295,7.54c-.34,0-.66,0-1,.08l-5.2,20.45.82.57L295,7.54m12.86,8.76L302.4,37.61l.82.57,5.22-20.55c-.2-.45-.41-.89-.62-1.33m-11.1-8.69c-.32,0-.63-.07-.94-.08l-5.48,21.6.81.57,5.61-22.09m9.86,6.53-5.69,22.41.81.57,5.56-21.88c-.21-.37-.44-.73-.68-1.1m-8.16-6.21c-.3-.09-.6-.15-.9-.21l-5.71,22.47.81.57,5.8-22.83m6.83,4.43-5.87,23.13.81.57L306,13.27c-.23-.31-.47-.62-.73-.91M300.06,8.5c-.29-.13-.58-.24-.87-.34l-5.87,23.09.82.57L300.06,8.5m3.78,2.42-6,23.51.82.57,5.93-23.35-.77-.73m-2.2-1.61c-.29-.17-.56-.33-.84-.47l-6,23.47.81.57,6-23.57m.87.56-.16-.1-6,23.6.81.57,6-23.58-.64-.49"/><path class="cls-137" d="M304.76.21l-.3-.21-1,.44,0,.31,0,.05,0,0,.05,0h.06l.6-.25c0,.09-.05.17-.07.25l-.65,2.54L303,3l-.1.4,1.43,1,.11-.39-.52-.36.89-3.47"/><path class="cls-137" d="M307.35,2l-1.27-.89-.68,1.68.2.25a1,1,0,0,1,.44.19.88.88,0,0,1,.24.23.87.87,0,0,1,.14.27,1.15,1.15,0,0,1,0,.31,1.39,1.39,0,0,1,0,.35.94.94,0,0,1-.14.32.54.54,0,0,1-.18.21.45.45,0,0,1-.23,0,.61.61,0,0,1-.26-.1,1.21,1.21,0,0,1-.2-.19l-.13-.21-.09-.16-.07-.11H305l-.16.15.1.25a1.59,1.59,0,0,0,.14.26.84.84,0,0,0,.18.23,1.1,1.1,0,0,0,.22.21,1,1,0,0,0,.4.17.7.7,0,0,0,.38-.06.77.77,0,0,0,.31-.29,1.35,1.35,0,0,0,.22-.5,2.2,2.2,0,0,0,.06-.5,1.61,1.61,0,0,0-.07-.49,1.46,1.46,0,0,0-.2-.44,1.42,1.42,0,0,0-.35-.34,1.37,1.37,0,0,0-.38-.2l.36-.88.81.57c.08.06.14.07.18,0l.09-.15.06-.23"/><path class="cls-137" d="M307.87,6.47a.64.64,0,0,1-.2-.23,1.18,1.18,0,0,1-.14-.39,3.46,3.46,0,0,1,0-.56,4.17,4.17,0,0,1,.13-.76,3.49,3.49,0,0,1,.24-.7,1.38,1.38,0,0,1,.25-.38.37.37,0,0,1,.25-.12.41.41,0,0,1,.25.08.76.76,0,0,1,.2.23A1.27,1.27,0,0,1,309,4a3.47,3.47,0,0,1,0,.57,4.45,4.45,0,0,1-.14.76,3.68,3.68,0,0,1-.23.69,1.24,1.24,0,0,1-.26.38.33.33,0,0,1-.25.12.46.46,0,0,1-.24-.08M308.76,3a.75.75,0,0,0-.41-.14A.63.63,0,0,0,308,3a1.58,1.58,0,0,0-.36.48,4.21,4.21,0,0,0-.3.82,4.93,4.93,0,0,0-.15.94,3.54,3.54,0,0,0,.05.75,2.07,2.07,0,0,0,.21.58,1.1,1.1,0,0,0,.36.38.75.75,0,0,0,.4.16.65.65,0,0,0,.41-.15,1.56,1.56,0,0,0,.36-.47,4.33,4.33,0,0,0,.3-.83,6,6,0,0,0,.15-.93,3.59,3.59,0,0,0-.05-.76,2,2,0,0,0-.22-.58,1.48,1.48,0,0,0-.35-.39"/><path class="cls-138" d="M306.22,8c-.26-.18-.54,0-.64.35a1,1,0,0,0,.3,1c.25.18.54,0,.64-.35a1,1,0,0,0-.3-1"/><path class="cls-137" d="M330.12,22.17l-.29-.21-1.05.44.05.31,0,.06,0,.05.06,0H329l.59-.24-.07.25-.64,2.53-.56-.4-.1.41,1.43,1,.1-.4-.51-.36.88-3.47"/><path class="cls-137" d="M332,23.45a.85.85,0,0,0-.34-.15.46.46,0,0,0-.31,0,.61.61,0,0,0-.28.21,1.36,1.36,0,0,0-.23.4l.18.18.12.07.1-.09.11-.18.15-.1h.18a.46.46,0,0,1,.19.09.8.8,0,0,1,.17.15l.11.23,0,.26a1.05,1.05,0,0,1,0,.3.82.82,0,0,1-.11.25l-.15.12a.35.35,0,0,1-.23,0,.89.89,0,0,1-.3-.16l-.09.38a1.87,1.87,0,0,1,.32.3.84.84,0,0,1,.17.28,1,1,0,0,1,0,.28,1.54,1.54,0,0,1,0,.3.77.77,0,0,1-.1.23.4.4,0,0,1-.15.14.42.42,0,0,1-.21.06.57.57,0,0,1-.25-.1.79.79,0,0,1-.22-.23.85.85,0,0,1-.11-.26l-.05-.26,0-.22-.06-.16-.12-.06h-.19a3.93,3.93,0,0,0,0,.49,1.56,1.56,0,0,0,.09.44,1.47,1.47,0,0,0,.21.39,1.34,1.34,0,0,0,.34.33,1.14,1.14,0,0,0,.36.16.69.69,0,0,0,.35,0,.67.67,0,0,0,.28-.23,1.19,1.19,0,0,0,.19-.44,1.43,1.43,0,0,0,0-.68,1.31,1.31,0,0,0-.29-.59h.21l.2-.09a.79.79,0,0,0,.15-.19,1,1,0,0,0,.11-.3,1.7,1.7,0,0,0,0-.44,1.5,1.5,0,0,0-.09-.43,1.35,1.35,0,0,0-.19-.38,1.18,1.18,0,0,0-.3-.29"/><path class="cls-137" d="M333.24,28.44a.93.93,0,0,1-.21-.23,1.34,1.34,0,0,1-.13-.4,3.32,3.32,0,0,1,0-.56,4.45,4.45,0,0,1,.14-.76,3.13,3.13,0,0,1,.24-.7,1.56,1.56,0,0,1,.24-.38.41.41,0,0,1,.26-.12.43.43,0,0,1,.24.08.78.78,0,0,1,.21.23,1.05,1.05,0,0,1,.12.39,2.57,2.57,0,0,1,0,.57,5.82,5.82,0,0,1-.14.77A3,3,0,0,1,334,28a1,1,0,0,1-.25.37.38.38,0,0,1-.25.13.41.41,0,0,1-.24-.08m.89-3.51a.77.77,0,0,0-.42-.15.57.57,0,0,0-.39.14,1.64,1.64,0,0,0-.36.49,3.08,3.08,0,0,0-.3.82,4.17,4.17,0,0,0-.15.93,2.56,2.56,0,0,0,.05.75,1.53,1.53,0,0,0,.21.58,1.21,1.21,0,0,0,.35.39.78.78,0,0,0,.41.14.53.53,0,0,0,.41-.14,1.74,1.74,0,0,0,.36-.47,3.68,3.68,0,0,0,.29-.82,4.26,4.26,0,0,0,.15-.93,3.15,3.15,0,0,0,0-.77,1.62,1.62,0,0,0-.23-.57,1.09,1.09,0,0,0-.34-.39"/><path class="cls-139" d="M331.59,29.93c-.26-.18-.54,0-.64.35a1,1,0,0,0,.3,1c.25.18.54,0,.64-.35a1,1,0,0,0-.3-1"/><path class="cls-137" d="M351.15,45.56l-.29-.21-1.05.44.05.31,0,0,0,.06.05,0H350l.59-.25c0,.09-.05.17-.07.25l-.64,2.54-.57-.4-.1.4,1.44,1,.11-.4-.52-.36.88-3.47"/><path class="cls-137" d="M352.12,50.32a.83.83,0,0,1-.21-.24,1.21,1.21,0,0,1-.13-.38,2.61,2.61,0,0,1,0-.57,5.71,5.71,0,0,1,.14-.76,3.68,3.68,0,0,1,.23-.69,1.65,1.65,0,0,1,.25-.39.39.39,0,0,1,.26-.12.53.53,0,0,1,.24.08.83.83,0,0,1,.21.24,1,1,0,0,1,.12.38,2.13,2.13,0,0,1,0,.57,4.41,4.41,0,0,1-.13.77,3.68,3.68,0,0,1-.23.69,1.24,1.24,0,0,1-.26.38.42.42,0,0,1-.25.12.41.41,0,0,1-.24-.08m.89-3.51a.72.72,0,0,0-.42-.15.66.66,0,0,0-.4.15,1.56,1.56,0,0,0-.36.47,3.78,3.78,0,0,0-.29.83,4.26,4.26,0,0,0-.15.93,2.63,2.63,0,0,0,.05.76,1.66,1.66,0,0,0,.21.58,1.28,1.28,0,0,0,.35.38.77.77,0,0,0,.41.15.59.59,0,0,0,.4-.15,1.41,1.41,0,0,0,.36-.47,3.47,3.47,0,0,0,.3-.82,4.25,4.25,0,0,0,.15-.94,3.07,3.07,0,0,0-.05-.76,1.83,1.83,0,0,0-.21-.57,1.22,1.22,0,0,0-.35-.39"/><path class="cls-137" d="M354.26,51.82a.92.92,0,0,1-.2-.23,1.21,1.21,0,0,1-.13-.38,2.63,2.63,0,0,1,0-.57,5.43,5.43,0,0,1,.14-.76,4.77,4.77,0,0,1,.23-.7,1.19,1.19,0,0,1,.26-.38.35.35,0,0,1,.25-.12.38.38,0,0,1,.24.08.71.71,0,0,1,.21.24,1.28,1.28,0,0,1,.13.38,2.7,2.7,0,0,1,0,.57,4.32,4.32,0,0,1-.13.76,3.6,3.6,0,0,1-.24.69,1.14,1.14,0,0,1-.25.39.48.48,0,0,1-.25.12.63.63,0,0,1-.25-.09m.9-3.51a.78.78,0,0,0-.41-.14.62.62,0,0,0-.4.15,1.32,1.32,0,0,0-.36.47,3.57,3.57,0,0,0-.3.83,4.17,4.17,0,0,0-.15.93,3.07,3.07,0,0,0,0,.76,2,2,0,0,0,.21.58,1.25,1.25,0,0,0,.35.37.78.78,0,0,0,.41.16.64.64,0,0,0,.4-.15,1.41,1.41,0,0,0,.36-.47,3.72,3.72,0,0,0,.31-.83,4.89,4.89,0,0,0,.14-.93,2.63,2.63,0,0,0,0-.76,2.33,2.33,0,0,0-.21-.58,1.48,1.48,0,0,0-.35-.39"/><path class="cls-140" d="M352.62,53.32c-.26-.18-.55,0-.64.35a1,1,0,0,0,.29,1c.26.18.55,0,.64-.35a1,1,0,0,0-.29-1"/></g><path class="cls-10" d="M321.05,287.43s-1.16,36.75-2.06,42-15.61,11.84-26.08,2"/><path class="cls-10" d="M364.1,248.88s22.89,24.86,28.36,31.55-1.27,17.6-9.36,15.88"/><path class="cls-5" d="M421,275.37s1.33,10.93,3.78,12.06,4.16-.58,3.94-2.07-3.85-11.68-3.85-11.68Z"/><path class="cls-5" d="M430.7,270.61s1.33,10.93,3.78,12.05,4.15-.57,3.94-2.06-3.85-11.68-3.85-11.68Z"/><path class="cls-5" d="M336.26,344.1s-6.63,2-6.77,3.15,12.76-3.72,12.76-3.72Z"/><path class="cls-5" d="M346.3,343.27s-5.07,1.36-5.07,2.21,9.63-2.38,9.63-2.38Z"/><path class="cls-141" d="M292.38,289.69c.31-4.43,3.31-12.78,9.55-12.72,6.82.08,14.33,10.28,19.12,10.46,3.91.14,11.33-3.16,15.19,1.81a6.17,6.17,0,0,1,.54,3c.06-2.36-.09-4-.54-4.62-3.86-5-11.28-1.66-15.19-1.81-4.79-.18-12.3-10.37-19.12-10.45s-9.78,9.95-9.57,13.86C292.36,289.36,292.37,289.51,292.38,289.69Z"/><path class="cls-142" d="M355.25,251.52c13.23-1.38,15.77-9.7,17.61-12.71a6.65,6.65,0,0,1,5.91-3.32c-2.69-1.48-6-.06-7.66,2.62-1.78,2.91-4.23,10.94-17,12.27S345.62,263,345.62,263l.51.46C345.41,260.49,344.55,252.63,355.25,251.52Z"/></g></g></g></svg>