<svg xmlns="http://www.w3.org/2000/svg" xmlns:xlink="http://www.w3.org/1999/xlink" viewBox="0 0 416.56 330.57"><defs><style>.cls-1,.cls-17,.cls-22,.cls-25,.cls-28,.cls-32,.cls-9{fill:none;}.cls-2{clip-path:url(#clip-path);}.cls-3{fill:#06b1d4;}.cls-4{fill:#999;}.cls-5{fill:url(#linear-gradient);}.cls-6{fill:url(#linear-gradient-2);}.cls-7{fill:url(#linear-gradient-3);}.cls-8{fill:url(#linear-gradient-4);}.cls-9{stroke:#64edff;}.cls-17,.cls-25,.cls-28,.cls-9{stroke-miterlimit:10;}.cls-17,.cls-28,.cls-9{stroke-width:2px;}.cls-10,.cls-38{opacity:0.6;}.cls-10,.cls-38,.cls-76,.cls-77,.cls-78,.cls-79{isolation:isolate;}.cls-10{fill:url(#linear-gradient-5);}.cls-11{fill:url(#linear-gradient-6);}.cls-12{fill:url(#linear-gradient-7);}.cls-13{fill:url(#linear-gradient-8);}.cls-14{fill:url(#linear-gradient-9);}.cls-15{fill:#64edb2;}.cls-16{fill:url(#linear-gradient-10);}.cls-17{stroke:#fff;}.cls-18{fill:#fc4c5c;}.cls-19{fill:url(#linear-gradient-11);}.cls-20{fill:url(#linear-gradient-12);}.cls-21{fill:url(#linear-gradient-13);}.cls-22,.cls-32{stroke:#8a8b8b;stroke-linejoin:round;}.cls-22,.cls-25,.cls-32{stroke-linecap:round;}.cls-22{stroke-width:2.92px;}.cls-23{fill:#fff1ec;}.cls-24{fill:url(#linear-gradient-14);}.cls-25{stroke:#6df0f7;}.cls-26{fill:url(#linear-gradient-15);}.cls-27{fill:url(#linear-gradient-16);}.cls-28{stroke:#d2ffff;}.cls-29{fill:url(#linear-gradient-17);}.cls-30{fill:url(#linear-gradient-18);}.cls-31{fill:url(#linear-gradient-19);}.cls-32{stroke-width:2.99px;}.cls-33{fill:url(#linear-gradient-20);}.cls-34{fill:url(#linear-gradient-21);}.cls-35{fill:url(#linear-gradient-22);}.cls-36{fill:#64edff;}.cls-37{fill:url(#linear-gradient-23);}.cls-38{fill:url(#radial-gradient);}.cls-39{fill:url(#linear-gradient-24);}.cls-40{fill:url(#linear-gradient-25);}.cls-41{fill:url(#linear-gradient-26);}.cls-42{fill:url(#linear-gradient-27);}.cls-43{fill:url(#linear-gradient-28);}.cls-44{fill:url(#linear-gradient-29);}.cls-45{fill:url(#linear-gradient-30);}.cls-46{fill:url(#linear-gradient-31);}.cls-47{fill:url(#linear-gradient-32);}.cls-48{fill:url(#linear-gradient-33);}.cls-49{fill:url(#linear-gradient-34);}.cls-50{fill:url(#linear-gradient-35);}.cls-51{fill:url(#linear-gradient-36);}.cls-52{fill:url(#linear-gradient-37);}.cls-53{fill:url(#linear-gradient-38);}.cls-54{fill:url(#linear-gradient-39);}.cls-55{fill:url(#linear-gradient-40);}.cls-56{fill:url(#linear-gradient-41);}.cls-57{fill:url(#linear-gradient-42);}.cls-58{fill:url(#linear-gradient-43);}.cls-59{fill:url(#linear-gradient-44);}.cls-60{fill:url(#linear-gradient-45);}.cls-61{fill:url(#linear-gradient-46);}.cls-62{fill:url(#linear-gradient-47);}.cls-63{fill:url(#linear-gradient-48);}.cls-64{fill:url(#linear-gradient-49);}.cls-65{fill:url(#linear-gradient-50);}.cls-66{fill:url(#linear-gradient-51);}.cls-67{fill:url(#linear-gradient-52);}.cls-68{fill:url(#linear-gradient-53);}.cls-69{fill:url(#linear-gradient-54);}.cls-70{fill:url(#linear-gradient-55);}.cls-71{fill:url(#linear-gradient-56);}.cls-72{fill:url(#linear-gradient-57);}.cls-73{fill:url(#linear-gradient-58);}.cls-74{fill:url(#linear-gradient-59);}.cls-75{fill:url(#linear-gradient-60);}.cls-76,.cls-77,.cls-78,.cls-79{opacity:0.8;}.cls-76{fill:url(#linear-gradient-61);}.cls-77{fill:url(#linear-gradient-62);}.cls-78{fill:url(#linear-gradient-63);}.cls-79{fill:url(#linear-gradient-64);}</style><clipPath id="clip-path" transform="translate(0)"><rect class="cls-1" width="357.46" height="330.57"/></clipPath><linearGradient id="linear-gradient" x1="-333.76" y1="429" x2="-332.76" y2="429" gradientTransform="matrix(13.72, 0, 0, -37.01, 4687.83, 16097.76)" gradientUnits="userSpaceOnUse"><stop offset="0" stop-color="#b8cfff"/><stop offset="0.03" stop-color="#bfd4ff"/><stop offset="0.13" stop-color="#d7e4ff"/><stop offset="0.25" stop-color="#e9f0ff"/><stop offset="0.4" stop-color="#f5f9ff"/><stop offset="0.59" stop-color="#fdfeff"/><stop offset="1" stop-color="#fff"/></linearGradient><linearGradient id="linear-gradient-2" x1="-340.29" y1="407.43" x2="-339.29" y2="407.43" gradientTransform="matrix(18.26, 0, 0, -4.12, 6387.61, 1913.72)" xlink:href="#linear-gradient"/><linearGradient id="linear-gradient-3" x1="-346.43" y1="423.04" x2="-345.43" y2="423.04" gradientTransform="matrix(26.54, 0, 0, -11.55, 9366.4, 5111.4)" xlink:href="#linear-gradient"/><linearGradient id="linear-gradient-4" x1="-356.67" y1="441.47" x2="-356.67" y2="440.47" gradientTransform="matrix(127.02, 0, 0, -74.64, 45563.22, 32380.68)" gradientUnits="userSpaceOnUse"><stop offset="0" stop-color="#4e54c8"/><stop offset="1" stop-color="#8f94fb"/></linearGradient><linearGradient id="linear-gradient-5" x1="-356.41" y1="436.7" x2="-356.41" y2="435.7" gradientTransform="matrix(116.57, 0, 0, -118.09, 41844.5, 51059.57)" gradientUnits="userSpaceOnUse"><stop offset="0" stop-color="#366fe0"/><stop offset="0.25" stop-color="#366fe0"/><stop offset="0.45" stop-color="#2f63d1"/><stop offset="0.84" stop-color="#1b43a9"/><stop offset="1" stop-color="#123597"/></linearGradient><linearGradient id="linear-gradient-6" x1="-362.71" y1="429.1" x2="-361.71" y2="429.1" gradientTransform="matrix(26.68, 0, 0, -38.41, 9503.75, 16640.23)" gradientUnits="userSpaceOnUse"><stop offset="0" stop-color="#153a9e"/><stop offset="0.28" stop-color="#13379a"/><stop offset="1" stop-color="#123597"/></linearGradient><linearGradient id="linear-gradient-7" x1="-365.54" y1="427.09" x2="-364.54" y2="427.09" gradientTransform="matrix(13.02, 0, 0, -21.67, 4599.03, 9446.03)" xlink:href="#linear-gradient-6"/><linearGradient id="linear-gradient-8" x1="-364.54" y1="427.66" x2="-363.54" y2="427.66" gradientTransform="matrix(15.88, 0, 0, -24.74, 5644.05, 10769.43)" xlink:href="#linear-gradient-6"/><linearGradient id="linear-gradient-9" x1="-361.44" y1="429.03" x2="-360.43" y2="429.03" gradientTransform="matrix(50.38, 0, 0, -37.48, 18067.94, 16258.78)" xlink:href="#linear-gradient-6"/><linearGradient id="linear-gradient-10" x1="-353.09" y1="441" x2="-353.09" y2="440" gradientTransform="matrix(56.2, 0, 0, -68.75, 20168.27, 29793.58)" gradientUnits="userSpaceOnUse"><stop offset="0" stop-color="#fc4c5c"/><stop offset="0.68" stop-color="#fb9f02"/><stop offset="1" stop-color="#fb9f02"/></linearGradient><linearGradient id="linear-gradient-11" x1="-360.47" y1="430.9" x2="-359.47" y2="430.9" gradientTransform="matrix(152.83, 0, 0, -125.49, 54659.57, 54248.97)" xlink:href="#linear-gradient-4"/><linearGradient id="linear-gradient-12" x1="-362.24" y1="427.88" x2="-361.24" y2="427.88" gradientTransform="matrix(32.16, 0, 0, -26.21, 11217.51, 11436.16)" xlink:href="#linear-gradient-4"/><linearGradient id="linear-gradient-13" x1="-362.04" y1="427.54" x2="-361.04" y2="427.54" gradientTransform="matrix(35.38, 0, 0, -24.03, 12596.62, 10563.66)" xlink:href="#linear-gradient"/><linearGradient id="linear-gradient-14" x1="-361.04" y1="430.37" x2="-360.04" y2="430.37" gradientTransform="matrix(69.15, 0, 0, -75.31, 24698.64, 32484.99)" gradientUnits="userSpaceOnUse"><stop offset="0" stop-color="#2a5bc7"/><stop offset="0.13" stop-color="#2452bc"/><stop offset="0.42" stop-color="#1a42a7"/><stop offset="0.71" stop-color="#14389b"/><stop offset="1" stop-color="#123597"/></linearGradient><linearGradient id="linear-gradient-15" x1="-370.88" y1="415.64" x2="-369.88" y2="415.64" gradientTransform="matrix(6.64, 0, 0, -6.22, 2261.41, 2664.21)" xlink:href="#linear-gradient-14"/><linearGradient id="linear-gradient-16" x1="-457.18" y1="214.7" x2="-456.76" y2="214.7" gradientTransform="matrix(4.64, 0, 0, -1.72, 1923.3, 454.07)" xlink:href="#linear-gradient-14"/><linearGradient id="linear-gradient-17" x1="-361.24" y1="427.14" x2="-360.24" y2="427.14" gradientTransform="matrix(58.14, 0, 0, -21.91, 20732.43, 9482.4)" gradientUnits="userSpaceOnUse"><stop offset="0" stop-color="#123597"/><stop offset="0.16" stop-color="#1b43a9"/><stop offset="0.55" stop-color="#2f63d1"/><stop offset="0.75" stop-color="#366fe0"/><stop offset="1" stop-color="#366fe0"/></linearGradient><linearGradient id="linear-gradient-18" x1="-357.9" y1="435.27" x2="-357.9" y2="434.27" gradientTransform="matrix(224.91, 0, 0, -200.15, 80630.48, 86522.25)" xlink:href="#linear-gradient-4"/><linearGradient id="linear-gradient-19" x1="-360.5" y1="429.19" x2="-359.5" y2="429.19" gradientTransform="matrix(145.3, 0, 0, -39.77, 51970.61, 17380.19)" xlink:href="#linear-gradient"/><linearGradient id="linear-gradient-20" x1="-355.43" y1="435.93" x2="-355.43" y2="434.93" gradientTransform="matrix(88.39, 0, 0, -164, 31642.07, 70917.28)" xlink:href="#linear-gradient-4"/><linearGradient id="linear-gradient-21" x1="-360.36" y1="431.26" x2="-359.36" y2="431.26" gradientTransform="matrix(198.15, 0, 0, -225.77, 70987.09, 97584.3)" xlink:href="#linear-gradient-17"/><linearGradient id="linear-gradient-22" x1="-360.41" y1="431.25" x2="-359.41" y2="431.25" gradientTransform="matrix(177.12, 0, 0, -222.19, 63424.74, 96038.7)" gradientUnits="userSpaceOnUse"><stop offset="0" stop-color="#366fe0"/><stop offset="0.7" stop-color="#94cbff"/><stop offset="1" stop-color="#94cbff"/></linearGradient><linearGradient id="linear-gradient-23" x1="-360.48" y1="431.07" x2="-359.48" y2="431.07" gradientTransform="matrix(149.6, 0, 0, -157.91, 53548.57, 68252.26)" gradientUnits="userSpaceOnUse"><stop offset="0" stop-color="#64edb2"/><stop offset="0" stop-color="#65edb2"/><stop offset="0.05" stop-color="#89f1c4"/><stop offset="0.11" stop-color="#a8f5d4"/><stop offset="0.18" stop-color="#c4f8e2"/><stop offset="0.25" stop-color="#dafbec"/><stop offset="0.33" stop-color="#ebfdf5"/><stop offset="0.44" stop-color="#f6fefb"/><stop offset="0.59" stop-color="#fdfffe"/><stop offset="1" stop-color="#fff"/></linearGradient><radialGradient id="radial-gradient" cx="-356.12" cy="432.64" r="0.49" gradientTransform="translate(38086.94 -47140.21) scale(106.59 106.59)" gradientUnits="userSpaceOnUse"><stop offset="0" stop-color="#a4eed2"/><stop offset="0.14" stop-color="#a2edd2" stop-opacity="0.98"/><stop offset="0.27" stop-color="#9aead2" stop-opacity="0.94"/><stop offset="0.4" stop-color="#8de5d2" stop-opacity="0.86"/><stop offset="0.52" stop-color="#7bded3" stop-opacity="0.74"/><stop offset="0.65" stop-color="#64d5d3" stop-opacity="0.6"/><stop offset="0.77" stop-color="#48cbd3" stop-opacity="0.42"/><stop offset="0.89" stop-color="#28bed4" stop-opacity="0.21"/><stop offset="1" stop-color="#06b1d4" stop-opacity="0"/></radialGradient><linearGradient id="linear-gradient-24" x1="-360.69" y1="428.53" x2="-359.69" y2="428.53" gradientTransform="matrix(105.1, 0, 0, -31.56, 37574.75, 13644.82)" xlink:href="#linear-gradient-22"/><linearGradient id="linear-gradient-25" x1="-360.84" y1="428.07" x2="-359.84" y2="428.07" gradientTransform="matrix(85.84, 0, 0, -27.52, 30657.97, 11898.42)" xlink:href="#linear-gradient-22"/><linearGradient id="linear-gradient-26" x1="-362.05" y1="429.65" x2="-361.05" y2="429.65" gradientTransform="matrix(35.13, 0, 0, -48.76, 12396.9, 21239.89)" xlink:href="#linear-gradient-17"/><linearGradient id="linear-gradient-27" x1="-362.07" y1="429.65" x2="-361.07" y2="429.65" gradientTransform="matrix(34.86, 0, 0, -48.78, 12300.46, 21250.79)" xlink:href="#linear-gradient-22"/><linearGradient id="linear-gradient-28" x1="-352.33" y1="437.66" x2="-352.33" y2="436.66" gradientTransform="matrix(50.2, 0, 0, -52.34, 17862.52, 22549.56)" xlink:href="#linear-gradient-14"/><linearGradient id="linear-gradient-29" x1="-361.52" y1="428.53" x2="-360.52" y2="428.53" gradientTransform="matrix(47.38, 0, 0, -31.57, 16848.83, 13575.63)" xlink:href="#linear-gradient"/><linearGradient id="linear-gradient-30" x1="-282.85" y1="410.27" x2="-281.85" y2="410.27" gradientTransform="matrix(4.67, 0, 0, -4.67, 1535.19, 2016.66)" xlink:href="#linear-gradient"/><linearGradient id="linear-gradient-31" x1="325.24" y1="-677.65" x2="332.98" y2="-677.65" gradientTransform="translate(0 802.8)" xlink:href="#linear-gradient"/><linearGradient id="linear-gradient-32" x1="328.46" y1="-674.23" x2="335.28" y2="-674.23" gradientTransform="translate(0 802.8)" xlink:href="#linear-gradient"/><linearGradient id="linear-gradient-33" x1="331.68" y1="-676.8" x2="340.28" y2="-676.8" gradientTransform="translate(0 802.8)" xlink:href="#linear-gradient"/><linearGradient id="linear-gradient-34" x1="334.9" y1="-668.88" x2="340.55" y2="-668.88" gradientTransform="translate(0 802.8)" xlink:href="#linear-gradient"/><linearGradient id="linear-gradient-35" x1="338.12" y1="-672.78" x2="346.13" y2="-672.78" gradientTransform="translate(0 802.8)" xlink:href="#linear-gradient"/><linearGradient id="linear-gradient-36" x1="341.34" y1="-676.01" x2="351.44" y2="-676.01" gradientTransform="translate(0 802.8)" xlink:href="#linear-gradient"/><linearGradient id="linear-gradient-37" x1="344.56" y1="-665.2" x2="350.41" y2="-665.2" gradientTransform="translate(0 802.8)" xlink:href="#linear-gradient"/><linearGradient id="linear-gradient-38" x1="347.79" y1="-661.04" x2="352.37" y2="-661.04" gradientTransform="translate(0 802.8)" xlink:href="#linear-gradient"/><linearGradient id="linear-gradient-39" x1="351" y1="-665.93" x2="358.4" y2="-665.93" gradientTransform="translate(0 802.8)" xlink:href="#linear-gradient"/><linearGradient id="linear-gradient-40" x1="354.27" y1="-663.28" x2="361.09" y2="-663.28" gradientTransform="translate(0 802.8)" xlink:href="#linear-gradient"/><linearGradient id="linear-gradient-41" x1="357.48" y1="-665.85" x2="366.09" y2="-665.85" gradientTransform="translate(0 802.8)" xlink:href="#linear-gradient"/><linearGradient id="linear-gradient-42" x1="360.71" y1="-657.92" x2="366.35" y2="-657.92" gradientTransform="translate(0 802.8)" xlink:href="#linear-gradient"/><linearGradient id="linear-gradient-43" x1="363.93" y1="-661.83" x2="371.94" y2="-661.83" gradientTransform="translate(0 802.8)" xlink:href="#linear-gradient"/><linearGradient id="linear-gradient-44" x1="367.15" y1="-665.06" x2="377.24" y2="-665.06" gradientTransform="translate(0 802.8)" xlink:href="#linear-gradient"/><linearGradient id="linear-gradient-45" x1="370.36" y1="-654.25" x2="376.21" y2="-654.25" gradientTransform="translate(0 802.8)" xlink:href="#linear-gradient"/><linearGradient id="linear-gradient-46" x1="373.58" y1="-650.09" x2="378.16" y2="-650.09" gradientTransform="translate(0 802.8)" xlink:href="#linear-gradient"/><linearGradient id="linear-gradient-47" x1="376.8" y1="-654.98" x2="384.2" y2="-654.98" gradientTransform="translate(0 802.8)" xlink:href="#linear-gradient"/><linearGradient id="linear-gradient-48" x1="380.15" y1="-647.3" x2="384.73" y2="-647.3" gradientTransform="translate(0 802.8)" xlink:href="#linear-gradient"/><linearGradient id="linear-gradient-49" x1="383.36" y1="-652.19" x2="390.76" y2="-652.19" gradientTransform="translate(0 802.8)" xlink:href="#linear-gradient"/><linearGradient id="linear-gradient-50" x1="386.63" y1="-649.54" x2="393.45" y2="-649.54" gradientTransform="translate(0 802.8)" xlink:href="#linear-gradient"/><linearGradient id="linear-gradient-51" x1="389.84" y1="-652.11" x2="398.44" y2="-652.11" gradientTransform="translate(0 802.8)" xlink:href="#linear-gradient"/><linearGradient id="linear-gradient-52" x1="393.06" y1="-644.18" x2="398.71" y2="-644.18" gradientTransform="translate(0 802.8)" xlink:href="#linear-gradient"/><linearGradient id="linear-gradient-53" x1="396.28" y1="-648.09" x2="404.3" y2="-648.09" gradientTransform="translate(0 802.8)" xlink:href="#linear-gradient"/><linearGradient id="linear-gradient-54" x1="399.5" y1="-651.32" x2="409.59" y2="-651.32" gradientTransform="translate(0 802.8)" xlink:href="#linear-gradient"/><linearGradient id="linear-gradient-55" x1="402.73" y1="-640.51" x2="408.56" y2="-640.51" gradientTransform="translate(0 802.8)" xlink:href="#linear-gradient"/><linearGradient id="linear-gradient-56" x1="405.94" y1="-636.35" x2="410.52" y2="-636.35" gradientTransform="translate(0 802.8)" xlink:href="#linear-gradient"/><linearGradient id="linear-gradient-57" x1="409.16" y1="-641.24" x2="416.56" y2="-641.24" gradientTransform="translate(0 802.8)" xlink:href="#linear-gradient"/><linearGradient id="linear-gradient-58" x1="-251.09" y1="-851.38" x2="-248.12" y2="-851.38" gradientTransform="translate(577.79 945.68)" xlink:href="#linear-gradient"/><linearGradient id="linear-gradient-59" x1="-255.31" y1="-832.63" x2="-252.34" y2="-832.63" gradientTransform="translate(577.79 945.68)" xlink:href="#linear-gradient"/><linearGradient id="linear-gradient-60" x1="-259.53" y1="-813.83" x2="-256.56" y2="-813.83" gradientTransform="translate(577.79 945.68)" xlink:href="#linear-gradient"/><linearGradient id="linear-gradient-61" x1="281.94" y1="-698.41" x2="286.4" y2="-698.41" gradientTransform="translate(0 802.8)" xlink:href="#linear-gradient"/><linearGradient id="linear-gradient-62" x1="-291.22" y1="-838.13" x2="-282.46" y2="-838.13" gradientTransform="translate(577.79 945.68)" xlink:href="#linear-gradient"/><linearGradient id="linear-gradient-63" x1="-282.79" y1="-833.59" x2="-273.12" y2="-833.59" gradientTransform="translate(577.79 945.68)" xlink:href="#linear-gradient"/><linearGradient id="linear-gradient-64" x1="-272.46" y1="-830.65" x2="-263.09" y2="-830.65" gradientTransform="translate(577.79 945.68)" xlink:href="#linear-gradient"/></defs><title>Asset 1</title><g id="Layer_2" data-name="Layer 2"><g id="Layer_1-2" data-name="Layer 1"><g class="cls-2"><g id="left-man"><g id="left-man-2"><path id="Path_167" data-name="Path 167" class="cls-3" d="M117.76,240.84l85.79,6.59,49.17-2.18-45.07-8.63L185.48,239Z" transform="translate(0)"/><path id="Path_168" data-name="Path 168" class="cls-4" d="M108.65,207.94l0,32.89,105,0-2.28-8.22L200,220.31h-13.7l-13.7,12.32v4.12h-16l-2.27-8.23-11.42-12.34-20.54-12.34Z" transform="translate(0)"/><path id="Path_169" data-name="Path 169" class="cls-3" d="M175.53,240.86l38.13,0-2.28-8.22L200,220.31l2.27,12.34-4.56,4.11Z" transform="translate(0)"/><path id="Path_170" data-name="Path 170" class="cls-3" d="M118.91,240.84h37.67v-4.11l-2.27-8.23-11.42-12.34-20.54-12.34L136,220.29l4.56,12.33-20.54,4.1Z" transform="translate(0)"/><path id="Path_171" data-name="Path 171" class="cls-5" d="M108.65,207.94l0,32.89h6.29l-4-28.79,11.42-8.22Z" transform="translate(0)"/><path id="Path_172" data-name="Path 172" class="cls-6" d="M172.56,232.63v4.12h16l2.28-4.12Z" transform="translate(0)"/><path id="Path_173" data-name="Path 173" class="cls-7" d="M173.43,231.86l19.69-3.32,6.85-8.23h-13.7Z" transform="translate(0)"/><path id="Path_184" data-name="Path 184" class="cls-3" d="M211.35,149h19.94l11,1.52,36.9,4.56L251.23,149,239,142.78l-8.69,4.68h-3Z" transform="translate(0)"/><path id="Path_186" data-name="Path 186" class="cls-3" d="M242.82,187.77h22.93l10-4.57,7,6.08h13l61.81,3.06H299.64l-15.94,1.5s-57.83,1.5-56.84,0S242.82,187.77,242.82,187.77Z" transform="translate(0)"/><path id="Path_187" data-name="Path 187" class="cls-3" d="M159.07,195.38H182l10-4.57,7,6.09h13l61.82,3H215.9l-16,1.5s-57.82,1.5-56.84,0S159.07,195.38,159.07,195.38Z" transform="translate(0)"/><path id="Path_236" data-name="Path 236" class="cls-8" d="M324.12,239.4s-26.48,35.36-57.89,49.25a69.22,69.22,0,0,1-10.64,3.74,105.26,105.26,0,0,1-22.76,3.1,105.26,105.26,0,0,1-11.91-14.07c-11.5-15.65-12.57-40.62-23.82-60.58,20.76,8.33,20.64,28.8,50.21,25.36A86.25,86.25,0,0,0,267,240.9c18.52-7.11,36-18.46,36-18.46Z" transform="translate(0)"/><path id="Path_237" data-name="Path 237" class="cls-9" d="M155.12,224.33S192,258.23,255.23,257l69.55-33.3" transform="translate(0)"/><path id="Path_238" data-name="Path 238" class="cls-10" d="M327.42,236.79l-88-36.35a3.6,3.6,0,0,1-1.85-3.74L260,121.3a2.7,2.7,0,0,1,3.08-2.24,2.48,2.48,0,0,1,.87.29l88.25,36.48a3.6,3.6,0,0,1,1.85,3.74L331.6,234.7a2.88,2.88,0,0,1-3.29,2.39A3.12,3.12,0,0,1,327.42,236.79Z" transform="translate(0)"/><path id="Path_239" data-name="Path 239" class="cls-11" d="M271.83,171.72a1.27,1.27,0,0,1-.47-1.5.81.81,0,0,1,.95-.61h0a.49.49,0,0,1,.21.08,1.27,1.27,0,0,1,.47,1.5.81.81,0,0,1-.95.6.86.86,0,0,1-.21-.07m-1.73-20.6a1.51,1.51,0,0,1-.53-1.69.9.9,0,0,1,1.06-.7h0a1,1,0,0,1,.24.09,1.5,1.5,0,0,1,.53,1.69.91.91,0,0,1-1.09.69.63.63,0,0,1-.23-.08m12.06-2.51-.12,0a.55.55,0,0,0-.59.25,2,2,0,0,0-.15,1.29,1.4,1.4,0,0,0,.06.45.81.81,0,0,1,0,.31.27.27,0,0,1-.15.23c-.1,0-.23,0-.25.1a.17.17,0,0,0,.07.17h.18a.15.15,0,0,1-.07.21h0a.47.47,0,0,0-.26,0,.34.34,0,0,0-.12.3v.36a.2.2,0,0,1-.2.21h-.06a.4.4,0,0,1-.11-.36,2,2,0,0,1,.2-.41.53.53,0,0,0,0-.46.27.27,0,0,0-.08-.07.24.24,0,0,0-.32.09,1,1,0,0,0-.16.52,4,4,0,0,0-1.32-1.28l-.27-.14h-.07a.28.28,0,0,1-.1-.09c-.13-.23.17-.56.05-.75a.67.67,0,0,0-.28.1.35.35,0,0,0-.16.29v.17c0,.07-.12.06-.18.12s0,.53-.12.65a.09.09,0,0,1-.12,0,.24.24,0,0,1-.12-.2.68.68,0,0,1,.11-.39l-.14-.25a.75.75,0,0,0-.26-.27.81.81,0,0,0-.41-.11,1.76,1.76,0,0,1-.75-.11h0a.45.45,0,0,1-.21-.26.32.32,0,0,1,.08-.37.45.45,0,0,1,.28,0,.18.18,0,0,0,.23-.12.34.34,0,0,0-.1-.3c-.47-.68-.94-1.34-1.41-2a.29.29,0,0,0-.11-.11.06.06,0,0,0-.08,0c-.07,0-.07.16-.1.24a.2.2,0,0,1-.26.07l-.05,0a.48.48,0,0,1-.09-.4,1.37,1.37,0,0,1,.15-.38,1,1,0,0,0-.49.48c-.07-.35-.13-.69-.18-1a1.5,1.5,0,0,1-1.09.22l.45-.45-.07-.06a.43.43,0,0,0-.44.06c-.17.09-.36.19-.51.1h0c-.1-.05-.18-.17-.27-.22a.09.09,0,0,0-.1,0c-.1,0-.17.14-.27.15h-.14l-.07-.05c-.08,0-.18,0-.16.12l.08.13a.11.11,0,0,1-.1.12l-.07,0h0a1.26,1.26,0,0,1-.31-.69.8.8,0,0,0-.31-.49.15.15,0,0,0-.13,0l-.31-.33a3.53,3.53,0,0,0-.8-1l-2-2-.08-.1a.45.45,0,0,0-.22-.36h0a.82.82,0,0,0-.38-.06,3.59,3.59,0,0,0-1,.17,7.33,7.33,0,0,0-1.23.49,1.39,1.39,0,0,0-.41.27.66.66,0,0,0-.17.52.17.17,0,0,1,.14,0,.36.36,0,0,1,.16.22,2,2,0,0,1,0,.49.79.79,0,0,0,.1.45c.1.12.28.14.33.3a.73.73,0,0,1,0,.36.28.28,0,0,0,.08.26h.06a.07.07,0,0,1-.09,0h0a.12.12,0,0,1,0-.1l-.31.07a.43.43,0,0,0-.2-.26h-.08a.4.4,0,0,0-.16-.48h-.05a.57.57,0,0,0-.49.1.93.93,0,0,1-.48.17.46.46,0,0,0,.2.32h.11a1.13,1.13,0,0,0,.24,1l.14.11a.64.64,0,0,0,.7,0,8,8,0,0,1-.11.84c0,.07,0,.15-.07.19s-.15,0-.22,0a1.12,1.12,0,0,0-1.44.66h0a1.09,1.09,0,0,0-.05.17c-.08,0,0,.18,0,.23s.17.08.19.18a.39.39,0,0,1,0,.26.81.81,0,0,0,.21.82.22.22,0,0,1,.27,0h.09a.74.74,0,0,0-.15.7c.06.15.2.2.32.29a.41.41,0,0,1,.2.4c.13,0,.22-.19.18-.35h.08a.53.53,0,0,1,.1.67.91.91,0,0,1-.62.36l-2.12.48a.22.22,0,0,0,.08.13h.07l.34,0a5.77,5.77,0,0,0,3.33-.92,1.61,1.61,0,0,1,1.35-1.09l-.75.9h.23v.29l.95-.32a.56.56,0,0,1,.31,0h.1l.08.06c.26.22.33.67.56.92a.68.68,0,0,0,.21.17l.19.09.21.1.07,0a2.6,2.6,0,0,1,.75,1.65l.22-.19a.82.82,0,0,1,0,.49,5.28,5.28,0,0,0,.2,2.2l.13-.26a1.73,1.73,0,0,1,.27,1.1v.81a2.4,2.4,0,0,0,.15,1.06,4.37,4.37,0,0,0,.44.62,1,1,0,0,1,.21.75.33.33,0,0,1-.37.25h-.05a.22.22,0,0,1-.09-.1c-.26.91-.53,1.82-.8,2.73a2,2,0,0,1,.35,1.93,1.48,1.48,0,0,1-.69.84,1.42,1.42,0,0,0,.2.64,6.11,6.11,0,0,1,.63,1,2.83,2.83,0,0,1,0,1.16,1.25,1.25,0,0,0,.26,1.07l-.39.12.56.86a1.49,1.49,0,0,0,.39,1.42c-.06-1.06-.1-2.11-.15-3.18,0-.17,0-.38.13-.43a.15.15,0,0,1,.13,0,.78.78,0,0,1,.21.46c.1.74.21,1.5.31,2.24a8.48,8.48,0,0,1,.1,1.95,2.76,2.76,0,0,0-.07,1,1.7,1.7,0,0,0,.42.75,11.35,11.35,0,0,0,1.18,1.32c.25.24.52.44.75.67a4.48,4.48,0,0,1,1.43,2.45.91.91,0,0,0,.1.33.24.24,0,0,0,.1.1.14.14,0,0,0,.15,0l.1-.15.57-1.23c-.24-.45-.89-.53-.93-1.06a1.12,1.12,0,0,1,.43-.8c.2-.22.35-.64.15-.86a.19.19,0,0,0-.07-.06.4.4,0,0,0-.45.08c-.15.12-.26.31-.43.4a.56.56,0,0,1-.61,0,1.22,1.22,0,0,1-.51-.65,3.49,3.49,0,0,1,0-1.7c.13-.75.4-1.55,1-1.73a.75.75,0,0,1,.62.07,1.31,1.31,0,0,1,.3.27,1.32,1.32,0,0,0,.34.4.15.15,0,0,0,.16,0c.12,0,.21-.2.34-.24a.28.28,0,0,1,.22,0l.19.16a2.7,2.7,0,0,1,.87,1.33,3,3,0,0,1,.05.52l.05,1.33a1.72,1.72,0,0,0,.41-1.34,2.09,2.09,0,0,1,.33-1.4c.31-.32.75-.24,1.16-.38a1.6,1.6,0,0,0,.88-1.5v.6h0a.16.16,0,0,0,.2-.08h0l.19-.41.47-.28a1.57,1.57,0,0,1-.27-1.5.94.94,0,0,1,1.1-.75h0a1.06,1.06,0,0,1,.25.09,1.52,1.52,0,0,1,.53,1.24l.89-.06a2.56,2.56,0,0,0-.2.26.31.31,0,0,0,.16.3h0a.42.42,0,0,0,.31,0l.75,0a1,1,0,0,0,.44-.13.48.48,0,0,0,.09-.5.34.34,0,0,0-.09-.08.63.63,0,0,0-.3,0,.51.51,0,0,1-.3,0,.27.27,0,0,1-.08-.07.57.57,0,0,1,0-.51c.08-.15.15-.31.22-.47a.53.53,0,0,0-.07-.5h0l-.15-.06a.44.44,0,0,1-.15-.05.12.12,0,0,1-.08-.09.27.27,0,0,1,.11-.35.3.3,0,0,1,.26,0l.07.06a2.37,2.37,0,0,1,.27.28,1.09,1.09,0,0,0,.29.24,1.46,1.46,0,0,0,.7.18,3.29,3.29,0,0,0,1-.17.47.47,0,0,0,.35-.21.86.86,0,0,0,0-.28,3.75,3.75,0,0,0-.28-1.66,3.18,3.18,0,0,1-.26-.79,2.65,2.65,0,0,1,.06-.69,6.78,6.78,0,0,0-.05-1.35.59.59,0,0,0-.16-.38h0a.33.33,0,0,0-.22.11.58.58,0,0,1-.62,0,.72.72,0,0,1-.24-.22,1,1,0,0,1,0-1.08l.12-.39c-.12-.35-.48-.51-.58-.87a5,5,0,0,1,0-.55.46.46,0,0,0-.19-.3.13.13,0,0,0-.12,0c-.07,0-.12.14-.2.14h-.05c-.09-.05-.12-.26-.2-.37l-.07-.05a.24.24,0,0,0-.23,0,.47.47,0,0,0-.22.24,1.51,1.51,0,0,0-.16.83.79.79,0,0,1,0,.43,1,1,0,0,1-.21.19,1.18,1.18,0,0,0-.23.87,1.85,1.85,0,0,1-.16.9c-.23.33-.67.29-.91.59a1.93,1.93,0,0,0-.24,1,1.33,1.33,0,0,1-.22.64.36.36,0,0,1-.46.12H281a.64.64,0,0,1-.13-.62,1.64,1.64,0,0,1,.3-.55h0c-.13-.07-.09-.33,0-.46a.71.71,0,0,0,.19-.48.37.37,0,0,0-.21-.26l-.22-.12a1.49,1.49,0,0,1-.54-.74A5.93,5.93,0,0,0,280,160a1.24,1.24,0,0,0-.35-.37.57.57,0,0,0-.36-.06h-.15a.27.27,0,0,1-.07-.3.09.09,0,0,1,0-.07.7.7,0,0,1-.4-.1,1.22,1.22,0,0,1-.46-1.42.76.76,0,0,1,.87-.61h0a1.17,1.17,0,0,1,.26.1l.09.06.62-.93c.1-.16.24-.32.4-.26l.08.06h.14c.13,0,.18-.2.26-.31a.51.51,0,0,1,.28-.17l1-.41-.28-.3a1,1,0,0,1-.41-.68v-.18a.07.07,0,0,1,.1,0,.16.16,0,0,1,.08.06,5.43,5.43,0,0,0,.42.53l.06,0a.3.3,0,0,0,.41,0h0a.73.73,0,0,0-.07-.58.19.19,0,0,1,.15,0,.49.49,0,0,1,.22.35.91.91,0,0,0,.09.51h0a.13.13,0,0,0,.17,0h0a.23.23,0,0,0-.05-.28.52.52,0,0,0,.51-.07,2.59,2.59,0,0,0,.41-.4.57.57,0,0,0,.17-.48l-.17-.11a.26.26,0,0,1,0-.21c.05-.09.17,0,.24-.11a.33.33,0,0,0,.07-.27,1.81,1.81,0,0,0-.36-1.07l-.14-.11h-.12a.2.2,0,0,0-.23.13c-.07.17,0,.39-.06.55s-.33.17-.4.36v.23a.16.16,0,0,1-.11.17l-.06-.15h0c-.06,0-.13,0-.16.1s0,.16-.07.24a.2.2,0,0,1-.24.1h0a.26.26,0,0,1-.13-.23.62.62,0,0,1,.26-.46,1.6,1.6,0,0,0,.35-.81v-.17a.24.24,0,0,0-.06-.08.16.16,0,0,0-.21.05.7.7,0,0,0-.12.34.53.53,0,0,1-.17.31.15.15,0,0,1-.2-.08.1.1,0,0,1,0-.07c0-.1.1-.15.14-.23a.92.92,0,0,0,0-.33c0-.11.08-.24.16-.21l-.39-.43.11-.54.14-.91a1.41,1.41,0,0,1,.05-.46.58.58,0,0,0,0-.32.29.29,0,0,0-.13-.14" transform="translate(0)"/><path id="Path_240" data-name="Path 240" class="cls-12" d="M274.89,178.61l-.18.1a.21.21,0,0,0,0,.2l.07.2.18.38.1.19c.05.12.11.23.16.36l.08.08h0l.12,0c.06,0,.1-.07.15-.1h.08a1.51,1.51,0,0,1-.13-.46h0a1.64,1.64,0,0,1-.37-.28,1,1,0,0,1-.25-.67m-1.9,19a1.75,1.75,0,0,1-.65-2.06,1.11,1.11,0,0,1,1.31-.87,1.24,1.24,0,0,1,.32.12,1.77,1.77,0,0,1,.65,2.06,1.13,1.13,0,0,1-1.33.86,1.25,1.25,0,0,1-.3-.12m5.29-18a2.76,2.76,0,0,0-.7.06,3,3,0,0,1-.07.32,1,1,0,0,1-1.12.75h0a1.73,1.73,0,0,1-.24-.1,1.13,1.13,0,0,1-.27-.22h0a.56.56,0,0,1-.06.31l.06.3a3.83,3.83,0,0,1-.22.65c-.05.1-.1.23-.2.25a.28.28,0,0,1-.18,0h-.18l-.06.17a1,1,0,0,0-.34.06.89.89,0,0,0-.31.27.45.45,0,0,0-.12.21c0,.18.07.41,0,.56a.49.49,0,0,1-.18.14.21.21,0,0,0-.11.2l-.09.4a3.77,3.77,0,0,0,.17,1.1,7.15,7.15,0,0,1,.16,2.06,2.29,2.29,0,0,0,0,.64,1.38,1.38,0,0,0,.18.39,4.51,4.51,0,0,1,.6,1.41l.09.38c-.29.75-.59,1.5-.92,2.25-.18.37-.36.74-.56,1.08a7.85,7.85,0,0,1-1,1.58,2.1,2.1,0,0,0-.5.68,1.79,1.79,0,0,0-.09.57,4.79,4.79,0,0,0,.18,1.41,4.7,4.7,0,0,1,.25,1.11,3.85,3.85,0,0,1-.09.67,1.52,1.52,0,0,0,0,.67.53.53,0,0,0,.23.3.28.28,0,0,0,.22,0,.76.76,0,0,0,.31-.43,6.94,6.94,0,0,1,.41-1.07,1.21,1.21,0,0,1,.75-.7,1.13,1.13,0,0,1,.68.08,2.4,2.4,0,0,0,.7.13.64.64,0,0,0,.56-.42.61.61,0,0,0-.18-.68H276a.36.36,0,0,1,.49-.15h0l.12.07.12.07.1.07.16.08a.4.4,0,0,0,.51-.12,1.5,1.5,0,0,1,.91-1l0,.15a1.4,1.4,0,0,0,1.11-1.38l.28-.16a.39.39,0,0,0,.1.08l.1,0c.16,0,.26-.18.4-.24s.58.15.88.17a1,1,0,0,0,.66-.36,5.76,5.76,0,0,0,1.08-1.55.77.77,0,0,1,.22-.34.87.87,0,0,1,.18-.11l.26-.39a.89.89,0,0,1,.59-.37,1.17,1.17,0,0,0,.6-.34.68.68,0,0,0,.06-.75l-.14-.43a11.74,11.74,0,0,0-2.12-2.55.8.8,0,0,1-1.11.28h0a1.39,1.39,0,0,1-.51-1.62.92.92,0,0,1,1.07-.69,2.71,2.71,0,0,0-.15-.74,1.54,1.54,0,0,0-.3-.45c-.14-.15-.29-.26-.44-.4a2.74,2.74,0,0,1-.74-1.23,2.65,2.65,0,0,0-.45-1.08.41.41,0,0,0-.14-.12,1.63,1.63,0,0,0-.39-.13,2.67,2.67,0,0,1-.36-.14h0a1,1,0,0,1-.38-.44,1.06,1.06,0,0,0-.18-.33h0a.18.18,0,0,0-.23.06.12.12,0,0,0-.1-.14h-.07a.49.49,0,0,0-.15.24c0,.09-.08.19-.16.22a.08.08,0,0,1-.11,0,.36.36,0,0,1-.13-.39.86.86,0,0,1,.34-.41.65.65,0,0,0,.28-.47" transform="translate(0)"/><path id="Path_241" data-name="Path 241" class="cls-13" d="M297.15,192.67a1.49,1.49,0,0,1-.54-1.7.91.91,0,0,1,1.09-.71h0a1.06,1.06,0,0,1,.25.09,1.49,1.49,0,0,1,.55,1.71.93.93,0,0,1-1.11.7.75.75,0,0,1-.24-.08m-2.58-15.8a4,4,0,0,0-2.09-.55,1.94,1.94,0,0,1-1.09-.11.71.71,0,0,1-.14-.1,1.72,1.72,0,0,1-.06.9,1,1,0,0,1-1.23.75.88.88,0,0,1-.27-.1,1.31,1.31,0,0,1-.48-.51c-.38.51-1,.57-1.5,1a3.57,3.57,0,0,0-.75,1.67,7.87,7.87,0,0,0-.37,2.41,6,6,0,0,0,.8,2.61,1.51,1.51,0,0,0,.36.47.35.35,0,0,0,.1.08,1.18,1.18,0,0,0,.55.14l1.81.23a1.67,1.67,0,0,1,.54.15l.06.05v-.09a1,1,0,0,1,1.19-.75,1.15,1.15,0,0,1,.31.11,1.62,1.62,0,0,1,.59,1.86,1,1,0,0,1-1.09.8,2.51,2.51,0,0,0-.38.54c-.22.5.08,1.11.25,1.66a2.93,2.93,0,0,1-.39,2.67c-.29.32-.7.57-.74,1.07s.35,1,.45,1.5c.19,1-.67,1.93-.36,2.87a4.89,4.89,0,0,1,.3.75c0,.26-.16.59-.35.48h0a1.59,1.59,0,0,0,.8,1c.2.1.4.2.6.28a1.48,1.48,0,0,0,1.3.06l.32-.1,1.14-1.33a2.24,2.24,0,0,1,.53-.49,1.2,1.2,0,0,0,.27-.16c.24-.21.28-.63.39-1a1.37,1.37,0,0,1,.75-.86l.63-.18a1.79,1.79,0,0,0,.66-1.4,5.91,5.91,0,0,1,.29-1.66l-.33-.2a5.16,5.16,0,0,1,2.25-1.64,3.76,3.76,0,0,0,2.06-1.92s.38-.4.14-.53h-.05l.1.14a2,2,0,0,1-1.35-.1,1,1,0,0,1-.25-.2,2.82,2.82,0,0,1-.49-.94c-.17-.45-.33-.88-.49-1.33a2.5,2.5,0,0,1-.23-1.17,5,5,0,0,1,.17-.69.68.68,0,0,0-.18-.65c-.09-.75-.18-1.5-.26-2.29a1,1,0,0,1-.05-.39,1.09,1.09,0,0,0-.16-.52l-.1-.09a.22.22,0,0,0-.31,0v0a7.43,7.43,0,0,0-1.3-1.14l-.13-.09a.52.52,0,0,0-.55-.05c-.1.07-.18.22-.3.27a.23.23,0,0,1-.25,0,1.48,1.48,0,0,1-.43-.53,5.72,5.72,0,0,0-1.5-1.6c.19.07.38-.08.47-.28a2,2,0,0,0,.14-.68,1.32,1.32,0,0,0-.25-.16" transform="translate(0)"/><path id="Path_242" data-name="Path 242" class="cls-14" d="M314.37,163.46a.35.35,0,0,0-.42.09,2.82,2.82,0,0,0-.34.67.8.8,0,0,1-.08.16,3.22,3.22,0,0,1,.58,1.45c.12-.6.25-1.2.38-1.8a.72.72,0,0,0,0-.41.34.34,0,0,0-.13-.16m17.25,7.87a2.57,2.57,0,0,1,.26.41.25.25,0,0,1,.17,0,2.25,2.25,0,0,0-.43-.38m-11.47,13.5a1.82,1.82,0,0,1-.67-2.12,1.16,1.16,0,0,1,1.38-.86,1.48,1.48,0,0,1,.29.12,1.81,1.81,0,0,1,.67,2.11,1.15,1.15,0,0,1-1.38.86h0a1,1,0,0,1-.29-.11m-3.8-7.15a1.4,1.4,0,0,1-.51-1.63.9.9,0,0,1,1.06-.67.58.58,0,0,1,.22.08,1.4,1.4,0,0,1,.52,1.63.87.87,0,0,1-1,.68h0l-.24-.09m8.3-14.1a2,2,0,0,0-.53-.2l-2.31-.61a3.1,3.1,0,0,0-2.69.11c-.4.29-.74.75-1.18.88s-.59-.06-.88,0a.6.6,0,0,0-.52.68h0c.08.37.51.67.36,1a.23.23,0,0,1-.32.09h0a.32.32,0,0,1-.1-.1,1.24,1.24,0,0,1-.18-.6l-.21.15h0c-.29-.17-.65.36-.46.7a1.48,1.48,0,0,1,0-1.66,4.07,4.07,0,0,0-.94,3.1,2,2,0,0,1-1.63,1.8,1.14,1.14,0,0,0,.55-.63,1.88,1.88,0,0,1-2.51.53,3.17,3.17,0,0,1-1.3-3.31h-.18a.14.14,0,0,1-.15,0h0c-.1-.09.19-.31.12-.35h0c-.07,0-.41.27-.41.27a.38.38,0,0,0-.15-.16.54.54,0,0,0-.57.1,4.42,4.42,0,0,1-.65.57.47.47,0,0,1-.4,0,.42.42,0,0,1-.21-.36c0-.45.61-.67.49-1.1a.33.33,0,0,0-.13-.16.38.38,0,0,0-.5.21h0c-.15.28-.15.65-.27.94a1.64,1.64,0,0,1-.7.75,1.17,1.17,0,0,1-.7.27,2.33,2.33,0,0,1-.44-.1.35.35,0,0,0-.37.24.31.31,0,0,0,.1.29h-.05a.7.7,0,0,1-.29-.49,5.1,5.1,0,0,1,.07-.87.85.85,0,0,0-.27-.75l1.3.79h.06c.25.14.53.26.75.1a.82.82,0,0,0,.19-.82,2.63,2.63,0,0,0-.42-.75l-1.27-1.82a4.42,4.42,0,0,0-1.12-.95,3.3,3.3,0,0,0-3.66.14l.57.09a9.23,9.23,0,0,1-2.24,2.34,4.71,4.71,0,0,0-1.37.92,2.27,2.27,0,0,0-.42.92,1.76,1.76,0,0,0,.18,1.4.61.61,0,0,0,.21.18l.09,0a1.93,1.93,0,0,1-.35-1.89,1.15,1.15,0,0,1,1.39-.86h0a1,1,0,0,1,.29.12,1.84,1.84,0,0,1,.69,2.16,1.21,1.21,0,0,1-1.3.92c0,.57.05,1.15.08,1.73a6.35,6.35,0,0,0,1.39-1.19,1.3,1.3,0,0,0,.41-.89,5.59,5.59,0,0,0-.12-.56,1.44,1.44,0,0,1,.66-1.3,2.85,2.85,0,0,0,1-1,.5.5,0,0,1,.37-.54.36.36,0,0,1,.22,0,.58.58,0,0,1,.25.38c.1.48-.31.83-.65,1.07a2.26,2.26,0,0,0-.9,1.18,1.31,1.31,0,0,0,.4,1.38h.07a2.34,2.34,0,0,0,.7,0,.47.47,0,0,1,.28.09.49.49,0,0,1,.27.38h-1.5a2.07,2.07,0,0,0,.1.43.85.85,0,0,1-.46.52.35.35,0,0,0-.16-.43.28.28,0,0,0-.18,0c-.2.05-.31.3-.39.55a1.61,1.61,0,0,1-.28.66.84.84,0,0,1-.82.14,1.66,1.66,0,0,1-.53-.18.77.77,0,0,1-.38-.53.36.36,0,0,1-.42,0,.63.63,0,0,1-.3-.66,3.48,3.48,0,0,1,.32-.64.57.57,0,0,0-.11-.57H297c-.13,0-.2.15-.26.3a5.18,5.18,0,0,0-.29,1.5h0c-.52-.3-1.1.09-1.55.49s-1,.85-1.55.65a.25.25,0,0,1,0,.34h0a1,1,0,0,0-.38-.38.67.67,0,0,0-.34-.1c.19.3.37.63.53,1a1.28,1.28,0,0,1-.7,1.37.87.87,0,0,1-.67-.09,1.33,1.33,0,0,1-.53-.66c-.18.62-.39,1.25-.57,1.87a1.2,1.2,0,0,0-.1.62.49.49,0,0,0,.21.4h.12l.39.32,1,.19.07-.18a2.17,2.17,0,0,1,1-1.15,3.06,3.06,0,0,1,1-.28l.4-.07a.89.89,0,0,1,.51,0h.05a1.56,1.56,0,0,1,.48.65,3.74,3.74,0,0,1,.56,2.06.5.5,0,0,0,0,.38l0,.05c.1.06.25,0,.28-.18a1,1,0,0,0-.05-.52l.48.14-1.05-2.05a.62.62,0,0,1-.07-.56c.07-.12.21-.1.33,0l.19.16a4.35,4.35,0,0,1,.94,3.29.92.92,0,0,0,.06.59.09.09,0,0,0,.06.06.15.15,0,0,0,.23,0,.19.19,0,0,0,0-.15l.32-.1c-.05-.3-.09-.6-.14-.91.37-.1.75.34,1.1.23.52-.16.54-1.25,1.05-1.41a.71.71,0,0,1,1-.18h0a.46.46,0,0,1,.17.17l-.2.19a.38.38,0,0,0,.18.42.12.12,0,0,0,.14,0c.19,0,.27-.38.14-.56a1.43,1.43,0,0,1,1.09.15h0l-.34.14a1.13,1.13,0,0,1-.29.68l.12.11a1.66,1.66,0,0,1,2-1.24,1.92,1.92,0,0,1,.42.16,2.63,2.63,0,0,1,1,3,1.64,1.64,0,0,1-1.86,1.35,1.79,1.79,0,0,1-.44-.16,2.26,2.26,0,0,1-1-1.42.35.35,0,0,1-.15-.07h0a3.93,3.93,0,0,1-.55-.44l-.31-.22a1.91,1.91,0,0,0-1.4-.21h0a1,1,0,0,0-.75-.14,1.61,1.61,0,0,0,.09,1.27,1.25,1.25,0,0,0,.45.49.71.71,0,0,0,.45.12.7.7,0,0,0,.2.22.47.47,0,0,0,.46,0l.28.26a1.65,1.65,0,0,1-1.44,1.5.67.67,0,0,0-.1.31,1.31,1.31,0,0,0,0,.39,1,1,0,0,0,.1.24c.15.3.37.52.52.8a4.14,4.14,0,0,1,.34,1.5c.1,1.05.22,2.09.33,3.14a.88.88,0,0,0,.22.62h0a.57.57,0,0,0,.31.05,13.56,13.56,0,0,0,2.62-.37,1.94,1.94,0,0,0,.93-.43,1.22,1.22,0,0,0,.35-1.09.8.8,0,0,0-.63-.64h-.41l-.17-.07a2,2,0,0,1-.63-.83,2.14,2.14,0,0,1-.28-.92c0-.33.21-.67.48-.61a2.8,2.8,0,0,0,1.24,1.89h.05a3,3,0,0,0,1.14,1.2l.16.09a2,2,0,0,1,.09-.35,1.12,1.12,0,0,1,1.32-.86,1.51,1.51,0,0,1,.3.1,1.79,1.79,0,0,1,.65,2.06,1.24,1.24,0,0,1-.87.86l.2.37.12.13c.08,0,.12-.13.15-.22s.1-.17.15-.14h0a.42.42,0,0,1,0,.38c-.05.13-.12.23-.17.35a1.91,1.91,0,0,0-.05.75c.07,1,.14,2,.2,3,0,.15,0,.31.12.38h0a.33.33,0,0,0,.3-.06,2.52,2.52,0,0,0,.74-1.05,1.42,1.42,0,0,0,.15-.57v-.31a.52.52,0,0,1,.39-.28l1.3-.33a.69.69,0,0,0,.31-.15.36.36,0,0,0,.12-.36l.1.07a1,1,0,0,0,1,0,.78.78,0,0,0,0,.5,2.76,2.76,0,0,1,.2.47,1.35,1.35,0,0,1,.05.29V192c.05.4.08.9-.18,1.14a.71.71,0,0,0,.82-.26v.3a5.05,5.05,0,0,1-.3,2.37,1.49,1.49,0,0,0-.09.3,1.63,1.63,0,0,0,.08.37,3,3,0,0,1,.11.9,2,2,0,0,0,0,.49c.1.33.45.46.54.8,0-.25.1-.5.14-.75a1.09,1.09,0,0,0,0-.36,2.23,2.23,0,0,0-.31-.64,2.5,2.5,0,0,1-.11-.9,2.72,2.72,0,0,1,.14-.94.44.44,0,0,1,.15-.23.15.15,0,0,1,.16,0,.2.2,0,0,1,.08.08v.19c.06.17.25.19.35.33a.72.72,0,0,1,.1.43.57.57,0,0,0,.16.35h0c.17.05.29-.19.45-.21s.22.07.32,0,.2-.16.24-.3a1.84,1.84,0,0,0-.14-1.38c-.17-.32.27-.69.27-.69a1.44,1.44,0,0,1,.3-.62.33.33,0,0,1,.39-.05.2.2,0,0,1,.12.15l.09.31a.34.34,0,0,0,.12.12.53.53,0,0,0,.35,0,3.78,3.78,0,0,0,2.76-1.24,1.29,1.29,0,0,0,.22-1.33c.16-.13.11-.46,0-.68a.9.9,0,0,1-.06-.75c.1-.16.29-.17.46-.22a.36.36,0,0,0,.26-.43h0a.28.28,0,0,0-.09-.1.57.57,0,0,0-.26,0,.62.62,0,0,1-.27,0h-.05a.44.44,0,0,1,0-.49,1.12,1.12,0,0,1,.34-.31.72.72,0,0,1,.52-.16h.06a.4.4,0,0,1,.16.5l.84.22c-.12.25-.23.5-.34.75l.47.22a1.71,1.71,0,0,0-.32,1.18l.69-.14c.14-.09.16-.35.11-.54a4,4,0,0,1-.17-.59,1.27,1.27,0,0,1,.5-.94,2.17,2.17,0,0,1,.52-.38,3.82,3.82,0,0,1,.75-.08,3.39,3.39,0,0,0,2.09-1.59,14.93,14.93,0,0,0,1.15-1.81.7.7,0,0,0-.37-.56l-.31-.17a.72.72,0,0,1-.24-.19.54.54,0,0,1,0-.61.11.11,0,0,1-.11,0,.32.32,0,0,1-.14-.27.79.79,0,0,1,.25-.42c.65-.61,1.43-1.25,2.24-1,.35.12.66.4,1,.38a3.55,3.55,0,0,0,.47-.09.47.47,0,0,1,.31.05.33.33,0,0,1,.13.13c.11.15.07.44-.09.47l.75.3c-.22-.32.06-.89.38-.79a.43.43,0,0,0,.48-.09.9.9,0,0,1,.93-.26.8.8,0,0,0-.11.75l.9-.62a.22.22,0,0,1,.19,0,.05.05,0,0,1,.05.05.26.26,0,0,1-.07.22,9.87,9.87,0,0,1-2.78,2.41,4.51,4.51,0,0,0-.54,3,1.21,1.21,0,0,1,.75-.75.35.35,0,0,0,.3-.18c.07-.12.05-.28.12-.38s.32,0,.47-.06.17-.17.23-.29l.48-1.06a3.35,3.35,0,0,1,.49-.86.84.84,0,0,1,.74-.38c.47.1.45-.1.45-.1s0-.18.1-.14h0a.32.32,0,0,1,0,.3.42.42,0,0,0,0,.31.12.12,0,0,0,.08.09.36.36,0,0,0,.32,0l1.16-.62a.78.78,0,0,1,.75-.1l.13.12c.07.1.14.25.22.29a.07.07,0,0,0,.1,0c.07,0,.1-.13.12-.22a1.63,1.63,0,0,0-.15-1.26l-.21-.22a.33.33,0,0,1-.05-.29c.05-.12.16-.1.26-.06a.68.68,0,0,1,.12.12,1.36,1.36,0,0,0,.24.24.17.17,0,0,0,.14,0c.15-.05.19-.3.24-.49s.19-.35.31-.28h0a.78.78,0,0,1,.07.3,1.42,1.42,0,0,0,.16.45l.6,1.24.09-.29c.29.08.6-.2.64-.57a.25.25,0,0,0,.13.22.15.15,0,0,0,.13,0,.37.37,0,0,0,.23-.34,1.22,1.22,0,0,0-.06-.46.61.61,0,0,0-.21-.35.13.13,0,0,0-.12,0l-.15.05h-.05a.35.35,0,0,1-.13-.19,10.86,10.86,0,0,1-.71-2.08c-.06-.31-.14-.68-.36-.81h0c-.15-.08-.31,0-.46-.06a.36.36,0,0,1-.17-.07,1.67,1.67,0,0,1-.52-.6,2,2,0,0,0-.54-.64h0a2.71,2.71,0,0,1,0,.57.52.52,0,0,1-.31.38.22.22,0,0,1-.16,0,.3.3,0,0,1-.17-.28c0-.18.15-.35.12-.54a.24.24,0,0,0-.28-.17.17.17,0,0,0-.1.06.9.9,0,0,0-.21.49,2.07,2.07,0,0,0-.67-.68,2.33,2.33,0,0,0-.33-.14.94.94,0,0,1-.28-.1h0a.36.36,0,0,1-.15-.37.75.75,0,0,1,.1-.2.88.88,0,0,0-.15-.83,1.24,1.24,0,0,0-.44-.41,1.48,1.48,0,0,0-.29-.12,3.32,3.32,0,0,1-.7-.13h0a.57.57,0,0,1-.28-.67c0-.14-.12-.27-.36-.54a.4.4,0,0,1,0-.54.21.21,0,0,0-.1-.14.24.24,0,0,0-.26,0c-.1.06-.2.18-.33.2a2.22,2.22,0,0,1-.09,1.14,1.38,1.38,0,0,1-1.64,1.06h0a1.26,1.26,0,0,1-.37-.13,2.19,2.19,0,0,1-.8-2.56,2.11,2.11,0,0,1,.2-.43l-.54-.18a.53.53,0,0,1-.59.45l-.12,0a.74.74,0,0,1-.33-.67c0-.37.28-.65.4-1a1.5,1.5,0,0,0-.15-1.24,1,1,0,0,0-.35-.33.75.75,0,0,0-.62-.07c.08.21.16.43.23.65a3,3,0,0,1-.55-.25,3.36,3.36,0,0,1-.6-.45.48.48,0,0,1-.16-.26c0-.1.06-.22.15-.19a1.23,1.23,0,0,0-.37-.31,1.15,1.15,0,0,0-1.11,0,.6.6,0,0,0-.26-.7.27.27,0,0,0-.3,0v.28a1.27,1.27,0,0,1-.95-.14,2,2,0,0,1-.44-.38,2.85,2.85,0,0,0,2-.56,1.72,1.72,0,0,0,.17-2.24.62.62,0,0,0-.2-.15" transform="translate(0)"/><path id="Path_243" data-name="Path 243" class="cls-15" d="M268.31,161.67a1.21,1.21,0,0,0-1.63.48v0a1.15,1.15,0,0,0-.11.31,1.9,1.9,0,0,0,.7,2.24,1.06,1.06,0,0,0,1.06,0,1.44,1.44,0,0,0,.69-.84,2,2,0,0,0-.35-1.93,1.43,1.43,0,0,0-.35-.3" transform="translate(0)"/><path id="Path_244" data-name="Path 244" class="cls-15" d="M281.94,167.8a.94.94,0,0,0-1.28.38.54.54,0,0,0-.09.24,1.56,1.56,0,0,0,.27,1.5,1,1,0,0,0,.28.23,1,1,0,0,0,1.28-.38,1.06,1.06,0,0,0,.09-.25,2.33,2.33,0,0,0,.08-.36,1.45,1.45,0,0,0-.63-1.37" transform="translate(0)"/><path id="Path_245" data-name="Path 245" class="cls-15" d="M274,194.82a1.12,1.12,0,0,0-1.5.45,1.54,1.54,0,0,0-.11.3,1.76,1.76,0,0,0,.66,2.06,1.12,1.12,0,0,0,1.52-.46,1.45,1.45,0,0,0,.11-.29,1.77,1.77,0,0,0-.66-2" transform="translate(0)"/><path id="Path_246" data-name="Path 246" class="cls-15" d="M307.77,185.55a1.13,1.13,0,0,0-1.5.45,1.66,1.66,0,0,0-.1.29,2.37,2.37,0,0,0-.09.36,1.71,1.71,0,0,0,.75,1.7,1.08,1.08,0,0,0,.75.12,1.24,1.24,0,0,0,.86-.86,1.76,1.76,0,0,0-.65-2.06" transform="translate(0)"/><path id="Path_247" data-name="Path 247" class="cls-15" d="M298.23,164.6a1.18,1.18,0,0,0-1.59.46,1,1,0,0,0-.11.29,2,2,0,0,0,.35,1.89,1.44,1.44,0,0,0,.33.27,1.12,1.12,0,0,0,.4.14,1.21,1.21,0,0,0,1.3-.92,1.85,1.85,0,0,0-.69-2.16" transform="translate(0)"/><path id="Path_248" data-name="Path 248" class="cls-15" d="M270.89,148.84a.91.91,0,0,0-1.24.37h0a.75.75,0,0,0-.08.24,1.51,1.51,0,0,0,.53,1.69.92.92,0,0,0,1.23-.37h0a.92.92,0,0,0,.09-.23,1.49,1.49,0,0,0-.53-1.69" transform="translate(0)"/><path id="Path_249" data-name="Path 249" class="cls-15" d="M279.16,157.12a.75.75,0,0,0-1,.23,1,1,0,0,0-.11.28,1.23,1.23,0,0,0,.46,1.43.79.79,0,0,0,.4.1.88.88,0,0,0,.75-.62,1.25,1.25,0,0,0-.36-1.36l-.09-.06" transform="translate(0)"/><path id="Path_250" data-name="Path 250" class="cls-15" d="M277,178.22a1,1,0,0,0-1.27.38h0a.87.87,0,0,0-.1.25,1.59,1.59,0,0,0-.07.75,1.51,1.51,0,0,0,.13.46,1.16,1.16,0,0,0,.23.36.89.89,0,0,0,.26.21.94.94,0,0,0,1.27-.37h0a.87.87,0,0,0,.1-.25,1.87,1.87,0,0,0,.08-.32,1.51,1.51,0,0,0-.62-1.42" transform="translate(0)"/><path id="Path_251" data-name="Path 251" class="cls-15" d="M298,190.35a.93.93,0,0,0-1.25.37,1.06,1.06,0,0,0-.09.25,1.49,1.49,0,0,0,.54,1.7.92.92,0,0,0,1.25-.38h0a.92.92,0,0,0,.09-.23,1.51,1.51,0,0,0-.55-1.71" transform="translate(0)"/><path id="Path_252" data-name="Path 252" class="cls-15" d="M321.14,182a1.15,1.15,0,0,0-1.56.46,2.49,2.49,0,0,0-.11.29,1.83,1.83,0,0,0,.67,2.11,1.15,1.15,0,0,0,1.56-.44v0a.94.94,0,0,0,.1-.28,1.82,1.82,0,0,0-.66-2.12" transform="translate(0)"/><path id="Path_253" data-name="Path 253" class="cls-15" d="M312.77,163.69a2,2,0,0,0-2.75.83,1.86,1.86,0,0,0-.19.53,3,3,0,0,0-.12.43,3.16,3.16,0,0,0,1.3,3.31,1.88,1.88,0,0,0,2.51-.53,2.82,2.82,0,0,0,.44-.82,3.37,3.37,0,0,0-.43-3.06,2.36,2.36,0,0,0-.75-.69" transform="translate(0)"/><path id="Path_254" data-name="Path 254" class="cls-15" d="M282.39,185.66l-.22-.09a.91.91,0,0,0-1.07.68,1.38,1.38,0,0,0,.52,1.62.81.81,0,0,0,1.12-.26h0a1.3,1.3,0,0,0,.16-.31,1.41,1.41,0,0,0-.51-1.63" transform="translate(0)"/><path id="Path_255" data-name="Path 255" class="cls-15" d="M272.52,169.72a.8.8,0,0,0-1.08.33h0a.7.7,0,0,0-.08.2,1.27,1.27,0,0,0,.47,1.5.81.81,0,0,0,1.09-.35.64.64,0,0,0,.06-.18,1.27,1.27,0,0,0-.46-1.5" transform="translate(0)"/><path id="Path_256" data-name="Path 256" class="cls-15" d="M290.61,175.14a1,1,0,0,0-1.4.42,1,1,0,0,0-.1.27,1.75,1.75,0,0,0,.12,1.38,1.13,1.13,0,0,0,.48.51,1,1,0,0,0,1.4-.41h0a.82.82,0,0,0,.1-.26,1.72,1.72,0,0,0,.06-.9,1.52,1.52,0,0,0-.66-1" transform="translate(0)"/><path id="Path_257" data-name="Path 257" class="cls-15" d="M292.33,185.23a1,1,0,0,0-1.39.38,1,1,0,0,0-.11.3.14.14,0,0,0,0,.09,1.58,1.58,0,0,0,.62,1.77.85.85,0,0,0,.38.12,1.06,1.06,0,0,0,1.09-.8,1.62,1.62,0,0,0-.59-1.86" transform="translate(0)"/><path id="Path_258" data-name="Path 258" class="cls-15" d="M304.57,175.88a1.67,1.67,0,0,0-2.25.66h0a1.56,1.56,0,0,0-.15.41h0a2.83,2.83,0,0,0-.05,1.63,2.25,2.25,0,0,0,1,1.41,1.65,1.65,0,0,0,2.24-.66,2.32,2.32,0,0,0,.16-.44,2.63,2.63,0,0,0-1-3" transform="translate(0)"/><path id="Path_259" data-name="Path 259" class="cls-15" d="M331.16,170.94a1.32,1.32,0,0,0-1.79.47h0a1.54,1.54,0,0,0-.2.43,2.17,2.17,0,0,0,.8,2.55,1.38,1.38,0,0,0,1.87-.54h0a1.66,1.66,0,0,0,.14-.37,2.36,2.36,0,0,0,.09-1.15,2.45,2.45,0,0,0-.18-.6,1.91,1.91,0,0,0-.26-.41,1.57,1.57,0,0,0-.46-.39" transform="translate(0)"/><path id="Path_260" data-name="Path 260" class="cls-15" d="M317.09,175.51a.89.89,0,0,0-1.2.36,2.09,2.09,0,0,0-.08.23,1.4,1.4,0,0,0,.51,1.63.88.88,0,0,0,1.2-.35h0a.59.59,0,0,0,.09-.24,1.4,1.4,0,0,0-.51-1.63" transform="translate(0)"/><path id="Path_261" data-name="Path 261" class="cls-16" d="M310,213s-1.2-4.14,6-16.1,16-18.14,19.54-16.08,3.69,3,3.69,3L332.15,197A179.41,179.41,0,0,0,349,184.18a2.13,2.13,0,0,1,3.5,1.54l.75,18.43a20,20,0,0,1-6.89,20.31c-15.16,12.71-8.23,1.33-27.63,24.75,0,0-14.87-1.8-21.11-24.24C297.73,225,299.18,225.46,310,213Z" transform="translate(0)"/><path id="Path_262" data-name="Path 262" class="cls-17" d="M347.57,186.35s6.08,0,4.06,7.8c0,0,5.69,3.81.42,10.84,0,0,4.7.43,1.5,10.4L337.7,227s-8-14.78-16-14.79c0,0,7.93-10.12,9.52-13S347.57,186.35,347.57,186.35Z" transform="translate(0)"/><path id="Path_263" data-name="Path 263" class="cls-18" d="M303,220.34s1.3,15.54,17,19c0,0-13.35-5.73-15.7-20.07Z" transform="translate(0)"/><path id="Path_264" data-name="Path 264" class="cls-19" d="M2.39,220.21a23.42,23.42,0,0,1,2.89,4c8.12,13.95,17,12.59,26.51,9.6,4.58-1.5,9.3-3.3,14.11-4,26.29-6.86,69-18.87,90.79-33.2,33.27-18.11,12.57-82.13-38.27-86.37-.75,3.45-97.14,73.93-98.37,103a9.49,9.49,0,0,0,2.33,7Z" transform="translate(0)"/><path id="Path_265" data-name="Path 265" class="cls-20" d="M2.39,220.21a23.42,23.42,0,0,1,2.89,4c8.12,13.95,17,12.59,26.51,9.6A20.41,20.41,0,0,0,1.35,212.37q-.69.4-1.32.84a9.43,9.43,0,0,0,2.35,7Z" transform="translate(0)"/><path id="Path_266" data-name="Path 266" class="cls-9" d="M1.24,207.62l.17-.1a24.06,24.06,0,0,1,36,24.42" transform="translate(0)"/><path id="Path_267" data-name="Path 267" class="cls-21" d="M223.3,279.57a21.63,21.63,0,0,0-2.39,1.87c8.73,11.89,16.24,19.55,20.54,18.48a120.49,120.49,0,0,0,14.84-4.45,21.24,21.24,0,0,0-33-15.9Z" transform="translate(0)"/><path id="Path_268" data-name="Path 268" class="cls-22" d="M261.88,292.63a29.71,29.71,0,0,0-45.5-18.23,2.26,2.26,0,0,0-.31.23" transform="translate(0)"/><path id="Path_269" data-name="Path 269" class="cls-23" d="M183.59,100.34s1,12.91-8.47,17c0,0,28.15,2.3,31.14,8.82,0,0-.19-10.21,24.48-8.49,10.47.75,17.53-38.7.23-59.83Z" transform="translate(0)"/><path id="Path_270" data-name="Path 270" class="cls-24" d="M230.33,63.68S218,66.63,221.5,73.79s-.33,17.65-.33,17.65-2.16-6.58-6-5.57-5.16,13.26,3.89,16.38c0,0-12.85,19.18-35.76,3a61.16,61.16,0,0,0-6.45-11.35,23.82,23.82,0,0,0-2.78-3.16c-4.43-4.14-13.57-15.46-7-26a21.24,21.24,0,0,1,4.65-5.13s-5-20.6,32.85-23.07C232.58,34.7,239,57.43,230.33,63.68Z" transform="translate(0)"/><path id="Path_271" data-name="Path 271" class="cls-25" d="M226.21,41.2a47.25,47.25,0,0,0-29.92,6.19" transform="translate(0)"/><path id="Path_272" data-name="Path 272" class="cls-25" d="M230.24,54.71a164.27,164.27,0,0,0-36.82.52" transform="translate(0)"/><path id="Path_273" data-name="Path 273" class="cls-25" d="M214.63,63.85c-13.08-1.29-14.44-3.62-27.49-2.05" transform="translate(0)"/><path id="Path_274" data-name="Path 274" class="cls-26" d="M236.72,75.87a1.56,1.56,0,0,0,.28-.75,1.09,1.09,0,0,0-.32-.74,2.33,2.33,0,0,0-3-.06,8.71,8.71,0,0,0-2,2.52c-.4.61-1.5,2-1.25,2.78s1.31.25,2-.05a9,9,0,0,0,4.28-3.7Z" transform="translate(0)"/><ellipse id="Ellipse_3" data-name="Ellipse 3" class="cls-27" cx="236.73" cy="84.94" rx="2.32" ry="0.86" transform="translate(102.65 297.72) rotate(-77.52)"/><circle id="Ellipse_4" data-name="Ellipse 4" class="cls-28" cx="201.41" cy="78.16" r="77.16"/><path id="Path_275" data-name="Path 275" class="cls-29" d="M219.22,126.34l.23,8.4-58.14-13.39s4.54-6.94,8.45-8.1S195.68,112.48,219.22,126.34Z" transform="translate(0)"/><path id="Path_276" data-name="Path 276" class="cls-30" d="M248.77,151.29s-32.58,13.1-35.47,43.47,15.52,39.43,4.09,48.77-50.62,57.69-51.19,75.76c0,0-110.56-30.47-141.82-27.5,0,0-3-31.94,5.6-42.43,37.66-45.83,68.8-122.47,85.36-127.5C136.42,115.44,218.67,118.63,248.77,151.29Z" transform="translate(0)"/><path id="Path_277" data-name="Path 277" class="cls-9" d="M211.63,206.55s-54.16,53.37-61.8,107.26" transform="translate(0)"/><path id="Path_278" data-name="Path 278" class="cls-31" d="M166.24,319.29s-18.87-34.83-141.86-27.47c0,0-3,6.25-2.89,9.58,0,0,128.24,18.44,141.53,29.17C163,330.58,168.51,330,166.24,319.29Z" transform="translate(0)"/><path id="Path_279" data-name="Path 279" class="cls-32" d="M239.7,143.36s-12.88-6.15-24.85,6.73c0,0-53.51-20.4-74.18-19.44,0,0,7.48-9.72,15.25-11.11" transform="translate(0)"/><path id="Path_280" data-name="Path 280" class="cls-33" d="M266.23,288.65c-2.15,3-5.59,5.07-9.92,6.82A117.81,117.81,0,0,1,241.48,300c-2.17.53-5.13-1.13-8.64-4.42a106,106,0,0,1-11.92-14.06c-11.5-15.65-20.44-44-31.68-64a69.34,69.34,0,0,1-7.92-44.74c13-44.79,53.71-45.8,69.9-17.79,10.11,17.48,14,56.09,15.8,86,1.06,17.95,1.36,32.71,1.73,37.78A14.51,14.51,0,0,1,266.23,288.65Z" transform="translate(0)"/><path id="Path_281" data-name="Path 281" class="cls-9" d="M234.67,141.68s17.61,89.91,15.39,102.81,18.36,15.52,16.63-7.09" transform="translate(0)"/><path id="Path_282" data-name="Path 282" class="cls-34" d="M14.43,283.92a17.87,17.87,0,0,0,1.46,7.83,52.62,52.62,0,0,0,9.8,13C40.12,318.93,62,325.55,82.74,328.45a229.62,229.62,0,0,0,35.45,2,26.28,26.28,0,0,0,24-16.64C157.5,274.94,186.93,193,207.54,165c10.1-13.76,3.54-25.28-7-33.33h0l-.74-.55c-.61-.45-1.23-.89-1.86-1.31h0a.13.13,0,0,1-.07-.06h0c-.5-.34-1-.65-1.5-1-7.7-4.85-17.2-8.66-25.94-11.78-9.72-3.47-20.49-7.81-31.52-10.3-15.94-3.6-32.52-3.31-47.74,9.14-2,1.62-3.93,3.27-5.82,5a191.87,191.87,0,0,0-33.52,39q-2.45,3.75-4.69,7.54v.06C16.49,219,15.21,272.82,14.43,283.92Z" transform="translate(0)"/><path id="Path_283" data-name="Path 283" class="cls-35" d="M25.68,304.72C40.12,318.93,62,325.55,82.74,328.45c25-44,125.58-181.74,117-197.34a2.73,2.73,0,0,0-1.94-1.37h0c-.5-.34-1-.65-1.5-1-21-13.55-40.18-20.44-57.46-22.09a78.46,78.46,0,0,0-53.6,14.09c-15.71,10.91-28.42,27.28-38.2,46.5v.07C26,208.54,18.73,262.85,25.68,304.72Z" transform="translate(0)"/><path id="Path_284" data-name="Path 284" class="cls-36" d="M184.33,135.71,159.87,166c-8.14,10.12-16.29,20.24-24.18,30.54-1,1.3-2,2.58-2.92,3.89s-1.91,2.6-2.82,3.95c-1.83,2.67-3.61,5.38-5.42,8.09-3.58,5.41-7.18,10.82-10.87,16.17A336.22,336.22,0,0,1,90,259.76c-2.17,2.44-4.41,4.82-6.73,7.09a68.75,68.75,0,0,1-7.48,6.37,25.42,25.42,0,0,1-8.93,4.42,10.18,10.18,0,0,1-5.17-.12,9.15,9.15,0,0,1-2.35-1.15,18.86,18.86,0,0,1-2-1.55,25.87,25.87,0,0,1-5.73-8.12,49.61,49.61,0,0,1-3.24-9.31A89.05,89.05,0,0,1,46,237.94a158.47,158.47,0,0,1,4.12-38.76A171.47,171.47,0,0,1,63,162.44a177,177,0,0,0-12.19,36.9A158.73,158.73,0,0,0,47.06,238a94.41,94.41,0,0,0,2.54,19.15,49.35,49.35,0,0,0,3.18,9.05,24.52,24.52,0,0,0,5.46,7.68,14,14,0,0,0,1.84,1.41,7.29,7.29,0,0,0,2,1,8.76,8.76,0,0,0,4.49.07,24,24,0,0,0,8.39-4.2,67.17,67.17,0,0,0,7.32-6.26c2.32-2.24,4.48-4.61,6.67-7A338.11,338.11,0,0,0,112.57,228c3.69-5.33,7.3-10.72,10.92-16.12,1.8-2.7,3.6-5.4,5.45-8.08q1.4-2,2.88-4c1-1.29,2-2.59,3-3.87C150.87,175.46,167.56,155.57,184.33,135.71Z" transform="translate(0)"/><path id="Path_285" data-name="Path 285" class="cls-37" d="M202.56,134.49l-17.76.32-.12.12c-2.33,2.72-39.82,46.28-49.66,59.45-10.16,13.6-48.9,77.78-67,67C55.71,254,50.25,227.58,54.27,198a148,148,0,0,1,12.44-42.63,111.59,111.59,0,0,1,30.77-39.76,99.72,99.72,0,0,1,15-10,57.73,57.73,0,0,1,18.87-.29h0c1.58.2,3.15.48,4.71.75l52.43,18.36a80.62,80.62,0,0,1,9.28,5.24h0l.08,0h0a13.73,13.73,0,0,1,2.6,1.87h0a8.57,8.57,0,0,1,2.15,2.94Z" transform="translate(0)"/><path id="Path_286" data-name="Path 286" class="cls-38" d="M154.63,136c-4,17.58-20.88,36-33.57,47.95a146.08,146.08,0,0,1-27.21,20.27c-5.44,3.13-11.21,6-17.46,6.78s-13-.64-17.46-5.09A19.94,19.94,0,0,1,54.29,198a147.86,147.86,0,0,1,12.44-42.63A111.82,111.82,0,0,1,97.5,115.61a100.24,100.24,0,0,1,15-10,57.73,57.73,0,0,1,18.87-.28h0C145.11,110,158.2,120.22,154.63,136Z" transform="translate(0)"/><path id="Path_287" data-name="Path 287" class="cls-39" d="M202.56,134.49l-17.77.31a.53.53,0,0,1-.12.14c-22.87.26-54.13,3.81-70.75-2.15C103.35,129,97.21,120,97.47,115.64a99.63,99.63,0,0,1,15-10,54.57,54.57,0,0,1,14.6-.75,77.55,77.55,0,0,1,9,1.24l52.45,18.36a80.79,80.79,0,0,1,9.27,5.28h0l.09,0h0a14.05,14.05,0,0,1,2.6,1.87h0a8.56,8.56,0,0,1,.68.67A7.82,7.82,0,0,1,202.56,134.49Z" transform="translate(0)"/><path id="Path_288" data-name="Path 288" class="cls-40" d="M201.16,132.38c-22.84.23-56.31-.58-72.6-6.42-10.58-3.79-13.5-8.55-13.22-12.88A102.63,102.63,0,0,1,127,104.9a75.69,75.69,0,0,1,9,1.23l52.45,18.36a81.57,81.57,0,0,1,9.28,5.28h0l.09,0h0a14.05,14.05,0,0,1,2.6,1.87h0a9.49,9.49,0,0,1,.72.7Z" transform="translate(0)"/><path id="Path_289" data-name="Path 289" class="cls-41" d="M125,279.46s-13.46,29.75-14.12,34.35c0,0,14.21,4.24,23.66-1.78,0,0,13.43-45,11.22-45.5S127.68,273.51,125,279.46Z" transform="translate(0)"/><path id="Path_290" data-name="Path 290" class="cls-42" d="M145.72,266.53s-14.3,10.15-16.09,13-8.78,35.74-8.78,35.74-6.3.5-10-1.44c0,0,3.6-15.36,15.58-36.5C127.41,275.62,138.86,266.57,145.72,266.53Z" transform="translate(0)"/><path id="Path_291" data-name="Path 291" class="cls-3" d="M199.35,70.11c-3,4.65-.54,9.47-5.54,12.34s-1.25,7-8.58,8.58a54.92,54.92,0,0,0-8.35,2.88,24.56,24.56,0,0,0-2.78-3.16c-4.44-4.14-13.58-15.46-7-26L199.35,59S202.4,65.46,199.35,70.11Z" transform="translate(0)"/><path id="Path_292" data-name="Path 292" class="cls-43" d="M171.25,81.29c2.4.36,5.8-4.65,8.13-4.55s5.28,1.06,7.07,0,2.54-5.28,4.86-5.59,4.22-1.06,5-2.54-1-4.75,0-5.91,3.9-3.8,3.9-6.12-1.79-2-1.79-4.76,1.5-2.64.84-5.28-2-.42-4.64-3.69-.85-4.12-3.17-6.13-4-.42-5.7-1.26-1-3.74-3.7-5-2.53,1-5,.53-2-2.32-4.44-2-2.74,2.65-5.92,3.74-4.54-.42-6.85,1.27-1.5,3.69-3,5.07-3.26,1.05-3.9,3.16,1.06,4.12,0,6.13-2.85,2-2.85,4.65,1.58,3,1.58,5.8-2.24,5.38-1.58,8,3.06,2,4.22,3.7.53,4.65,3.07,6.12,6.86-.1,8.55.75S167.79,80.78,171.25,81.29Z" transform="translate(0)"/><path id="Path_293" data-name="Path 293" class="cls-44" d="M154.63,42.33c2.62-1.8,4.18-.23,7.76-1.35s3.94-3.6,6.68-3.95,2.25,1.69,5,2.14,2.51-1.91,5.61-.56,2.24,4.39,4.17,5.29,3.82-.75,6.44,1.35.6,3,3.59,6.53,4.53,1.13,5.23,3.94c.64,2.53-.64,2.7-.9,4.82,1-1.2,2-2.64,2-4,0-2.33-1.79-2-1.79-4.76s1.5-2.64.84-5.28-2-.42-4.64-3.7-.85-4.12-3.16-6.12-4-.42-5.71-1.26-.95-3.74-3.7-5-2.53,1-5,.53-2-2.32-4.44-2-2.74,2.65-5.91,3.74-4.54-.43-6.86,1.26-1.5,3.7-3,5.08-3.27,1.05-3.9,3.16a4.35,4.35,0,0,0-.06,2A4.67,4.67,0,0,1,154.63,42.33Z" transform="translate(0)"/><circle id="Ellipse_5" data-name="Ellipse 5" class="cls-45" cx="217.76" cy="102.35" r="2.33"/><path id="Path_294" data-name="Path 294" class="cls-25" d="M159.39,45.73a9.07,9.07,0,0,1,3.74-1,3.06,3.06,0,0,1,3,2.06l.22-.64" transform="translate(0)"/><path id="Path_295" data-name="Path 295" class="cls-25" d="M173.16,42.74a9.87,9.87,0,0,1,3.54-.47,3.32,3.32,0,0,1,2.81,1.92l.32-.51" transform="translate(0)"/></g></g></g><polyline class="cls-46" points="332.98 113.16 330.84 112.25 325.24 137.13 327.38 138.05 332.98 113.16"/><polyline class="cls-47" points="335.28 118.63 333.14 117.72 328.46 138.5 330.6 139.41 335.28 118.63"/><polyline class="cls-48" points="340.28 112.12 338.13 111.21 331.68 139.88 333.83 140.79 340.28 112.12"/><polyline class="cls-49" points="340.55 126.61 338.39 125.69 334.9 141.23 337.05 142.15 340.55 126.61"/><polyline class="cls-50" points="346.14 117.42 344 116.51 338.12 142.61 340.26 143.52 346.14 117.42"/><polyline class="cls-51" points="351.44 109.59 349.28 108.68 341.34 143.97 343.49 144.89 351.44 109.59"/><polyline class="cls-52" points="350.4 129.85 348.26 128.94 344.56 145.35 346.72 146.25 350.4 129.85"/><polyline class="cls-53" points="352.37 136.8 350.23 135.89 347.78 146.71 349.93 147.62 352.37 136.8"/><polyline class="cls-54" points="358.4 125.66 356.25 124.75 351 148.08 353.15 148.99 358.4 125.66"/><polyline class="cls-55" points="361.09 129.58 358.95 128.67 354.27 149.46 356.42 150.37 361.09 129.58"/><polyline class="cls-56" points="366.09 123.08 363.93 122.16 357.48 150.83 359.64 151.74 366.09 123.08"/><polyline class="cls-57" points="366.35 137.56 364.2 136.65 360.71 152.19 362.85 153.11 366.35 137.56"/><polyline class="cls-58" points="371.94 128.37 369.8 127.46 363.93 153.56 366.07 154.47 371.94 128.37"/><polyline class="cls-59" points="377.24 120.54 375.09 119.63 367.15 154.93 369.29 155.84 377.24 120.54"/><polyline class="cls-60" points="376.21 140.81 374.05 139.89 370.36 156.29 372.51 157.21 376.21 140.81"/><polyline class="cls-61" points="378.16 147.75 376.02 146.84 373.58 157.66 375.73 158.57 378.16 147.75"/><polyline class="cls-62" points="384.2 136.62 382.05 135.7 376.8 159.03 378.95 159.94 384.2 136.62"/><polyline class="cls-63" points="384.73 150.54 382.58 149.63 380.15 160.45 382.29 161.36 384.73 150.54"/><polyline class="cls-64" points="390.76 139.4 388.61 138.49 383.36 161.81 385.51 162.72 390.76 139.4"/><polyline class="cls-65" points="393.45 143.33 391.3 142.41 386.63 163.2 388.77 164.11 393.45 143.33"/><polyline class="cls-66" points="398.44 136.81 396.29 135.9 389.84 164.56 391.99 165.48 398.44 136.81"/><polyline class="cls-67" points="398.71 151.3 396.56 150.39 393.06 165.93 395.21 166.84 398.71 151.3"/><polyline class="cls-68" points="404.3 142.12 402.16 141.2 396.28 167.3 398.43 168.21 404.3 142.12"/><polyline class="cls-69" points="409.59 134.28 407.45 133.37 399.5 168.66 401.65 169.58 409.59 134.28"/><polyline class="cls-70" points="408.56 154.55 406.42 153.64 402.73 170.03 404.87 170.94 408.56 154.55"/><polyline class="cls-71" points="410.52 161.49 408.38 160.58 405.94 171.4 408.09 172.31 410.52 161.49"/><polyline class="cls-72" points="416.56 150.36 414.41 149.45 409.16 172.76 411.31 173.67 416.56 150.36"/><path class="cls-73" d="M328.56,92.63a1.32,1.32,0,0,0-1.72.72,2.21,2.21,0,0,0,1,2.63,1.32,1.32,0,0,0,1.72-.73h0a1,1,0,0,0,.09-.34,2,2,0,0,0-1.06-2.28" transform="translate(0)"/><path class="cls-74" d="M324.34,111.37a1.31,1.31,0,0,0-1.71.74h0a1,1,0,0,0-.09.33,2,2,0,0,0,1.06,2.28,1.31,1.31,0,0,0,1.71-.7v0a1,1,0,0,0,.09-.34,2.07,2.07,0,0,0-1.06-2.3" transform="translate(0)"/><path class="cls-75" d="M320.15,130.16a1.34,1.34,0,0,0-1.73.75,1.67,1.67,0,0,0-.08.32,2,2,0,0,0,1.06,2.3,1.33,1.33,0,0,0,1.73-.74h0a1.3,1.3,0,0,0,.08-.34,2.06,2.06,0,0,0-1.06-2.29" transform="translate(0)"/><polyline class="cls-76" points="286.4 98.54 283.2 97.18 282.84 98.75 284.52 99.46 281.94 110.94 283.46 111.59 286.4 98.54"/><path class="cls-77" d="M289.81,112.59a2.63,2.63,0,0,1-1.44-1.32,4.42,4.42,0,0,1-.36-2,15.29,15.29,0,0,1,.4-2.77,13,13,0,0,1,.81-2.59,2.86,2.86,0,0,1,1.13-1.39,1.83,1.83,0,0,1,1.73,0,2.7,2.7,0,0,1,1.45,1.31,4.57,4.57,0,0,1,.37,2,15.87,15.87,0,0,1-.41,2.75,14.05,14.05,0,0,1-.8,2.61,2.92,2.92,0,0,1-1.14,1.41,1.85,1.85,0,0,1-1.74,0m2.63-11.69c-1.46-.62-2.61-.48-3.46.44a9.52,9.52,0,0,0-2,4.5,12.07,12.07,0,0,0-.22,5.28,4.23,4.23,0,0,0,2.68,3.06c1.45.62,2.61.47,3.47-.45a9.59,9.59,0,0,0,2-4.52,11.79,11.79,0,0,0,.2-5.25,4.27,4.27,0,0,0-2.68-3.06" transform="translate(0)"/><path class="cls-78" d="M302,104.9a3.24,3.24,0,0,0-3,0,4.47,4.47,0,0,0-1.92,2.88l1.43.6a3.62,3.62,0,0,1,1.14-2,1.74,1.74,0,0,1,1.87-.12,2.32,2.32,0,0,1,1.4,1.34,3.41,3.41,0,0,1,.09,2,5.38,5.38,0,0,1-2.49,3.19,19.39,19.39,0,0,1-5.25,2.36l-.28,1.23,7.69,3.26.31-1.39-5.67-2.41a12.94,12.94,0,0,0,3-1.13,10.31,10.31,0,0,0,2.68-2,5.44,5.44,0,0,0,1.49-2.66,4.63,4.63,0,0,0-.29-3.17,4.3,4.3,0,0,0-2.26-2" transform="translate(0)"/><path class="cls-79" d="M314.7,110.36l-7.06-3L306,114.74l1.39.59a2,2,0,0,1,1.18-.72,2.55,2.55,0,0,1,1.54.19,2.86,2.86,0,0,1,1.61,1.52,3.67,3.67,0,0,1,.17,2.38,3.16,3.16,0,0,1-1.12,2,2,2,0,0,1-2,.08,3,3,0,0,1-1.49-1.33,4,4,0,0,1-.41-2.13l-1.42-.6a5.22,5.22,0,0,0,.54,3.36,5.12,5.12,0,0,0,2.5,2.23,3.1,3.1,0,0,0,3.13-.08,4.56,4.56,0,0,0,1.7-2.88,6.25,6.25,0,0,0,.1-2.28,4.44,4.44,0,0,0-.81-2,4.16,4.16,0,0,0-1.84-1.42,3.73,3.73,0,0,0-1.71-.32,2.33,2.33,0,0,0-1.36.51l1-4.36,5.73,2.43.34-1.5" transform="translate(0)"/></g></g></svg>