<svg xmlns="http://www.w3.org/2000/svg" xmlns:xlink="http://www.w3.org/1999/xlink" width="215.871" height="237.782" viewBox="0 0 215.871 237.782">
  <defs>
    <linearGradient id="linear-gradient" x1="-13.004" y1="-20.598" x2="-13.004" y2="-19.599" gradientUnits="objectBoundingBox">
      <stop offset="0" stop-color="#fc4c5c"/>
      <stop offset="0.68" stop-color="#fb9f02"/>
      <stop offset="1" stop-color="#fb9f02"/>
    </linearGradient>
    <linearGradient id="linear-gradient-2" x1="-25.862" y1="-17.001" x2="-25.862" y2="-16.001" gradientUnits="objectBoundingBox">
      <stop offset="0" stop-color="#4e54c8"/>
      <stop offset="1" stop-color="#8f94fb"/>
    </linearGradient>
    <linearGradient id="linear-gradient-3" x1="-14.286" y1="-14.154" x2="-13.285" y2="-14.154" gradientUnits="objectBoundingBox">
      <stop offset="0" stop-color="#2a5bc7"/>
      <stop offset="0.13" stop-color="#2452bc"/>
      <stop offset="0.42" stop-color="#1a42a7"/>
      <stop offset="0.71" stop-color="#14389b"/>
      <stop offset="1" stop-color="#123597"/>
    </linearGradient>
    <linearGradient id="linear-gradient-4" x1="-21.36" y1="-44.121" x2="-20.36" y2="-44.121" gradientUnits="objectBoundingBox">
      <stop offset="0" stop-color="#123597"/>
      <stop offset="0.16" stop-color="#1b43a9"/>
      <stop offset="0.55" stop-color="#2f63d1"/>
      <stop offset="0.75" stop-color="#366fe0"/>
      <stop offset="1" stop-color="#366fe0"/>
    </linearGradient>
    <linearGradient id="linear-gradient-5" x1="-4.276" y1="-7.675" x2="-4.276" y2="-6.675" xlink:href="#linear-gradient-2"/>
    <linearGradient id="linear-gradient-6" x1="-3.754" y1="-10.493" x2="-3.754" y2="-9.493" xlink:href="#linear-gradient-2"/>
    <linearGradient id="linear-gradient-7" x1="-3.925" y1="-15.602" x2="-3.925" y2="-14.602" gradientUnits="objectBoundingBox">
      <stop offset="0" stop-color="#366fe0" stop-opacity="0.2"/>
      <stop offset="1" stop-color="#94cbff"/>
    </linearGradient>
    <linearGradient id="linear-gradient-8" x1="-6.391" y1="-6.667" x2="-6.391" y2="-5.667" xlink:href="#linear-gradient-2"/>
    <linearGradient id="linear-gradient-9" x1="-7.924" y1="-7.653" x2="-7.924" y2="-6.653" xlink:href="#linear-gradient-7"/>
    <linearGradient id="linear-gradient-10" x1="-8.613" y1="-25.357" x2="-7.613" y2="-25.357" gradientUnits="objectBoundingBox">
      <stop offset="0" stop-color="#366fe0"/>
      <stop offset="0.7" stop-color="#94cbff"/>
      <stop offset="1" stop-color="#94cbff"/>
    </linearGradient>
    <linearGradient id="linear-gradient-11" x1="-24.283" y1="-18.592" x2="-23.281" y2="-18.592" gradientUnits="objectBoundingBox">
      <stop offset="0" stop-color="#fb9f02"/>
      <stop offset="0.32" stop-color="#fb9f02"/>
      <stop offset="1" stop-color="#fc4c5c"/>
    </linearGradient>
    <linearGradient id="linear-gradient-12" x1="-7.061" y1="-14.089" x2="-7.061" y2="-13.089" xlink:href="#linear-gradient-2"/>
    <linearGradient id="linear-gradient-13" x1="-6.781" y1="-15.479" x2="-6.781" y2="-14.479" xlink:href="#linear-gradient-2"/>
    <linearGradient id="linear-gradient-14" x1="-5.346" y1="-6.493" x2="-4.346" y2="-6.493" xlink:href="#linear-gradient-4"/>
    <linearGradient id="linear-gradient-15" x1="-5.255" y1="-7.373" x2="-5.255" y2="-6.373" xlink:href="#linear-gradient-10"/>
    <linearGradient id="linear-gradient-16" x1="-6.666" y1="-10.143" x2="-6.666" y2="-9.141" gradientUnits="objectBoundingBox">
      <stop offset="0" stop-color="#64edb2"/>
      <stop offset="0" stop-color="#65edb2"/>
      <stop offset="0.05" stop-color="#89f1c4"/>
      <stop offset="0.11" stop-color="#a8f5d4"/>
      <stop offset="0.18" stop-color="#c4f8e2"/>
      <stop offset="0.25" stop-color="#dafbec"/>
      <stop offset="0.33" stop-color="#ebfdf5"/>
      <stop offset="0.44" stop-color="#f6fefb"/>
      <stop offset="0.59" stop-color="#fdfffe"/>
      <stop offset="1" stop-color="#fff"/>
    </linearGradient>
    <linearGradient id="linear-gradient-17" x1="-11.987" y1="-28.724" x2="-10.987" y2="-28.724" xlink:href="#linear-gradient-10"/>
    <linearGradient id="linear-gradient-18" x1="-14.797" y1="-32.054" x2="-13.797" y2="-32.054" xlink:href="#linear-gradient-10"/>
    <linearGradient id="linear-gradient-19" x1="-26.968" y1="-38.536" x2="-25.968" y2="-38.536" xlink:href="#linear-gradient-4"/>
    <linearGradient id="linear-gradient-20" x1="-27.012" y1="-39.297" x2="-26.013" y2="-39.297" xlink:href="#linear-gradient-10"/>
    <linearGradient id="linear-gradient-21" x1="-34.229" y1="-76.202" x2="-33.229" y2="-76.202" xlink:href="#linear-gradient-2"/>
    <linearGradient id="linear-gradient-22" x1="-52.999" y1="-39.89" x2="-51.998" y2="-39.89" xlink:href="#linear-gradient-2"/>
    <linearGradient id="linear-gradient-23" x1="-9.705" y1="-20.504" x2="-9.705" y2="-19.504" xlink:href="#linear-gradient"/>
    <linearGradient id="linear-gradient-24" x1="-13.313" y1="-20.702" x2="-13.313" y2="-19.703" xlink:href="#linear-gradient-4"/>
    <linearGradient id="linear-gradient-25" x1="-19.542" y1="-18.557" x2="-19.542" y2="-17.557" xlink:href="#linear-gradient"/>
    <linearGradient id="linear-gradient-26" x1="-11.849" y1="-30.811" x2="-11.849" y2="-29.811" xlink:href="#linear-gradient"/>
    <linearGradient id="linear-gradient-27" x1="-22.483" y1="-18.098" x2="-22.483" y2="-17.098" xlink:href="#linear-gradient-4"/>
    <radialGradient id="radial-gradient" cx="0.498" cy="0.501" r="0.526" gradientTransform="matrix(0.907, 0, 0, -1, -1.011, -28.98)" gradientUnits="objectBoundingBox">
      <stop offset="0" stop-color="#a4eed2"/>
      <stop offset="0.04" stop-color="#9debd2" stop-opacity="0.961"/>
      <stop offset="0.4" stop-color="#5dd3d3" stop-opacity="0.549"/>
      <stop offset="0.69" stop-color="#2ec1d3" stop-opacity="0.259"/>
      <stop offset="0.9" stop-color="#11b5d4" stop-opacity="0.071"/>
      <stop offset="1" stop-color="#06b1d4" stop-opacity="0"/>
    </radialGradient>
  </defs>
  <g id="man1" transform="translate(-572.379 -460.676)">
    <path id="Path_467" data-name="Path 467" d="M1121.537,1303.155c-7.337,10.9-17.748,20.051-22.639,16.753s-5.183-17.082,2.154-27.979,17.95-14.734,22.864-11.443S1128.875,1292.265,1121.537,1303.155Z" transform="translate(-415.999 -622.514)" fill="url(#linear-gradient)"/>
    <path id="Path_468" data-name="Path 468" d="M954.971,1106.9s-4.974,19.371,3.141,29.557,16.805-13.208,8.152-30.036C966.265,1106.432,960.341,1102.34,954.971,1106.9Z" transform="translate(-380.227 -578.499)" fill="url(#linear-gradient-2)"/>
    <path id="Path_469" data-name="Path 469" d="M1022.482,1062.62s.606,4.674,4.293,5.4c0,0-9.842,2.939-10.418,5.482,0,0-.7-3.65-9.349-1.174-3.68,1.047-9.154-12.453-4.592-21.278Z" transform="translate(-392.131 -564.963)" fill="#fff1ec"/>
    <path id="Path_470" data-name="Path 470" d="M995.762,1040.865s-1.129,7.015,7.053,7.92c0,0,3.321.284,2.618,3.1s1.743,5.37,1.743,5.37.277-2.5,1.713-2.431,2.842,4.33-.15,6.125c0,0,5.983,5.856,12.954-1.623a19.474,19.474,0,0,1,2.2-5.856c1.451-2.116,4.487-8.167-1.5-11.219,0,0,1.5-5.624-3.358-8.526s-16.663-4-16.82,0S998.447,1032.346,995.762,1040.865Z" transform="translate(-390.877 -559.938)" fill="url(#linear-gradient-3)"/>
    <path id="Path_471" data-name="Path 471" d="M1002.034,1059.942a.583.583,0,0,1-.157-.247.419.419,0,0,1,.052-.3.853.853,0,0,1,1.062-.247,3.264,3.264,0,0,1,.92.748c.187.187.688.591.651.9s-.449.187-.748.135A3.274,3.274,0,0,1,1002.034,1059.942Z" transform="translate(-392.43 -566.982)" fill="#666"/>
    <ellipse id="Ellipse_97" data-name="Ellipse 97" cx="0.314" cy="0.845" rx="0.314" ry="0.845" transform="translate(609.632 505.566) rotate(-24.43)" fill="#666"/>
    <circle id="Ellipse_98" data-name="Ellipse 98" cx="28.069" cy="28.069" r="28.069" transform="translate(592.575 461.481)" fill="none" stroke="#d2ffff" stroke-miterlimit="10" stroke-width="1.61"/>
    <path id="Path_472" data-name="Path 472" d="M1015.5,1079.657l.546,2.992,19.685-9.147s-2.139-2.131-3.62-2.244S1022.829,1072.949,1015.5,1079.657Z" transform="translate(-395.866 -570.056)" fill="url(#linear-gradient-4)"/>
    <path id="Path_473" data-name="Path 473" d="M1004,1090.406s12.58,2.244,15.9,12.8-2.558,15.2,2.244,17.666,22.362,16.716,23.933,23.11c0,0,37.059-19.176,48.412-20.47,0,0-1.331-11.6-5.19-14.689-16.858-13.462-33.708-38.405-39.991-38.951C1041.246,1069.21,1012.227,1076.51,1004,1090.406Z" transform="translate(-392.967 -569.698)" fill="url(#linear-gradient-5)"/>
    <path id="Path_474" data-name="Path 474" d="M1186.149,1194.272l.651,8.9.516,6.267s-50.439,6.529-60.842,4.413-31.479-22.721-31.479-22.721l-3.672-13.036-5.6-19.872,12.2-8.653c23.8,3.852,34.179,37.081,40.656,40.005S1186.149,1194.272,1186.149,1194.272Z" transform="translate(-413.568 -589.799)" fill="url(#linear-gradient-6)"/>
    <path id="Path_475" data-name="Path 475" d="M1188.5,1207.259l2.318,10.74s-52.1,4.719-62.5,2.6-31.479-22.721-31.479-22.721l-3.672-13.036,6.417-8.5s12.662,26.446,18.294,29.168c0,0,5.789-5.325,6.462-3.695s-2.633,6.35-2.633,6.35-.411,1.032,1.234.262,2.565-2.139,2.648-.4-.912,3.47-.217,3.986S1175.879,1207.775,1188.5,1207.259Z" transform="translate(-415.444 -596.547)" fill="url(#linear-gradient-7)"/>
    <path id="Path_476" data-name="Path 476" d="M1059.3,1168.872s-17.4,34.606-15.183,44.987,45.488,45.51,45.488,45.51l17.03-15.25L1076.469,1212c5.669-7.756,31.951-24.831,25.967-48.188l-7.15-13.126Z" transform="translate(-403.03 -590.081)" fill="url(#linear-gradient-8)"/>
    <path id="Path_477" data-name="Path 477" d="M1059.9,1220.508l-3.822,1.271c-3.829,1.271,3.321-4.076,3.321-4.076a22.534,22.534,0,0,1-8.055.823c-3.568-.516,7.023-4.487,7.023-4.487-.681-6.619,8.908-36.393,12.34-46.789l-11.406,5.759s-17.4,34.606-15.183,44.987,45.488,45.548,45.488,45.548l5.617-5.026Z" transform="translate(-403.03 -594.256)" fill="url(#linear-gradient-9)"/>
    <path id="Path_478" data-name="Path 478" d="M1027.18,1119.91s23.3,14.913,30.081,33.514" transform="translate(-398.811 -582.322)" fill="none" stroke="#64edff" stroke-miterlimit="10" stroke-width="1"/>
    <path id="Path_479" data-name="Path 479" d="M1060.14,1162.1s4.091-13.821,48.427-20.47a11.77,11.77,0,0,1,1.743,3.186s-44.254,16.222-48.173,21.046C1062.137,1165.84,1060.14,1166.064,1060.14,1162.1Z" transform="translate(-407.12 -587.797)" fill="url(#linear-gradient-10)"/>
    <path id="Path_480" data-name="Path 480" d="M1007.46,1087.665s4.128-3.156,9.356.531c0,0,17.508-11.293,24.935-12.513,0,0-3.4-2.909-6.267-2.8" transform="translate(-393.839 -590.465)" fill="none" stroke="#64edff" stroke-miterlimit="10" stroke-width="1"/>
    <path id="Path_481" data-name="Path 481" d="M968.736,1103.947s-3.052-9.828-2.573-10.388,1.5-2.685,2.311-3.238a5.445,5.445,0,0,0,1.376-5.572c-.838-2.655.845-4.315-2.244-5.452,0,0,.045-2.573-1.361-2.633s-3.9-.3-4.787-.464a2.468,2.468,0,0,0-2.191,1.152c-.569.7-2.79-.329-3.9,1.608s-.419,2.146-1.376,2.864-.337,2.064-.927,2.55-1.04,1.189-.523,2.992,1.593,5.108,1.952,5.392a3.889,3.889,0,0,1,.972,2.8c-.1,1.2-2.5,8.526-2.5,8.526S964.563,1100.372,968.736,1103.947Z" transform="translate(-379.938 -571.302)" fill="url(#linear-gradient-11)"/>
    <path id="Path_482" data-name="Path 482" d="M961.011,1076.23c1.735.359,1.75,6.911,1.75,6.911-4.009.883-7.576,8.063-7.576,8.063a16.364,16.364,0,0,1-1.915-6.821" transform="translate(-380.178 -571.31)" fill="none" stroke="#fff" stroke-miterlimit="10" stroke-width="1"/>
    <path id="Path_483" data-name="Path 483" d="M969.374,1080.587s1.137-1.713.7-2.887c0,0-.082,1.8-1.04,2.416A.673.673,0,0,1,969.374,1080.587Z" transform="translate(-384.151 -561.681)" fill="#fc4c5c"/>
    <path id="Path_484" data-name="Path 484" d="M967.94,1081s1.556.658,1.885,1.825a3.56,3.56,0,0,1,1.107-.98l-.995.561a3.447,3.447,0,0,0-2-1.406Z" transform="translate(-383.877 -562.513)" fill="#fc4c5c"/>
    <path id="Path_485" data-name="Path 485" d="M1010.656,1123.46s-26.057,10.934-40.993,13c-5.31.748-9.214.748-10.022-.681a43.368,43.368,0,0,1-2.6-5c-1.2-2.992-1.256-5.422,1.234-7.479,3.74-3.156,25.332-23.933,36.745-26.812S1019.055,1108.748,1010.656,1123.46Z" transform="translate(-380.926 -576.328)" fill="url(#linear-gradient-12)"/>
    <path id="Path_486" data-name="Path 486" d="M1107.444,1076.385a8.943,8.943,0,0,0,0,1.787c.628,5.834-2.244,7.359-5.7,8.526a30.434,30.434,0,0,0-5,1.877c-9.184,3.657-24.284,9.349-33.768,9.85-13.649,1.862-21.383-21.368-7.4-33.566.965.845,44.4.748,51.022,8.975A3.4,3.4,0,0,1,1107.444,1076.385Z" transform="translate(-404.104 -568.444)" fill="url(#linear-gradient-13)"/>
    <path id="Path_487" data-name="Path 487" d="M971.629,1119.679l-6.425,5.983s1.137-3.209,2.042-4.061l-3.246.434,7.561-2.865Z" transform="translate(-382.883 -572.135)" fill="#b3b3b3"/>
    <path id="Path_488" data-name="Path 488" d="M1101.649,1117.956a6.519,6.519,0,0,1,.067,2.894,19.143,19.143,0,0,1-2.505,5.355c-4.069,6.14-11.361,10.149-18.526,12.714a83.864,83.864,0,0,1-12.468,3.373,9.573,9.573,0,0,1-9.812-4.114c-8.354-12.714-25.01-39.639-34.449-48.038-4.63-4.136-3.164-8.728,0-12.385h0l.224-.247c.179-.209.366-.411.561-.613h0l.464-.464a49.41,49.41,0,0,1,8.347-6.148,102.542,102.542,0,0,1,10.471-6.043c5.407-2.483,11.331-3.627,17.7-.344.83.434,1.638.875,2.438,1.324a70.1,70.1,0,0,1,14.868,11.346c.748.748,1.5,1.548,2.244,2.326h0C1096.025,1094.988,1100.534,1114.059,1101.649,1117.956Z" transform="translate(-397.255 -567.691)" fill="url(#linear-gradient-14)"/>
    <path id="Path_489" data-name="Path 489" d="M1069.8,1154.979s2.326,20.522-15.13,17.262c-12.393-2.326-11.637-23.08-11.637-23.08" transform="translate(-402.806 -589.696)" fill="none" stroke="#fff" stroke-linecap="round" stroke-linejoin="round" stroke-width="3.81"/>
    <path id="Path_490" data-name="Path 490" d="M1100.262,1126.526c-4.069,6.14-11.361,10.149-18.526,12.714-12.206-13.761-58.337-55.225-56.5-61.426a.987.987,0,0,1,.583-.636h0l.464-.464c6.462-6.4,12.767-10.3,18.787-12.191a28.54,28.54,0,0,1,20.134.98c6.4,2.708,12.176,7.569,17.1,13.672h0C1092.888,1092.317,1099.582,1111.1,1100.262,1126.526Z" transform="translate(-398.306 -568.012)" fill="url(#linear-gradient-15)"/>
    <path id="Path_491" data-name="Path 491" d="M1033,1083.44c7.479,5.774,14.958,11.563,22.22,17.621.905.748,1.818,1.5,2.685,2.348l2.55,2.461c1.69,1.653,3.4,3.3,5.116,4.914a119.583,119.583,0,0,0,10.725,9.184,32.685,32.685,0,0,0,5.983,3.672,8.55,8.55,0,0,0,3.268.86,3.164,3.164,0,0,0,1.5-.344,4.242,4.242,0,0,0,1.167-1.115,8.976,8.976,0,0,0,1.346-3.111,16.739,16.739,0,0,0,.449-3.448,34.15,34.15,0,0,0-.524-6.985,57.436,57.436,0,0,0-4.188-13.462,63.437,63.437,0,0,0-7.075-12.228,60.888,60.888,0,0,1,11.824,25.578,32.913,32.913,0,0,1,.613,7.12,18.561,18.561,0,0,1-.456,3.568,9.512,9.512,0,0,1-1.443,3.358,4.534,4.534,0,0,1-1.376,1.316,3.813,3.813,0,0,1-1.877.441,9.294,9.294,0,0,1-3.552-.9,34.233,34.233,0,0,1-6.1-3.74,121.968,121.968,0,0,1-10.747-9.267q-2.565-2.446-5.093-4.944c-1.69-1.66-3.358-3.306-5.161-4.839-3.575-3.074-7.232-6.073-10.882-9.065Z" transform="translate(-400.278 -573.128)" fill="#64edff"/>
    <path id="Path_492" data-name="Path 492" d="M1081.684,1113.987c-5.632,5.235-24.262-14.711-28.907-18.787-4.487-3.949-21.113-16.626-22.145-17.419h-.052l-6.35,1.227a3.173,3.173,0,0,1,.531-1.152h0a5.454,5.454,0,0,1,.748-.86h0a28.76,28.76,0,0,1,2.9-2.573l17.284-10.471a23.1,23.1,0,0,1,7.434-1.907,6.4,6.4,0,0,0,.927-.045,35.991,35.991,0,0,1,6.08,2.446,40.656,40.656,0,0,1,13.956,11.832,54.332,54.332,0,0,1,8.975,18.406C1085.386,1103.255,1084.975,1110.928,1081.684,1113.987Z" transform="translate(-398.067 -567.723)" fill="url(#linear-gradient-16)"/>
    <path id="Path_493" data-name="Path 493" d="M1024.23,1078.932l6.35-1.234h.052c8.16-1.63,19.55-2.722,25.017-6.088,3.478-2.154,4.981-5.826,4.562-7.344a34.766,34.766,0,0,0-6.081-2.446,19.778,19.778,0,0,0-5.235.838,27.546,27.546,0,0,0-3.111,1.115l-17.284,10.471a30.643,30.643,0,0,0-2.9,2.58h0a5.472,5.472,0,0,0-.748.86h0l-.194.292A2.991,2.991,0,0,0,1024.23,1078.932Z" transform="translate(-398.067 -567.678)" fill="url(#linear-gradient-17)"/>
    <path id="Path_494" data-name="Path 494" d="M1024.69,1078.352c8.152-1.638,20-4.487,25.354-7.756,3.485-2.146,4.158-4.054,3.74-5.579a36.464,36.464,0,0,0-4.787-2.027,27.525,27.525,0,0,0-3.111,1.114l-17.284,10.471a30.64,30.64,0,0,0-2.9,2.58h0a5.46,5.46,0,0,0-.748.86h0A1.883,1.883,0,0,0,1024.69,1078.352Z" transform="translate(-398.183 -567.973)" fill="url(#linear-gradient-18)"/>
    <path id="Path_495" data-name="Path 495" d="M1072.925,1144.826s7.045,9.573,7.614,11.166c0,0-4.727,2.573-8.556,1.144,0,0-8.167-14.958-7.419-15.347S1071.527,1142.911,1072.925,1144.826Z" transform="translate(-408.222 -607.822)" fill="url(#linear-gradient-19)"/>
    <path id="Path_496" data-name="Path 496" d="M1064.58,1141.789s5.856,2.536,6.731,3.4,5.826,12.064,5.826,12.064a8.227,8.227,0,0,0,3.44-1.264s-7.7-11.428-8.294-11.817S1067.033,1141.3,1064.58,1141.789Z" transform="translate(-408.239 -587.822)" fill="url(#linear-gradient-20)"/>
    <path id="Path_497" data-name="Path 497" d="M969.842,1146.446a6.852,6.852,0,0,1,.112,1.1c-5.31.748-9.214.748-10.022-.681a43.369,43.369,0,0,1-2.6-5,7.614,7.614,0,0,1,3.508-1.63,7.733,7.733,0,0,1,8.975,6.208Z" transform="translate(-381.202 -607.415)" fill="url(#linear-gradient-21)"/>
    <path id="Path_498" data-name="Path 498" d="M972.729,1146.4a.457.457,0,0,0,0-.142,10.807,10.807,0,0,0-12.58-8.676,10.55,10.55,0,0,0-3.739,1.429" transform="translate(-380.97 -586.731)" fill="none" stroke="#64edff" stroke-miterlimit="10" stroke-width="1"/>
    <path id="Path_499" data-name="Path 499" d="M1006.209,1097.87s-27.934,18.2-30.739,22.048-8.7-.853-2.363-6.133" transform="translate(-384.466 -576.766)" fill="none" stroke="#64edff" stroke-miterlimit="10" stroke-width="1"/>
    <path id="Path_500" data-name="Path 500" d="M1124.7,1079.42a8.943,8.943,0,0,0,0,1.787c.628,5.834-2.244,7.359-5.7,8.526a7.434,7.434,0,0,1,4.293-12.834h.568A3.387,3.387,0,0,1,1124.7,1079.42Z" transform="translate(-421.361 -571.479)" fill="url(#linear-gradient-22)"/>
    <path id="Path_501" data-name="Path 501" d="M1116.219,1089.973a8.75,8.75,0,0,1,5.28-14.913h.067" transform="translate(-420.605 -561.016)" fill="none" stroke="#64edff" stroke-miterlimit="10" stroke-width="1"/>
    <path id="Path_502" data-name="Path 502" d="M1079.55,1268.466s5.452-17.381,19.027-17.1l23.32,22.512s-9.723,19.057-16.6,16.559S1079.55,1268.466,1079.55,1268.466Z" transform="translate(-412.013 -615.461)" fill="url(#linear-gradient-23)"/>
    <path id="Path_503" data-name="Path 503" d="M1123.507,1303.248c-7.337,10.9-18.944,20.343-23.4,17.344s-.082-17.314,7.262-28.211,14.853-14.263,19.311-11.264S1130.791,1292.351,1123.507,1303.248Z" transform="translate(-416.742 -622.698)" fill="url(#linear-gradient-24)"/>
    <path id="Path_504" data-name="Path 504" d="M1231.6,1221.146c2.431,11.219,1.892,23.267-3.141,24.359s-13.859-7.053-16.289-18.249,1.578-20.193,6.611-21.285S1229.174,1209.95,1231.6,1221.146Z" transform="translate(-445.262 -603.981)" fill="url(#linear-gradient-25)"/>
    <path id="Path_505" data-name="Path 505" d="M1183.4,1228.122s-7.644-13.926.748-22.3l28.226-1.077s6.1,17.636.4,20.44S1183.4,1228.122,1183.4,1228.122Z" transform="translate(-437.389 -603.709)" fill="url(#linear-gradient-26)"/>
    <path id="Path_506" data-name="Path 506" d="M1233.349,1220.023c2.431,11.219,1.361,24.2-3.231,25.2s-10.927-10.411-13.35-21.6,0-17.95,4.57-18.952S1230.911,1208.835,1233.349,1220.023Z" transform="translate(-446.363 -603.658)" fill="url(#linear-gradient-27)"/>
    <path id="Path_507" data-name="Path 507" d="M1029.966,1043.582c.1-2.094-2.7-3.56-2.992-5.624a2.012,2.012,0,0,0-.344-1.01,1.974,1.974,0,0,0-.83-.538" transform="translate(-398.463 -551.272)" fill="none" stroke="#6df0f7" stroke-linecap="round" stroke-miterlimit="10" stroke-width="1"/>
    <path id="Path_508" data-name="Path 508" d="M1018.665,1041.832l-2.363-2.244a5.98,5.98,0,0,0-1.892-1.361,6.2,6.2,0,0,0-2.057-.284c-1.062-.045-2.117-.135-3.164-.262a1.63,1.63,0,0,1-1.129-.471" transform="translate(-393.991 -551.474)" fill="none" stroke="#6df0f7" stroke-linecap="round" stroke-miterlimit="10" stroke-width="1"/>
    <path id="Path_509" data-name="Path 509" d="M1007.266,1042.339c-3.74-1.242-5.4-.7-8.5-3.119" transform="translate(-391.649 -551.98)" fill="none" stroke="#6df0f7" stroke-linecap="round" stroke-miterlimit="10" stroke-width="1"/>
    <path id="Path_510" data-name="Path 510" d="M1006.473,1048.261a20.565,20.565,0,0,1-6.933-.351" transform="translate(-391.843 -554.171)" fill="none" stroke="#6df0f7" stroke-linecap="round" stroke-miterlimit="10" stroke-width="1"/>
    <path id="Path_587" data-name="Path 587" d="M1090.16,1094.553a4.222,4.222,0,0,1-1.361,1.264c-1.735,1.017-3.949.591-5.789-.2-4.42-1.885-7.793-5.512-11.368-8.713a74.025,74.025,0,0,0-8.975-6.858c-1.586-1.017-3.216-1.982-4.876-2.879-1.443-.748-3.672-1.369-4.854-2.483-3.224-3.044,3.238-9.371,7.359-12.767a6.4,6.4,0,0,0,.927-.045,35.993,35.993,0,0,1,6.08,2.446,40.655,40.655,0,0,1,13.956,11.832A54.306,54.306,0,0,1,1090.16,1094.553Z" transform="translate(-405.084 -567.69)" opacity="0.6" fill="url(#radial-gradient)"/>
  </g>
</svg>
