<svg xmlns="http://www.w3.org/2000/svg" xmlns:xlink="http://www.w3.org/1999/xlink" width="567.529" height="444.058" viewBox="0 0 567.529 444.058"><defs><linearGradient id="a" x1="0.5" y1="1" x2="0.5" gradientUnits="objectBoundingBox"><stop offset="0" stop-color="#779dea"/><stop offset="0.1" stop-color="#91b0ee"/><stop offset="0.23" stop-color="#adc3f2"/><stop offset="0.38" stop-color="#c2d3f6"/><stop offset="0.54" stop-color="#d1def8"/><stop offset="0.72" stop-color="#dae4fa"/><stop offset="1" stop-color="#dde6fa"/></linearGradient><linearGradient id="b" x1="-0.039" y1="0.459" x2="1.218" y2="0.569" gradientUnits="objectBoundingBox"><stop offset="0" stop-color="#4e54c8"/><stop offset="1" stop-color="#8f94fb"/></linearGradient><linearGradient id="c" x1="0.5" y1="1" x2="0.5" y2="0" xlink:href="#b"/><linearGradient id="d" y1="0.5" x2="1" y2="0.5" gradientUnits="objectBoundingBox"><stop offset="0" stop-color="#2a5bc7"/><stop offset="0.17" stop-color="#224eb6"/><stop offset="0.42" stop-color="#1940a5"/><stop offset="0.69" stop-color="#14389a"/><stop offset="1" stop-color="#123597"/></linearGradient><linearGradient id="e" x1="0.026" y1="0.62" x2="1.002" y2="0.476" xlink:href="#b"/><linearGradient id="f" x1="-0.005" y1="0.524" x2="0.99" y2="0.38" xlink:href="#b"/><linearGradient id="g" x1="0.033" y1="0.702" x2="0.989" y2="0.356" xlink:href="#d"/><linearGradient id="h" x1="0" y1="0.501" x2="0.999" y2="0.501" xlink:href="#b"/><linearGradient id="i" x1="0.714" y1="1.077" x2="0.338" y2="-0.101" xlink:href="#b"/><linearGradient id="j" y1="0.5" x2="1" y2="0.5" gradientUnits="objectBoundingBox"><stop offset="0" stop-color="#dde6fa"/><stop offset="0.28" stop-color="#dae4fa"/><stop offset="0.46" stop-color="#d1def8"/><stop offset="0.62" stop-color="#c2d3f6"/><stop offset="0.77" stop-color="#adc3f2"/><stop offset="0.9" stop-color="#91b0ee"/><stop offset="1" stop-color="#779dea"/></linearGradient><linearGradient id="k" x1="0.087" y1="0.322" x2="0.977" y2="0.767" gradientUnits="objectBoundingBox"><stop offset="0" stop-color="#7bdaff"/><stop offset="1" stop-color="#59bdef"/></linearGradient><linearGradient id="l" x1="1.113" y1="1.525" x2="0.489" y2="0.456" xlink:href="#a"/><linearGradient id="m" x1="-0.59" y1="0.872" x2="0.507" y2="0.401" xlink:href="#a"/><linearGradient id="n" x1="0.705" y1="-0.058" x2="0.311" y2="1.237" gradientUnits="objectBoundingBox"><stop offset="0" stop-color="#dde6fa"/><stop offset="0.17" stop-color="#d3dff8"/><stop offset="0.46" stop-color="#b8ccf4"/><stop offset="0.83" stop-color="#8daded"/><stop offset="1" stop-color="#779dea"/></linearGradient><linearGradient id="o" x1="0.231" y1="-0.039" x2="0.994" y2="1.445" gradientUnits="objectBoundingBox"><stop offset="0" stop-color="#fff"/><stop offset="0.64" stop-color="#dde6fa"/><stop offset="0.7" stop-color="#d3dff8"/><stop offset="0.8" stop-color="#b8ccf4"/><stop offset="0.94" stop-color="#8daded"/><stop offset="1" stop-color="#779dea"/></linearGradient><linearGradient id="p" y1="0.5" x2="1" y2="0.5" gradientUnits="objectBoundingBox"><stop offset="0" stop-color="#779dea"/><stop offset="0.06" stop-color="#8daded"/><stop offset="0.2" stop-color="#b8ccf4"/><stop offset="0.3" stop-color="#d3dff8"/><stop offset="0.36" stop-color="#dde6fa"/><stop offset="1" stop-color="#fff"/></linearGradient><linearGradient id="q" x1="0.931" y1="0.293" x2="0.041" y2="0.738" xlink:href="#k"/><linearGradient id="r" x1="-0.079" y1="1.489" x2="0.544" y2="0.42" xlink:href="#a"/><linearGradient id="s" x1="1.522" y1="0.905" x2="0.426" y2="0.434" xlink:href="#a"/><linearGradient id="t" x1="0.37" y1="0.009" x2="0.577" y2="0.973" xlink:href="#n"/><linearGradient id="u" x1="0.484" y1="0.98" x2="0.482" y2="-0.019" xlink:href="#o"/><linearGradient id="v" x1="0.412" y1="1.006" x2="0.544" y2="0.007" gradientUnits="objectBoundingBox"><stop offset="0" stop-color="#fb9f02"/><stop offset="0.32" stop-color="#fb9f02"/><stop offset="1" stop-color="#fc4c5c"/></linearGradient><linearGradient id="w" x1="-0.023" y1="0.486" x2="1.013" y2="0.669" gradientUnits="objectBoundingBox"><stop offset="0" stop-color="#dde6fa"/><stop offset="0.17" stop-color="#d8e2f9"/><stop offset="0.39" stop-color="#c8d7f7"/><stop offset="0.62" stop-color="#afc5f3"/><stop offset="0.88" stop-color="#8babed"/><stop offset="1" stop-color="#779dea"/></linearGradient></defs><g transform="translate(-0.076 -0.804)"><path d="M470.71,278.236c-25.9,44.662-66.677,83.957-112.476,92.662-54.837,10.4-92.321-27.7-144-54.7a239.49,239.49,0,0,0-33.992-14.787c-23.021-7.8-49.21-12.01-80.441-9.079-31.069,2.94-54.618,11.775-74.091-4.621C19.7,282.67,14.7,275.743,10.777,267.558-7.332,229.96-3.166,165.776,27.432,134.326c32.482-33.359,79.856-14.617,104.242-55.438,11.2-18.783,28.828-8.12,38.166-27.52C194.2.672,225.814-15.179,286.726,15.922c43.176,22.071,34.349,22.542,98.858,77.956,46.725,40.164,73.758,28.283,84.2,52.361C482.964,176.731,496.444,233.883,470.71,278.236Z" transform="translate(62.153 18.16)" fill="url(#a)"/><g transform="translate(180.274 408.458)" opacity="0.5" style="mix-blend-mode:multiply;isolation:isolate"><rect width="242.907" height="35.73" transform="translate(0.731 0.674)" fill="#fff"/><ellipse cx="108.749" cy="14.601" rx="108.749" ry="14.601" transform="matrix(1, -0.006, 0.006, 1, 13.043, 5.312)" fill="#fff"/><ellipse cx="108.319" cy="14.544" rx="108.319" ry="14.544" transform="matrix(1, -0.006, 0.006, 1, 13.109, 5.369)" fill="#fff"/><ellipse cx="107.896" cy="14.487" rx="107.896" ry="14.487" transform="matrix(1, -0.006, 0.006, 1, 13.158, 5.425)" fill="#fff"/><ellipse cx="107.466" cy="14.43" rx="107.466" ry="14.43" transform="matrix(1, -0.006, 0.006, 1, 13.215, 5.482)" fill="#fff"/><ellipse cx="107.049" cy="14.374" rx="107.049" ry="14.374" transform="matrix(1, -0.01, 0.01, 1, 15.088, 4.69)" fill="#fff"/><ellipse cx="106.613" cy="14.316" rx="106.613" ry="14.316" transform="matrix(1, -0.006, 0.006, 1, 13.321, 5.595)" fill="#feffff"/><ellipse cx="106.191" cy="14.259" rx="106.191" ry="14.259" transform="matrix(1, -0.006, 0.006, 1, 13.37, 5.651)" fill="#feffff"/><ellipse cx="105.761" cy="14.203" rx="105.761" ry="14.203" transform="matrix(1, -0.006, 0.006, 1, 13.427, 5.708)" fill="#fefeff"/><ellipse cx="105.33" cy="14.138" rx="105.33" ry="14.138" transform="matrix(1, -0.006, 0.006, 1, 13.492, 5.773)" fill="#fefeff"/><ellipse cx="104.908" cy="14.081" rx="104.908" ry="14.081" transform="matrix(1, -0.006, 0.006, 1, 13.542, 5.829)" fill="#fefeff"/><ellipse cx="104.478" cy="14.024" rx="104.478" ry="14.024" transform="matrix(1, -0.006, 0.006, 1, 13.599, 5.886)" fill="#fdfeff"/><ellipse cx="104.055" cy="13.967" rx="104.055" ry="13.967" transform="matrix(1, -0.006, 0.006, 1, 13.648, 5.942)" fill="#fdfefe"/><ellipse cx="103.625" cy="13.91" rx="103.625" ry="13.91" transform="matrix(1, -0.006, 0.006, 1, 13.705, 5.999)" fill="#fdfefe"/><ellipse cx="103.203" cy="13.853" rx="103.203" ry="13.853" transform="matrix(1, -0.006, 0.006, 1, 13.754, 6.055)" fill="#fdfefe"/><ellipse cx="102.772" cy="13.797" rx="102.772" ry="13.797" transform="matrix(1, -0.006, 0.006, 1, 13.811, 6.112)" fill="#fcfdfe"/><ellipse cx="102.35" cy="13.74" rx="102.35" ry="13.74" transform="matrix(1, -0.006, 0.006, 1, 13.868, 6.168)" fill="#fcfdfe"/><ellipse cx="101.92" cy="13.683" rx="101.92" ry="13.683" transform="matrix(1, -0.006, 0.006, 1, 13.926, 6.225)" fill="#fcfdfe"/><ellipse cx="101.497" cy="13.626" rx="101.497" ry="13.626" transform="matrix(1, -0.006, 0.006, 1, 13.975, 6.273)" fill="#fbfdfe"/><path d="M202.134,13c.041,7.5-45.174,13.8-100.994,14.146S.041,21.638,0,14.151,45.174.347,100.994.014,202.093,5.511,202.134,13Z" transform="translate(14.13 5.752)" fill="#fbfdfe"/><ellipse cx="100.645" cy="13.512" rx="100.645" ry="13.512" transform="matrix(1, -0.006, 0.006, 1, 14.081, 6.395)" fill="#fbfcfe"/><ellipse cx="100.214" cy="13.456" rx="100.214" ry="13.456" transform="matrix(1, -0.006, 0.006, 1, 14.138, 6.451)" fill="#fafcfe"/><ellipse cx="99.792" cy="13.399" rx="99.792" ry="13.399" transform="matrix(1, -0.006, 0.006, 1, 14.195, 6.5)" fill="#fafcfd"/><ellipse cx="99.362" cy="13.342" rx="99.362" ry="13.342" transform="matrix(1, -0.006, 0.006, 1, 14.252, 6.564)" fill="#fafcfd"/><ellipse cx="98.939" cy="13.285" rx="98.939" ry="13.285" transform="matrix(1, -0.006, 0.006, 1, 14.301, 6.621)" fill="#f9fcfd"/><ellipse cx="98.509" cy="13.228" rx="98.509" ry="13.228" transform="matrix(1, -0.006, 0.006, 1, 14.359, 6.677)" fill="#f9fbfd"/><ellipse cx="98.087" cy="13.171" rx="98.087" ry="13.171" transform="matrix(1, -0.006, 0.006, 1, 14.408, 6.726)" fill="#f8fbfd"/><ellipse cx="97.656" cy="13.115" rx="97.656" ry="13.115" transform="matrix(1, -0.006, 0.006, 1, 14.465, 6.79)" fill="#f8fbfd"/><ellipse cx="97.234" cy="13.05" rx="97.234" ry="13.05" transform="matrix(1, -0.006, 0.006, 1, 14.514, 6.855)" fill="#f8fafd"/><path d="M193.6,12.46C193.6,19.639,150.334,25.7,96.877,26S.041,20.727,0,13.548,43.266.312,96.723.012,193.567,5.282,193.6,12.46Z" transform="translate(14.674 6.339)" fill="#f7fafc"/><ellipse cx="96.381" cy="12.936" rx="96.381" ry="12.936" transform="matrix(1, -0.006, 0.006, 1, 14.628, 6.96)" fill="#f7fafc"/><ellipse cx="95.951" cy="12.879" rx="95.951" ry="12.879" transform="matrix(1, -0.006, 0.006, 1, 14.685, 7.016)" fill="#f6fafc"/><path d="M191.041,12.324c.041,7.089-42.689,13.066-95.448,13.366S.033,20.485,0,13.4,42.689.338,95.448.014,191,5.243,191.041,12.324Z" transform="translate(14.836 6.483)" fill="#f6f9fc"/><ellipse cx="95.098" cy="12.765" rx="95.098" ry="12.765" transform="matrix(1, -0.006, 0.006, 1, 14.792, 7.13)" fill="#f5f9fc"/><ellipse cx="94.676" cy="12.708" rx="94.676" ry="12.708" transform="matrix(1, -0.006, 0.006, 1, 14.841, 7.186)" fill="#f5f9fc"/><ellipse cx="94.246" cy="12.652" rx="94.246" ry="12.652" transform="matrix(1, -0.006, 0.006, 1, 14.898, 7.243)" fill="#f4f9fc"/><ellipse cx="93.824" cy="12.595" rx="93.824" ry="12.595" transform="matrix(1, -0.006, 0.006, 1, 14.955, 7.307)" fill="#f4f8fb"/><ellipse cx="93.393" cy="12.538" rx="93.393" ry="12.538" transform="matrix(1, -0.006, 0.006, 1, 15.012, 7.356)" fill="#f3f8fb"/><ellipse cx="92.971" cy="12.481" rx="92.971" ry="12.481" transform="matrix(1, -0.006, 0.006, 1, 15.061, 7.412)" fill="#f3f8fb"/><ellipse cx="92.541" cy="12.424" rx="92.541" ry="12.424" transform="matrix(1, -0.006, 0.006, 1, 15.118, 7.469)" fill="#f2f7fb"/><ellipse cx="92.118" cy="12.367" rx="92.118" ry="12.367" transform="matrix(1, -0.006, 0.006, 1, 15.167, 7.534)" fill="#f2f7fb"/><path d="M183.376,11.8c.041,6.8-40.976,12.538-91.615,12.83S0,19.638,0,12.841,40.984.3,91.623.011,183.335,5.005,183.376,11.8Z" transform="translate(15.315 7.046)" fill="#f1f7fb"/><ellipse cx="91.257" cy="12.254" rx="91.257" ry="12.254" transform="matrix(1, -0.006, 0.006, 1, 15.282, 7.638)" fill="#f1f6fa"/><ellipse cx="90.84" cy="12.198" rx="90.84" ry="12.198" transform="matrix(1, -0.01, 0.01, 1, 17.173, 6.837)" fill="#f0f6fa"/><path d="M180.818,11.64c0,6.7-40.407,12.359-90.34,12.644S.041,19.362,0,12.655,40.415.3,90.34.011,180.777,4.956,180.818,11.64Z" transform="translate(15.478 7.224)" fill="#f0f6fa"/><path d="M179.965,11.583c0,6.675-40.221,12.311-89.918,12.587S.041,19.3,0,12.6,40.221.3,89.91.011,179.925,4.9,179.965,11.583Z" transform="translate(15.534 7.281)" fill="#eff5fa"/><path d="M179.1,11.534c.041,6.634-40.026,12.246-89.487,12.53S.033,19.192,0,12.541,40.026.3,89.487.011,179.072,4.892,179.1,11.534Z" transform="translate(15.591 7.338)" fill="#eef5fa"/><path d="M178.26,11.469c0,6.61-39.839,12.181-89.065,12.473S.041,19.07,0,12.476,39.839.3,89.065.011,178.219,4.867,178.26,11.469Z" transform="translate(15.64 7.403)" fill="#eef5fa"/><ellipse cx="88.7" cy="11.905" rx="88.7" ry="11.905" transform="matrix(1, -0.006, 0.006, 1, 15.609, 7.986)" fill="#edf4f9"/><path d="M176.546,11.363c.041,6.545-39.457,12.075-88.2,12.351S.033,18.907,0,12.346,39.465.287,88.188.011,176.514,4.818,176.546,11.363Z" transform="translate(15.754 7.517)" fill="#edf4f9"/><ellipse cx="87.847" cy="11.791" rx="87.847" ry="11.791" transform="matrix(1, -0.006, 0.006, 1, 15.723, 8.099)" fill="#ecf3f9"/><ellipse cx="87.425" cy="11.734" rx="87.425" ry="11.734" transform="matrix(1, -0.006, 0.006, 1, 15.772, 8.155)" fill="#ebf3f9"/><path d="M173.948,11.2c0,6.448-38.881,11.9-86.889,12.181S.033,18.64,0,12.192,38.881.3,86.889.011,173.915,4.754,173.948,11.2Z" transform="translate(15.957 7.695)" fill="#ebf3f9"/><path d="M173.144,11.144c0,6.423-38.694,11.848-86.507,12.116S.041,18.542,0,12.127,38.694.287,86.507.011,173.1,4.729,173.144,11.144Z" transform="translate(15.965 7.752)" fill="#eaf2f8"/><ellipse cx="86.142" cy="11.564" rx="86.142" ry="11.564" transform="matrix(1, -0.006, 0.006, 1, 15.935, 8.325)" fill="#eaf2f8"/><ellipse cx="85.719" cy="11.507" rx="85.719" ry="11.507" transform="matrix(1, -0.006, 0.006, 1, 15.984, 8.382)" fill="#e9f2f8"/><path d="M170.619,10.981c0,6.326-38.125,11.669-85.265,11.929S.041,18.265,0,11.948,38.125.278,85.265.01,170.578,4.655,170.619,10.981Z" transform="translate(16.095 7.931)" fill="#e8f1f8"/><path d="M169.725,10.924c0,6.285-37.931,11.6-84.8,11.872S.057,18.167,0,11.882,37.931.27,84.8.01,169.693,4.63,169.725,10.924Z" transform="translate(16.184 7.997)" fill="#e8f1f7"/><ellipse cx="84.436" cy="11.336" rx="84.436" ry="11.336" transform="matrix(1, -0.006, 0.006, 1, 16.156, 8.551)" fill="#e7f0f7"/><ellipse cx="84.014" cy="11.279" rx="84.014" ry="11.279" transform="matrix(1, -0.006, 0.006, 1, 16.205, 8.608)" fill="#e6f0f7"/><ellipse cx="83.584" cy="11.222" rx="83.584" ry="11.222" transform="matrix(1, -0.006, 0.006, 1, 16.262, 8.656)" fill="#e6eff7"/><ellipse cx="83.161" cy="11.166" rx="83.161" ry="11.166" transform="matrix(1, -0.006, 0.006, 1, 16.311, 8.713)" fill="#e5eff7"/><ellipse cx="82.731" cy="11.109" rx="82.731" ry="11.109" transform="matrix(1, -0.006, 0.006, 1, 16.368, 8.777)" fill="#e4eff6"/><ellipse cx="82.309" cy="11.052" rx="82.309" ry="11.052" transform="matrix(1, -0.006, 0.006, 1, 16.417, 8.834)" fill="#e4eef6"/><path d="M163.757,10.558c0,6.074-36.6,11.2-81.822,11.458S.033,17.558,0,11.459,36.591.261,81.813.01,163.708,4.492,163.757,10.558Z" transform="translate(16.566 8.387)" fill="#e3eef6"/><path d="M162.9,10.483c0,6.042-36.4,11.141-81.391,11.369S.041,17.418,0,11.377,36.4.235,81.391.008,162.847,4.442,162.9,10.483Z" transform="translate(16.614 8.47)" fill="#e2edf6"/><ellipse cx="81.026" cy="10.881" rx="81.026" ry="10.881" transform="matrix(1, -0.006, 0.006, 1, 16.589, 9.004)" fill="#e1edf6"/><path d="M161.191,10.38c0,5.977-36.022,11.019-80.53,11.271S.033,17.266,0,11.289,36.022.261,80.539.01,161.158,4.411,161.191,10.38Z" transform="translate(16.728 8.582)" fill="#e1ecf5"/><path d="M160.346,10.314c0,5.944-35.835,10.971-80.108,11.222S.033,17.168,0,11.224,35.836.253,80.116.009,160.314,4.346,160.346,10.314Z" transform="translate(16.777 8.647)" fill="#e0ecf5"/><path d="M159.494,10.266c0,5.912-35.649,10.906-79.686,11.157S.033,17.079,0,11.167,35.641.262,79.686.01,159.461,4.354,159.494,10.266Z" transform="translate(16.834 8.703)" fill="#dfecf5"/><path d="M158.633,10.209c0,5.887-35.454,10.857-79.255,11.1S.033,16.99,0,11.111,35.446.262,79.255.01,158.6,4.33,158.633,10.209Z" transform="translate(16.89 8.76)" fill="#dfebf5"/><ellipse cx="78.89" cy="10.589" rx="78.89" ry="10.589" transform="matrix(1, -0.006, 0.006, 1, 16.867, 9.294)" fill="#deebf4"/><ellipse cx="78.472" cy="10.533" rx="78.472" ry="10.533" transform="matrix(1, -0.01, 0.01, 1, 18.758, 8.478)" fill="#ddeaf4"/><path d="M156.075,10.064c0,5.79-34.877,10.678-77.956,10.914S0,16.731,0,10.941,34.918.271,77.956.011,156.042,4.274,156.075,10.064Z" transform="translate(17.053 8.922)" fill="#dceaf4"/><ellipse cx="77.615" cy="10.419" rx="77.615" ry="10.419" transform="matrix(1, -0.006, 0.006, 1, 17.022, 9.464)" fill="#dce9f4"/><ellipse cx="77.185" cy="10.362" rx="77.185" ry="10.362" transform="matrix(1, -0.006, 0.006, 1, 17.079, 9.52)" fill="#dbe9f3"/><path d="M153.517,9.883c0,5.684-34.309,10.5-76.706,10.735S.033,16.437,0,10.744,34.309.244,76.7.009,153.484,4.191,153.517,9.883Z" transform="translate(17.215 9.118)" fill="#dae8f3"/><path d="M152.672,9.827c0,5.684-34.106,10.443-76.275,10.678S.065,16.347,0,10.687,34.106.245,76.275.009,152.64,4.167,152.672,9.827Z" transform="translate(17.264 9.175)" fill="#d9e8f3"/><ellipse cx="75.914" cy="10.192" rx="75.914" ry="10.192" transform="matrix(1, -0.01, 0.01, 1, 19.086, 8.816)" fill="#d8e7f3"/><ellipse cx="75.479" cy="10.134" rx="75.479" ry="10.134" transform="matrix(1, -0.006, 0.006, 1, 17.3, 9.747)" fill="#d8e7f2"/><path d="M150.114,9.664c0,5.562-33.546,10.264-75,10.5S.033,16.1,0,10.509,33.546.245,75,.009,150.082,4.094,150.114,9.664Z" transform="translate(17.426 9.354)" fill="#d7e6f2"/><path d="M149.278,9.608c0,5.538-33.351,10.207-74.57,10.443S.057,15.99,0,10.452,33.359.245,74.57.009,149.246,4.078,149.278,9.608Z" transform="translate(17.459 9.41)" fill="#d6e6f2"/><ellipse cx="74.205" cy="9.964" rx="74.205" ry="9.964" transform="matrix(1, -0.006, 0.006, 1, 17.455, 9.908)" fill="#d5e5f2"/><path d="M147.557,9.493c0,5.473-32.977,10.094-73.725,10.321S.033,15.795,0,10.33,32.977.236,73.717.009,147.524,4.028,147.557,9.493Z" transform="translate(17.589 9.533)" fill="#d4e5f1"/><path d="M146.7,9.445c0,5.441-32.782,10.029-73.3,10.256S.033,15.714,0,10.273,32.782.236,73.3.009,146.663,4,146.7,9.445Z" transform="translate(17.646 9.59)" fill="#d4e4f1"/><ellipse cx="72.922" cy="9.793" rx="72.922" ry="9.793" transform="matrix(1, -0.006, 0.006, 1, 17.626, 10.078)" fill="#d3e4f1"/><ellipse cx="72.499" cy="9.736" rx="72.499" ry="9.736" transform="matrix(1, -0.006, 0.006, 1, 17.675, 10.134)" fill="#d2e3f0"/><ellipse cx="72.069" cy="9.68" rx="72.069" ry="9.68" transform="matrix(1, -0.006, 0.006, 1, 17.733, 10.199)" fill="#d1e3f0"/><ellipse cx="71.647" cy="9.615" rx="71.647" ry="9.615" transform="matrix(1, -0.006, 0.006, 1, 17.782, 10.256)" fill="#d0e2f0"/><path d="M142.433,9.168c0,5.278-31.832,9.745-71.159,9.956S.033,15.282,0,9.963,31.832.219,71.168.008,142.408,3.914,142.433,9.168Z" transform="translate(17.914 9.891)" fill="#cfe2f0"/><ellipse cx="70.794" cy="9.501" rx="70.794" ry="9.501" transform="matrix(1, -0.006, 0.006, 1, 17.888, 10.369)" fill="#cee1ef"/><path d="M140.735,9.063c0,5.213-31.45,9.623-70.315,9.842S.033,15.072,0,9.85,31.45.228,70.315.008,140.7,3.841,140.735,9.063Z" transform="translate(18.019 10.004)" fill="#cee1ef"/><ellipse cx="69.945" cy="9.388" rx="69.945" ry="9.388" transform="matrix(1, -0.01, 0.01, 1, 19.85, 9.612)" fill="#cde0ef"/><ellipse cx="69.511" cy="9.33" rx="69.511" ry="9.33" transform="matrix(1, -0.006, 0.006, 1, 18.06, 10.538)" fill="#cce0ef"/><ellipse cx="69.089" cy="9.274" rx="69.089" ry="9.274" transform="matrix(1, -0.006, 0.006, 1, 18.109, 10.595)" fill="#cbdfee"/><ellipse cx="68.658" cy="9.217" rx="68.658" ry="9.217" transform="matrix(1, -0.006, 0.006, 1, 18.166, 10.643)" fill="#cadfee"/><path d="M136.5,8.778c0,5.059-30.5,9.339-68.212,9.55S.024,14.609,0,9.55,30.492.219,68.212.008,136.464,3.719,136.5,8.778Z" transform="translate(18.263 10.305)" fill="#c9deee"/><path d="M135.611,8.728c0,5.027-30.305,9.274-67.749,9.485S.033,14.518,0,9.491,30.314.193,67.733.006,135.587,3.7,135.611,8.728Z" transform="translate(18.344 10.363)" fill="#c8deed"/><ellipse cx="67.383" cy="9.046" rx="67.383" ry="9.046" transform="matrix(1, -0.006, 0.006, 1, 18.329, 10.821)" fill="#c7dded"/><ellipse cx="66.953" cy="8.989" rx="66.953" ry="8.989" transform="matrix(1, -0.006, 0.006, 1, 18.386, 10.869)" fill="#c6dced"/><path d="M133.062,8.559c0,4.937-29.729,9.1-66.474,9.306S.041,14.243,0,9.314,29.737.211,66.482.008,133.037,3.629,133.062,8.559Z" transform="translate(18.498 10.541)" fill="#c6dced"/><path d="M132.2,8.51c0,4.872-29.542,9.038-66.052,9.249S.024,14.154,0,9.257,29.542.211,66.052.008,132.168,3.605,132.2,8.51Z" transform="translate(18.563 10.598)" fill="#c5dbec"/><ellipse cx="65.67" cy="8.819" rx="65.67" ry="8.819" transform="matrix(1, -0.006, 0.006, 1, 18.55, 11.047)" fill="#c4dbec"/><path d="M130.487,8.4c0,4.872-29.16,8.932-65.2,9.127S0,13.966,0,9.135,29.169.2,65.2.007,130.463,3.556,130.487,8.4Z" transform="translate(18.677 10.72)" fill="#c3daec"/><path d="M129.643,8.339c0,4.807-28.974,8.868-64.777,9.071S.024,13.878,0,9.078,28.974.211,64.769.008,129.61,3.54,129.643,8.339Z" transform="translate(18.726 10.776)" fill="#c2daeb"/><ellipse cx="64.398" cy="8.649" rx="64.398" ry="8.649" transform="matrix(1, -0.01, 0.01, 1, 20.564, 10.344)" fill="#c1d9eb"/><ellipse cx="63.965" cy="8.591" rx="63.965" ry="8.591" transform="matrix(1, -0.006, 0.006, 1, 18.77, 11.273)" fill="#c0d8eb"/><path d="M127.085,8.136c0,4.71-28.422,8.689-63.494,8.932S.024,13.609,0,8.891,28.422.2,63.494.008,127.052,3.426,127.085,8.136Z" transform="translate(18.888 10.996)" fill="#bfd8ea"/><ellipse cx="63.112" cy="8.47" rx="63.112" ry="8.47" transform="matrix(1, -0.006, 0.006, 1, 18.876, 11.386)" fill="#bed7ea"/><path d="M125.38,8.071c0,4.653-28.024,8.575-62.641,8.77S.033,13.431,0,8.778,28.024.2,62.641.008,125.355,3.426,125.38,8.071Z" transform="translate(18.994 11.069)" fill="#bdd7ea"/><ellipse cx="62.259" cy="8.356" rx="62.259" ry="8.356" transform="matrix(1, -0.006, 0.006, 1, 18.983, 11.508)" fill="#bcd6e9"/><path d="M123.666,7.958c0,4.588-27.609,8.461-61.788,8.648S.024,13.244,0,8.656,27.61.2,61.788.008,123.642,3.378,123.666,7.958Z" transform="translate(19.107 11.19)" fill="#bbd5e9"/><path d="M122.822,7.909c0,4.547-27.447,8.4-61.366,8.591S.033,13.155,0,8.6,27.447.2,61.366.008,122.8,3.37,122.822,7.909Z" transform="translate(19.156 11.247)" fill="#bad5e9"/><ellipse cx="60.984" cy="8.185" rx="60.984" ry="8.185" transform="matrix(1, -0.006, 0.006, 1, 19.146, 11.677)" fill="#b9d4e9"/><ellipse cx="60.554" cy="8.129" rx="60.554" ry="8.129" transform="matrix(1, -0.006, 0.006, 1, 19.203, 11.734)" fill="#b8d4e8"/><path d="M120.272,7.738c0,4.458-26.879,8.226-60.091,8.413S.024,12.9,0,8.42,26.879.194,60.091.007,120.247,3.28,120.272,7.738Z" transform="translate(19.31 11.426)" fill="#b7d3e8"/><path d="M119.4,7.689c0,4.426-26.684,8.12-59.653,8.348S.024,12.789,0,8.363,26.684.194,59.661.007,119.379,3.264,119.4,7.689Z" transform="translate(19.375 11.483)" fill="#b6d2e8"/><ellipse cx="59.279" cy="7.958" rx="59.279" ry="7.958" transform="matrix(1, -0.006, 0.006, 1, 19.359, 11.903)" fill="#b5d2e7"/><path d="M117.706,7.575c0,4.361-26.31,8.047-58.808,8.234S.024,12.561,0,8.241,26.3.185,58.808.007,117.681,3.214,117.706,7.575Z" transform="translate(19.481 11.605)" fill="#b4d1e7"/><ellipse cx="58.427" cy="7.844" rx="58.427" ry="7.844" transform="matrix(1, -0.006, 0.006, 1, 19.473, 12.008)" fill="#b3d1e7"/><path d="M115.992,7.462c0,4.3-25.92,7.934-57.956,8.12S.024,12.424,0,8.128,25.92.194,57.947.007,115.944,3.158,115.992,7.462Z" transform="translate(19.619 11.727)" fill="#b2d0e6"/><path d="M115.14,7.4c0,4.271-25.726,7.877-57.525,8.055S.024,12.326,0,8.054,25.734.186,57.525.007,115.14,3.141,115.14,7.4Z" transform="translate(19.66 11.784)" fill="#b1cfe6"/><path d="M114.287,7.356c0,4.239-25.539,7.82-57.1,7.991S.024,12.236,0,8,25.539.186,57.1.007,114.287,3.117,114.287,7.356Z" transform="translate(19.7 11.841)" fill="#b0cfe6"/><path d="M113.434,7.315c0,4.2-25.352,7.755-56.681,7.934S.024,12.155,0,7.941,25.344.186,56.673.007,113.434,3.109,113.434,7.315Z" transform="translate(19.741 11.889)" fill="#afcee5"/><path d="M112.582,7.242c0,4.174-25.173,7.7-56.242,7.877S.024,12.049,0,7.875,25.173.177,56.25.006,112.582,3.068,112.582,7.242Z" transform="translate(19.781 11.963)" fill="#aecde5"/><path d="M111.729,7.193c0,4.141-24.97,7.641-55.82,7.812S.024,11.96,0,7.818,24.97.177,55.82.006,111.689,3.052,111.729,7.193Z" transform="translate(19.863 12.02)" fill="#adcde5"/><ellipse cx="55.441" cy="7.447" rx="55.441" ry="7.447" transform="matrix(1, -0.01, 0.01, 1, 21.713, 11.527)" fill="#accce4"/><path d="M110.024,7.088c0,4.06-24.589,7.52-54.967,7.69S.024,11.781,0,7.7,24.589.177,54.975.007,110,3,110.024,7.088Z" transform="translate(19.968 12.133)" fill="#abcce4"/><path d="M109.171,7.023c0,4.06-24.4,7.471-54.545,7.641S.024,11.684,0,7.64,24.361.177,54.545.007,109.147,2.979,109.171,7.023Z" transform="translate(20.025 12.198)" fill="#aacbe4"/><path d="M108.31,6.974c0,4.011-24.2,7.406-54.115,7.576S.016,11.595,0,7.583,24.207.177,54.115.007,108.294,2.954,108.31,6.974Z" transform="translate(20.082 12.255)" fill="#a9cae3"/><ellipse cx="53.736" cy="7.211" rx="53.736" ry="7.211" transform="matrix(1, -0.01, 0.01, 1, 21.927, 11.76)" fill="#a8cae3"/><path d="M106.613,6.859c0,3.947-23.825,7.308-53.27,7.455S.024,11.414,0,7.46,23.825.151,53.262.005,106.589,2.9,106.613,6.859Z" transform="translate(20.187 12.379)" fill="#a7c9e3"/><path d="M105.752,6.8c0,3.922-23.63,7.235-52.84,7.4S.016,11.326,0,7.4,23.63.169,52.84.006,105.736,2.881,105.752,6.8Z" transform="translate(20.244 12.434)" fill="#a6c8e2"/><path d="M104.9,6.72c0,3.89-23.444,7.17-52.417,7.308S0,11.2,0,7.313,23.444.134,52.417,0,104.875,2.83,104.9,6.72Z" transform="translate(20.301 12.526)" fill="#a4c8e2"/><path d="M104.039,6.7c0,3.857-23.257,7.122-51.971,7.308S.024,11.174,0,7.317,23.249.195,51.971.008,104.015,2.883,104.039,6.7Z" transform="translate(20.366 12.546)" fill="#a3c7e2"/><path d="M103.195,6.64c0,3.825-23.062,7.057-51.557,7.219S.016,11.05,0,7.225,23.062.16,51.557.006,103.178,2.815,103.195,6.64Z" transform="translate(20.407 12.613)" fill="#a2c6e1"/><path d="M102.374,6.584c0,3.8-22.875,7-51.159,7.162S.057,10.961,0,7.169,22.875.169,51.159.006,102.35,2.759,102.374,6.584Z" transform="translate(20.431 12.67)" fill="#a1c6e1"/><ellipse cx="50.745" cy="6.813" rx="50.745" ry="6.813" transform="matrix(1, -0.006, 0.006, 1, 20.453, 13.034)" fill="#a0c5e0"/><path d="M100.628,6.482c0,3.735-22.494,6.886-50.282,7.04S0,10.786,0,7.026,22.461.213,50.274.01,100.612,2.755,100.628,6.482Z" transform="translate(20.577 12.78)" fill="#9fc4e0"/><path d="M99.792,6.421c0,3.7-22.3,6.821-49.859,6.984S.024,10.684,0,6.981,22.3.16,49.86.006,99.768,2.718,99.792,6.421Z" transform="translate(20.618 12.849)" fill="#9ec4e0"/><path d="M98.964,6.372c0,3.662-22.1,6.764-49.429,6.919S.049,10.6,0,6.925,22.112.16,49.429.006,98.948,2.7,98.964,6.372Z" transform="translate(20.642 12.906)" fill="#9dc3df"/><path d="M98.079,6.316c0,3.638-21.925,6.707-49.007,6.862S.016,10.506,0,6.868,21.925.16,49,.006,98.062,2.678,98.079,6.316Z" transform="translate(20.731 12.962)" fill="#9cc2df"/><ellipse cx="48.617" cy="6.529" rx="48.617" ry="6.529" transform="matrix(1, -0.006, 0.006, 1, 20.723, 13.309)" fill="#9ac2df"/><path d="M96.373,6.2c0,3.573-21.535,6.594-48.146,6.74S.016,10.318,0,6.745,21.535.152,48.154.006,96.357,2.628,96.373,6.2Z" transform="translate(20.837 13.085)" fill="#99c1de"/><path d="M95.529,6.156c0,3.541-21.349,6.5-47.724,6.675S.024,10.232,0,6.692,21.349.2,47.732.009,95.5,2.616,95.529,6.156Z" transform="translate(20.886 13.138)" fill="#98c0de"/><path d="M94.676,6.095c0,3.508-21.162,6.5-47.3,6.626S.024,10.139,0,6.631,21.162.134,47.3,0,94.652,2.587,94.676,6.095Z" transform="translate(20.943 13.199)" fill="#97bfde"/><ellipse cx="46.912" cy="6.301" rx="46.912" ry="6.301" transform="matrix(1, -0.006, 0.006, 1, 20.935, 13.535)" fill="#96bfdd"/><path d="M92.971,5.982c0,3.451-20.78,6.358-46.449,6.5S.024,9.945,0,6.5,20.78.143,46.449.005,92.947,2.539,92.971,5.982Z" transform="translate(21.048 13.321)" fill="#95bedd"/><path d="M92.1,5.934c0,3.411-20.585,6.3-46.019,6.44S0,9.864,0,6.453,20.585.152,46.019.006,92.086,2.515,92.1,5.934Z" transform="translate(21.113 13.377)" fill="#94bddc"/><path d="M91.257,5.868c0,3.386-20.39,6.245-45.6,6.383S.016,9.766,0,6.388,20.39.143,45.6.005,91.241,2.49,91.257,5.868Z" transform="translate(21.162 13.442)" fill="#92bddc"/><path d="M90.413,5.819c0,3.354-20.2,6.18-45.174,6.326S.024,9.709,0,6.331,20.212.143,45.174.005,90.389,2.466,90.413,5.819Z" transform="translate(21.211 13.499)" fill="#91bcdc"/><path d="M89.552,5.763c0,3.321-20.009,6.131-44.744,6.269S.016,9.6,0,6.274,20.017.143,44.744.005,89.536,2.45,89.552,5.763Z" transform="translate(21.267 13.556)" fill="#90bbdb"/><path d="M88.7,5.7c0,3.289-19.822,6.066-44.313,6.2S.016,9.466,0,6.218,19.822.143,44.313.005,88.683,2.409,88.7,5.7Z" transform="translate(21.324 13.629)" fill="#8fbadb"/><path d="M87.855,5.682c0,3.248-19.635,6.009-43.891,6.147S.024,9.441,0,6.144,19.635.143,43.891.005,87.831,2.425,87.855,5.682Z" transform="translate(21.373 13.645)" fill="#8ebadb"/><path d="M86.994,5.6c0,3.248-19.44,5.952-43.461,6.082S.016,9.32,0,6.088,19.44.143,43.469.005,86.978,2.377,86.994,5.6Z" transform="translate(21.43 13.734)" fill="#8db9da"/><path d="M86.142,5.544c0,3.2-19.254,5.9-43.038,6.025S.016,9.23,0,6.031,19.245.144,43.038.005,86.125,2.352,86.142,5.544Z" transform="translate(21.487 13.791)" fill="#8bb8da"/><path d="M85.289,5.486c0,3.159-19.059,5.83-42.608,5.969S.024,9.132,0,5.965,19.067.135,42.616,0,85.273,2.327,85.289,5.486Z" transform="translate(21.535 13.857)" fill="#8ab8d9"/><ellipse cx="42.22" cy="5.668" rx="42.22" ry="5.668" transform="matrix(1, -0.01, 0.01, 1, 23.404, 13.28)" fill="#89b7d9"/><path d="M83.584,5.383c0,3.1-18.677,5.684-41.763,5.847S.016,8.956,0,5.854,18.677.17,41.755.008,83.567,2.273,83.584,5.383Z" transform="translate(21.649 13.968)" fill="#88b6d9"/><ellipse cx="41.366" cy="5.554" rx="41.366" ry="5.554" transform="matrix(1, -0.006, 0.006, 1, 21.646, 14.278)" fill="#87b5d8"/><path d="M81.878,5.264c0,3.037-18.3,5.6-40.911,5.684S.016,8.723,0,5.686,18.3.083,40.911,0,81.862,2.227,81.878,5.264Z" transform="translate(21.755 14.095)" fill="#85b5d8"/><path d="M81.026,5.22c0,3-18.109,5.538-40.489,5.684S.016,8.7,0,5.691,18.109.153,40.48.006,81.009,2.215,81.026,5.22Z" transform="translate(21.811 14.147)" fill="#84b4d8"/><path d="M80.173,5.162c0,2.972-17.914,5.481-40.05,5.611S.016,8.589,0,5.616,17.922.135,40.058.005,80.157,2.19,80.173,5.162Z" transform="translate(21.86 14.206)" fill="#83b3d7"/><path d="M79.312,5.1c0,2.94-17.727,5.424-39.628,5.546S0,8.466,0,5.551,17.727.126,39.628,0,79.3,2.165,79.312,5.1Z" transform="translate(21.925 14.271)" fill="#82b2d7"/><path d="M78.468,5.047c0,2.907-17.54,5.368-39.205,5.489S.016,8.4,0,5.494,17.532.127,39.2,0,78.443,2.14,78.468,5.047Z" transform="translate(21.974 14.328)" fill="#81b2d6"/><path d="M77.615,5c0,2.875-17.345,5.3-38.775,5.424S.016,8.312,0,5.437,17.345.127,38.783,0,77.6,2.116,77.615,5Z" transform="translate(22.023 14.385)" fill="#7fb1d6"/><path d="M76.763,4.942c0,2.85-17.158,5.254-38.353,5.376S.016,8.223,0,5.381,17.158.127,38.353,0,76.746,2.1,76.763,4.942Z" transform="translate(22.079 14.441)" fill="#7eb0d6"/><path d="M75.9,4.877c0,2.81-16.964,5.189-37.922,5.311S.016,8.117,0,5.315,16.964.118,37.922,0,75.886,2.059,75.9,4.877Z" transform="translate(22.136 14.515)" fill="#7dafd5"/><path d="M75.057,4.868c0,2.785-16.777,5.132-37.5,5.254S.016,8.076,0,5.25,16.777.118,37.5,0,75.041,2.091,75.057,4.868Z" transform="translate(22.185 14.523)" fill="#7cafd5"/><path d="M74.2,4.789c0,2.753-16.582,5.075-37.078,5.189S.016,7.955,0,5.2,16.582.135,37.037.006,74.188,2.036,74.2,4.789Z" transform="translate(22.242 14.611)" fill="#7aaed4"/><ellipse cx="36.672" cy="4.921" rx="36.672" ry="4.921" transform="matrix(1, -0.006, 0.006, 1, 22.251, 14.908)" fill="#79add4"/><path d="M72.5,4.666c0,2.688-16.2,4.962-36.225,5.067S.016,7.759,0,5.072,16.241.118,36.225,0,72.483,1.978,72.5,4.666Z" transform="translate(22.347 14.742)" fill="#78acd4"/><path d="M71.647,4.611c0,2.664-16.014,4.872-35.795,5.018S.016,7.672,0,5.017,16.014.145,35.795.006,71.63,1.955,71.647,4.611Z" transform="translate(22.404 14.797)" fill="#77acd3"/><ellipse cx="35.397" cy="4.75" rx="35.397" ry="4.75" transform="matrix(1, -0.006, 0.006, 1, 22.406, 15.078)" fill="#75abd3"/><path d="M69.917,4.5c0,2.59-15.632,4.783-34.918,4.872S.016,7.466,0,4.875,15.632.092,34.918,0,69.9,1.9,69.917,4.5Z" transform="translate(22.534 14.922)" fill="#74aad2"/><path d="M69.081,4.405c0,2.558-15.429,4.726-34.512,4.872S.016,7.394,0,4.836,15.429.11,34.512,0,69.072,1.847,69.081,4.405Z" transform="translate(22.567 15.019)" fill="#73a9d2"/><path d="M68.212,4.4c0,2.525-15.25,4.661-34.106,4.767S0,7.312,0,4.779,15.242.11,34.106,0,68.2,1.864,68.212,4.4Z" transform="translate(22.64 15.035)" fill="#72a8d2"/><path d="M67.383,4.332c0,2.5-15.063,4.612-33.667,4.718S.016,7.214,0,4.713,15.063.1,33.667,0,67.367,1.839,67.383,4.332Z" transform="translate(22.672 15.1)" fill="#70a8d1"/><path d="M66.531,4.284c0,2.436-14.869,4.547-33.237,4.653S0,7.126,0,4.657,14.869.11,33.237,0,66.523,1.815,66.531,4.284Z" transform="translate(22.721 15.157)" fill="#6fa7d1"/><ellipse cx="32.839" cy="4.409" rx="32.839" ry="4.409" transform="matrix(1, -0.006, 0.006, 1, 22.733, 15.417)" fill="#6ea6d0"/><path d="M64.825,4.219c0,2.436-14.487,4.434-32.392,4.531S.016,6.988,0,4.584,14.479.11,32.344,0,64.769,1.783,64.825,4.219Z" transform="translate(22.875 15.27)" fill="#6ca5d0"/><path d="M63.965,4.113c0,2.371-14.292,4.377-31.954,4.474S.016,6.849,0,4.478,14.292.1,31.962,0,63.965,1.677,63.965,4.113Z" transform="translate(22.924 15.376)" fill="#6ba5cf"/><path d="M63.112,4.072c0,2.339-14.105,4.312-31.532,4.409S.008,6.768,0,4.421,14.105.1,31.532,0,63.112,1.7,63.112,4.072Z" transform="translate(22.965 15.417)" fill="#6aa4cf"/><path d="M62.259,4.007c0,2.314-13.91,4.263-31.1,4.361S.016,6.671,0,4.365,13.918.1,31.109,0,62.259,1.669,62.259,4.007Z" transform="translate(23.005 15.482)" fill="#68a3cf"/><path d="M61.407,3.95c0,2.274-13.724,4.2-30.679,4.3S.008,6.573,0,4.291,13.724.093,30.679,0,61.407,1.644,61.407,3.95Z" transform="translate(23.046 15.539)" fill="#67a2ce"/><path d="M60.554,3.893c0,2.249-13.537,4.141-30.257,4.239S.008,6.508,0,4.234,13.529.093,30.249,0,60.554,1.627,60.554,3.893Z" transform="translate(23.086 15.596)" fill="#66a1ce"/><path d="M59.7,3.846c0,2.209-13.342,4.06-29.826,4.174S.016,6.4,0,4.179,13.342.119,29.835.005,59.7,1.613,59.7,3.846Z" transform="translate(23.127 15.643)" fill="#65a1cd"/><path d="M58.849,3.788c0,2.184-13.155,4.06-29.4,4.117S.008,6.281,0,4.121,13.147.1,29.4,0,58.8,1.6,58.849,3.788Z" transform="translate(23.216 15.701)" fill="#63a0cd"/><path d="M58,3.739C58,5.891,45,7.7,29.014,7.8S.008,6.176,0,4.064,12.993.1,28.974,0,57.98,1.579,58,3.739Z" transform="translate(23.273 15.75)" fill="#629fcc"/><path d="M57.144,3.674c0,2.119-12.765,3.914-28.551,4S.016,6.118,0,4,12.773.093,28.551,0,57.135,1.554,57.144,3.674Z" transform="translate(23.322 15.815)" fill="#619ecc"/><ellipse cx="28.145" cy="3.776" rx="28.145" ry="3.776" transform="matrix(1, -0.006, 0.006, 1, 23.337, 16.047)" fill="#5f9dcc"/><path d="M55.438,3.568c0,2.054-12.392,3.784-27.7,3.873S.008,5.931,0,3.876,12.384.084,27.691,0,55.422,1.513,55.438,3.568Z" transform="translate(23.436 15.921)" fill="#5e9ccb"/><path d="M54.586,3.511c0,2.022-12.181,3.735-27.268,3.817S.016,5.842,0,3.82,12.181.084,27.277,0,54.577,1.5,54.586,3.511Z" transform="translate(23.484 15.978)" fill="#5d9ccb"/><path d="M53.733,3.462c0,1.99-12.01,3.67-26.846,3.752S.008,5.752,0,3.763,12.01.084,26.846,0,53.717,1.481,53.733,3.462Z" transform="translate(23.541 16.027)" fill="#5b9bca"/><path d="M52.88,3.406c0,1.965-11.815,3.614-26.416,3.7S.016,5.664,0,3.707,11.823.093,26.424,0,52.872,1.465,52.88,3.406Z" transform="translate(23.59 16.083)" fill="#5a9aca"/><path d="M52.02,3.349c0,1.925-11.628,3.557-25.985,3.638S.049,5.566,0,3.641,11.629.084,25.986,0,52.012,1.44,52.02,3.349Z" transform="translate(23.655 16.14)" fill="#5899c9"/><path d="M51.175,3.292c0,1.9-11.442,3.5-25.571,3.581S.008,5.476,0,3.584,11.434.084,25.563,0,51.159,1.424,51.175,3.292Z" transform="translate(23.704 16.197)" fill="#5798c9"/><ellipse cx="25.157" cy="3.378" rx="25.157" ry="3.378" transform="matrix(1, -0.006, 0.006, 1, 23.721, 16.435)" fill="#5697c9"/><path d="M49.47,3.178c0,1.835-11.052,3.386-24.719,3.459S.008,5.289,0,3.462,11.06.076,24.719,0,49.462,1.375,49.47,3.178Z" transform="translate(23.809 16.311)" fill="#5497c8"/><path d="M48.617,3.129c0,1.8-10.865,3.321-24.3,3.4S.008,5.2,0,3.405,10.865.076,24.288,0,48.6,1.326,48.617,3.129Z" transform="translate(23.866 16.401)" fill="#5396c8"/><path d="M47.764,3.074c0,1.77-10.67,3.248-23.858,3.346S.016,5.12,0,3.342,10.678.093,23.866,0,47.756,1.3,47.764,3.074Z" transform="translate(23.915 16.456)" fill="#5295c7"/><path d="M46.912,3.021c0,1.738-10.483,3.248-23.436,3.248S.008,4.994,0,3.248,10.483,0,23.436,0,46.9,1.283,46.912,3.021Z" transform="translate(23.972 16.517)" fill="#5094c7"/><path d="M46.051,2.969c0,1.713-10.289,3.151-23.005,3.248S.008,4.966,0,3.253,10.289.1,23.005,0,46.043,1.3,46.051,2.969Z" transform="translate(24.028 16.569)" fill="#4f93c6"/><path d="M45.206,2.91c0,1.673-10.1,3.094-22.583,3.159S.016,4.843,0,3.162,10.1.076,22.591,0,45.2,1.229,45.206,2.91Z" transform="translate(24.077 16.636)" fill="#4e92c6"/><path d="M44.354,2.853c0,1.624-9.915,3.037-22.161,3.1S.008,4.753,0,3.1,9.915.076,22.161,0,44.346,1.213,44.354,2.853Z" transform="translate(24.134 16.693)" fill="#4c92c5"/><path d="M43.493,2.8c0,1.624-9.745,2.972-21.73,3.045S.008,4.655,0,3.039,9.745.067,21.73,0,43.485,1.18,43.493,2.8Z" transform="translate(24.191 16.758)" fill="#4b91c5"/><path d="M42.649,2.739c0,1.583-9.533,2.923-21.308,2.988S.016,4.566,0,2.983,9.533.067,21.308,0,42.64,1.164,42.649,2.739Z" transform="translate(24.239 16.815)" fill="#4990c5"/><path d="M41.8,2.69c0,1.551-9.347,2.858-20.886,2.923S.008,4.477,0,2.926,9.339.067,20.878,0,41.788,1.139,41.8,2.69Z" transform="translate(24.296 16.872)" fill="#488fc4"/><ellipse cx="20.472" cy="2.745" rx="20.472" ry="2.745" transform="matrix(1, -0.006, 0.006, 1, 24.31, 17.065)" fill="#478ec4"/><path d="M40.091,2.576c0,1.486-8.932,2.745-20.025,2.8S.008,4.29,0,2.8,8.932.059,20.033,0,40.082,1.09,40.091,2.576Z" transform="translate(24.402 16.994)" fill="#458dc3"/><path d="M39.23,2.528c0,1.454-8.762,2.68-19.595,2.745S.008,4.2,0,2.747,8.77.059,19.6,0,39.222,1.066,39.23,2.528Z" transform="translate(24.459 17.051)" fill="#448cc3"/><path d="M38.377,2.439c0,1.421-8.575,2.623-19.172,2.688S.008,4.079,0,2.691,8.575.068,19.172,0,38.369,1.018,38.377,2.439Z" transform="translate(24.516 17.139)" fill="#428cc2"/><path d="M37.533,2.447c0,1.389-8.388,2.566-18.75,2.623S.008,4.047,0,2.634,8.388.068,18.75,0,37.525,1.05,37.533,2.447Z" transform="translate(24.564 17.14)" fill="#418bc2"/><path d="M36.672,2.357c0,1.364-8.194,2.509-18.32,2.566S.008,3.924,0,2.568,8.194.059,18.32,0,36.664,1,36.672,2.357Z" transform="translate(24.621 17.229)" fill="#3f8ac1"/><path d="M35.787,2.31c0,1.324-8.007,2.436-17.865,2.5S.008,3.836,0,2.513,8.007.077,17.865,0,35.779.978,35.787,2.31Z" transform="translate(24.71 17.285)" fill="#3e89c1"/><path d="M34.975,2.241c0,1.3-7.82,2.436-17.475,2.436S.008,3.727,0,2.436,7.82,0,17.475,0,34.967.95,34.975,2.241Z" transform="translate(24.727 17.353)" fill="#3d88c0"/><path d="M34.106,2.194c0,1.267-7.625,2.331-17.053,2.387S0,3.648,0,2.381,7.625.05,17.053,0,34.1.927,34.106,2.194Z" transform="translate(24.792 17.408)" fill="#3b87c0"/><ellipse cx="16.631" cy="2.233" rx="16.631" ry="2.233" transform="matrix(1, -0.006, 0.006, 1, 24.8, 17.574)" fill="#3a86c0"/><path d="M32.441,2.089c0,1.2-7.243,2.217-16.2,2.266S0,3.469,0,2.267,7.243.051,16.192,0,32.433.887,32.441,2.089Z" transform="translate(24.865 17.522)" fill="#3885bf"/><ellipse cx="15.779" cy="2.12" rx="15.779" ry="2.12" transform="matrix(1, -0.01, 0.01, 1, 26.795, 16.779)" fill="#3784bf"/><ellipse cx="15.356" cy="2.063" rx="15.356" ry="2.063" transform="matrix(1, -0.006, 0.006, 1, 24.963, 17.743)" fill="#3584be"/><path d="M29.851,1.918c0,1.113-6.667,2.046-14.909,2.1S.008,3.2,0,2.089,6.675.051,14.917,0,29.851.814,29.851,1.918Z" transform="translate(25.052 17.701)" fill="#3483be"/><path d="M29,1.87c0,1.072-6.5,1.981-14.487,2.03S.008,3.088,0,2.032,6.5.051,14.487,0,28.99.8,29,1.87Z" transform="translate(25.108 17.757)" fill="#3282bd"/><path d="M28.137,1.762c0,1.048-6.293,1.933-14.065,1.973S0,2.972,0,1.925,6.277,0,14.048,0,28.129.723,28.137,1.762Z" transform="translate(25.173 17.865)" fill="#3181bd"/><path d="M27.293,1.756c0,1.015-6.1,1.868-13.634,1.908S.008,2.925,0,1.91,6.1.042,13.642,0,27.293.74,27.293,1.756Z" transform="translate(25.214 17.88)" fill="#2f80bc"/><path d="M26.44,1.707c0,.974-5.912,1.8-13.212,1.843S.008,2.836,0,1.853,5.912.042,13.212,0,26.432.74,26.44,1.707Z" transform="translate(25.271 17.937)" fill="#2e7fbc"/><path d="M25.587,1.634c0,.95-5.725,1.754-12.79,1.786S0,2.73,0,1.8,5.684.042,12.782,0,25.579.668,25.587,1.634Z" transform="translate(25.328 18.009)" fill="#2c7ebb"/><path d="M24.735,1.625c0,.918-5.53,1.689-12.359,1.73S.008,2.681,0,1.731,5.53.034,12.359,0,24.735.708,24.735,1.625Z" transform="translate(25.376 18.026)" fill="#2b7dbb"/><ellipse cx="11.937" cy="1.6" rx="11.937" ry="1.6" transform="matrix(1, -0.006, 0.006, 1, 25.404, 18.195)" fill="#2a7cba"/><path d="M23.021,1.48c0,.812-5.14,1.575-11.5,1.624S0,2.479,0,1.627,5.14.051,11.5,0,23.021.628,23.021,1.48Z" transform="translate(25.49 18.179)" fill="#287bba"/><path d="M22.177,1.422c0,.812-4.953,1.519-11.076,1.551S.008,2.372,0,1.552,4.962.034,11.084,0,22.177.6,22.177,1.422Z" transform="translate(25.539 18.237)" fill="#277bb9"/><path d="M21.324,1.374c0,.812-4.767,1.454-10.654,1.486S0,2.283,0,1.5,4.767.034,10.654,0,21.316.578,21.324,1.374Z" transform="translate(25.596 18.294)" fill="#257ab9"/><path d="M20.464,1.317c0,.763-4.572,1.4-10.224,1.437S0,2.194,0,1.43,4.572.034,10.224,0,20.464.562,20.464,1.317Z" transform="translate(25.652 18.351)" fill="#2479b8"/><path d="M19.619,1.268c0,.723-4.385,1.34-9.8,1.372S.008,2.1,0,1.374,4.385.034,9.8,0,19.611.537,19.619,1.268Z" transform="translate(25.701 18.408)" fill="#2278b8"/><path d="M18.766,1.2c0,.7-4.2,1.283-9.379,1.316S0,2.007,0,1.308,4.19.025,9.371,0,18.758.512,18.766,1.2Z" transform="translate(25.758 18.473)" fill="#2177b7"/><path d="M17.865,1.154c0,.666-4,1.226-8.932,1.251S0,1.917,0,1.251,4,.025,8.932,0,17.865.488,17.865,1.154Z" transform="translate(25.855 18.53)" fill="#1f76b7"/><path d="M17.061,1.1c0,.633-3.817,1.169-8.526,1.194S.008,1.829,0,1.2,3.817.034,8.526,0,17.053.464,17.061,1.1Z" transform="translate(25.864 18.586)" fill="#1e75b6"/><path d="M16.241,1.04c0,.6-3.614,1.1-8.12,1.129S0,1.731,0,1.13,3.622.025,8.12,0,16.241.439,16.241,1.04Z" transform="translate(25.88 18.652)" fill="#1c74b6"/><path d="M15.348.984c0,.577-3.427,1.056-7.666,1.08S0,1.641,0,1.073,3.427.025,7.666,0,15.348.415,15.348.984Z" transform="translate(25.977 18.709)" fill="#1a73b6"/><path d="M14.5.935c0,.536-3.248.991-7.243,1.015S.008,1.552,0,1.016,3.248.025,7.243,0,14.495.4,14.5.935Z" transform="translate(26.026 18.765)" fill="#1972b5"/><path d="M13.642.878c0,.512-3.045.934-6.813.958S0,1.463,0,.959,3.045.025,6.813,0,13.642.375,13.642.878Z" transform="translate(26.083 18.822)" fill="#1771b5"/><path d="M12.79.813c0,.471-2.858.877-6.391.893S0,1.357,0,.894,2.858.017,6.391,0,12.79.342,12.79.813Z" transform="translate(26.14 18.896)" fill="#1670b4"/><path d="M11.945.763c0,.439-2.672.812-5.969.812S.008,1.251,0,.812,2.672,0,5.969,0,11.945.317,11.945.763Z" transform="translate(26.221 18.953)" fill="#146fb4"/><path d="M11.084.719c0,.414-2.477.755-5.538.812S0,1.223,0,.817,2.477.053,5.538,0,11.084.305,11.084.719Z" transform="translate(26.27 18.997)" fill="#136eb3"/><path d="M10.232.658c0,.374-2.29.7-5.116.715S0,1.089,0,.715,2.282.017,5.108,0,10.232.277,10.232.658Z" transform="translate(26.31 19.066)" fill="#116eb3"/><path d="M9.387.6c0,.349-2.1.642-4.694.658S0,1,0,.658,2.1.017,4.685,0,9.387.252,9.387.6Z" transform="translate(26.343 19.123)" fill="#106db2"/><path d="M8.526.553c0,.317-1.908.577-4.263.593S0,.918,0,.6,1.908.017,4.263,0,8.526.236,8.526.553Z" transform="translate(26.391 19.18)" fill="#0e6cb2"/><path d="M7.674.5c0,.284-1.713.528-3.841.536S0,.829,0,.545,1.713.017,3.833,0,7.674.252,7.674.5Z" transform="translate(26.432 19.237)" fill="#0d6bb1"/><path d="M6.821.439C6.821.69,5.3.9,3.419.91S0,.731,0,.471,1.527.008,3.411,0,6.821.187,6.821.439Z" transform="translate(26.513 19.302)" fill="#0b6ab1"/><path d="M5.969.386c0,.227-1.332.414-2.98.422S0,.646,0,.418,1.332.012,2.98,0,5.969.134,5.969.386Z" transform="translate(26.57 19.355)" fill="#0969b0"/><path d="M5.124.394c0,.187-1.145.349-2.558.357S.008.613,0,.418,1.145.069,2.558.061,5.124.2,5.124.394Z" transform="translate(26.619 19.355)" fill="#0868b0"/><path d="M4.263.39c0,.162-.95.292-2.128.3S0,.576,0,.414.95.122,2.136.122,4.263.235,4.263.39Z" transform="translate(26.676 19.359)" fill="#0667af"/><path d="M3.411.4c0,.122-.763.235-1.705.235S0,.544,0,.414.763.179,1.705.179,3.411.268,3.411.4Z" transform="translate(26.732 19.359)" fill="#0566af"/><path d="M2.566.407c0,.1-.577.179-1.283.179S.008.521,0,.423.577.253,1.283.244A2.712,2.712,0,0,1,2.566.407Z" transform="translate(26.781 19.35)" fill="#0365ae"/><path d="M1.665.4c0,.065-.382.114-.812.122S0,.475,0,.41.382.3.853.288,1.665.337,1.665.4Z" transform="translate(26.879 19.363)" fill="#0264ae"/><path d="M.853.4a1.517,1.517,0,0,1-.43.065C.187.465,0,.465,0,.408S.187.352.422.352A1.048,1.048,0,0,1,.853.4Z" transform="translate(26.895 19.365)" fill="#0063ad"/></g><path d="M116.926,51.094c-1.665,25.766,2.436,41.747,2.436,41.747L59.807,131.048h0a25.247,25.247,0,0,1-6.366,3.248c-.211.081-.414.146-.633.211a24.491,24.491,0,0,1-2.964.771,25.8,25.8,0,0,1-27.13-12.067,25.531,25.531,0,0,1-2.436-5.327,1.5,1.5,0,0,0-.081-.4C18.929,110.414.974,10.622,0,6.634c5.246-1.161,3.427.414,8.835-1.316C17.394,2.55,15.136,3.695,22.453,0c.593,1.177,18.726,40.6,32.263,70.1a5.684,5.684,0,0,1,.755-1.283l50.72-53.887C154.605-20.658,117.957,35.283,116.926,51.094Z" transform="translate(13.423 155.604)" fill="url(#b)"/><path d="M33.229,18.042c-.211.081-.414.146-.633.211a24.491,24.491,0,0,1-2.964.771A25.8,25.8,0,0,1,2.517,6.958,25.531,25.531,0,0,1,.081,1.631,1.5,1.5,0,0,0,0,1.233,26.278,26.278,0,0,1,10.378.112,26.586,26.586,0,0,1,33.229,18.042Z" transform="translate(33.619 271.858)" fill="none" stroke="#64edff" stroke-linecap="round" stroke-miterlimit="10" stroke-width="1.5"/><path d="M200.181,152.095,177.241,69.38C162.178,9.411,113.35-10.2,53.38,4.839c-65.849,16.541-64.964,66.417-28.8,137.235,9.4,18.377,48.723,69.308,48.723,69.308Z" transform="translate(120.056 140.127)" fill="url(#c)"/><path d="M31.889,86.937C16.6,89.715,13.975,86.523,10.9,74.326l-.918-4.06h0L3.427,41.374,0,26.261,42.145,0l12.8,64.151C58.037,76.381,42.364,84.98,31.889,86.937Z" transform="translate(143.196 71.411)" fill="#f0beb4"/><path d="M6.553,31.808h0L0,2.915,37.313,0S38.6,36.225,6.553,31.808Z" transform="translate(146.623 109.821)" fill="#b48f87"/><path d="M70.351.351c-18.092-2.712-23.736,10.881-35.1,20.228-4.385,3.6-12.4,9.119-18.409,11C11.559,33.2-.752,24.948.036,30.243c2.7,18.027,18.385,18.9,26.44,30.379,6.09,8.673,13.8,32.011,13.8,32.011s40.6-5.449,48.779-8.007a16.647,16.647,0,0,0,9.663-7.633s13.594-20.65,10.037-41.414C104.773,12.751,95.427,4.119,70.351.351Z" transform="translate(93.438 18.829)" fill="url(#d)"/><path d="M47.082,0c-3.808,6.5-11.75,12.091-18.945,18.3C18.709,26.424,8.551,32.62,0,34.764L2.436,55.877c4.872,23.395,16.72,28.657,33.359,26.871C45.539,80.815,64.452,66,62.657,49.372L59.929,24.061C59.474,9.241,55.536,6.082,47.082,0Z" transform="translate(125.883 46.286)" fill="#f0beb4"/><path d="M5.26,2.528A2.615,2.615,0,1,1,4.42.693,2.631,2.631,0,0,1,5.26,2.528Z" transform="translate(138.163 79.326)" fill="#1b4736"/><path d="M4.662,4.414A2.7,2.7,0,0,1,0,2.709,2.647,2.647,0,0,1,2.526,0,2.677,2.677,0,0,1,4.662,4.414Z" transform="translate(167.589 76.327)" fill="#1b4736"/><path d="M25.726,15.851A21.219,21.219,0,0,1,0,.422L1.681,0A19.489,19.489,0,0,0,25.3,14.138Z" transform="translate(125.566 96.357)" fill="#475269"/><path d="M6.4,2.471A3.248,3.248,0,1,1,4.919.462,3.248,3.248,0,0,1,6.4,2.471Z" transform="translate(148.291 107.341)" fill="#475269"/><path d="M12.32.057A3.312,3.312,0,0,0,13.067,0l3.3,27.658-.747.138A13.967,13.967,0,0,1,12.32.057Z" transform="translate(108.853 71.208)" fill="url(#e)"/><path d="M2.916,28.154a3.451,3.451,0,0,0,3.841,3.021h0a3.467,3.467,0,0,0,3.021-3.841L6.887,3.045A3.459,3.459,0,0,0,3.046.024h0A3.443,3.443,0,0,0,.025,3.857Z" transform="translate(117.949 69.527)" fill="#fff"/><path d="M68.049,37.848l-2.168.544C62.089,20.3,53.587,7.859,40.31,4.229,27.658.77,17.272,2.686,2.712,12.813L0,13.958C11.166,2.93,26.456-2.511,39.79,1.119,53.765,4.952,64.111,19.057,68.049,37.848Z" transform="translate(125.518 24.062)" fill="#fff"/><path d="M.739.067A4.526,4.526,0,0,0,0,.188L3.248,27.855,4,27.806A13.967,13.967,0,0,0,.747.067Z" transform="translate(189.953 61.072)" fill="url(#f)"/><path d="M9.745,27.341a3.467,3.467,0,0,1-3.029,3.841h0a3.451,3.451,0,0,1-3.833-3.029L.025,3.857A3.443,3.443,0,0,1,3.046.024h0A3.451,3.451,0,0,1,6.878,3.053Z" transform="translate(187.419 59.41)" fill="#fff"/><path d="M2.939,23.233a3.662,3.662,0,0,1-1.957-.439c-1.624-1.056-.869-3.321-.317-4.97.13-.4.26-.763.325-1.064.325-1.38.682-2.745,1.031-4.109.447-1.7.9-3.451,1.275-5.181A27.366,27.366,0,0,0,3.735,4.06,24.613,24.613,0,0,1,4.328,0L6.017.455a23.289,23.289,0,0,0-.544,3.792A29.412,29.412,0,0,1,5,7.877c-.382,1.762-.812,3.532-1.283,5.246-.357,1.348-.706,2.7-1.023,4.06a11.243,11.243,0,0,1-.374,1.226c-.309.918-.885,2.631-.39,2.948s2.582,0,3.792-.154a12.3,12.3,0,0,1,2.631-.252L8.2,22.689a12.067,12.067,0,0,0-2.2.244,21.113,21.113,0,0,1-3.061.3Z" transform="translate(147.792 74.594)" fill="#fff"/><path d="M32.09,11.521c-4.872,5.035-10.922,12.546-18.913,10.8C7.29,21.038-.238,17.757.006,27.193.152,33.04,4.18,39.179,7.948,43.434,18.407,55.249,35.955,58.587,50.466,53.479c14.162-4.986,32.222-14.674,29.81-30.858-.869-5.839-8.258-15.307-12.993-18.945C56.142-4.785,40.446,2.856,32.09,11.521Z" transform="translate(91.008 21.343)" fill="url(#g)"/><path d="M1,3.776A6.269,6.269,0,0,1,0,3.7L.276,1.981C2.4,2.314,7.333.893,9.915,0l.568,1.624C9.379,2.03,4.2,3.776,1,3.776Z" transform="translate(163.294 64.436)" fill="#1b4736"/><path d="M64.092,18.173c-1.145,1.088-2.274,2.111-3.419,3.053l-.593.512A63.21,63.21,0,0,1,49.037,29.12l-.674.341A52.62,52.62,0,0,1,36.483,33.8c-.244.065-.487.114-.715.162A50.266,50.266,0,0,1,25.6,35.145h-.731a55.048,55.048,0,0,1-9.152-.771L15,34.235a54.2,54.2,0,0,1-7-1.762c-.244-.073-.471-.146-.7-.235A51.159,51.159,0,0,1,1.419,29.85L1,29.639l-.244-.146a2.314,2.314,0,0,1-.5-2.769l3.857-7.8a1.527,1.527,0,0,1,1.3-.909h.211l.577.073a35.592,35.592,0,0,0,3.565.26H10.5a41.934,41.934,0,0,0,7.528-.585c.26-.049.512-.081.771-.146a51.476,51.476,0,0,0,8.575-2.355c.26-.081.52-.179.812-.276A65.28,65.28,0,0,0,35.817,11.5c.244-.122.479-.252.715-.39A76.8,76.8,0,0,0,43.45,6.853l.642-.455c2.193-1.535,4.06-2.988,5.449-4.166l.609-.5c.609-.536,1.129-.983,1.543-1.364a1.34,1.34,0,0,1,2.063.276L64.312,15.193a2.363,2.363,0,0,1-.219,2.98Z" transform="translate(146.227 128.888)" fill="url(#h)"/><path d="M5.433.081.666,11.831.244,11.62,0,11.474,4.661,0h.211Z" transform="translate(146.98 146.899)" fill="#fff"/><path d="M3.134.008.7,14.113c-.244-.073-.471-.146-.7-.235L2.436,0A6.479,6.479,0,0,0,3.134.008Z" transform="translate(153.59 147.272)" fill="#fff"/><path d="M3.776,0,.715,16.736,0,16.6,3,.146C3.264.1,3.516.065,3.776,0Z" transform="translate(161.231 146.55)" fill="#fff"/><path d="M3.264,0,.731,20.114H0L2.485.252A5.8,5.8,0,0,0,3.264,0Z" transform="translate(171.098 143.919)" fill="#fff"/><path d="M.763,0V22.648c-.244.065-.487.114-.715.162V.39C.292.268.528.138.763,0Z" transform="translate(181.947 140.037)" fill="#fff"/><path d="M5.595,22.68l-.674.341L0,.455.642,0Z" transform="translate(189.628 135.327)" fill="#fff"/><path d="M11.149,19.481l-.593.512L0,.5.609,0Z" transform="translate(195.711 130.633)" fill="#fff"/><path d="M0,41.544S86.385,42.356,159.7,0" transform="translate(119.931 172.77)" fill="none" stroke="#64edff" stroke-linecap="round" stroke-miterlimit="10" stroke-width="1.5"/><path d="M0,0S18.157,101.968,43.469,130.739" transform="translate(188.524 204.432)" fill="none" stroke="#64edff" stroke-linecap="round" stroke-miterlimit="10" stroke-width="1.5"/><path d="M0,12s39.9,89.455,102.131,97.445,17.053-67.895,17.053-67.895S23.663-27,0,12Z" transform="translate(231.993 141.991)" fill="url(#i)"/><path d="M0,0S78.939,13.545,90.519,31.329" transform="translate(239.447 155.011)" fill="none" stroke="#64edff" stroke-linecap="round" stroke-miterlimit="10" stroke-width="1.5"/><path d="M94.558,48.11h0a1.25,1.25,0,0,1-.065-.154l-.049-.106-.049-.114a6.439,6.439,0,0,0-2.558-3.143l-.317-.187h0L53.664,22.547,15.806.678h0L15.489.5A3.1,3.1,0,0,0,12.363.353h-.081l-.073.041L7.215,3.334,10.1,4.56l-10,53A7.625,7.625,0,0,0,.637,61.8l.049.114.049.106A6.5,6.5,0,0,0,3.3,65.171l75.52,43.607-.69,3.329,4.734-2.745.073-.041a3.9,3.9,0,0,0,1.876-2.834l10.24-54.277A7.585,7.585,0,0,0,94.558,48.11Z" transform="translate(472.46 183.436)" fill="url(#j)"/><path d="M79.591,109.246,3.259,65.16C.953,63.82-.452,60.247.133,57.169L10.21,3.664C10.795.586,13.133-.835,15.448.5L91.78,44.591c2.306,1.34,3.711,4.913,3.126,7.991L84.821,106.062C84.244,109.164,81.9,110.585,79.591,109.246Z" transform="translate(467.597 186.273)" fill="url(#k)"/><path d="M49.721,21.868,11.864,0,0,62.9,37.533,86.523c2.436,1.437,4.929.276,5.465-2.59l10.24-54.277A7.893,7.893,0,0,0,49.721,21.868Z" transform="translate(509.346 208.817)" fill="url(#l)"/><path d="M15.791.616l37.857,21.86L41.858,85,3.594,65.3A7.9,7.9,0,0,1,.086,57.508L10.318,3.231C10.862.34,13.306-.821,15.791.616Z" transform="translate(467.562 186.341)" fill="url(#m)"/><path d="M0,14.909a7.471,7.471,0,0,0,3.029,3.7L78.752,62.341a3.589,3.589,0,0,0,3.695.187L48.52,0Z" transform="translate(468.127 233)" fill="url(#n)"/><path d="M82.447,48.042a7.528,7.528,0,0,0-3.037-3.7L3.695.611A3.589,3.589,0,0,0,0,.424L33.927,62.951Z" transform="translate(479.658 186.346)" fill="url(#o)"/><path d="M1.522,126.491h0l.171-.4a.834.834,0,0,1,.114-.284c.041-.1.081-.2.13-.3a17.009,17.009,0,0,1,6.74-8.267l.812-.479h0l99.54-57.493,99.54-57.493h0l.812-.471a8.194,8.194,0,0,1,8.234-.374l.195.106.2.106L231.152,8.72l-7.576,3.248,26.3,139.355a19.668,19.668,0,0,1-1.429,11.125l-.122.3-.122.284a17.008,17.008,0,0,1-6.748,8.275L42.929,285.96l1.827,8.746L32.3,287.495l-.195-.106c-2.436-1.3-4.255-3.865-4.937-7.463L.256,137.218A19.6,19.6,0,0,1,1.522,126.491Z" transform="translate(170.712 123.96)" fill="url(#p)"/><path d="M40.636,287.245,241.357,171.318c6.066-3.508,9.745-12.911,8.226-21.008L223.045,9.632c-1.527-8.12-7.682-11.815-13.756-8.307L8.568,117.252C2.5,120.76-1.176,130.163.342,138.26L26.88,278.938C28.406,287.034,34.562,290.753,40.636,287.245Z" transform="translate(183.732 131.404)" fill="url(#q)"/><path d="M9.513,57.493,109.053,0l31.191,165.373L41.572,227.51c-6.5,3.768-12.993.715-14.381-6.821L.28,77.956C-1.141,70.42,2.992,61.261,9.513,57.493Z" transform="translate(183.608 190.692)" fill="url(#r)"/><path d="M99.557,1.6,0,59.116,31,223.449l100.612-51.833c6.5-3.768,10.654-12.928,9.233-20.464L113.922,8.444C112.5.908,106.053-2.145,99.557,1.6Z" transform="translate(292.661 131.577)" fill="url(#s)"/><path d="M216.8,39.132a19.554,19.554,0,0,1-7.966,9.745L9.745,163.87c-3.524,2.038-7.016,2.063-9.745.487L89.227,0Z" transform="translate(215.435 254.332)" fill="url(#t)"/><path d="M0,126.341A19.651,19.651,0,0,1,7.974,116.6L207.071,1.6c3.524-2.03,7.024-2.063,9.745-.487L127.58,165.481Z" transform="translate(185.146 131.572)" fill="url(#u)"/><rect width="2.566" height="2.566" transform="translate(477.817 272.344) rotate(45)" fill="#fff"/><rect width="2.566" height="2.566" transform="translate(484.362 272.329) rotate(45)" fill="#fff"/><rect width="2.566" height="2.566" transform="translate(481.098 269.069) rotate(45)" fill="#fff"/><rect width="2.566" height="2.566" transform="translate(481.081 275.612) rotate(45)" fill="#fff"/><rect width="27.236" height="4.418" transform="translate(416.538 330.096)" fill="#fff"/><rect width="27.236" height="4.418" transform="translate(450.043 330.096)" fill="#fff"/><path d="M0,5.782V0H23.891V5.782Z" transform="translate(416.449 339.832)" fill="#fff"/><rect width="7.373" height="4.418" transform="translate(416.538 350.689)" fill="#fff"/><path d="M83.6,32.132a42.421,42.421,0,1,1-19.343-26.1A42.429,42.429,0,0,1,83.6,32.132Z" transform="translate(239.447 0.804)" fill="#fff"/><path d="M29.454,26.809a4.041,4.041,0,0,0-4,2.988c-.2,1.015.041,2.282-.812,2.923a2.436,2.436,0,0,1-2.144.13c-3.573-.966-12.993-11.84-13.366-15.5a2.436,2.436,0,0,1,.439-2.119c.755-.723,1.973-.284,3.013-.333a4.108,4.108,0,0,0,3.557-3.532,9.574,9.574,0,0,0-.9-5.246,11.125,11.125,0,0,0-3.589-5.1C6.725-2.376,2.178,3.454.838,7.677a20.593,20.593,0,0,0-.666,8.47C.8,22.172,16.478,40.362,22.357,41.888a20.821,20.821,0,0,0,8.453.585c4.393-.7,10.816-4.336,8.194-9.745a10.987,10.987,0,0,0-4.474-4.239,9.468,9.468,0,0,0-5.075-1.681Z" transform="translate(262.987 21.857)" fill="#64edb2"/><path d="M104.969,60.7A52.783,52.783,0,1,1,60.761.608,52.783,52.783,0,0,1,104.969,60.7Z" transform="translate(348.241 1.479)" fill="#64edb2"/><path d="M46.733,7.122,0,0,21.17,18.035,46.733,7.122Z" transform="translate(380.418 32.709)" fill="#fff"/><path d="M31.239,22.38,4.937,0,0,32.417l58.037,8.851L62.974,8.843,31.239,22.38Z" transform="translate(369.285 35.348)" fill="#fff"/><path d="M63.426,24.356A32.189,32.189,0,1,1,48.741,4.572,32.2,32.2,0,0,1,63.426,24.356Z" transform="translate(440.788 109.136)" fill="#dde6fa"/><path d="M.379,10.792l8.6-2.152A27.09,27.09,0,0,1,8.321,1,27.609,27.609,0,0,1,1.556,0,17.361,17.361,0,0,0,.379,10.792Z" transform="translate(455.576 134.133)" fill="#fff"/><path d="M8.6,0,0,2.128A17.248,17.248,0,0,0,6.131,11.06,27.756,27.756,0,0,1,11.628,7,27.1,27.1,0,0,1,8.6,0Z" transform="translate(456.271 144.04)" fill="#fff"/><path d="M6.4,0,0,1.624a26.456,26.456,0,0,0,2.931,6.74A28.056,28.056,0,0,1,7.982,6.423Z" transform="translate(466.113 142.108)" fill="#fff"/><path d="M7.035,6.407,5.411,0A28.219,28.219,0,0,1,.044.674a26.359,26.359,0,0,0,.6,7.308Z" transform="translate(465.16 134.45)" fill="#fff"/><path d="M4.645,0A27.488,27.488,0,0,0,0,1.77,26.1,26.1,0,0,0,6.8,8.551Z" transform="translate(469.792 149.798)" fill="#fff"/><path d="M5.027,0A27.934,27.934,0,0,1,0,1.933L1.624,8.34,7.982,6.716A25.685,25.685,0,0,0,5.027,0Z" transform="translate(471.862 132.193)" fill="#fff"/><path d="M2.152,8.559A27.285,27.285,0,0,0,6.781,6.8,25.985,25.985,0,0,0,0,0L2.152,8.559Z" transform="translate(469.394 124.3)" fill="#fff"/><path d="M4.97,8.559,2.818,0A26.27,26.27,0,0,0,0,9.192a27.39,27.39,0,0,0,4.97-.633Z" transform="translate(465.301 124.616)" fill="#fff"/><path d="M6.269,8.591A27.553,27.553,0,0,1,8.624,0,17.41,17.41,0,0,0,0,7.706,26.18,26.18,0,0,0,6.269,8.591Z" transform="translate(457.733 125.225)" fill="#fff"/><path d="M5.108,0A25.985,25.985,0,0,0,0,3.735,17.37,17.37,0,0,0,11.239,6.464,27.609,27.609,0,0,1,5.108,0Z" transform="translate(463.506 152.193)" fill="#fff"/><path d="M0,.633,2.152,9.184A25.815,25.815,0,0,0,4.921,0,27.764,27.764,0,0,0,0,.633Z" transform="translate(475.711 148.848)" fill="#fff"/><path d="M2.355,0A27.22,27.22,0,0,1,0,8.591,17.3,17.3,0,0,0,8.632.877,25.888,25.888,0,0,0,2.355,0Z" transform="translate(479.609 148.848)" fill="#fff"/><path d="M6.123,6.554a26.911,26.911,0,0,0,5.14-3.744A17.443,17.443,0,0,0,0,.09,27.3,27.3,0,0,1,6.123,6.554Z" transform="translate(471.229 123.909)" fill="#fff"/><path d="M0,1.583,1.624,7.974a27.48,27.48,0,0,1,5.343-.666A25.726,25.726,0,0,0,6.383,0L.016,1.624Z" transform="translate(473.787 140.224)" fill="#fff"/><path d="M8.591,0,0,2.152A28.048,28.048,0,0,1,.625,9.8a27.756,27.756,0,0,1,6.8.974A17.24,17.24,0,0,0,8.591,0Z" transform="translate(481.436 137.731)" fill="#fff"/><path d="M3.061,11.125l8.591-2.193A17.272,17.272,0,0,0,5.53,0,27.187,27.187,0,0,1,0,4.06a28.422,28.422,0,0,1,3.061,7.065Z" transform="translate(478.058 127.491)" fill="#fff"/><path d="M0,8.185S6.683,10.906,15.575,0c0,0-2.769,9.33-5.262,10.954S0,8.185,0,8.185Z" transform="translate(157.488 97.827)" fill="#fff"/><path d="M44.862,72.018c2.867-3.784-12.993-18.677-9-20.658s3.6-5.035,8.859-10.061,8.681-6.212,9.225-9.119-1.624-6.22-6.537-4.06-7.861,3.476-10.077,8.12c0,0-3.589-6.894-1.3-12.7s4.547-17.053-.057-19.31-5.083,1.186-5.9,5.595-2.128,15.559-2.128,15.559S26.055,4.894,24.7,1.752,17.756-.14,17.643,4.188s3,21.519,3,21.519S14.874,11.724,13.956,8.516,7.305,7.062,7.736,10.14s4.872,16.014,4.872,16.014S7.63,17.79,5.04,14.574s-5.814-.625-4.872,2.59,6.245,10.557,6.7,13.8,1.811,16.444,3.4,19.319,4.06,25.32,4.832,30.7S39.227,79.48,44.862,72.018Z" transform="translate(0.076 100.184)" fill="url(#v)"/><path d="M3.815,0S.429,9.915.648,15.664C.648,15.664-2.129,3.541,3.815,0Z" transform="translate(25.613 137.52)" fill="#b36814"/><path d="M0,0S7.308,4.921,7.024,8.932C7.024,8.965,9.1,3.1,0,0Z" transform="translate(14.3 134.718)" fill="#b36814"/><path d="M91.176,44.086S38,102.61,24.654,93.133,0,0,0,0" transform="translate(35.015 175.239)" fill="none" stroke="#64edff" stroke-linecap="round" stroke-miterlimit="10" stroke-width="1.5"/><path d="M29.022,14.249A27.609,27.609,0,0,1,0,1.338,23.046,23.046,0,0,1,29.022,14.249Z" transform="translate(33.919 277.42)" fill="url(#w)"/></g></svg>