<svg id="_04_CONSISTENCY" data-name="04_CONSISTENCY" xmlns="http://www.w3.org/2000/svg" xmlns:xlink="http://www.w3.org/1999/xlink" width="368.377" height="276.284" viewBox="0 0 368.377 276.284">
  <defs>
    <linearGradient id="linear-gradient" x1="0.5" y1="1" x2="0.5" gradientUnits="objectBoundingBox">
      <stop offset="0" stop-color="#779dea"/>
      <stop offset="0.1" stop-color="#91b0ee"/>
      <stop offset="0.23" stop-color="#adc3f2"/>
      <stop offset="0.38" stop-color="#c2d3f6"/>
      <stop offset="0.54" stop-color="#d1def8"/>
      <stop offset="0.72" stop-color="#dae4fa"/>
      <stop offset="1" stop-color="#dde6fa"/>
    </linearGradient>
    <linearGradient id="linear-gradient-2" y1="0.5" x2="0.999" y2="0.5" gradientUnits="objectBoundingBox">
      <stop offset="0" stop-color="#dde6fa"/>
      <stop offset="0.28" stop-color="#dae4fa"/>
      <stop offset="0.46" stop-color="#d1def8"/>
      <stop offset="0.62" stop-color="#c2d3f6"/>
      <stop offset="0.77" stop-color="#adc3f2"/>
      <stop offset="0.9" stop-color="#91b0ee"/>
      <stop offset="1" stop-color="#779dea"/>
    </linearGradient>
    <linearGradient id="linear-gradient-3" y1="0.5" x2="1" y2="0.5" gradientUnits="objectBoundingBox">
      <stop offset="0.16" stop-color="#fff"/>
      <stop offset="0.23" stop-color="#fbfffd" stop-opacity="0.969"/>
      <stop offset="0.34" stop-color="#effdf7" stop-opacity="0.902"/>
      <stop offset="0.47" stop-color="#dcfbee" stop-opacity="0.769"/>
      <stop offset="0.61" stop-color="#c1f8e0" stop-opacity="0.6"/>
      <stop offset="0.77" stop-color="#9ff4cf" stop-opacity="0.38"/>
      <stop offset="0.93" stop-color="#76efbb" stop-opacity="0.11"/>
      <stop offset="1" stop-color="#64edb2" stop-opacity="0"/>
    </linearGradient>
    <linearGradient id="linear-gradient-4" y1="0.5" x2="1" y2="0.5" gradientUnits="objectBoundingBox">
      <stop offset="0" stop-color="#779dea"/>
      <stop offset="0.4" stop-color="#a5bef1"/>
      <stop offset="0.8" stop-color="#cedbf8"/>
      <stop offset="1" stop-color="#dde6fa"/>
    </linearGradient>
    <linearGradient id="linear-gradient-5" y1="0.5" x2="1" y2="0.5" gradientUnits="objectBoundingBox">
      <stop offset="0" stop-color="#366fe0"/>
      <stop offset="0.25" stop-color="#366fe0"/>
      <stop offset="0.45" stop-color="#2f63d1"/>
      <stop offset="0.84" stop-color="#1b43a9"/>
      <stop offset="1" stop-color="#123597"/>
    </linearGradient>
    <linearGradient id="linear-gradient-6" y1="0.5" x2="1" y2="0.5" gradientUnits="objectBoundingBox">
      <stop offset="0" stop-color="#dde6fa"/>
      <stop offset="0.17" stop-color="#d8e2f9"/>
      <stop offset="0.39" stop-color="#c8d7f7"/>
      <stop offset="0.62" stop-color="#afc5f3"/>
      <stop offset="0.88" stop-color="#8babed"/>
      <stop offset="1" stop-color="#779dea"/>
    </linearGradient>
    <linearGradient id="linear-gradient-7" x2="1" xlink:href="#linear-gradient-4"/>
    <linearGradient id="linear-gradient-8" y1="0.5" x2="1" y2="0.5" gradientUnits="objectBoundingBox">
      <stop offset="0" stop-color="#4e54c8"/>
      <stop offset="1" stop-color="#8f94fb"/>
    </linearGradient>
    <linearGradient id="linear-gradient-9" y1="0.5" x2="1" y2="0.5" gradientUnits="objectBoundingBox">
      <stop offset="0" stop-color="#fb9f02"/>
      <stop offset="0.32" stop-color="#fb9f02"/>
      <stop offset="1" stop-color="#fc4c5c"/>
    </linearGradient>
    <linearGradient id="linear-gradient-10" x1="-0.001" y1="0.5" x2="1" y2="0.5" xlink:href="#linear-gradient-8"/>
    <linearGradient id="linear-gradient-11" y1="0.5" x2="1" y2="0.5" xlink:href="#linear-gradient-2"/>
    <linearGradient id="linear-gradient-12" y1="0.5" x2="1" y2="0.5" xlink:href="#linear-gradient-2"/>
    <linearGradient id="linear-gradient-13" x1="0.159" y1="0.115" x2="0.841" y2="0.886" xlink:href="#linear-gradient-8"/>
  </defs>
  <path id="Path" d="M297.943,180.393c-16.358,26.38-42.2,49.544-71.191,54.68-34.712,6.151-58.464-16.358-91.148-32.269a157.691,157.691,0,0,0-21.517-8.724,128.38,128.38,0,0,0-50.918-5.355c-19.63,1.734-34.57,6.947-46.894-2.726A35.585,35.585,0,0,1,6.82,174.156C-4.641,151.974-2,114.1,17.366,95.538c20.546-19.63,50.547-8.6,65.978-32.717,7.089-11.08,2.268-15.8,8.179-27.264C106.944,5.644,164.754-10.606,203.3,7.748c27.329,13.021,21.331,32.182,62.161,64.888,29.576,23.7,40.83,20.142,47.439,34.352C321.248,124.906,314.236,154.231,297.943,180.393Z" transform="translate(49.474 12.329)" fill="url(#linear-gradient)"/>
  <path id="Path-2" data-name="Path" d="M0,59.751,67.342.73a2.857,2.857,0,0,1,4.144.349h0a2.868,2.868,0,0,1-.469,4.09Z" transform="translate(3.762 105.795)" fill="url(#linear-gradient-2)"/>
  <circle id="Oval" cx="25.312" cy="25.312" r="25.312" transform="translate(197.902 0)" fill="url(#linear-gradient-3)"/>
  <path id="Path-3" data-name="Path" d="M168.447,126.678H0L42.717,0h149.9a7.5,7.5,0,0,1,7.252,9.433Z" transform="translate(143.451 72.522)" fill="url(#linear-gradient-4)"/>
  <path id="Path-4" data-name="Path" d="M168.49,126.679H0L41.441,3.741A5.453,5.453,0,0,1,46.654,0H202.439Z" transform="translate(134.541 72.522)" fill="url(#linear-gradient-5)"/>
  <path id="Path-5" data-name="Path" d="M253.182,0,252.6,2.028a17.852,17.852,0,0,1-17.176,12.988H7.5A7.5,7.5,0,0,1,0,7.5H0A7.5,7.5,0,0,1,7.5,0Z" transform="translate(58.77 199.211)" fill="url(#linear-gradient-6)"/>
  <path id="Path-6" data-name="Path" d="M125.043,0l-.578,2.028a17.852,17.852,0,0,1-17.176,12.988H10.229A10.229,10.229,0,0,1,0,4.777V0Z" transform="translate(186.91 199.211)" fill="url(#linear-gradient-7)"/>
  <circle id="Oval-2" data-name="Oval" cx="13.708" cy="13.708" r="13.708" transform="translate(340.961 166.734)" fill="#dde6fa"/>
  <path id="Path-7" data-name="Path" d="M139.366,106.449H8.663A8.659,8.659,0,0,1,.462,95L30.671,5.889A8.659,8.659,0,0,1,38.883,0H164.231a8.724,8.724,0,0,1,8.343,10.993L147.763,100.1A8.724,8.724,0,0,1,139.366,106.449Z" transform="translate(149.63 85.172)" fill="url(#linear-gradient-8)"/>
  <path id="Path-8" data-name="Path" d="M122.958,96.176H10.369A10.393,10.393,0,0,1,.554,82.435L26.117,7.067A10.393,10.393,0,0,1,35.932,0H143.973a10.4,10.4,0,0,1,9.989,13.185L132.98,88.542A10.4,10.4,0,0,1,122.958,96.176Z" transform="translate(159.026 90.309)" fill="url(#linear-gradient-9)"/>
  <path id="Path-9" data-name="Path" d="M30.968,24.254H2.613A2.628,2.628,0,0,1,.138,20.786L6.583,1.778A2.606,2.606,0,0,1,9.015,0H36.279A2.617,2.617,0,0,1,38.8,3.272L33.509,22.28a2.628,2.628,0,0,1-2.541,1.974Z" transform="translate(185.103 94.998)" fill="url(#linear-gradient-10)"/>
  <path id="Path-10" data-name="Path" d="M15.617,5.5H2.749a2.748,2.748,0,0,1-2.6-3.653h0A2.759,2.759,0,0,1,2.749,0H15.617a2.748,2.748,0,0,1,2.6,3.653h0A2.759,2.759,0,0,1,15.617,5.5Z" transform="translate(189.319 124.279)" fill="#fff"/>
  <path id="Path-11" data-name="Path" d="M11.512,4.079H2.035A2.039,2.039,0,0,1,.115,1.363h0A2.039,2.039,0,0,1,2.035,0h9.521a2.028,2.028,0,0,1,1.919,2.7h0a2.039,2.039,0,0,1-1.963,1.374Z" transform="translate(177.906 146.505)" fill="#fff"/>
  <path id="Path-12" data-name="Path" d="M11.545,4.068H2.035a2.028,2.028,0,0,1-1.919-2.7h0A2.028,2.028,0,0,1,2.035,0h9.51a2.039,2.039,0,0,1,1.93,2.7h0a2.039,2.039,0,0,1-1.93,1.363Z" transform="translate(174.187 155.065)" fill="#fff"/>
  <path id="Path-13" data-name="Path" d="M11.551,4.068H2.031a2.039,2.039,0,0,1-1.919-2.7h0A2.039,2.039,0,0,1,2.031,0h9.521a2.028,2.028,0,0,1,1.919,2.7h0a2.028,2.028,0,0,1-1.919,1.363Z" transform="translate(170.505 163.626)" fill="#fff"/>
  <path id="Path-14" data-name="Path" d="M11.545,4.068H2.035a2.028,2.028,0,0,1-1.919-2.7h0A2.028,2.028,0,0,1,2.035,0h9.51a2.039,2.039,0,0,1,1.93,2.7h0A2.039,2.039,0,0,1,11.545,4.068Z" transform="translate(166.826 172.187)" fill="#fff"/>
  <path id="Path-15" data-name="Path" d="M0,62.37,73.525.307A1.32,1.32,0,0,1,75.39.481h0a1.32,1.32,0,0,1-.2,1.854Z" transform="translate(0 92.39)" fill="url(#linear-gradient-11)"/>
  <path id="Path-16" data-name="Path" d="M0,49.075,56.163.469A1.919,1.919,0,0,1,58.9.7h0A1.919,1.919,0,0,1,58.6,3.435Z" transform="translate(28.9 110.964)" fill="url(#linear-gradient-12)"/>
  <circle id="Oval-3" data-name="Oval" cx="9.401" cy="9.401" r="9.401" transform="translate(248.264 130.364)" fill="#e3e3e3"/>
  <ellipse id="Oval-4" data-name="Oval" cx="41.823" cy="32.771" rx="41.823" ry="32.771" transform="matrix(0.749, -0.663, 0.663, 0.749, 203.413, 141.575)" fill="#64edb2"/>
  <ellipse id="Oval-5" data-name="Oval" cx="35.039" cy="27.46" rx="35.039" ry="27.46" transform="matrix(0.749, -0.663, 0.663, 0.749, 212.012, 141.055)" fill="url(#linear-gradient-13)"/>
  <path id="Shape" d="M.736,24.766C4.084,11.08,17.879,0,31.555,0S53.607,11.091,50.27,24.766,33.125,49.532,19.45,49.532-2.612,38.452.736,24.766Z" transform="translate(230.951 113.635)" fill="#64edb2"/>
  <ellipse id="Oval-6" data-name="Oval" cx="15.071" cy="11.811" rx="15.071" ry="11.811" transform="matrix(0.749, -0.663, 0.663, 0.749, 237.337, 139.536)" fill="#64edb2"/>
  <ellipse id="Oval-7" data-name="Oval" cx="4.733" cy="3.708" rx="4.733" ry="3.708" transform="matrix(0.749, -0.663, 0.663, 0.749, 250.448, 138.749)" fill="#fff"/>
  <path id="Path-17" data-name="Path" d="M50.634,1.01A2.181,2.181,0,0,0,47.69.3L5.453,26.049l1.472-6.042L2.181,22.9,0,31.883l8.986,2.181,4.744-2.89L7.688,29.713,49.915,3.954A2.181,2.181,0,0,0,50.634,1.01Z" transform="translate(254.524 107.838)" fill="#fff"/>
  <path id="Path-18" data-name="Path" d="M1.366,7.22c-2.072,3.806-1.527,8.528-.087,12.618,1.211,3.413,3.73,7.078,7.339,6.98,5.725-.164,11.156,2.661,15.562,6.314S32.2,41.289,36.264,45.313c2.323,2.29,5.322,4.58,8.517,3.893a6.87,6.87,0,0,0,4.864-5.453,14.657,14.657,0,0,0-.894-7.634,13.566,13.566,0,0,0-4.493-6.87,25.955,25.955,0,0,0-5.071-2.377A22.9,22.9,0,0,1,27.441,15.05c-2.5-5.845-4.362-13.643-11.9-14.919C10.418-.73,3.787,2.749,1.366,7.22Z" transform="translate(139.413 226.954)" fill="#dde6fa"/>
  <path id="Path-19" data-name="Path" d="M0,27.155V0L24.941,2.214,0,27.155Z" transform="translate(111.084 100.233)" fill="#05aa63"/>
  <path id="Path-20" data-name="Path" d="M49.9,28.867H0V0L49.936,3.882,49.9,28.867Z" transform="translate(86.11 73.634)" fill="#10c680"/>
  <path id="Path-21" data-name="Path" d="M56.033,24.985,0,31.113,31.048.055,56.033,0V24.985Z" transform="translate(104.966 27.558)" fill="#64edb2"/>
  <path id="Path-22" data-name="Path" d="M74.877,24.985H0L24.952,0H99.807L74.877,24.985Z" transform="translate(61.169 52.532)" fill="#2fdd96"/>
</svg>
