<svg xmlns="http://www.w3.org/2000/svg" xmlns:xlink="http://www.w3.org/1999/xlink" width="369.938" height="302.566" viewBox="0 0 369.938 302.566">
  <defs>
    <linearGradient id="linear-gradient" x1="0.5" y1="1" x2="0.5" gradientUnits="objectBoundingBox">
      <stop offset="0" stop-color="#779dea"/>
      <stop offset="0.1" stop-color="#91b0ee"/>
      <stop offset="0.23" stop-color="#adc3f2"/>
      <stop offset="0.38" stop-color="#c2d3f6"/>
      <stop offset="0.54" stop-color="#d1def8"/>
      <stop offset="0.72" stop-color="#dae4fa"/>
      <stop offset="1" stop-color="#dde6fa"/>
    </linearGradient>
    <linearGradient id="linear-gradient-2" x1="0.5" y1="1" x2="0.5" gradientUnits="objectBoundingBox">
      <stop offset="0" stop-color="#366fe0"/>
      <stop offset="0.25" stop-color="#366fe0"/>
      <stop offset="0.45" stop-color="#2f63d1"/>
      <stop offset="0.84" stop-color="#1b43a9"/>
      <stop offset="1" stop-color="#123597"/>
    </linearGradient>
    <linearGradient id="linear-gradient-3" y1="0.5" x2="1" y2="0.5" gradientUnits="objectBoundingBox">
      <stop offset="0" stop-color="#fb9f02"/>
      <stop offset="0.32" stop-color="#fb9f02"/>
      <stop offset="1" stop-color="#fc4c5c"/>
    </linearGradient>
    <linearGradient id="linear-gradient-4" x1="0.5" y1="1" x2="0.5" gradientUnits="objectBoundingBox">
      <stop offset="0" stop-color="#4e54c8"/>
      <stop offset="1" stop-color="#8f94fb"/>
    </linearGradient>
    <linearGradient id="linear-gradient-5" y1="0.5" x2="0.998" y2="0.5" xlink:href="#linear-gradient-3"/>
    <linearGradient id="linear-gradient-6" x1="-0.068" y1="0.599" x2="1.071" y2="0.403" xlink:href="#linear-gradient-4"/>
    <linearGradient id="linear-gradient-7" x1="0.4" y1="-0.068" x2="0.597" y2="1.071" gradientUnits="objectBoundingBox">
      <stop offset="0" stop-color="#dde6fa"/>
      <stop offset="0.17" stop-color="#d8e2f9"/>
      <stop offset="0.39" stop-color="#c8d7f7"/>
      <stop offset="0.62" stop-color="#afc5f3"/>
      <stop offset="0.88" stop-color="#8babed"/>
      <stop offset="1" stop-color="#779dea"/>
    </linearGradient>
    <linearGradient id="linear-gradient-8" x1="0.5" y1="1" x2="0.5" gradientUnits="objectBoundingBox">
      <stop offset="0.16" stop-color="#fff"/>
      <stop offset="0.23" stop-color="#fbfffd" stop-opacity="0.969"/>
      <stop offset="0.34" stop-color="#effdf7" stop-opacity="0.902"/>
      <stop offset="0.47" stop-color="#dcfbee" stop-opacity="0.769"/>
      <stop offset="0.61" stop-color="#c1f8e0" stop-opacity="0.6"/>
      <stop offset="0.77" stop-color="#9ff4cf" stop-opacity="0.38"/>
      <stop offset="0.93" stop-color="#76efbb" stop-opacity="0.11"/>
      <stop offset="1" stop-color="#64edb2" stop-opacity="0"/>
    </linearGradient>
    <linearGradient id="linear-gradient-9" x1="-0.002" y1="0.5" x2="1" y2="0.5" xlink:href="#linear-gradient-7"/>
    <linearGradient id="linear-gradient-10" y1="0.5" x2="0.999" y2="0.5" xlink:href="#linear-gradient-3"/>
  </defs>
  <g id="_05_QUALITY" data-name="05_QUALITY" transform="translate(0 -0.276)">
    <path id="Path" d="M348.015,181.742c-.438,4.929-1.042,9.845-1.789,14.7-8.648,54.733-36.034,73.934-71.167,82.71-37.4,9.33-66.547,3.861-126.4-24.825a222.2,222.2,0,0,0-61.412-19.046c-2.3-.373-5.379.232-7.953.373s-4.427-.167-4.9-2.123c-4.182-17.579-37.321,7.85-54.54-11.132C5.424,206.49-.74,180.236.07,153.983a13.97,13.97,0,0,1,.1-2.072c1.75-37.1,17.618-73.6,44.579-80.214C72.7,64.916,78.1,87.681,109.665,80.217,147.14,71.389,145.3,21.649,181.513,5.151c41.272-18.776,108.1,16.46,140.055,62.326q1.892,2.715,3.629,5.5a154.108,154.108,0,0,1,20.591,54.051A202.64,202.64,0,0,1,348.015,181.742Z" transform="translate(9.659 13.526)" fill="url(#linear-gradient)"/>
    <path id="Path-2" data-name="Path" d="M169.269,270.678,0,233.113,40.178,0,210.849,29.419l-41.58,241.259Z" transform="translate(65.697 32.164)" fill="url(#linear-gradient-2)"/>
    <rect id="Rectangle" width="4.324" height="93.495" transform="translate(138.865 98.656) rotate(-80.22)" fill="#fff"/>
    <rect id="Rectangle-2" data-name="Rectangle" width="4.324" height="116.157" transform="translate(129.229 82.961) rotate(-80.22)" fill="#fff"/>
    <path id="Path-3" data-name="Path" d="M0,0,.656,31.877a36.536,36.536,0,0,0,16.331-4.9Z" transform="translate(149.604 166.081)" fill="#fff"/>
    <path id="Path-4" data-name="Path" d="M0,0,18.017,28.505a36.639,36.639,0,0,0,15.2-22.753Z" transform="translate(150.891 163.121)" fill="url(#linear-gradient-3)"/>
    <path id="Path-5" data-name="Path" d="M34.85,40.847A36.729,36.729,0,0,0,6.01,0L0,34.85Z" transform="translate(149.707 125.35)" fill="url(#linear-gradient-4)"/>
    <path id="Path-6" data-name="Path" d="M27.025,0,0,20.758A36.664,36.664,0,0,0,22.045,33.524a37.076,37.076,0,0,0,5.662.528Z" transform="translate(119.851 163.957)" fill="#e6e6e6"/>
    <path id="Path-7" data-name="Path" d="M.543,30.5A36.549,36.549,0,0,0,2.833,50.885l1.132,2.432A37.321,37.321,0,0,0,6.81,58.04L35.418,36.471l.116-.656,2.458-14.272L41.724.347A36.7,36.7,0,0,0,.543,30.5Z" transform="translate(111.419 124.552)" fill="url(#linear-gradient-5)"/>
    <rect id="Rectangle-3" data-name="Rectangle" width="5.315" height="5.315" transform="translate(196.733 154.799) rotate(-80.22)" fill="#64edff"/>
    <rect id="Rectangle-4" data-name="Rectangle" width="2.033" height="34.258" transform="translate(206.916 154.89) rotate(-80.22)" fill="#fff"/>
    <rect id="Rectangle-5" data-name="Rectangle" width="5.315" height="5.315" transform="translate(195.282 163.299) rotate(-80.22)" fill="url(#linear-gradient-6)"/>
    <rect id="Rectangle-6" data-name="Rectangle" width="2.042" height="12.1" transform="translate(206.192 162.447) rotate(-80.256)" fill="#fff"/>
    <rect id="Rectangle-7" data-name="Rectangle" width="5.315" height="5.315" transform="translate(193.803 171.77) rotate(-80.22)" fill="url(#linear-gradient-7)"/>
    <rect id="Rectangle-8" data-name="Rectangle" width="2.033" height="27.45" transform="translate(203.991 171.869) rotate(-80.22)" fill="#fff"/>
    <rect id="Rectangle-9" data-name="Rectangle" width="5.315" height="5.315" transform="translate(192.362 180.27) rotate(-80.22)" fill="#fff"/>
    <rect id="Rectangle-10" data-name="Rectangle" width="2.033" height="20.475" transform="translate(202.517 180.357) rotate(-80.22)" fill="#fff"/>
    <rect id="Rectangle-11" data-name="Rectangle" width="5.315" height="5.315" transform="translate(190.85 188.928) rotate(-80.22)" fill="#e6e6e6"/>
    <rect id="Rectangle-12" data-name="Rectangle" width="2.033" height="31.053" transform="translate(201.027 189.028) rotate(-80.22)" fill="#fff"/>
    <rect id="Rectangle-13" data-name="Rectangle" width="2.033" height="11.428" transform="translate(134.85 204.885) rotate(-80.22)" fill="#999"/>
    <circle id="Oval" cx="34.026" cy="34.026" r="34.026" transform="translate(0 78.931)" fill="url(#linear-gradient-8)"/>
    <circle id="Oval-2" data-name="Oval" cx="29.651" cy="29.651" r="29.651" transform="translate(309.427 129.301)" fill="none" stroke="#fff" stroke-miterlimit="10" stroke-width="2.42"/>
    <path id="Path-8" data-name="Path" d="M0,12.329l12.342,28.48,7.631-15.893,17.1,5.148L24.04,0a4.35,4.35,0,0,0-1.6,2.754v.09a6.074,6.074,0,0,1-7.078,5.148h-.09a4.182,4.182,0,0,0-4.569,2.3v.09a6.049,6.049,0,0,1-3.6,3.089A5.958,5.958,0,0,1,2.407,13H2.342a3.925,3.925,0,0,0-2.3-.528Z" transform="translate(275.234 90.281)" fill="#fff"/>
    <path id="Path-9" data-name="Path" d="M4.208,0,0,31.735l14.722-9.7,12.02,13.242L30.809,4.388a4.3,4.3,0,0,0-2.574,1.287l-.077.064a5.843,5.843,0,0,1-4.273,1.815,6.023,6.023,0,0,1-4.35-1.892V5.585a4.208,4.208,0,0,0-5.045-.849l-.077.077a6.01,6.01,0,0,1-4.71.36,5.8,5.8,0,0,1-3.526-3.14V1.956A4.466,4.466,0,0,0,4.363.026Z" transform="translate(244.167 98.26)" fill="#fff"/>
    <path id="Path-10" data-name="Path" d="M66.226,7.855a2.921,2.921,0,0,1,2.226.541,2.831,2.831,0,0,1,1.171,1.969v.09a7.271,7.271,0,0,0,6.229,6.319h0a2.677,2.677,0,0,1,1.956,1.21,2.728,2.728,0,0,1,.515,2.239V20.3a7.335,7.335,0,0,0,3.964,7.94h.1a2.574,2.574,0,0,1,1.467,1.724,2.651,2.651,0,0,1-.219,2.291h0a7.4,7.4,0,0,0,1.287,8.79h.064a2.973,2.973,0,0,1,0,4.247h-.077a7.348,7.348,0,0,0-1.441,8.777h0a2.754,2.754,0,0,1,.18,2.291,2.805,2.805,0,0,1-1.519,1.724h-.09a7.284,7.284,0,0,0-4,8.159v.09a2.96,2.96,0,0,1-2.509,3.4h-.077a7.271,7.271,0,0,0-6.319,6.229h0a2.574,2.574,0,0,1-1.2,1.956,2.728,2.728,0,0,1-2.239.515h-.09a7.284,7.284,0,0,0-7.927,3.964v.077a2.973,2.973,0,0,1-4.054,1.287h0a7.284,7.284,0,0,0-8.79,1.287h0a2.921,2.921,0,0,1-4.208,0h0a7.3,7.3,0,0,0-8.751-1.454H31.8A2.947,2.947,0,0,1,27.786,82.3v-.077a7.258,7.258,0,0,0-7.876-4.067h-.077a2.96,2.96,0,0,1-3.4-2.574V75.5a7.3,7.3,0,0,0-6.242-6.319h-.077a2.805,2.805,0,0,1-1.969-1.21,2.715,2.715,0,0,1-.5-2.239V65.65a7.3,7.3,0,0,0-3.964-7.94H3.617a2.9,2.9,0,0,1-1.66-1.763,2.857,2.857,0,0,1,.219-2.291h0a7.3,7.3,0,0,0-1.287-8.79h0A2.831,2.831,0,0,1,0,42.73a2.741,2.741,0,0,1,.927-2.085h0a7.284,7.284,0,0,0,1.454-8.751v-.077a2.754,2.754,0,0,1-.18-2.291A2.844,2.844,0,0,1,3.63,27.634h.077A7.284,7.284,0,0,0,7.8,19.759v-.077a2.955,2.955,0,0,1,2.509-3.4h.09a7.3,7.3,0,0,0,6.319-6.242V9.965A2.857,2.857,0,0,1,17.915,8a2.793,2.793,0,0,1,2.239-.5h.09A7.245,7.245,0,0,0,28.172,3.53V3.466a2.883,2.883,0,0,1,4.015-1.287h.064A7.271,7.271,0,0,0,41.028.892h0a2.973,2.973,0,0,1,4.247,0h0a7.3,7.3,0,0,0,8.777,1.454h0a2.947,2.947,0,0,1,4.015,1.287v.077A7.284,7.284,0,0,0,65.943,7.8Z" transform="translate(225.828 18.982)" fill="#cdab6b"/>
    <path id="Path-11" data-name="Path" d="M69.368,7.953a6.782,6.782,0,0,1,7.876,5.817v.09a3.423,3.423,0,0,0,2.96,2.986h0A6.435,6.435,0,0,1,84.772,19.6a6.628,6.628,0,0,1,1.145,5.148v.077a3.385,3.385,0,0,0,1.866,3.758h.09A6.55,6.55,0,0,1,91.4,32.817a6.435,6.435,0,0,1-.5,5.264v.1a3.346,3.346,0,0,0,.618,4.131l.077.077a6.821,6.821,0,0,1-.077,9.793l-.077.064a3.385,3.385,0,0,0-.682,4.144v.077a6.628,6.628,0,0,1,.438,5.3,6.538,6.538,0,0,1-3.526,3.977h-.077a3.436,3.436,0,0,0-1.943,3.732v.09a6.756,6.756,0,0,1-5.817,7.876h-.09a3.436,3.436,0,0,0-2.986,2.986v.077a6.525,6.525,0,0,1-2.793,4.53A6.641,6.641,0,0,1,68.814,86.2h-.09a3.4,3.4,0,0,0-3.771,1.84v.09a6.628,6.628,0,0,1-4.028,3.462,6.538,6.538,0,0,1-5.3-.5h-.09a3.346,3.346,0,0,0-4.144.631l-.077.064a6.525,6.525,0,0,1-4.89,2.033,6.666,6.666,0,0,1-4.89-2.111v-.077a3.359,3.359,0,0,0-4.144-.669h-.077a6.782,6.782,0,0,1-9.279-3.1v-.077a3.449,3.449,0,0,0-3.745-1.943H24.21a6.756,6.756,0,0,1-7.876-5.817v-.09a3.436,3.436,0,0,0-2.947-3H13.31A6.64,6.64,0,0,1,8.767,74.14a6.525,6.525,0,0,1-1.158-5.148V68.85a3.41,3.41,0,0,0-1.892-3.758h-.09a6.756,6.756,0,0,1-2.934-9.33h0a3.4,3.4,0,0,0-.631-4.17v-.077a6.743,6.743,0,0,1,.077-9.781v-.064a3.436,3.436,0,0,0,.695-4.144v-.077a6.525,6.525,0,0,1-.425-5.3,6.628,6.628,0,0,1,3.346-4.041h.09a3.462,3.462,0,0,0,1.918-3.732v-.09a6.756,6.756,0,0,1,5.817-7.876h.077a3.462,3.462,0,0,0,3.011-2.947v-.077a6.589,6.589,0,0,1,2.754-4.543A6.7,6.7,0,0,1,24.57,7.657h.077A3.385,3.385,0,0,0,28.47,5.791V5.727a6.731,6.731,0,0,1,9.33-2.96h.09a3.436,3.436,0,0,0,4.144-.631l.064-.064A6.8,6.8,0,0,1,47.014,0a6.718,6.718,0,0,1,4.877,2.149h.064a3.436,3.436,0,0,0,4.144.708h.077a6.525,6.525,0,0,1,5.3-.425,6.435,6.435,0,0,1,3.977,3.526v.077a3.449,3.449,0,0,0,3.732,1.918Z" transform="translate(222.029 15.086)" fill="url(#linear-gradient-9)"/>
    <path id="Path-12" data-name="Path" d="M68.182,7.913h-.09a5.032,5.032,0,0,1-5.482-2.844V4.992A5.148,5.148,0,0,0,55.57,2.663h0a5.148,5.148,0,0,1-6.151-1.017V1.569a5.148,5.148,0,0,0-7.4,0l-.077.077a5.148,5.148,0,0,1-6.126.914h0A5.045,5.045,0,0,0,31.8,2.174a4.929,4.929,0,0,0-3.05,2.574v.09a5.148,5.148,0,0,1-5.534,2.78h-.09a5.032,5.032,0,0,0-3.938.849,4.98,4.98,0,0,0-2.316,3.385v.077a5.07,5.07,0,0,1-4.427,4.35h-.077a5.148,5.148,0,0,0-4.414,5.971v.077A5.07,5.07,0,0,1,5.11,27.848H5.033A5.083,5.083,0,0,0,2.69,35.016v.077a5.07,5.07,0,0,1-1.017,6.113l-.077.077A4.942,4.942,0,0,0,0,44.964a5.032,5.032,0,0,0,1.544,3.719h.064a5.148,5.148,0,0,1,.927,6.126v.09a5.148,5.148,0,0,0,2.226,7.065H4.84a5.148,5.148,0,0,1,2.793,5.572h0a5.148,5.148,0,0,0,4.3,6.049h.09a5.045,5.045,0,0,1,4.324,4.4v.09a5.148,5.148,0,0,0,5.971,4.478h.077A5.148,5.148,0,0,1,27.9,85.4v.077a4.955,4.955,0,0,0,3,2.69,5.148,5.148,0,0,0,4.015-.322h.077a5.07,5.07,0,0,1,6.113.991v.077a5.148,5.148,0,0,0,7.413,0h0A5.006,5.006,0,0,1,54.643,88h.09a4.774,4.774,0,0,0,3.989.386A4.968,4.968,0,0,0,61.8,85.81v-.09a5.148,5.148,0,0,1,5.572-2.754h.064a5.045,5.045,0,0,0,3.861-.875,4.968,4.968,0,0,0,2.111-3.449v-.09a5.07,5.07,0,0,1,4.4-4.337h.09a5.148,5.148,0,0,0,4.4-5.971V68.09a5.058,5.058,0,0,1,3.076-5.5h.09a5.148,5.148,0,0,0,2.342-7.039h0a5.148,5.148,0,0,1,.991-6.139h.077a4.916,4.916,0,0,0,1.647-3.848,4.762,4.762,0,0,0-1.544-3.693V41.8a5.058,5.058,0,0,1-1.03-6.139h0a5.148,5.148,0,0,0-2.2-7.078h-.09A5.07,5.07,0,0,1,82.9,23.034v-.09a5.045,5.045,0,0,0-.875-3.938,4.98,4.98,0,0,0-3.449-2.072h-.09a5.148,5.148,0,0,1-4.337-4.44v-.077A5.148,5.148,0,0,0,68.182,8Z" transform="translate(223.486 16.748)" fill="url(#linear-gradient-10)"/>
    <path id="Shape" d="M33.152,66.3A33.181,33.181,0,1,1,48.01,62.787,33.241,33.241,0,0,1,33.152,66.3h0Zm.03-53.165A20.051,20.051,0,0,0,21.263,49.325a19.9,19.9,0,0,0,11.888,3.917A20.142,20.142,0,0,0,49.3,45.1V45.07a20.133,20.133,0,0,0-4.235-28.016A19.888,19.888,0,0,0,33.182,13.14Z" transform="translate(235.585 28.829)" fill="#fff"/>
    <rect id="Rectangle-14" data-name="Rectangle" width="86.597" height="86.597" rx="12.35" transform="translate(222.469 206.989) rotate(-12.27)" fill="#64edb2"/>
    <path id="Shape-2" data-name="Shape" d="M19.3,47.938a19.821,19.821,0,0,1-6.743-.36,11.431,11.431,0,0,1-5.148-3.153A14.879,14.879,0,0,1,3.84,37.99l5.032-2.123a13.6,13.6,0,0,0,3.514,5.7,7.716,7.716,0,0,0,5.933,1.943l-3.6-16.588A22.066,22.066,0,0,1,7.6,25.867a9.944,9.944,0,0,1-4.672-3.011,11.8,11.8,0,0,1-2.574-5.3A11.686,11.686,0,0,1,2.335,7.7,14.043,14.043,0,0,1,9.528,3.153L8.988.67,12.064,0,12.6,2.5A13.09,13.09,0,0,1,20.39,3.59a12.115,12.115,0,0,1,5.8,6.885l-5.212,1.983a9.2,9.2,0,0,0-2.948-4.286,7.244,7.244,0,0,0-4.478-1.287L16.826,21.9a43.812,43.812,0,0,1,5.547.4,13.213,13.213,0,0,1,4.53,1.75,10.562,10.562,0,0,1,3.153,3.128A13.707,13.707,0,0,1,30.4,41.336a12.948,12.948,0,0,1-8.082,5.817l1.145,5.263-3.037.734Z" transform="translate(257.868 213.53)" fill="#fff"/>
    <path id="Path-13" data-name="Path" d="M6.4,50.754c4.092,3.076,9.691,3.256,14.709,2.291,4.2-.811,8.905-3.114,9.42-7.361.8-6.7,5.045-12.56,10.077-17.065s10.913-7.94,16.331-11.981c3.076-2.3,6.28-5.418,6.036-9.253A8.12,8.12,0,0,0,57.427.757,17.013,17.013,0,0,0,48.418.474,16.1,16.1,0,0,0,39.6,4.515a32.469,32.469,0,0,0-3.655,5.508,27.025,27.025,0,0,1-15.893,11.7c-7.245,1.9-16.73,2.7-19.471,11.3C-1.308,38.812,1.6,47.151,6.4,50.754Z" transform="translate(58.885 0.276)" fill="#dde6fa"/>
    <path id="Path-14" data-name="Path" d="M33.419,2.7A14.748,14.748,0,0,1,37.2,5a15.984,15.984,0,0,1,4.414,7.786c.695,2.407,1,5.289-.695,7.13-1.892,2.046-5.289,1.673-7.722.4s-4.62-3.256-7.271-4.118c-3.706-1.184-7.722,0-11.582.631-4.388.721-9.575.36-12.329-3.153A9.974,9.974,0,0,1,.409,10.494C-3.85-3.662,26.367-.419,33.419,2.7Z" transform="translate(37.799 263.907)" fill="#64edb2"/>
  </g>
</svg>
